<svg width="1448" height="1044" viewBox="0 0 1448 1044" fill="none" xmlns="http://www.w3.org/2000/svg">
<path d="M1305.14 603.15C1291.62 622.584 1302.08 660.395 1305.02 681.424C1314.63 750.154 1341.52 938.984 1341.52 938.984" stroke="#8E8E8E" stroke-width="14" stroke-miterlimit="10"/>
<path d="M1368.08 609.455C1352.96 586.906 1329.4 579.997 1307.05 603.335C1290.68 620.434 1299.46 645.071 1302.4 666.101" stroke="#5C5C5C" stroke-width="16" stroke-miterlimit="10"/>
<path d="M1330.21 922.461L1348.29 918.133L1356.41 950.645L1335.25 955.046L1330.21 922.461Z" fill="black"/>
<path d="M321.299 929.834H348.086L348.088 814.441H563.813L563.81 929.834H591.176L591.177 803.664H590.739V779.059H321.3V804.007" fill="#FBAD18"/>
<path d="M592.998 786.887H317.3C306.879 786.887 298.352 778.361 298.352 767.94V743.116C298.352 732.695 306.879 724.168 317.3 724.168H592.998C603.418 724.168 611.945 732.695 611.945 743.116V767.94C611.945 778.361 603.418 786.887 592.998 786.887Z" fill="#FFCB05"/>
<path d="M932.131 932.783H958.918L958.921 817.391H1174.64L1174.64 932.783H1202.01L1202.01 806.613H1201.57V782.009H932.132V806.956" fill="#FBAD18"/>
<path d="M1203.83 789.836H928.132C917.711 789.836 909.185 781.31 909.185 770.889V746.065C909.185 735.644 917.71 727.117 928.132 727.117H1203.83C1214.25 727.117 1222.78 735.644 1222.78 746.065V770.889C1222.78 781.311 1214.25 789.836 1203.83 789.836Z" fill="#FFCB05"/>
<path d="M944.122 683.983L971.34 644.515L1020.48 698.608L988.115 853.787L959.494 852.236L944.122 683.983Z" fill="#00A1CD"/>
<path d="M291.235 510.31C291.235 510.31 263.4 537.657 241.187 540.561C218.972 543.465 172.692 539.511 172.692 539.511" stroke="#00A1CD" stroke-width="20" stroke-miterlimit="10"/>
<path d="M467.661 77.658C343.012 77.658 241.964 109.706 241.964 246.617C241.964 281.341 246.397 316.35 251.065 350.664C256.248 388.761 262.694 426.744 272.298 463.928C276.52 480.273 281.517 494.615 279.9 511.781C278.482 526.825 274.438 542.122 267.989 555.686C250.595 592.272 245.972 629.936 258.85 669.007C267.396 694.932 288.085 715.597 311.239 728.566C359.241 755.453 416.511 754.072 469.435 754.072C527.563 754.072 594.956 749.452 642.632 710.618C662.293 694.602 676.543 672.906 684.453 648.312C689.13 633.771 690.67 619.237 692.491 604.173C695.011 583.335 689.464 565.356 681.923 546.45C670.602 518.068 657.651 479.774 665.125 448.667C682.482 376.157 693.359 280.601 693.359 243.846C693.359 106.936 592.31 77.658 467.661 77.658Z" fill="#00A1CD"/>
<path d="M93.1008 543.21C90.4738 542.511 89.2528 539.236 90.3878 535.933C91.5228 532.628 94.5988 530.497 97.2258 531.196L115.442 536.046C115.301 534.317 115.355 532.515 115.574 530.678L93.7338 524.863C91.1078 524.164 89.8868 520.889 91.0208 517.585C92.1558 514.281 95.2328 512.149 97.8588 512.85L119.699 518.663C120.573 517.193 121.547 515.82 122.611 514.565L103.841 509.567C101.215 508.868 99.9938 505.593 101.128 502.288C102.263 498.984 105.34 496.853 107.966 497.552L139.242 505.879C140.32 505.882 141.389 506.021 142.445 506.249L137.244 502.359C135.062 500.728 134.79 496.974 136.641 494.017C138.491 491.06 141.79 489.975 143.972 491.607L171.772 512.396C172.841 513.195 173.445 514.508 173.571 515.984C179.521 521.051 181.69 530.889 178.282 540.816C173.944 553.451 162.178 561.603 152.135 558.929L127.35 552.33C127.173 552.283 127.011 552.209 126.837 552.157C126.747 552.139 126.653 552.144 126.564 552.12L93.1008 543.21Z" fill="#A2CCED"/>
<path d="M500.919 726.77L524.835 893.184H553.498L577.413 726.699" fill="#00A1CD"/>
<path d="M387.966 726.255L411.881 893.184H440.544L464.459 726.771" fill="#00A1CD"/>
<path d="M553.218 934.549H525.117L510.339 799.826H568.139L553.218 934.549Z" fill="#5652A3"/>
<path d="M439.961 933.629H411.859L396.938 798.904H454.738L439.961 933.629Z" fill="#5652A3"/>
<path d="M1027.73 696.395L1051.65 853.098H1080.31L1104.23 696.328" fill="#00A1CD"/>
<path d="M1078.03 892.051H1051.93L1041.15 791.951H1090.95L1078.03 892.051Z" fill="#ED1651"/>
<path d="M985.471 891.842L957.411 890.642L952.378 790.051L1002.09 792.52L985.471 891.842Z" fill="#ED1651"/>
<path d="M431.444 302.557C431.444 283.407 446.967 267.881 466.119 267.881C485.27 267.881 500.795 283.406 500.795 302.557" fill="white"/>
<path d="M521.196 302.557C521.196 283.407 536.721 267.881 555.872 267.881C575.023 267.881 590.547 283.406 590.547 302.557" fill="white"/>
<path d="M438.903 257.668C438.903 257.668 449.068 237.081 471.393 249.218" stroke="#0D4060" stroke-width="5" stroke-miterlimit="10"/>
<path d="M577.987 257.668C577.987 257.668 570.562 236.679 548.237 248.816" stroke="#0D4060" stroke-width="5" stroke-miterlimit="10"/>
<path d="M461.12 302.557C461.12 294.274 467.836 287.557 476.12 287.557C484.404 287.557 491.119 294.274 491.119 302.557" fill="#0D4060"/>
<path d="M550.872 302.557C550.872 294.274 557.588 287.557 565.872 287.557C574.156 287.557 580.87 294.274 580.87 302.557" fill="#0D4060"/>
<path d="M555.572 334.157C555.572 334.157 547.593 359.765 508.343 358.979C469.093 358.193 465.993 334.157 465.993 334.157H555.572Z" fill="#0D4060"/>
<g opacity="0.7">
<g opacity="0.7">
<path opacity="0.7" d="M431.444 331.724C431.444 335.867 421.135 339.225 408.421 339.225C395.707 339.225 385.398 335.867 385.398 331.724C385.398 327.581 395.706 324.223 408.421 324.223C421.136 324.223 431.444 327.581 431.444 331.724Z" fill="#A2CCED"/>
</g>
</g>
<g opacity="0.7">
<g opacity="0.7">
<path opacity="0.7" d="M628.168 331.724C628.168 335.867 617.86 339.225 605.145 339.225C592.43 339.225 582.123 335.867 582.123 331.724C582.123 327.581 592.43 324.223 605.145 324.223C617.86 324.223 628.168 327.581 628.168 331.724Z" fill="#A2CCED"/>
</g>
</g>
<path d="M105.966 565.351H57.9609C50.5369 565.351 44.4619 559.277 44.4619 551.853V494.75C44.4619 484.25 53.0539 478.66 63.5539 478.66H101.601C111.425 478.66 119.462 483.699 119.462 493.521V551.853C119.463 559.277 113.39 565.351 105.966 565.351Z" fill="white"/>
<path d="M112.464 490.174C112.464 493.25 99.9798 495.745 82.1108 495.745C64.2418 495.745 51.7588 493.25 51.7588 490.174C51.7588 487.098 64.2418 484.604 82.1108 484.604C99.9798 484.604 112.464 487.099 112.464 490.174Z" fill="#AA4925"/>
<path d="M118.464 499.506C130.062 499.506 139.464 508.908 139.464 520.506C139.464 532.104 130.062 541.506 118.464 541.506" stroke="white" stroke-width="6" stroke-miterlimit="10"/>
<path d="M85.0219 465.453C77.0939 463.461 71.7599 451.237 70.8209 443.117C69.4999 431.686 77.8989 426.662 84.3999 419.186C92.0949 410.341 94.9649 399.655 92.0739 388.201C89.2809 377.138 82.2999 366.861 70.4839 364.461" stroke="#0D4060" stroke-miterlimit="10"/>
<path d="M62.168 394.829C67.666 403.828 64.332 412.327 58.76 420.203C55.585 424.692 52.931 430.952 56.178 435.39" stroke="#0D4060" stroke-miterlimit="10"/>
<path d="M100.835 449.355C100.835 449.355 89.5017 442.688 100.835 428.021" stroke="#0D4060" stroke-miterlimit="10"/>
<path d="M1331.59 402.429C1324.23 558.453 1181.95 760.314 1048.77 765.557C900.16 771.407 793.854 536.617 801.208 380.593C808.562 224.57 928.98 193.642 1075.4 200.542C1221.82 207.444 1338.94 246.405 1331.59 402.429Z" fill="#00A1CD"/>
<path d="M895.192 386.03C897.462 363.677 917.422 347.394 939.776 349.665C962.13 351.935 978.412 371.895 976.142 394.249" fill="white"/>
<path d="M1016.02 402.491C1018.29 380.137 1038.25 363.855 1060.6 366.126C1082.96 368.395 1099.24 388.356 1096.97 410.71" fill="white"/>
<path d="M1026.74 441.136C1026.74 441.136 1017.1 463.174 982.195 458.596C947.284 454.018 946.898 432.286 946.898 432.286L1026.74 441.136Z" fill="#0D4060"/>
<path d="M903.721 576.186C903.721 576.186 828.029 590.595 819.581 615.144C804.006 660.405 861.629 674.234 861.629 674.234" stroke="#00A1CD" stroke-width="20" stroke-miterlimit="10"/>
<g opacity="0.7">
<g opacity="0.7">
<path opacity="0.7" d="M904.757 421.932C904.266 426.769 891.835 429.466 876.994 427.959C862.153 426.453 850.518 421.311 851.01 416.475C851.501 411.639 863.931 408.941 878.773 410.448C893.613 411.955 905.248 417.096 904.757 421.932Z" fill="#A2CCED"/>
</g>
</g>
<g opacity="0.7">
<g opacity="0.7">
<path opacity="0.7" d="M1126.42 448.334C1125.93 453.17 1113.5 455.869 1098.65 454.361C1083.81 452.855 1072.18 447.714 1072.67 442.877C1073.16 438.041 1085.59 435.343 1100.43 436.85C1115.27 438.357 1126.91 443.499 1126.42 448.334Z" fill="#A2CCED"/>
</g>
</g>
<path d="M928.07 411.311C956.503 413.249 980.383 402.626 981.409 387.583C982.434 372.54 960.216 358.775 931.783 356.837C903.35 354.899 879.469 365.523 878.444 380.565C877.419 395.608 899.637 409.374 928.07 411.311Z" stroke="#020203" stroke-width="3" stroke-miterlimit="10"/>
<path d="M1060.54 427.242C1088.98 429.18 1112.86 418.556 1113.88 403.514C1114.91 388.471 1092.69 374.705 1064.26 372.768C1035.82 370.83 1011.94 381.453 1010.92 396.496C1009.89 411.539 1032.11 425.304 1060.54 427.242Z" stroke="#020203" stroke-width="3" stroke-miterlimit="10"/>
<path d="M979.427 392.601C979.427 392.601 996.735 372.818 1010.89 396.518" stroke="#020203" stroke-width="3" stroke-miterlimit="10"/>
<path d="M941.629 704.25H989.633C997.057 704.25 1003.13 698.177 1003.13 690.752V633.649C1003.13 624.763 987.927 620.559 979.04 620.559H951.993C942.169 620.559 928.131 625.597 928.131 635.42V690.752C928.131 698.176 934.205 704.25 941.629 704.25Z" fill="white"/>
<path d="M935.131 629.073C935.131 632.149 947.615 634.644 965.483 634.644C983.35 634.644 995.836 632.149 995.836 629.073C995.836 625.997 983.351 623.503 965.483 623.503C947.615 623.503 935.131 625.997 935.131 629.073Z" fill="#AA4925"/>
<path d="M929.131 638.404C917.533 638.404 908.131 647.805 908.131 659.404C908.131 671.002 917.533 680.404 929.131 680.404" stroke="white" stroke-width="6" stroke-miterlimit="10"/>
<path d="M930.036 707.607C932.735 707.917 935.069 705.314 935.222 701.824C935.374 698.334 933.29 695.225 930.59 694.916L911.861 692.769C912.625 691.211 913.234 689.515 913.702 687.725L936.155 690.299C938.855 690.608 941.189 688.007 941.341 684.516C941.492 681.027 939.408 677.917 936.709 677.608L914.255 675.034C913.979 673.346 913.575 671.712 913.043 670.154L932.339 672.365C935.04 672.674 937.374 670.072 937.526 666.582C937.678 663.091 935.594 659.982 932.894 659.672L900.739 655.988C899.734 655.596 898.688 655.335 897.622 655.162L903.885 653.443C906.512 652.722 908.138 649.327 907.496 645.898C906.855 642.469 904.182 640.254 901.554 640.974L868.079 650.16C866.791 650.513 865.749 651.515 865.092 652.842C857.702 655.383 852.086 663.747 851.629 674.234C851.046 687.58 859.017 699.467 869.343 700.651L894.824 703.571C895.006 703.592 895.184 703.584 895.365 703.597C895.456 703.615 895.541 703.653 895.634 703.664L930.036 707.607Z" fill="#A2CCED"/>
<path d="M759.383 552.653C759.383 552.653 742.757 613.761 672.638 596.186" stroke="#00A1CD" stroke-width="20" stroke-miterlimit="10"/>
<path d="M806.676 492.144C807.566 489.567 805.685 486.751 802.496 485.889C799.306 485.027 795.968 486.431 795.078 489.009L788.904 506.893C787.636 505.828 786.205 504.885 784.656 504.062L792.058 482.621C792.949 480.042 791.067 477.227 787.878 476.366C784.688 475.503 781.35 476.907 780.46 479.485L773.057 500.926C771.437 500.852 769.837 500.914 768.279 501.115L774.64 482.688C775.53 480.11 773.65 477.294 770.46 476.432C767.271 475.57 763.933 476.973 763.043 479.552L752.441 510.257C751.855 511.161 751.378 512.129 750.981 513.138L750.794 506.659C750.716 503.942 747.946 501.657 744.634 501.584C741.324 501.509 738.679 503.673 738.757 506.391L739.747 541.019C739.785 542.351 740.477 543.575 741.557 544.49C742.249 552.239 748.717 559.444 758.3 562.034C770.496 565.332 783.26 559.964 786.665 550.104L795.066 525.77C795.126 525.597 795.158 525.421 795.211 525.247C795.248 525.162 795.303 525.086 795.334 524.998L806.676 492.144Z" fill="#A2CCED"/>
<path d="M1258.12 548.083C1258.12 548.083 1326.4 523.209 1349.83 534.393C1373.26 545.575 1330.69 581.803 1330.69 581.803" stroke="#00A1CD" stroke-width="20" stroke-miterlimit="10"/>
<path d="M1318.42 653.088C1316.97 655.386 1313.48 655.573 1310.67 653.506C1307.85 651.436 1306.73 647.862 1308.19 645.566L1318.25 629.626C1316.56 629.246 1314.86 628.656 1313.17 627.899L1301.1 647.008C1299.65 649.305 1296.16 649.492 1293.34 647.424C1290.53 645.355 1289.41 641.781 1290.86 639.485L1302.93 620.376C1301.79 619.104 1300.77 617.764 1299.89 616.374L1289.52 632.795C1288.07 635.093 1284.58 635.281 1281.76 633.211C1278.95 631.143 1277.83 627.569 1279.28 625.272L1296.56 597.906C1296.89 596.879 1297.34 595.901 1297.87 594.961L1292.61 598.764C1290.4 600.361 1286.74 599.497 1284.47 596.849C1282.2 594.2 1282.15 590.727 1284.35 589.132L1312.49 568.806C1313.58 568.024 1315.01 567.84 1316.46 568.159C1323.07 563.993 1333.1 564.86 1341.56 571.075C1352.33 578.988 1356.59 592.65 1351.04 601.437L1337.35 623.122C1337.25 623.277 1337.13 623.41 1337.03 623.56C1336.99 623.642 1336.96 623.733 1336.91 623.811L1318.42 653.088Z" fill="#A2CCED"/>
<path d="M411.25 933.77C411.25 909.055 430.117 889.02 453.39 889.02C476.663 889.02 495.529 909.055 495.529 933.77" fill="#504B48"/>
<path d="M525.167 933.77C525.167 909.055 544.034 889.02 567.307 889.02C590.58 889.02 609.446 909.055 609.446 933.77" fill="#504B48"/>
<path d="M907.359 893.256C907.359 870.475 924.748 852.007 946.201 852.007C967.653 852.007 985.044 870.475 985.044 893.256" fill="#504B48"/>
<path d="M997.927 893.256C997.927 870.475 1015.32 852.007 1036.77 852.007C1058.22 852.007 1075.61 870.475 1075.61 893.256" fill="#504B48"/>
<path d="M902.914 387.863C903.914 379.639 911.39 373.783 919.614 374.783C927.837 375.783 933.693 383.26 932.694 391.482" fill="#0D4060"/>
<path d="M1025.21 404.153C1026.21 395.929 1033.68 390.075 1041.91 391.073C1050.13 392.073 1055.98 399.549 1054.99 407.772" fill="#0D4060"/>
<path d="M904.43 339.214C904.43 339.214 916.368 318.493 938.824 330.386" stroke="#0D4060" stroke-width="5" stroke-miterlimit="10"/>
<path d="M1094.7 355.128C1094.7 355.128 1094.54 340.739 1064.83 344.604" stroke="#0D4060" stroke-width="5" stroke-miterlimit="10"/>
</svg>
