<svg width="970" height="1444" viewBox="0 0 970 1444" fill="none" xmlns="http://www.w3.org/2000/svg">
<path d="M880.029 1417.08H101.762C74.262 1417.08 51.762 1394.58 51.762 1367.08V111.175C51.762 83.6748 74.262 61.1748 101.762 61.1748H880.03C907.53 61.1748 930.03 83.6748 930.03 111.175V1367.08C930.029 1394.58 907.529 1417.08 880.029 1417.08Z" fill="white"/>
<path d="M728.271 1156.2H607.64V1213.48H728.271V1156.2Z" fill="white"/>
<path d="M728.271 1156.2H607.64V1213.48H728.271V1156.2Z" stroke="#0B4061" stroke-width="2" stroke-miterlimit="10"/>
<path d="M711.561 1205.02C712.632 1200.05 717.024 1196.67 721.903 1196.67V1173.68C721.164 1173.68 720.416 1173.61 719.665 1173.45C714.485 1172.33 711.032 1167.59 711.354 1162.45H625.34C625.399 1163.4 625.339 1164.37 625.128 1165.34C624.056 1170.3 619.664 1173.69 614.787 1173.68V1196.67C615.524 1196.67 616.273 1196.75 617.023 1196.91C621.985 1197.98 625.37 1202.37 625.366 1207.25H711.323C711.323 1206.51 711.397 1205.77 711.561 1205.02Z" fill="white"/>
<path d="M711.561 1205.02C712.632 1200.05 717.024 1196.67 721.903 1196.67V1173.68C721.164 1173.68 720.416 1173.61 719.665 1173.45C714.485 1172.33 711.032 1167.59 711.354 1162.45H625.34C625.399 1163.4 625.339 1164.37 625.128 1165.34C624.056 1170.3 619.664 1173.69 614.787 1173.68V1196.67C615.524 1196.67 616.273 1196.75 617.023 1196.91C621.985 1197.98 625.37 1202.37 625.366 1207.25H711.323C711.323 1206.51 711.397 1205.77 711.561 1205.02Z" stroke="#0B4061" stroke-width="2" stroke-miterlimit="10"/>
<path d="M681.587 1185.26C681.587 1192.3 675.884 1198 668.85 1198C661.816 1198 656.113 1192.3 656.113 1185.26C656.113 1178.23 661.816 1172.53 668.85 1172.53C675.884 1172.53 681.587 1178.23 681.587 1185.26Z" fill="white"/>
<path d="M668.85 1198C675.884 1198 681.587 1192.3 681.587 1185.26C681.587 1178.23 675.884 1172.53 668.85 1172.53C661.816 1172.53 656.113 1178.23 656.113 1185.26C656.113 1192.3 661.816 1198 668.85 1198Z" stroke="#0B4061" stroke-width="2" stroke-miterlimit="10"/>
<path d="M720.594 1167.19H599.963V1224.48H720.594V1167.19Z" fill="white"/>
<path d="M720.594 1167.19H599.963V1224.48H720.594V1167.19Z" stroke="#0B4061" stroke-width="2" stroke-miterlimit="10"/>
<path d="M703.883 1216.01C704.955 1211.05 709.347 1207.66 714.226 1207.67V1184.67C713.487 1184.67 712.739 1184.6 711.988 1184.44C706.808 1183.32 703.355 1178.58 703.676 1173.45H617.663C617.722 1174.39 617.662 1175.36 617.451 1176.33C616.379 1181.29 611.987 1184.68 607.11 1184.68V1207.67C607.847 1207.67 608.596 1207.74 609.346 1207.9C614.308 1208.98 617.693 1213.37 617.689 1218.25H703.646C703.646 1217.51 703.721 1216.76 703.883 1216.01Z" fill="white"/>
<path d="M703.883 1216.01C704.955 1211.05 709.347 1207.66 714.226 1207.67V1184.67C713.487 1184.67 712.739 1184.6 711.988 1184.44C706.808 1183.32 703.355 1178.58 703.676 1173.45H617.663C617.722 1174.39 617.662 1175.36 617.451 1176.33C616.379 1181.29 611.987 1184.68 607.11 1184.68V1207.67C607.847 1207.67 608.596 1207.74 609.346 1207.9C614.308 1208.98 617.693 1213.37 617.689 1218.25H703.646C703.646 1217.51 703.721 1216.76 703.883 1216.01Z" stroke="#0B4061" stroke-width="2" stroke-miterlimit="10"/>
<path d="M673.91 1196.26C673.91 1203.29 668.207 1208.99 661.173 1208.99C654.139 1208.99 648.437 1203.29 648.437 1196.26C648.437 1189.22 654.139 1183.52 661.173 1183.52C668.207 1183.52 673.91 1189.22 673.91 1196.26Z" fill="white"/>
<path d="M661.174 1208.99C668.208 1208.99 673.91 1203.29 673.91 1196.26C673.91 1189.22 668.208 1183.52 661.174 1183.52C654.14 1183.52 648.438 1189.22 648.438 1196.26C648.438 1203.29 654.14 1208.99 661.174 1208.99Z" stroke="#0B4061" stroke-width="2" stroke-miterlimit="10"/>
<path d="M712.963 1178.83H592.331V1236.12H712.963V1178.83Z" fill="white"/>
<path d="M712.963 1178.83H592.331V1236.12H712.963V1178.83Z" stroke="#0B4061" stroke-width="2" stroke-miterlimit="10"/>
<path d="M696.251 1227.65C697.323 1222.69 701.715 1219.3 706.594 1219.31V1196.32C705.855 1196.32 705.107 1196.24 704.357 1196.08C699.177 1194.96 695.723 1190.22 696.044 1185.09H610.031C610.091 1186.04 610.03 1187 609.82 1187.97C608.747 1192.94 604.356 1196.32 599.479 1196.32V1219.31C600.216 1219.31 600.964 1219.38 601.715 1219.55C606.676 1220.62 610.063 1225.01 610.057 1229.89H696.014C696.016 1229.15 696.089 1228.4 696.251 1227.65Z" fill="white"/>
<path d="M696.251 1227.65C697.323 1222.69 701.715 1219.3 706.594 1219.31V1196.32C705.855 1196.32 705.107 1196.24 704.357 1196.08C699.177 1194.96 695.723 1190.22 696.044 1185.09H610.031C610.091 1186.04 610.03 1187 609.82 1187.97C608.747 1192.94 604.356 1196.32 599.479 1196.32V1219.31C600.216 1219.31 600.964 1219.38 601.715 1219.55C606.676 1220.62 610.063 1225.01 610.057 1229.89H696.014C696.016 1229.15 696.089 1228.4 696.251 1227.65Z" stroke="#0B4061" stroke-width="2" stroke-miterlimit="10"/>
<path d="M666.278 1207.9C666.278 1214.93 660.576 1220.63 653.542 1220.63C646.507 1220.63 640.804 1214.93 640.804 1207.9C640.804 1200.86 646.507 1195.16 653.542 1195.16C660.576 1195.16 666.278 1200.86 666.278 1207.9Z" fill="white"/>
<path d="M653.541 1220.64C660.575 1220.64 666.278 1214.93 666.278 1207.9C666.278 1200.86 660.575 1195.16 653.541 1195.16C646.507 1195.16 640.804 1200.86 640.804 1207.9C640.804 1214.93 646.507 1220.64 653.541 1220.64Z" stroke="#0B4061" stroke-width="2" stroke-miterlimit="10"/>
<path d="M699.225 803.756H578.594V861.042H699.225V803.756Z" fill="white"/>
<path d="M699.225 803.756H578.594V861.042H699.225V803.756Z" stroke="#0B4061" stroke-width="2" stroke-miterlimit="10"/>
<path d="M682.514 852.574C683.586 847.612 687.979 844.226 692.857 844.23V821.24C692.118 821.239 691.37 821.166 690.619 821.004C685.439 819.883 681.986 815.144 682.307 810.011H596.294C596.354 810.958 596.293 811.926 596.082 812.897C595.01 817.86 590.618 821.245 585.741 821.241V844.231C586.479 844.233 587.228 844.305 587.978 844.469C592.939 845.541 596.324 849.932 596.32 854.81H682.277C682.277 854.073 682.353 853.324 682.514 852.574Z" fill="white"/>
<path d="M682.514 852.574C683.586 847.612 687.979 844.226 692.857 844.23V821.24C692.118 821.239 691.37 821.166 690.619 821.004C685.439 819.883 681.986 815.144 682.307 810.011H596.294C596.354 810.958 596.293 811.926 596.082 812.897C595.01 817.86 590.618 821.245 585.741 821.241V844.231C586.479 844.233 587.228 844.305 587.978 844.469C592.939 845.541 596.324 849.932 596.32 854.81H682.277C682.277 854.073 682.353 853.324 682.514 852.574Z" stroke="#0B4061" stroke-width="2" stroke-miterlimit="10"/>
<path d="M652.541 832.821C652.541 839.855 646.838 845.556 639.804 845.556C632.771 845.556 627.067 839.855 627.067 832.821C627.067 825.786 632.771 820.084 639.804 820.084C646.838 820.084 652.541 825.786 652.541 832.821Z" fill="white"/>
<path d="M639.804 845.558C646.838 845.558 652.541 839.855 652.541 832.821C652.541 825.787 646.838 820.084 639.804 820.084C632.77 820.084 627.067 825.787 627.067 832.821C627.067 839.855 632.77 845.558 639.804 845.558Z" stroke="#0B4061" stroke-width="2" stroke-miterlimit="10"/>
<path d="M686.586 462.638H565.954V519.924H686.586V462.638Z" fill="white"/>
<path d="M686.586 462.638H565.954V519.924H686.586V462.638Z" stroke="#0B4061" stroke-width="2" stroke-miterlimit="10"/>
<path d="M669.874 511.456C670.946 506.494 675.338 503.109 680.217 503.113V480.122C679.479 480.121 678.73 480.048 677.98 479.886C672.8 478.765 669.346 474.026 669.667 468.893H583.654C583.714 469.84 583.653 470.808 583.443 471.78C582.37 476.742 577.979 480.127 573.102 480.123V503.114C573.839 503.115 574.587 503.187 575.338 503.351C580.299 504.423 583.686 508.814 583.68 513.692H669.637C669.639 512.955 669.712 512.206 669.874 511.456Z" fill="white"/>
<path d="M669.874 511.456C670.946 506.494 675.338 503.109 680.217 503.113V480.122C679.479 480.121 678.73 480.048 677.98 479.886C672.8 478.765 669.346 474.026 669.667 468.893H583.654C583.714 469.84 583.653 470.808 583.443 471.78C582.37 476.742 577.979 480.127 573.102 480.123V503.114C573.839 503.115 574.587 503.187 575.338 503.351C580.299 504.423 583.686 508.814 583.68 513.692H669.637C669.639 512.955 669.712 512.206 669.874 511.456Z" stroke="#0B4061" stroke-width="2" stroke-miterlimit="10"/>
<path d="M639.901 491.702C639.901 498.737 634.199 504.439 627.165 504.439C620.13 504.439 614.427 498.737 614.427 491.702C614.427 484.668 620.13 478.966 627.165 478.966C634.199 478.966 639.901 484.668 639.901 491.702Z" fill="white"/>
<path d="M627.164 504.439C634.198 504.439 639.901 498.736 639.901 491.702C639.901 484.667 634.198 478.965 627.164 478.965C620.13 478.965 614.427 484.667 614.427 491.702C614.427 498.736 620.13 504.439 627.164 504.439Z" stroke="#0B4061" stroke-width="2" stroke-miterlimit="10"/>
<path d="M685.857 638.622H565.225V695.908H685.857V638.622Z" fill="white"/>
<path d="M685.857 638.622H565.225V695.908H685.857V638.622Z" stroke="#0B4061" stroke-width="2" stroke-miterlimit="10"/>
<path d="M669.146 687.44C670.217 682.478 674.609 679.092 679.488 679.097V656.106C678.749 656.105 678.001 656.032 677.251 655.869C672.071 654.749 668.617 650.01 668.939 644.878H582.925C582.985 645.824 582.924 646.792 582.714 647.764C581.641 652.726 577.25 656.111 572.372 656.107V679.098C573.11 679.098 573.858 679.171 574.609 679.334C579.57 680.407 582.956 684.797 582.951 689.676H668.908C668.909 688.938 668.982 688.19 669.146 687.44Z" fill="white"/>
<path d="M669.146 687.44C670.217 682.478 674.609 679.092 679.488 679.097V656.106C678.749 656.105 678.001 656.032 677.251 655.869C672.071 654.749 668.617 650.01 668.939 644.878H582.925C582.985 645.824 582.924 646.792 582.714 647.764C581.641 652.726 577.25 656.111 572.372 656.107V679.098C573.11 679.098 573.858 679.171 574.609 679.334C579.57 680.407 582.956 684.797 582.951 689.676H668.908C668.909 688.938 668.982 688.19 669.146 687.44Z" stroke="#0B4061" stroke-width="2" stroke-miterlimit="10"/>
<path d="M639.172 667.687C639.172 674.721 633.47 680.423 626.437 680.423C619.401 680.423 613.698 674.721 613.698 667.687C613.698 660.653 619.401 654.951 626.437 654.951C633.47 654.95 639.172 660.652 639.172 667.687Z" fill="white"/>
<path d="M626.435 680.424C633.469 680.424 639.172 674.721 639.172 667.687C639.172 660.652 633.469 654.95 626.435 654.95C619.401 654.95 613.698 660.652 613.698 667.687C613.698 674.721 619.401 680.424 626.435 680.424Z" stroke="#0B4061" stroke-width="2" stroke-miterlimit="10"/>
<path d="M346.896 183.868H334.624V199.82H326.728V160.719H348.374V167.298H334.624V177.315H346.896V183.868ZM365.4 199.82C365.185 199.373 364.97 198.621 364.755 197.564C363.395 199.426 361.551 200.357 359.223 200.357C356.788 200.357 354.765 199.552 353.154 197.94C351.56 196.329 350.764 194.243 350.764 191.683C350.764 188.639 351.73 186.285 353.664 184.62C355.616 182.955 358.417 182.105 362.07 182.069H364.379V179.732C364.379 178.425 364.156 177.503 363.708 176.966C363.26 176.429 362.607 176.161 361.748 176.161C359.85 176.161 358.901 177.271 358.901 179.491H351.301C351.301 176.805 352.303 174.594 354.309 172.857C356.332 171.103 358.883 170.226 361.962 170.226C365.149 170.226 367.611 171.058 369.348 172.723C371.102 174.37 371.979 176.734 371.979 179.813V193.482C372.015 195.989 372.373 197.949 373.054 199.364V199.82H365.4ZM360.915 194.396C361.757 194.396 362.473 194.225 363.063 193.885C363.654 193.545 364.093 193.142 364.379 192.677V186.634H362.553C361.264 186.634 360.244 187.046 359.492 187.87C358.758 188.693 358.391 189.794 358.391 191.173C358.391 193.321 359.232 194.396 360.915 194.396ZM384.628 170.763L384.843 173.448C386.544 171.3 388.791 170.226 391.584 170.226C394.484 170.226 396.534 171.533 397.734 174.146C399.399 171.533 401.771 170.226 404.851 170.226C409.935 170.226 412.54 173.744 412.666 180.78V199.82H405.065V181.263C405.065 179.58 404.833 178.381 404.367 177.665C403.902 176.948 403.114 176.59 402.004 176.59C400.59 176.59 399.533 177.459 398.835 179.195L398.889 180.108V199.82H391.289V181.317C391.289 179.652 391.065 178.452 390.617 177.718C390.17 176.966 389.373 176.59 388.227 176.59C386.92 176.59 385.882 177.298 385.112 178.712V199.82H377.512V170.763H384.628ZM426.281 199.82H418.654V170.763H426.281V199.82ZM418.305 163.243C418.305 162.062 418.681 161.095 419.433 160.343C420.185 159.591 421.188 159.215 422.441 159.215C423.694 159.215 424.697 159.591 425.449 160.343C426.201 161.095 426.577 162.062 426.577 163.243C426.577 164.407 426.201 165.374 425.449 166.144C424.715 166.913 423.712 167.298 422.441 167.298C421.17 167.298 420.158 166.913 419.406 166.144C418.672 165.374 418.305 164.407 418.305 163.243ZM440.139 199.82H432.512V158.57H440.139V199.82ZM455.339 187.171L459.206 170.763H467.316L457.756 204.171C456.324 209.094 453.629 211.556 449.672 211.556C448.759 211.556 447.721 211.386 446.557 211.046V205.111L447.443 205.138C448.625 205.138 449.511 204.905 450.102 204.439C450.711 203.992 451.167 203.204 451.472 202.076L452.062 200.116L443.684 170.763H451.848L455.339 187.171ZM483.618 199.82V160.719H495.703C499.785 160.719 502.882 161.632 504.995 163.458C507.125 165.266 508.19 167.925 508.19 171.434C508.19 173.421 507.752 175.131 506.875 176.563C505.997 177.996 504.798 179.043 503.276 179.706C505.03 180.207 506.382 181.218 507.331 182.74C508.28 184.244 508.754 186.106 508.754 188.326C508.754 192.122 507.707 194.986 505.612 196.92C503.535 198.854 500.519 199.82 496.562 199.82H483.618ZM491.513 182.821V193.268H496.562C497.976 193.268 499.051 192.829 499.785 191.952C500.519 191.074 500.886 189.83 500.886 188.219C500.886 184.71 499.615 182.91 497.072 182.821H491.513ZM491.513 177.074H495.622C498.719 177.074 500.268 175.471 500.268 172.267C500.268 170.494 499.91 169.223 499.194 168.453C498.478 167.683 497.314 167.298 495.703 167.298H491.513V177.074ZM528.413 197.162C526.837 199.292 524.724 200.357 522.075 200.357C519.407 200.357 517.384 199.444 516.005 197.618C514.627 195.774 513.938 193.097 513.938 189.588V170.763H521.538V189.776C521.573 192.605 522.513 194.02 524.357 194.02C526.094 194.02 527.347 193.268 528.117 191.764V170.763H535.771V199.82H528.627L528.413 197.162ZM540.175 184.405C540.175 179.643 540.981 176.089 542.592 173.744C544.204 171.398 546.549 170.226 549.628 170.226C551.866 170.226 553.728 171.192 555.214 173.126V158.57H562.868V199.82H555.966L555.617 196.866C554.06 199.194 552.054 200.357 549.602 200.357C546.558 200.357 544.23 199.194 542.619 196.866C541.026 194.539 540.211 191.119 540.175 186.607V184.405ZM547.802 186.312C547.802 189.177 548.107 191.182 548.715 192.328C549.324 193.456 550.354 194.02 551.804 194.02C553.308 194.02 554.444 193.348 555.214 192.005V178.739C554.462 177.306 553.334 176.59 551.831 176.59C550.434 176.59 549.414 177.154 548.769 178.282C548.125 179.41 547.802 181.415 547.802 184.298V186.312ZM567.568 184.405C567.568 179.643 568.427 176.089 570.146 173.744C571.865 171.398 574.273 170.226 577.37 170.226C580.002 170.226 582.034 171.264 583.466 173.341L583.762 170.763H590.61V199.82C590.61 203.526 589.571 206.355 587.495 208.307C585.418 210.276 582.437 211.261 578.552 211.261C576.958 211.261 575.284 210.938 573.53 210.294C571.775 209.667 570.468 208.862 569.609 207.877L572.16 202.613C572.876 203.365 573.807 203.974 574.953 204.439C576.099 204.923 577.182 205.165 578.203 205.165C579.903 205.165 581.121 204.753 581.855 203.929C582.607 203.124 582.992 201.817 583.01 200.008V197.511C581.56 199.409 579.671 200.357 577.343 200.357C574.246 200.357 571.847 199.158 570.146 196.759C568.463 194.342 567.604 190.94 567.568 186.554V184.405ZM575.168 186.312C575.168 188.998 575.517 190.958 576.215 192.193C576.914 193.411 578.024 194.02 579.545 194.02C581.103 194.02 582.258 193.456 583.01 192.328V178.443C582.222 177.208 581.085 176.59 579.599 176.59C578.095 176.59 576.976 177.208 576.242 178.443C575.526 179.679 575.168 181.666 575.168 184.405V186.312ZM607.878 200.357C603.975 200.357 600.931 199.194 598.747 196.866C596.563 194.539 595.471 191.209 595.471 186.876V184.566C595.471 179.983 596.473 176.447 598.479 173.958C600.484 171.47 603.357 170.226 607.099 170.226C610.751 170.226 613.5 171.398 615.344 173.744C617.188 176.071 618.128 179.527 618.164 184.11V187.843H603.044C603.151 189.991 603.626 191.567 604.467 192.569C605.309 193.554 606.607 194.046 608.361 194.046C610.904 194.046 613.025 193.178 614.726 191.441L617.707 196.034C616.776 197.323 615.424 198.37 613.652 199.176C611.879 199.964 609.955 200.357 607.878 200.357ZM603.098 182.525H610.698V181.827C610.662 180.09 610.375 178.775 609.838 177.879C609.301 176.984 608.37 176.537 607.045 176.537C605.721 176.537 604.754 177.011 604.145 177.96C603.554 178.909 603.205 180.431 603.098 182.525ZM631.296 163.619V170.763H635.19V176.483H631.296V190.904C631.296 192.05 631.448 192.838 631.752 193.268C632.075 193.697 632.683 193.912 633.579 193.912C634.313 193.912 634.912 193.849 635.378 193.724L635.324 199.632C634.035 200.116 632.639 200.357 631.135 200.357C626.229 200.357 623.75 197.547 623.696 191.925V176.483H620.339V170.763H623.696V163.619H631.296Z" fill="#0B4061"/>
<path d="M180.249 259.15L796.529 261.866" stroke="#0B4061" stroke-width="2" stroke-miterlimit="10"/>
<path d="M797.9 1130.83L180.873 1128.88" stroke="#0B4061" stroke-width="2" stroke-miterlimit="10"/>
<path d="M179.093 1294.55L798.04 1297.43" stroke="#0B4061" stroke-width="2" stroke-miterlimit="10"/>
<path d="M178.758 1305.99L796.938 1309" stroke="#0B4061" stroke-width="2" stroke-miterlimit="10"/>
<path d="M180.688 930.114L798.16 931.947" stroke="black" stroke-miterlimit="10"/>
<path d="M180.331 738.133L797.804 739.966" stroke="black" stroke-miterlimit="10"/>
<path d="M182.81 424.042L795.813 425.988" stroke="black" stroke-miterlimit="10"/>
<path d="M180.749 588.254L798.222 590.087" stroke="black" stroke-miterlimit="10"/>
<path d="M455.712 1129.28L458.533 261.04" stroke="black" stroke-miterlimit="10"/>
<path d="M318.89 810.177C317.947 808.041 317.064 806.044 316.044 803.739C312.606 807.911 308.743 810.097 303.62 809.592C302.992 808.21 303.48 807.602 304.832 807.161C308.387 806.002 310.494 803.463 311.504 799.596C309.922 798.946 308.438 798.042 306.838 797.754C305.114 797.442 304.862 796.605 304.905 795.132C304.987 792.268 304.928 789.4 304.928 786.27H307.575C315.512 786.271 323.451 786.21 331.388 786.291C338.021 786.358 342.326 790.521 342.576 797.1H331.444V810.336C331.859 810.491 332.358 810.689 332.864 810.867C336.927 812.305 339.061 815.207 339.119 819.562C339.173 823.651 339.176 827.741 339.108 831.829C339.084 833.169 339.48 833.937 340.677 834.703C350.334 840.873 355.198 849.761 355.326 861.216C355.377 865.705 355.348 870.195 355.331 874.685C355.303 882.991 349.426 889.031 341.195 889.077C330.37 889.137 319.545 889.141 308.72 889.076C300.512 889.026 294.658 883.124 294.682 874.909C294.701 868.586 294.452 862.209 295.162 855.952C296.21 846.742 301.285 839.764 309.079 834.831C310.332 834.038 310.816 833.238 310.774 831.782C310.672 828.337 310.74 824.886 310.742 821.439C310.747 814.888 312.384 812.53 318.89 810.177ZM324.975 883.154C330.102 883.154 335.23 883.162 340.357 883.151C346.106 883.138 349.239 880.02 349.282 874.229C349.314 869.984 349.313 865.738 349.284 861.492C349.214 851.2 344.744 843.536 335.545 838.782C333.838 837.899 333.112 836.71 333.144 834.788C333.224 829.902 333.191 825.014 333.162 820.128C333.147 817.541 332.108 816.479 329.536 816.434C326.572 816.383 323.607 816.393 320.643 816.428C317.748 816.464 316.856 817.415 316.847 820.391C316.835 824.958 316.759 829.528 316.879 834.09C316.942 836.452 316.146 837.879 313.969 839.016C306.446 842.954 301.774 849.181 300.98 857.679C300.421 863.637 300.528 869.682 300.724 875.675C300.871 880.137 304.357 883.096 308.872 883.14C314.239 883.193 319.607 883.153 324.975 883.154Z" fill="#0B4061"/>
<path d="M302.319 786.473H294.384V797.332H302.319V786.473Z" fill="#0B4061"/>
<path d="M280.661 794.243C278.669 794.244 276.676 794.222 274.683 794.252C273.256 794.273 272.136 793.636 272.407 792.231C272.553 791.483 273.812 790.449 274.607 790.413C278.664 790.227 282.737 790.227 286.794 790.414C287.567 790.45 288.291 791.608 289.037 792.25C288.316 792.914 287.659 794.046 286.864 794.151C284.83 794.425 282.732 794.242 280.661 794.243Z" fill="#0B4061"/>
<path d="M289.034 785.846C289.125 787.696 287.516 788.726 286.06 787.733C283.03 785.666 280.093 783.449 277.256 781.123C276.75 780.708 276.522 779.21 276.874 778.696C277.255 778.136 278.793 777.659 279.258 777.978C282.476 780.181 285.554 782.589 288.648 784.972C288.916 785.177 288.961 785.669 289.034 785.846Z" fill="#0B4061"/>
<path d="M289.332 798.808C288.853 799.486 288.564 800.172 288.054 800.573C285.404 802.635 282.771 804.735 279.962 806.557C279.242 807.023 277.545 806.929 276.923 806.381C275.767 805.363 276.589 804.221 277.654 803.422C280.279 801.461 282.861 799.438 285.569 797.599C286.24 797.144 287.349 797.123 288.21 797.245C288.609 797.299 288.897 798.167 289.332 798.808Z" fill="#0B4061"/>
<path d="M341.5 857.171H308.36V874.594H341.5V857.171Z" fill="#0B4061"/>
<path d="M297.137 356.803C294.48 356.289 291.647 356.76 288.897 356.631C280.631 356.247 273.453 350.64 270.91 342.686C268.359 334.71 270.85 325.883 277.525 320.945C286.451 314.341 295.579 308.012 304.657 301.62C307.039 299.943 309.386 300.263 310.73 302.211C312.048 304.123 311.482 306.462 309.18 308.157C306.595 310.061 303.921 311.846 301.355 313.776C300.781 314.208 300.5 315.027 300.083 315.668C300.779 315.953 301.474 316.479 302.174 316.485C308.599 316.548 315.028 316.579 321.452 316.454C322.271 316.438 323.42 315.67 323.824 314.929C327.255 308.656 334.145 307.325 339.608 311.891C340.303 312.47 341.522 312.798 342.43 312.688C349.487 311.829 355.693 315.984 357.643 322.965C357.85 323.705 358.162 324.636 358.73 325.017C362.28 327.377 362.543 329.199 359.49 332.273C353.345 338.462 347.161 344.614 340.995 350.783C339.307 352.471 337.521 354.079 336.013 355.915C335.561 356.466 335.899 357.667 335.875 358.57C336.709 358.52 337.595 358.623 338.361 358.369C338.91 358.186 339.303 357.529 339.758 357.076C346.265 350.599 352.765 344.115 359.287 337.653C359.996 336.95 360.771 335.947 361.619 335.833C363.012 335.645 364.999 335.569 365.788 336.375C366.581 337.184 366.47 339.166 366.261 340.56C366.133 341.408 365.121 342.166 364.415 342.875C357.481 349.835 350.526 356.773 343.586 363.726C343.004 364.308 342.287 364.86 341.975 365.575C341.739 366.118 341.805 367.204 342.176 367.499C342.68 367.901 343.697 368.043 344.32 367.816C345.036 367.553 345.578 366.788 346.163 366.208C351.571 360.84 356.947 355.439 362.392 350.108C364.448 348.094 366.748 347.928 368.248 349.465C369.705 350.96 369.468 353.325 367.478 355.322C357.303 365.533 347.174 375.791 336.872 385.87C330.584 392.021 321.291 393.135 313.677 389.055C306.09 384.989 301.998 376.616 303.382 367.991C303.817 365.282 304.25 362.572 304.687 359.842C301.972 358.704 299.646 357.286 297.137 356.803ZM298.714 351.364C299.448 354.237 301.529 355.907 305.183 356.348C306.101 351.153 307.02 345.935 307.948 340.72C308.255 339.004 308.507 337.275 308.926 335.585C309.548 333.079 311.297 331.882 313.517 332.291C315.736 332.699 317.074 334.77 316.652 337.294C316.107 340.55 315.448 343.788 314.933 347.048C314.818 347.776 315.1 348.566 315.2 349.326C315.975 349.04 316.961 348.964 317.497 348.436C325.476 340.572 333.398 332.65 341.333 324.739C344.322 321.759 346.648 321.208 348.372 323.079C350.008 324.855 349.427 327.019 346.523 329.922C340.486 335.962 334.445 342.001 328.408 348.042C327.889 348.562 327.134 349.017 326.939 349.643C326.703 350.401 326.638 351.597 327.075 352.064C327.471 352.486 328.731 352.408 329.445 352.127C330.155 351.85 330.673 351.058 331.254 350.47C338.75 342.903 346.199 335.289 353.77 327.795C355.226 326.355 355.514 325.045 354.947 323.168C353.19 317.336 347.343 314.106 341.517 315.869L339.719 316.414C339.83 316.145 339.941 315.877 340.054 315.609C337.836 314.407 335.737 312.638 333.371 312.138C330.015 311.429 327.46 313.76 326.275 317.282C325.998 318.111 325.129 318.843 324.365 319.387C322.302 320.859 320.168 322.234 318.022 323.586C317.336 324.021 316.422 324.694 315.798 324.534C310.65 323.21 306.217 324.197 303.112 328.654C300.005 333.121 300.687 337.663 303.808 342.083C299.147 345.143 297.777 347.713 298.714 351.364ZM296.991 336.107C297.008 332.49 294.146 329.64 290.554 329.693C287.055 329.745 284.255 332.55 284.267 335.994C284.28 339.567 287.188 342.443 290.752 342.408C294.258 342.373 296.976 339.628 296.991 336.107Z" fill="#0B4061"/>
<path d="M317.971 302.813C317.887 300.059 320.234 297.695 323.018 297.733C325.715 297.77 327.85 299.962 327.848 302.69C327.845 305.417 325.7 307.605 323.004 307.634C320.327 307.662 318.053 305.482 317.971 302.813ZM322.997 304.496C323.731 304.395 324.341 303.362 325.005 302.734C324.295 302.071 323.661 301.04 322.849 300.869C322.282 300.75 321.468 301.81 320.201 302.771C321.535 303.648 322.336 304.586 322.997 304.496Z" fill="#0B4061"/>
<path d="M325.581 331.73C327.655 331.733 329.012 330.48 329.027 328.296C329.044 326.095 327.683 324.982 325.599 324.83C323.689 324.691 322.142 326.311 322.144 328.455C322.276 330.424 323.49 331.727 325.581 331.73Z" fill="white"/>
<path d="M290.669 332.479C288.554 332.625 287.287 333.866 287.141 335.98C287.016 337.772 288.859 339.512 290.659 339.507C292.497 339.501 294.165 337.819 294.167 335.966C294.167 334.081 292.522 332.353 290.669 332.479Z" fill="white"/>
<path d="M322.146 328.456C322.278 330.424 323.492 331.727 325.582 331.729C327.657 331.732 329.012 330.479 329.029 328.297C329.044 326.095 327.683 324.981 325.599 324.83C323.69 324.691 322.142 326.312 322.146 328.456Z" fill="#0B4061"/>
<path d="M294.167 335.968C294.168 334.08 292.521 332.353 290.669 332.48C288.554 332.626 287.287 333.866 287.141 335.981C287.016 337.773 288.859 339.513 290.659 339.508C292.496 339.503 294.164 337.819 294.167 335.968Z" fill="#0B4061"/>
<path d="M266.868 495.325C267.123 493.419 267.286 491.494 267.649 489.608C270.657 473.929 279.191 462.212 293.154 454.53C301.004 450.211 309.515 448.328 318.452 448.778C332.454 449.484 344.2 455.097 353.529 465.578C360.55 473.469 364.629 482.755 365.614 493.255C366.989 507.916 362.707 520.834 352.78 531.734C345.1 540.168 335.496 545.214 324.25 547.112C322.606 547.388 320.938 547.532 319.281 547.738H313.479C313.23 547.683 312.984 547.594 312.732 547.579C306.656 547.179 300.828 545.729 295.378 543.043C280.193 535.557 270.899 523.491 267.649 506.843C267.282 504.958 267.123 503.033 266.868 501.128V495.325ZM362.596 498.281C362.673 472.859 342.004 452.117 316.49 452.01C291.03 451.906 270.231 472.626 270.166 498.159C270.103 523.6 290.754 544.338 316.26 544.44C341.695 544.544 362.518 523.801 362.596 498.281Z" fill="#0B4061"/>
<path d="M266.868 495.325C267.123 493.419 267.286 491.494 267.649 489.608C270.657 473.929 279.191 462.212 293.154 454.53C301.004 450.211 309.515 448.328 318.452 448.778C332.454 449.484 344.2 455.097 353.529 465.578C360.55 473.469 364.629 482.755 365.614 493.255C366.989 507.916 362.707 520.834 352.78 531.734C345.1 540.168 335.496 545.214 324.25 547.112C322.606 547.388 320.938 547.532 319.281 547.738H313.479C313.23 547.683 312.984 547.594 312.732 547.579C306.656 547.179 300.828 545.729 295.378 543.043C280.193 535.557 270.899 523.491 267.649 506.843C267.282 504.958 267.123 503.033 266.868 501.128V495.325ZM362.596 498.281C362.673 472.859 342.004 452.117 316.49 452.01C291.03 451.906 270.231 472.626 270.166 498.159C270.103 523.6 290.754 544.338 316.26 544.44C341.695 544.544 362.518 523.801 362.596 498.281Z" stroke="#0B4061" stroke-width="3" stroke-miterlimit="10"/>
<path d="M251.072 515.1C250.709 507.911 250.378 500.719 249.96 493.533C249.866 491.934 250.279 490.697 251.448 489.599C253.182 487.966 254.79 486.198 256.533 484.575C257.416 483.753 257.777 482.905 257.765 481.677C257.702 475.035 257.697 468.392 257.783 461.75C257.795 460.843 258.201 459.712 258.827 459.089C260.087 457.839 262.134 458.546 262.716 460.276C262.857 460.699 262.912 461.17 262.913 461.619C262.925 469.022 262.964 476.426 262.869 483.827C262.856 484.781 262.344 485.912 261.699 486.638C259.951 488.606 257.956 490.352 256.175 492.291C255.667 492.845 255.269 493.773 255.302 494.508C255.952 508.637 256.674 522.763 257.379 536.889C257.564 540.578 256.286 543.595 253.044 545.494C249.926 547.32 246.712 547.198 243.716 545.172C240.761 543.176 239.703 540.235 239.881 536.741C240.597 522.717 241.277 508.69 242.011 494.666C242.067 493.607 241.8 492.872 241.025 492.143C239.143 490.372 237.271 488.575 235.561 486.642C234.918 485.913 234.401 484.786 234.388 483.831C234.294 476.43 234.338 469.026 234.335 461.622C234.335 460.307 234.693 459.053 236.055 458.742C236.865 458.557 238.082 458.768 238.644 459.3C239.231 459.855 239.476 461.004 239.485 461.9C239.551 468.541 239.55 475.184 239.495 481.827C239.485 482.944 239.817 483.711 240.617 484.464C242.426 486.165 244.119 487.99 245.917 489.705C246.993 490.731 247.383 491.897 247.304 493.376C246.531 507.956 245.794 522.539 245.059 537.12C244.942 539.437 245.954 540.923 247.872 541.374C249.431 541.742 251.186 540.988 251.76 539.484C252.088 538.622 252.17 537.608 252.127 536.672C251.803 529.482 251.422 522.291 251.058 515.103L251.072 515.1Z" fill="#0B4061"/>
<path d="M349.389 498.753C349.426 506.715 346.315 514.652 339.957 521.309C338.907 522.409 337.455 522.25 336.985 520.984C336.697 520.209 337.076 519.639 337.539 519.057C338.94 517.295 340.48 515.616 341.659 513.714C345.723 507.162 346.92 500.031 345.492 492.471C344.635 487.935 342.757 483.842 339.941 480.182C339.687 479.85 339.42 479.524 339.184 479.179C338.534 478.234 338.633 477.263 339.423 476.705C340.232 476.136 341.158 476.304 341.851 477.26C342.982 478.824 344.169 480.365 345.12 482.037C347.84 486.824 349.241 492.005 349.389 498.753Z" fill="#0B4061"/>
<path d="M349.389 498.753C349.426 506.715 346.315 514.652 339.957 521.309C338.907 522.409 337.455 522.25 336.985 520.984C336.697 520.209 337.076 519.639 337.539 519.057C338.94 517.295 340.48 515.616 341.659 513.714C345.723 507.162 346.92 500.031 345.492 492.471C344.635 487.935 342.757 483.842 339.941 480.182C339.687 479.85 339.42 479.524 339.184 479.179C338.534 478.234 338.633 477.263 339.423 476.705C340.232 476.136 341.158 476.304 341.851 477.26C342.982 478.824 344.169 480.365 345.12 482.037C347.84 486.824 349.241 492.005 349.389 498.753Z" stroke="#0B4061" stroke-width="3" stroke-miterlimit="10"/>
<path d="M290.679 478.138C292.176 478.093 292.98 479.297 292.494 480.429C292.346 480.78 292.117 481.102 291.9 481.42C287.826 487.371 286.155 493.974 286.831 501.116C287.435 507.484 289.895 513.108 294.174 517.902C294.538 518.311 294.921 518.704 295.269 519.129C295.962 519.977 295.956 520.923 295.274 521.551C294.541 522.225 293.566 522.177 292.799 521.291C291.517 519.807 290.193 518.338 289.086 516.724C285.245 511.117 283.365 504.858 283.388 498.078C283.41 491.084 285.516 484.713 289.575 479.01C289.881 478.576 290.438 478.322 290.679 478.138Z" fill="#0B4061"/>
<path d="M290.679 478.138C292.176 478.093 292.98 479.297 292.494 480.429C292.346 480.78 292.117 481.102 291.9 481.42C287.826 487.371 286.155 493.974 286.831 501.116C287.435 507.484 289.895 513.108 294.174 517.902C294.538 518.311 294.921 518.704 295.269 519.129C295.962 519.977 295.956 520.923 295.274 521.551C294.541 522.225 293.566 522.177 292.799 521.291C291.517 519.807 290.193 518.338 289.086 516.724C285.245 511.117 283.365 504.858 283.388 498.078C283.41 491.084 285.516 484.713 289.575 479.01C289.881 478.576 290.438 478.322 290.679 478.138Z" stroke="#0B4061" stroke-width="3" stroke-miterlimit="10"/>
<path d="M242.16 471.416C242.158 468.174 242.142 464.931 242.165 461.687C242.179 459.687 243.092 458.548 244.648 458.49C246.241 458.43 247.335 459.655 247.342 461.671C247.366 468.207 247.368 474.743 247.341 481.28C247.332 483.249 246.329 484.37 244.743 484.373C243.127 484.376 242.181 483.292 242.166 481.298C242.14 478.004 242.16 474.71 242.16 471.416Z" fill="#0B4061"/>
<path d="M255.092 471.457C255.092 474.853 255.125 478.247 255.076 481.642C255.054 483.323 254.085 484.314 252.624 484.368C251.172 484.422 250.153 483.469 249.935 481.846C249.907 481.646 249.907 481.441 249.907 481.24C249.906 474.704 249.89 468.167 249.917 461.631C249.925 459.689 250.958 458.506 252.498 458.488C254.105 458.469 255.081 459.659 255.095 461.729C255.115 464.973 255.1 468.215 255.1 471.458H255.092V471.457Z" fill="#0B4061"/>
<path d="M390.105 538.548C389.585 543.445 385.958 546.551 381.571 546.384C377.387 546.225 374.028 542.595 373.982 538.185C373.813 521.722 373.65 505.26 373.472 488.797C373.366 478.81 373.241 468.821 373.116 458.834C373.083 456.272 374.377 454.271 376.619 453.479C378.938 452.661 381.148 453.409 382.75 455.555C387.357 461.726 389.417 468.706 389.46 476.364C389.511 485.207 389.645 494.05 389.738 502.893C389.831 511.578 389.925 520.263 390.016 528.949C390.051 532.342 390.079 535.734 390.105 538.548ZM385.029 508.833C385.024 507.347 385.029 505.972 385.013 504.598C384.909 495.204 384.742 485.811 384.713 476.418C384.695 469.893 382.963 463.963 379.13 458.67C378.918 458.378 378.559 458.193 378.267 457.959C378.13 458.333 377.873 458.709 377.876 459.082C378.019 473.922 378.179 488.762 378.343 503.601C378.364 505.363 378.411 507.123 378.447 508.921C380.713 508.891 382.829 508.862 385.029 508.833ZM378.517 513.664C378.496 514.363 378.466 514.836 378.471 515.309C378.559 522.884 378.652 530.459 378.74 538.034C378.763 540.153 380.099 541.637 381.997 541.641C384.015 541.645 385.409 540.114 385.385 537.903C385.318 531.434 385.248 524.964 385.173 518.494C385.155 516.891 385.111 515.289 385.077 513.597C382.82 513.619 380.707 513.642 378.517 513.664Z" fill="#0B4061"/>
<path d="M342.616 637.374C343.824 636.994 344.68 636.644 345.569 636.462C348.125 635.941 350.001 637.103 350.99 639.309C352.053 641.672 351.687 644.132 349.269 645.43C345.877 647.25 342.344 648.876 338.726 650.184C336.161 651.113 334.169 649.753 333.124 647.276C332.075 644.794 332.603 642.675 334.957 641.211C336.037 640.539 337.208 640.012 338.562 639.303C335.9 633.441 333.276 627.659 330.571 621.701C317.425 627.67 304.385 633.589 291.161 639.592C292.524 642.599 293.808 645.427 295.411 648.954C297.436 646.272 299.203 643.91 300.995 641.567C303.926 637.732 306.4 636.616 308.779 638.027C311.358 639.557 311.948 642.495 309.907 646.84C307.725 651.486 305.019 655.883 302.719 660.478C302.171 661.571 301.792 663.252 302.239 664.261C307.687 676.564 313.302 688.791 318.885 701.032C319.02 701.326 319.305 701.551 319.636 701.949C332.698 696.019 345.755 690.091 358.847 684.148C358.656 681.617 357.531 681.192 355.411 682.263C352.734 683.617 350.199 683.699 348.388 680.791C346.671 678.037 347.337 675.187 350.237 673.661C352.925 672.246 355.733 671.053 358.523 669.843C361.781 668.432 364.413 669.168 365.784 671.775C367.137 674.343 366.213 676.811 363.163 678.775C362.87 678.963 362.578 679.153 361.807 679.65C362.721 681.662 363.699 683.729 364.605 685.828C366.682 690.641 365.604 693.59 360.835 695.774C349.559 700.938 338.266 706.065 326.957 711.153C322.311 713.244 319.453 712.189 317.197 707.682C316.421 706.129 315.752 704.523 314.815 702.462C312.842 703.358 311.192 704.138 309.519 704.861C298.178 709.756 288.163 706.621 281.834 696.019C278.663 690.706 276.562 684.886 277.399 678.662C277.848 675.329 279.224 671.901 280.995 669.014C283.916 664.247 287.42 659.826 290.837 655.378C292.084 653.754 292.208 652.421 291.314 650.614C289.5 646.946 287.847 643.195 286.214 639.44C284.005 634.356 285.048 631.533 290.005 629.265C301.177 624.158 312.362 619.078 323.563 614.032C328.536 611.792 331.451 612.895 333.75 617.869C336.73 624.323 339.638 630.813 342.616 637.374ZM339.723 694.093C339.254 696.382 338.386 698.026 338.875 698.949C339.38 699.902 341.205 700.155 342.451 700.714C342.999 699.366 344.141 697.894 343.896 696.709C343.711 695.814 341.749 695.288 339.723 694.093ZM315.119 623.86C315.021 623.649 314.925 623.438 314.826 623.227C310.791 625.059 306.755 626.892 302.719 628.724C302.816 628.935 302.913 629.146 303.011 629.357C307.047 627.524 311.083 625.692 315.119 623.86Z" fill="#0B4061"/>
<path d="M349.763 658.361C348.557 658.908 347.372 659.507 346.142 659.991C343.814 660.903 342.034 660.174 340.997 657.935C339.965 655.701 340.523 653.802 342.754 652.685C345.288 651.416 347.876 650.235 350.51 649.19C352.734 648.308 354.5 649.301 355.432 651.304C356.365 653.312 355.945 655.254 353.867 656.433C352.558 657.175 351.126 657.705 349.749 658.33C349.752 658.34 349.757 658.352 349.763 658.361Z" fill="#0B4061"/>
<path d="M350.689 659.753C351.982 659.169 353.238 658.477 354.574 658.021C356.826 657.25 358.575 658.195 359.478 660.217C360.376 662.229 359.996 664.221 357.848 665.311C355.238 666.635 352.567 667.866 349.843 668.941C347.625 669.818 345.952 668.855 344.998 666.759C344.034 664.643 344.542 662.829 346.568 661.651C347.871 660.895 349.31 660.376 350.689 659.753Z" fill="#0B4061"/>
<path d="M260.765 994.639C261.79 986.846 261.976 986.803 270.393 985.477C284.664 983.229 297.977 986.286 310.656 992.653C312.877 993.767 314.391 993.711 316.569 992.619C329.259 986.264 342.576 983.227 356.842 985.485C365.083 986.79 365.306 986.878 366.427 994.64C368.092 994.64 369.843 994.757 371.571 994.615C374.576 994.364 375.62 995.664 375.598 998.622C375.503 1011.37 375.559 1024.11 375.559 1036.86C375.559 1050.5 375.464 1064.14 375.622 1077.77C375.662 1081.33 374.736 1082.76 370.906 1082.75C332.669 1082.63 294.429 1082.64 256.189 1082.74C252.684 1082.75 251.534 1081.59 251.549 1078.09C251.656 1052.09 251.605 1026.08 251.608 1000.08C251.609 994.672 251.616 994.671 257.19 994.641C258.32 994.633 259.449 994.639 260.765 994.639ZM311.285 1076.58C311.285 1050.66 311.306 1025.31 311.21 999.953C311.206 998.979 310.318 997.557 309.448 997.106C296.671 990.468 283.239 987.553 268.853 990.251C266.314 990.727 265.396 991.781 265.411 994.546C265.543 1018.63 265.483 1042.72 265.499 1066.8C265.499 1067.87 265.658 1068.95 265.761 1070.21C281.665 1067.42 296.495 1069.89 311.285 1076.58ZM361.481 991.121C346.509 987.117 332.606 989.949 319.066 996.247C316.675 997.359 315.796 998.706 315.809 1001.41C315.928 1025.24 315.876 1049.08 315.885 1072.91C315.885 1073.99 315.984 1075.08 316.055 1076.51C330.703 1069.82 345.659 1067.44 361.481 1070.19V991.121ZM366.011 999.258V1004.3C366.011 1026.46 366.02 1048.62 366.002 1070.78C365.998 1075.22 365.36 1075.68 361.058 1074.79C349.565 1072.42 338.284 1073.52 327.161 1076.95C326.713 1077.09 326.352 1077.52 325.752 1077.96H370.796V999.258H366.011V999.258ZM256.372 999.236V1077.87H301.139C289.896 1073.53 278.393 1072.46 266.642 1074.64C261.457 1075.6 261.162 1075.46 261.159 1070.19C261.151 1048.03 261.156 1025.87 261.155 1003.7V999.237H256.372V999.236Z" fill="#0B4061"/>
<path d="M272.386 1007.15C272.386 1007.15 292.886 1000.15 305.886 1011.65" stroke="#0B4061" stroke-width="3" stroke-miterlimit="10"/>
<path d="M272.386 1017.93C272.386 1017.93 292.886 1010.93 305.886 1022.43" stroke="#0B4061" stroke-width="3" stroke-miterlimit="10"/>
<path d="M272.386 1028.7C272.386 1028.7 292.886 1021.7 305.886 1033.2" stroke="#0B4061" stroke-width="3" stroke-miterlimit="10"/>
<path d="M342.857 1022.22L338.256 1028.45L403.094 1076.38L407.695 1070.16L342.857 1022.22Z" fill="#0B4061"/>
<path d="M336.253 1027.44L331.271 1019.39L340.854 1021.22L336.253 1027.44Z" fill="#0B4061"/>
<path d="M288.841 1203.21H279.173V1235.73H271.25V1203.21H261.744V1196.63H288.841V1203.21ZM286.531 1220.26C286.531 1215.86 287.57 1212.4 289.646 1209.9C291.723 1207.39 294.597 1206.14 298.267 1206.14C301.973 1206.14 304.865 1207.39 306.941 1209.9C309.018 1212.4 310.057 1215.88 310.057 1220.32V1222.17C310.057 1226.59 309.027 1230.05 306.968 1232.54C304.909 1235.02 302.027 1236.27 298.321 1236.27C294.597 1236.27 291.696 1235.02 289.62 1232.54C287.561 1230.03 286.531 1226.56 286.531 1222.12V1220.26ZM294.158 1222.17C294.158 1227.36 295.546 1229.96 298.321 1229.96C300.881 1229.96 302.26 1227.79 302.457 1223.46L302.483 1220.26C302.483 1217.61 302.116 1215.65 301.382 1214.38C300.648 1213.09 299.61 1212.45 298.267 1212.45C296.978 1212.45 295.966 1213.09 295.232 1214.38C294.516 1215.65 294.158 1217.61 294.158 1220.26V1222.17ZM323.646 1199.53V1206.67H327.54V1212.39H323.646V1226.82C323.646 1227.96 323.798 1228.75 324.102 1229.18C324.424 1229.61 325.033 1229.82 325.928 1229.82C326.662 1229.82 327.262 1229.76 327.728 1229.64L327.674 1235.54C326.385 1236.03 324.988 1236.27 323.484 1236.27C318.579 1236.27 316.099 1233.46 316.045 1227.84V1212.39H312.688V1206.67H316.045V1199.53H323.646ZM345.533 1235.73C345.318 1235.28 345.103 1234.53 344.888 1233.48C343.528 1235.34 341.683 1236.27 339.356 1236.27C336.921 1236.27 334.898 1235.46 333.287 1233.85C331.693 1232.24 330.896 1230.15 330.896 1227.59C330.896 1224.55 331.863 1222.2 333.797 1220.53C335.748 1218.87 338.55 1218.02 342.203 1217.98H344.512V1215.64C344.512 1214.34 344.288 1213.41 343.841 1212.88C343.393 1212.34 342.74 1212.07 341.88 1212.07C339.983 1212.07 339.034 1213.18 339.034 1215.4H331.434C331.434 1212.72 332.436 1210.51 334.441 1208.77C336.465 1207.01 339.016 1206.14 342.095 1206.14C345.282 1206.14 347.744 1206.97 349.48 1208.63C351.235 1210.28 352.112 1212.64 352.112 1215.72V1229.39C352.148 1231.9 352.506 1233.86 353.187 1235.27V1235.73H345.533ZM341.048 1230.31C341.889 1230.31 342.605 1230.14 343.196 1229.8C343.787 1229.46 344.226 1229.05 344.512 1228.59V1222.55H342.686C341.397 1222.55 340.376 1222.96 339.625 1223.78C338.89 1224.6 338.523 1225.71 338.523 1227.08C338.523 1229.23 339.365 1230.31 341.048 1230.31ZM365.594 1235.73H357.967V1194.48H365.594V1235.73Z" fill="#0B4061"/>
<path d="M673.909 475.631H553.278V532.917H673.909V475.631Z" fill="white"/>
<path d="M673.909 475.631H553.278V532.917H673.909V475.631Z" stroke="#0B4061" stroke-width="2" stroke-miterlimit="10"/>
<path d="M657.198 524.449C658.27 519.488 662.662 516.101 667.541 516.107V493.115C666.802 493.114 666.054 493.041 665.303 492.879C660.123 491.759 656.67 487.02 656.991 481.886H570.979C571.037 482.833 570.978 483.801 570.766 484.774C569.694 489.735 565.302 493.121 560.425 493.116V516.108C561.162 516.108 561.911 516.181 562.661 516.344C567.623 517.417 571.008 521.807 571.004 526.686H656.961C656.962 525.948 657.036 525.2 657.198 524.449Z" fill="white"/>
<path d="M657.198 524.449C658.27 519.488 662.662 516.101 667.541 516.107V493.115C666.802 493.114 666.054 493.041 665.303 492.879C660.123 491.759 656.67 487.02 656.991 481.886H570.979C571.037 482.833 570.978 483.801 570.766 484.774C569.694 489.735 565.302 493.121 560.425 493.116V516.108C561.162 516.108 561.911 516.181 562.661 516.344C567.623 517.417 571.008 521.807 571.004 526.686H656.961C656.962 525.948 657.036 525.2 657.198 524.449Z" stroke="#0B4061" stroke-width="2" stroke-miterlimit="10"/>
<path d="M627.225 504.696C627.225 511.73 621.523 517.431 614.489 517.431C607.454 517.431 601.751 511.73 601.751 504.696C601.751 497.662 607.454 491.959 614.489 491.959C621.522 491.959 627.225 497.662 627.225 504.696Z" fill="white"/>
<path d="M614.487 517.433C621.521 517.433 627.224 511.73 627.224 504.696C627.224 497.662 621.521 491.959 614.487 491.959C607.453 491.959 601.75 497.662 601.75 504.696C601.75 511.73 607.453 517.433 614.487 517.433Z" stroke="#0B4061" stroke-width="2" stroke-miterlimit="10"/>
<path d="M659.277 490.274H538.646V547.56H659.277V490.274Z" fill="white"/>
<path d="M659.277 490.274H538.646V547.56H659.277V490.274Z" stroke="#0B4061" stroke-width="2" stroke-miterlimit="10"/>
<path d="M642.566 539.093C643.638 534.131 648.03 530.746 652.909 530.75V507.759C652.17 507.758 651.422 507.685 650.671 507.522C645.491 506.402 642.038 501.663 642.359 496.53H556.346C556.405 497.477 556.345 498.445 556.134 499.417C555.063 504.379 550.67 507.764 545.793 507.76V530.751C546.53 530.752 547.279 530.824 548.029 530.987C552.991 532.06 556.376 536.451 556.372 541.329H642.329C642.33 540.592 642.404 539.843 642.566 539.093Z" fill="white"/>
<path d="M642.566 539.093C643.638 534.131 648.03 530.746 652.909 530.75V507.759C652.17 507.758 651.422 507.685 650.671 507.522C645.491 506.402 642.038 501.663 642.359 496.53H556.346C556.405 497.477 556.345 498.445 556.134 499.417C555.063 504.379 550.67 507.764 545.793 507.76V530.751C546.53 530.752 547.279 530.824 548.029 530.987C552.991 532.06 556.376 536.451 556.372 541.329H642.329C642.33 540.592 642.404 539.843 642.566 539.093Z" stroke="#0B4061" stroke-width="2" stroke-miterlimit="10"/>
<path d="M612.594 519.339C612.594 526.374 606.891 532.076 599.857 532.076C592.823 532.076 587.12 526.374 587.12 519.339C587.12 512.305 592.823 506.603 599.857 506.603C606.891 506.603 612.594 512.305 612.594 519.339Z" fill="white"/>
<path d="M599.856 532.076C606.89 532.076 612.593 526.374 612.593 519.339C612.593 512.305 606.89 506.602 599.856 506.602C592.822 506.602 587.119 512.305 587.119 519.339C587.119 526.374 592.822 532.076 599.856 532.076Z" stroke="#0B4061" stroke-width="2" stroke-miterlimit="10"/>
<path d="M686.342 978.035H565.711V1035.32H686.342V978.035Z" fill="white"/>
<path d="M686.342 978.035H565.711V1035.32H686.342V978.035Z" stroke="#0B4061" stroke-width="2" stroke-miterlimit="10"/>
<path d="M669.631 1026.85C670.703 1021.89 675.095 1018.51 679.974 1018.51V995.52C679.235 995.52 678.487 995.446 677.737 995.284C672.557 994.164 669.104 989.425 669.424 984.292H583.411C583.471 985.238 583.41 986.206 583.2 987.179C582.127 992.14 577.736 995.526 572.858 995.521V1018.51C573.596 1018.51 574.344 1018.59 575.095 1018.75C580.056 1019.82 583.442 1024.21 583.438 1029.09H669.395C669.396 1028.35 669.469 1027.6 669.631 1026.85Z" fill="white"/>
<path d="M669.631 1026.85C670.703 1021.89 675.095 1018.51 679.974 1018.51V995.52C679.235 995.52 678.487 995.446 677.737 995.284C672.557 994.164 669.104 989.425 669.424 984.292H583.411C583.471 985.238 583.41 986.206 583.2 987.179C582.127 992.14 577.736 995.526 572.858 995.521V1018.51C573.596 1018.51 574.344 1018.59 575.095 1018.75C580.056 1019.82 583.442 1024.21 583.438 1029.09H669.395C669.396 1028.35 669.469 1027.6 669.631 1026.85Z" stroke="#0B4061" stroke-width="2" stroke-miterlimit="10"/>
<path d="M639.658 1007.1C639.658 1014.13 633.956 1019.84 626.921 1019.84C619.887 1019.84 614.184 1014.13 614.184 1007.1C614.184 1000.07 619.887 994.364 626.921 994.364C633.956 994.363 639.658 1000.07 639.658 1007.1Z" fill="white"/>
<path d="M626.921 1019.84C633.956 1019.84 639.658 1014.14 639.658 1007.1C639.658 1000.07 633.956 994.364 626.921 994.364C619.887 994.364 614.184 1000.07 614.184 1007.1C614.184 1014.14 619.887 1019.84 626.921 1019.84Z" stroke="#0B4061" stroke-width="2" stroke-miterlimit="10"/>
<path d="M673.666 991.028H553.034V1048.31H673.666V991.028Z" fill="white"/>
<path d="M673.666 991.028H553.034V1048.31H673.666V991.028Z" stroke="#0B4061" stroke-width="2" stroke-miterlimit="10"/>
<path d="M656.954 1039.85C658.026 1034.89 662.418 1031.5 667.297 1031.5V1008.51C666.558 1008.51 665.811 1008.44 665.061 1008.28C659.88 1007.16 656.426 1002.42 656.748 997.285H570.735C570.795 998.232 570.734 999.2 570.524 1000.17C569.451 1005.13 565.06 1008.52 560.182 1008.51V1031.5C560.92 1031.51 561.668 1031.58 562.419 1031.74C567.38 1032.81 570.766 1037.21 570.761 1042.08H656.718C656.719 1041.35 656.792 1040.6 656.954 1039.85Z" fill="white"/>
<path d="M656.954 1039.85C658.026 1034.89 662.418 1031.5 667.297 1031.5V1008.51C666.558 1008.51 665.811 1008.44 665.061 1008.28C659.88 1007.16 656.426 1002.42 656.748 997.285H570.735C570.795 998.232 570.734 999.2 570.524 1000.17C569.451 1005.13 565.06 1008.52 560.182 1008.51V1031.5C560.92 1031.51 561.668 1031.58 562.419 1031.74C567.38 1032.81 570.766 1037.21 570.761 1042.08H656.718C656.719 1041.35 656.792 1040.6 656.954 1039.85Z" stroke="#0B4061" stroke-width="2" stroke-miterlimit="10"/>
<path d="M626.981 1020.09C626.981 1027.13 621.279 1032.83 614.245 1032.83C607.21 1032.83 601.507 1027.13 601.507 1020.09C601.507 1013.06 607.21 1007.36 614.245 1007.36C621.279 1007.36 626.981 1013.06 626.981 1020.09Z" fill="white"/>
<path d="M614.244 1032.83C621.279 1032.83 626.981 1027.13 626.981 1020.09C626.981 1013.06 621.279 1007.36 614.244 1007.36C607.21 1007.36 601.507 1013.06 601.507 1020.09C601.507 1027.13 607.21 1032.83 614.244 1032.83Z" stroke="#0B4061" stroke-width="2" stroke-miterlimit="10"/>
<path d="M659.035 1005.67H538.403V1062.96H659.035V1005.67Z" fill="white"/>
<path d="M659.035 1005.67H538.403V1062.96H659.035V1005.67Z" stroke="#0B4061" stroke-width="2" stroke-miterlimit="10"/>
<path d="M642.322 1054.49C643.395 1049.53 647.786 1046.14 652.665 1046.15V1023.16C651.926 1023.15 651.178 1023.08 650.428 1022.92C645.248 1021.8 641.794 1017.06 642.115 1011.93H556.103C556.162 1012.87 556.102 1013.84 555.891 1014.81C554.818 1019.78 550.427 1023.16 545.549 1023.16V1046.15C546.287 1046.15 547.035 1046.22 547.786 1046.38C552.747 1047.46 556.133 1051.85 556.128 1056.73H642.085C642.087 1055.99 642.16 1055.24 642.322 1054.49Z" fill="white"/>
<path d="M642.322 1054.49C643.395 1049.53 647.786 1046.14 652.665 1046.15V1023.16C651.926 1023.15 651.178 1023.08 650.428 1022.92C645.248 1021.8 641.794 1017.06 642.115 1011.93H556.103C556.162 1012.87 556.102 1013.84 555.891 1014.81C554.818 1019.78 550.427 1023.16 545.549 1023.16V1046.15C546.287 1046.15 547.035 1046.22 547.786 1046.38C552.747 1047.46 556.133 1051.85 556.128 1056.73H642.085C642.087 1055.99 642.16 1055.24 642.322 1054.49Z" stroke="#0B4061" stroke-width="2" stroke-miterlimit="10"/>
<path d="M612.35 1034.74C612.35 1041.77 606.648 1047.47 599.614 1047.47C592.579 1047.47 586.876 1041.77 586.876 1034.74C586.876 1027.7 592.578 1022 599.613 1022C606.647 1022 612.35 1027.7 612.35 1034.74Z" fill="white"/>
<path d="M599.612 1047.47C606.646 1047.47 612.349 1041.77 612.349 1034.74C612.349 1027.7 606.646 1022 599.612 1022C592.578 1022 586.875 1027.7 586.875 1034.74C586.875 1041.77 592.578 1047.47 599.612 1047.47Z" stroke="#0B4061" stroke-width="2" stroke-miterlimit="10"/>
<path d="M706.985 1188.4H586.354V1245.69H706.985V1188.4Z" fill="white"/>
<path d="M706.985 1188.4H586.354V1245.69H706.985V1188.4Z" stroke="#0B4061" stroke-width="2" stroke-miterlimit="10"/>
<path d="M690.273 1237.22C691.345 1232.26 695.737 1228.87 700.616 1228.88V1205.89C699.877 1205.89 699.129 1205.81 698.379 1205.65C693.199 1204.53 689.745 1199.79 690.066 1194.66H604.053C604.113 1195.61 604.052 1196.57 603.842 1197.55C602.77 1202.51 598.378 1205.89 593.5 1205.89V1228.88C594.238 1228.88 594.986 1228.95 595.737 1229.12C600.698 1230.19 604.084 1234.58 604.079 1239.46H690.036C690.038 1238.72 690.111 1237.97 690.273 1237.22Z" fill="white"/>
<path d="M690.273 1237.22C691.345 1232.26 695.737 1228.87 700.616 1228.88V1205.89C699.877 1205.89 699.129 1205.81 698.379 1205.65C693.199 1204.53 689.745 1199.79 690.066 1194.66H604.053C604.113 1195.61 604.052 1196.57 603.842 1197.55C602.77 1202.51 598.378 1205.89 593.5 1205.89V1228.88C594.238 1228.88 594.986 1228.95 595.737 1229.12C600.698 1230.19 604.084 1234.58 604.079 1239.46H690.036C690.038 1238.72 690.111 1237.97 690.273 1237.22Z" stroke="#0B4061" stroke-width="2" stroke-miterlimit="10"/>
<path d="M660.301 1217.47C660.301 1224.5 654.599 1230.2 647.565 1230.2C640.53 1230.2 634.827 1224.5 634.827 1217.47C634.827 1210.43 640.53 1204.73 647.565 1204.73C654.599 1204.73 660.301 1210.43 660.301 1217.47Z" fill="white"/>
<path d="M647.563 1230.2C654.597 1230.2 660.3 1224.5 660.3 1217.47C660.3 1210.43 654.597 1204.73 647.563 1204.73C640.528 1204.73 634.826 1210.43 634.826 1217.47C634.826 1224.5 640.528 1230.2 647.563 1230.2Z" stroke="#0B4061" stroke-width="2" stroke-miterlimit="10"/>
<path d="M700.308 1197.4H579.676V1254.68H700.308V1197.4Z" fill="white"/>
<path d="M700.308 1197.4H579.676V1254.68H700.308V1197.4Z" stroke="#0B4061" stroke-width="2" stroke-miterlimit="10"/>
<path d="M683.597 1246.21C684.669 1241.25 689.061 1237.87 693.94 1237.87V1214.88C693.201 1214.88 692.453 1214.81 691.703 1214.64C686.523 1213.52 683.069 1208.78 683.39 1203.65H597.377C597.438 1204.6 597.376 1205.57 597.166 1206.54C596.093 1211.5 591.702 1214.89 586.824 1214.88V1237.87C587.563 1237.87 588.31 1237.95 589.062 1238.11C594.022 1239.18 597.408 1243.57 597.403 1248.45H683.36C683.361 1247.71 683.436 1246.96 683.597 1246.21Z" fill="white"/>
<path d="M683.597 1246.21C684.669 1241.25 689.061 1237.87 693.94 1237.87V1214.88C693.201 1214.88 692.453 1214.81 691.703 1214.64C686.523 1213.52 683.069 1208.78 683.39 1203.65H597.377C597.438 1204.6 597.376 1205.57 597.166 1206.54C596.093 1211.5 591.702 1214.89 586.824 1214.88V1237.87C587.563 1237.87 588.31 1237.95 589.062 1238.11C594.022 1239.18 597.408 1243.57 597.403 1248.45H683.36C683.361 1247.71 683.436 1246.96 683.597 1246.21Z" stroke="#0B4061" stroke-width="2" stroke-miterlimit="10"/>
<path d="M653.624 1226.46C653.624 1233.5 647.922 1239.2 640.888 1239.2C633.854 1239.2 628.15 1233.5 628.15 1226.46C628.15 1219.43 633.854 1213.72 640.888 1213.72C647.922 1213.72 653.624 1219.43 653.624 1226.46Z" fill="white"/>
<path d="M640.887 1239.2C647.921 1239.2 653.624 1233.5 653.624 1226.46C653.624 1219.43 647.921 1213.72 640.887 1213.72C633.853 1213.72 628.15 1219.43 628.15 1226.46C628.15 1233.5 633.853 1239.2 640.887 1239.2Z" stroke="#0B4061" stroke-width="2" stroke-miterlimit="10"/>
<path d="M691.677 1208.04H571.046V1265.33H691.677V1208.04Z" fill="white"/>
<path d="M691.677 1208.04H571.046V1265.33H691.677V1208.04Z" stroke="#0B4061" stroke-width="2" stroke-miterlimit="10"/>
<path d="M674.966 1256.86C676.038 1251.9 680.43 1248.51 685.309 1248.51V1225.52C684.57 1225.52 683.822 1225.45 683.071 1225.29C677.891 1224.17 674.439 1219.43 674.759 1214.29H588.746C588.805 1215.24 588.745 1216.21 588.534 1217.18C587.462 1222.14 583.07 1225.53 578.193 1225.52V1248.52C578.93 1248.52 579.679 1248.59 580.429 1248.75C585.391 1249.82 588.776 1254.21 588.772 1259.09H674.729C674.729 1258.36 674.804 1257.61 674.966 1256.86Z" fill="white"/>
<path d="M674.966 1256.86C676.038 1251.9 680.43 1248.51 685.309 1248.51V1225.52C684.57 1225.52 683.822 1225.45 683.071 1225.29C677.891 1224.17 674.439 1219.43 674.759 1214.29H588.746C588.805 1215.24 588.745 1216.21 588.534 1217.18C587.462 1222.14 583.07 1225.53 578.193 1225.52V1248.52C578.93 1248.52 579.679 1248.59 580.429 1248.75C585.391 1249.82 588.776 1254.21 588.772 1259.09H674.729C674.729 1258.36 674.804 1257.61 674.966 1256.86Z" stroke="#0B4061" stroke-width="2" stroke-miterlimit="10"/>
<path d="M644.993 1237.1C644.993 1244.14 639.29 1249.84 632.256 1249.84C625.222 1249.84 619.52 1244.14 619.52 1237.1C619.52 1230.07 625.222 1224.37 632.256 1224.37C639.29 1224.37 644.993 1230.07 644.993 1237.1Z" fill="white"/>
<path d="M632.256 1249.84C639.29 1249.84 644.993 1244.14 644.993 1237.1C644.993 1230.07 639.29 1224.37 632.256 1224.37C625.222 1224.37 619.519 1230.07 619.519 1237.1C619.519 1244.14 625.222 1249.84 632.256 1249.84Z" stroke="#0B4061" stroke-width="2" stroke-miterlimit="10"/>
<path d="M552.007 682.178C552.007 686.703 540.79 690.373 526.953 690.373C513.117 690.373 501.902 686.703 501.902 682.178C501.902 677.652 513.117 673.982 526.953 673.982C540.79 673.981 552.007 677.651 552.007 682.178Z" fill="white"/>
<path d="M526.955 690.373C540.791 690.373 552.007 686.704 552.007 682.178C552.007 677.652 540.791 673.983 526.955 673.983C513.119 673.983 501.903 677.652 501.903 682.178C501.903 686.704 513.119 690.373 526.955 690.373Z" stroke="#0B4061" stroke-width="2" stroke-miterlimit="10"/>
<path d="M552.007 675.461C552.007 679.986 540.79 683.656 526.953 683.656C513.117 683.656 501.902 679.986 501.902 675.461C501.902 670.935 513.117 667.265 526.953 667.265C540.79 667.265 552.007 670.935 552.007 675.461Z" fill="white"/>
<path d="M526.955 683.656C540.791 683.656 552.007 679.987 552.007 675.461C552.007 670.935 540.791 667.266 526.955 667.266C513.119 667.266 501.903 670.935 501.903 675.461C501.903 679.987 513.119 683.656 526.955 683.656Z" stroke="#0B4061" stroke-width="2" stroke-miterlimit="10"/>
<path d="M552.007 668.623C552.007 673.148 540.79 676.818 526.953 676.818C513.117 676.818 501.902 673.148 501.902 668.623C501.902 664.097 513.117 660.427 526.953 660.427C540.79 660.427 552.007 664.097 552.007 668.623Z" fill="white"/>
<path d="M526.955 676.818C540.791 676.818 552.007 673.149 552.007 668.623C552.007 664.097 540.791 660.428 526.955 660.428C513.119 660.428 501.903 664.097 501.903 668.623C501.903 673.149 513.119 676.818 526.955 676.818Z" stroke="#0B4061" stroke-width="2" stroke-miterlimit="10"/>
<path d="M552.007 661.907C552.007 666.432 540.79 670.101 526.953 670.101C513.117 670.101 501.902 666.432 501.902 661.907C501.902 657.38 513.117 653.711 526.953 653.711C540.79 653.711 552.007 657.38 552.007 661.907Z" fill="white"/>
<path d="M526.955 670.101C540.791 670.101 552.007 666.432 552.007 661.907C552.007 657.381 540.791 653.713 526.955 653.713C513.119 653.713 501.903 657.381 501.903 661.907C501.903 666.432 513.119 670.101 526.955 670.101Z" stroke="#0B4061" stroke-width="2" stroke-miterlimit="10"/>
<path d="M688.247 820.924H567.616V878.21H688.247V820.924Z" fill="white"/>
<path d="M688.247 820.924H567.616V878.21H688.247V820.924Z" stroke="#0B4061" stroke-width="2" stroke-miterlimit="10"/>
<path d="M671.536 869.742C672.608 864.78 677 861.394 681.879 861.398V838.407C681.14 838.407 680.392 838.333 679.641 838.171C674.461 837.051 671.008 832.312 671.329 827.179H585.316C585.375 828.126 585.315 829.094 585.104 830.065C584.032 835.028 579.64 838.413 574.763 838.408V861.399C575.5 861.4 576.249 861.473 576.999 861.636C581.961 862.709 585.346 867.099 585.342 871.978H671.3C671.3 871.24 671.374 870.492 671.536 869.742Z" fill="white"/>
<path d="M671.536 869.742C672.608 864.78 677 861.394 681.879 861.398V838.407C681.14 838.407 680.392 838.333 679.641 838.171C674.461 837.051 671.008 832.312 671.329 827.179H585.316C585.375 828.126 585.315 829.094 585.104 830.065C584.032 835.028 579.64 838.413 574.763 838.408V861.399C575.5 861.4 576.249 861.473 576.999 861.636C581.961 862.709 585.346 867.099 585.342 871.978H671.3C671.3 871.24 671.374 870.492 671.536 869.742Z" stroke="#0B4061" stroke-width="2" stroke-miterlimit="10"/>
<path d="M641.563 849.988C641.563 857.021 635.86 862.724 628.826 862.724C621.792 862.724 616.089 857.021 616.089 849.988C616.089 842.954 621.792 837.252 628.826 837.252C635.86 837.252 641.563 842.954 641.563 849.988Z" fill="white"/>
<path d="M628.826 862.725C635.86 862.725 641.563 857.022 641.563 849.988C641.563 842.954 635.86 837.251 628.826 837.251C621.792 837.251 616.089 842.954 616.089 849.988C616.089 857.022 621.792 862.725 628.826 862.725Z" stroke="#0B4061" stroke-width="2" stroke-miterlimit="10"/>
<path d="M554.398 864.479C554.398 869.004 543.18 872.675 529.344 872.675C515.508 872.675 504.292 869.004 504.292 864.479C504.292 859.952 515.508 856.283 529.344 856.283C543.18 856.283 554.398 859.952 554.398 864.479Z" fill="white"/>
<path d="M529.346 872.675C543.182 872.675 554.399 869.005 554.399 864.479C554.399 859.952 543.182 856.283 529.346 856.283C515.51 856.283 504.293 859.952 504.293 864.479C504.293 869.005 515.51 872.675 529.346 872.675Z" stroke="#0B4061" stroke-width="2" stroke-miterlimit="10"/>
<path d="M554.398 857.763C554.398 862.288 543.18 865.959 529.344 865.959C515.508 865.959 504.292 862.288 504.292 857.763C504.292 853.237 515.508 849.567 529.344 849.567C543.18 849.567 554.398 853.236 554.398 857.763Z" fill="white"/>
<path d="M529.346 865.959C543.182 865.959 554.399 862.289 554.399 857.763C554.399 853.236 543.182 849.567 529.346 849.567C515.51 849.567 504.293 853.236 504.293 857.763C504.293 862.289 515.51 865.959 529.346 865.959Z" stroke="#0B4061" stroke-width="2" stroke-miterlimit="10"/>
<path d="M630.847 375.117C630.847 379.642 619.629 383.312 605.793 383.312C591.957 383.312 580.741 379.642 580.741 375.117C580.741 370.591 591.957 366.921 605.793 366.921C619.629 366.921 630.847 370.591 630.847 375.117Z" fill="white"/>
<path d="M605.794 383.312C619.63 383.312 630.847 379.643 630.847 375.117C630.847 370.591 619.63 366.922 605.794 366.922C591.958 366.922 580.741 370.591 580.741 375.117C580.741 379.643 591.958 383.312 605.794 383.312Z" stroke="#0B4061" stroke-width="2" stroke-miterlimit="10"/>
<path d="M630.847 368.401C630.847 372.926 619.629 376.595 605.793 376.595C591.957 376.595 580.741 372.926 580.741 368.401C580.741 363.874 591.957 360.205 605.793 360.205C619.629 360.205 630.847 363.874 630.847 368.401Z" fill="white"/>
<path d="M605.794 376.595C619.63 376.595 630.847 372.926 630.847 368.401C630.847 363.876 619.63 360.207 605.794 360.207C591.958 360.207 580.741 363.876 580.741 368.401C580.741 372.926 591.958 376.595 605.794 376.595Z" stroke="#0B4061" stroke-width="2" stroke-miterlimit="10"/>
<path d="M630.847 361.563C630.847 366.088 619.629 369.757 605.793 369.757C591.957 369.757 580.741 366.088 580.741 361.563C580.741 357.036 591.957 353.367 605.793 353.367C619.629 353.367 630.847 357.036 630.847 361.563Z" fill="white"/>
<path d="M605.794 369.757C619.63 369.757 630.847 366.088 630.847 361.563C630.847 357.037 619.63 353.369 605.794 353.369C591.958 353.369 580.741 357.037 580.741 361.563C580.741 366.088 591.958 369.757 605.794 369.757Z" stroke="#0B4061" stroke-width="2" stroke-miterlimit="10"/>
<path d="M630.847 354.847C630.847 359.372 619.629 363.043 605.793 363.043C591.957 363.043 580.741 359.372 580.741 354.847C580.741 350.321 591.957 346.651 605.793 346.651C619.629 346.651 630.847 350.32 630.847 354.847Z" fill="white"/>
<path d="M605.794 363.043C619.63 363.043 630.847 359.373 630.847 354.847C630.847 350.32 619.63 346.651 605.794 346.651C591.958 346.651 580.741 350.32 580.741 354.847C580.741 359.373 591.958 363.043 605.794 363.043Z" stroke="#0B4061" stroke-width="2" stroke-miterlimit="10"/>
<path d="M547.955 1258.59C547.955 1263.11 536.738 1266.78 522.902 1266.78C509.065 1266.78 497.85 1263.11 497.85 1258.59C497.85 1254.06 509.065 1250.39 522.902 1250.39C536.738 1250.39 547.955 1254.06 547.955 1258.59Z" fill="white"/>
<path d="M522.902 1266.78C536.738 1266.78 547.955 1263.11 547.955 1258.59C547.955 1254.06 536.738 1250.39 522.902 1250.39C509.066 1250.39 497.849 1254.06 497.849 1258.59C497.849 1263.11 509.066 1266.78 522.902 1266.78Z" stroke="#0B4061" stroke-width="2" stroke-miterlimit="10"/>
<path d="M547.955 1251.87C547.955 1256.4 536.738 1260.06 522.902 1260.06C509.065 1260.06 497.85 1256.4 497.85 1251.87C497.85 1247.34 509.065 1243.67 522.902 1243.67C536.738 1243.67 547.955 1247.34 547.955 1251.87Z" fill="white"/>
<path d="M522.902 1260.06C536.738 1260.06 547.955 1256.4 547.955 1251.87C547.955 1247.34 536.738 1243.67 522.902 1243.67C509.066 1243.67 497.849 1247.34 497.849 1251.87C497.849 1256.4 509.066 1260.06 522.902 1260.06Z" stroke="#0B4061" stroke-width="2" stroke-miterlimit="10"/>
<path d="M547.955 1245.03C547.955 1249.56 536.738 1253.23 522.902 1253.23C509.065 1253.23 497.85 1249.56 497.85 1245.03C497.85 1240.51 509.065 1236.84 522.902 1236.84C536.738 1236.84 547.955 1240.51 547.955 1245.03Z" fill="white"/>
<path d="M522.902 1253.23C536.738 1253.23 547.955 1249.56 547.955 1245.03C547.955 1240.51 536.738 1236.84 522.902 1236.84C509.066 1236.84 497.849 1240.51 497.849 1245.03C497.849 1249.56 509.066 1253.23 522.902 1253.23Z" stroke="#0B4061" stroke-width="2" stroke-miterlimit="10"/>
<path d="M547.955 1238.32C547.955 1242.84 536.738 1246.51 522.902 1246.51C509.065 1246.51 497.85 1242.84 497.85 1238.32C497.85 1233.79 509.065 1230.12 522.902 1230.12C536.738 1230.12 547.955 1233.79 547.955 1238.32Z" fill="white"/>
<path d="M522.902 1246.51C536.738 1246.51 547.955 1242.84 547.955 1238.32C547.955 1233.79 536.738 1230.12 522.902 1230.12C509.066 1230.12 497.849 1233.79 497.849 1238.32C497.849 1242.84 509.066 1246.51 522.902 1246.51Z" stroke="#0B4061" stroke-width="2" stroke-miterlimit="10"/>
<path d="M547.955 1231.77C547.955 1236.3 536.738 1239.97 522.902 1239.97C509.065 1239.97 497.85 1236.3 497.85 1231.77C497.85 1227.24 509.065 1223.57 522.902 1223.57C536.738 1223.57 547.955 1227.24 547.955 1231.77Z" fill="white"/>
<path d="M522.902 1239.97C536.738 1239.97 547.955 1236.3 547.955 1231.77C547.955 1227.25 536.738 1223.58 522.902 1223.58C509.066 1223.58 497.849 1227.25 497.849 1231.77C497.849 1236.3 509.066 1239.97 522.902 1239.97Z" stroke="#0B4061" stroke-width="2" stroke-miterlimit="10"/>
<path d="M547.955 1225.05C547.955 1229.58 536.738 1233.25 522.902 1233.25C509.065 1233.25 497.85 1229.58 497.85 1225.05C497.85 1220.53 509.065 1216.86 522.902 1216.86C536.738 1216.86 547.955 1220.53 547.955 1225.05Z" fill="white"/>
<path d="M522.902 1233.25C536.738 1233.25 547.955 1229.58 547.955 1225.05C547.955 1220.53 536.738 1216.86 522.902 1216.86C509.066 1216.86 497.849 1220.53 497.849 1225.05C497.849 1229.58 509.066 1233.25 522.902 1233.25Z" stroke="#0B4061" stroke-width="2" stroke-miterlimit="10"/>
<path d="M547.955 1218.22C547.955 1222.74 536.738 1226.41 522.902 1226.41C509.065 1226.41 497.85 1222.74 497.85 1218.22C497.85 1213.69 509.065 1210.02 522.902 1210.02C536.738 1210.02 547.955 1213.69 547.955 1218.22Z" fill="white"/>
<path d="M522.902 1226.41C536.738 1226.41 547.955 1222.74 547.955 1218.22C547.955 1213.69 536.738 1210.02 522.902 1210.02C509.066 1210.02 497.849 1213.69 497.849 1218.22C497.849 1222.74 509.066 1226.41 522.902 1226.41Z" stroke="#0B4061" stroke-width="2" stroke-miterlimit="10"/>
<path d="M547.955 1211.5C547.955 1216.03 536.738 1219.69 522.902 1219.69C509.065 1219.69 497.85 1216.03 497.85 1211.5C497.85 1206.97 509.065 1203.3 522.902 1203.3C536.738 1203.3 547.955 1206.97 547.955 1211.5Z" fill="white"/>
<path d="M522.902 1219.69C536.738 1219.69 547.955 1216.03 547.955 1211.5C547.955 1206.97 536.738 1203.3 522.902 1203.3C509.066 1203.3 497.849 1206.97 497.849 1211.5C497.849 1216.03 509.066 1219.69 522.902 1219.69Z" stroke="#0B4061" stroke-width="2" stroke-miterlimit="10"/>
<path d="M547.955 1211.67C547.955 1216.2 536.738 1219.87 522.902 1219.87C509.065 1219.87 497.85 1216.2 497.85 1211.67C497.85 1207.15 509.065 1203.48 522.902 1203.48C536.738 1203.48 547.955 1207.15 547.955 1211.67Z" fill="white"/>
<path d="M522.902 1219.87C536.738 1219.87 547.955 1216.2 547.955 1211.67C547.955 1207.15 536.738 1203.48 522.902 1203.48C509.066 1203.48 497.849 1207.15 497.849 1211.67C497.849 1216.2 509.066 1219.87 522.902 1219.87Z" stroke="#0B4061" stroke-width="2" stroke-miterlimit="10"/>
<path d="M547.955 1204.95C547.955 1209.48 536.738 1213.15 522.902 1213.15C509.065 1213.15 497.85 1209.48 497.85 1204.95C497.85 1200.43 509.065 1196.76 522.902 1196.76C536.738 1196.76 547.955 1200.43 547.955 1204.95Z" fill="white"/>
<path d="M522.902 1213.15C536.738 1213.15 547.955 1209.48 547.955 1204.95C547.955 1200.43 536.738 1196.76 522.902 1196.76C509.066 1196.76 497.849 1200.43 497.849 1204.95C497.849 1209.48 509.066 1213.15 522.902 1213.15Z" stroke="#0B4061" stroke-width="2" stroke-miterlimit="10"/>
<path d="M547.955 1198.12C547.955 1202.64 536.738 1206.31 522.902 1206.31C509.065 1206.31 497.85 1202.64 497.85 1198.12C497.85 1193.59 509.065 1189.92 522.902 1189.92C536.738 1189.92 547.955 1193.59 547.955 1198.12Z" fill="white"/>
<path d="M522.902 1206.31C536.738 1206.31 547.955 1202.64 547.955 1198.12C547.955 1193.59 536.738 1189.92 522.902 1189.92C509.066 1189.92 497.849 1193.59 497.849 1198.12C497.849 1202.64 509.066 1206.31 522.902 1206.31Z" stroke="#0B4061" stroke-width="2" stroke-miterlimit="10"/>
<path d="M547.955 1191.4C547.955 1195.93 536.738 1199.6 522.902 1199.6C509.065 1199.6 497.85 1195.93 497.85 1191.4C497.85 1186.88 509.065 1183.21 522.902 1183.21C536.738 1183.21 547.955 1186.88 547.955 1191.4Z" fill="white"/>
<path d="M522.902 1199.6C536.738 1199.6 547.955 1195.93 547.955 1191.4C547.955 1186.88 536.738 1183.21 522.902 1183.21C509.066 1183.21 497.849 1186.88 497.849 1191.4C497.849 1195.93 509.066 1199.6 522.902 1199.6Z" stroke="#0B4061" stroke-width="2" stroke-miterlimit="10"/>
</svg>
