<?xml version="1.0" encoding="utf-8"?>
<!-- Generator: Adobe Illustrator 16.0.0, SVG Export Plug-In . SVG Version: 6.00 Build 0)  -->
<!DOCTYPE svg PUBLIC "-//W3C//DTD SVG 1.1//EN" "http://www.w3.org/Graphics/SVG/1.1/DTD/svg11.dtd">
<svg version="1.1" id="Layer_1" xmlns="http://www.w3.org/2000/svg" xmlns:xlink="http://www.w3.org/1999/xlink" x="0px" y="0px"
	 width="1304px" height="888px" viewBox="0 0 1304 888" enable-background="new 0 0 1304 888" xml:space="preserve">
<g>
	<defs>
		<rect id="SVGID_1_" x="-3604" y="-528.399" width="12912.2" height="8488.399"/>
	</defs>
	<clipPath id="SVGID_2_">
		<use xlink:href="#SVGID_1_"  overflow="visible"/>
	</clipPath>
	<g clip-path="url(#SVGID_2_)">
		<defs>
			<rect id="SVGID_3_" x="-3604" y="-528.403" width="12912.166" height="8488.403"/>
		</defs>
		<clipPath id="SVGID_4_">
			<use xlink:href="#SVGID_3_"  overflow="visible"/>
		</clipPath>
	</g>
	<g clip-path="url(#SVGID_2_)">
		<defs>
			<rect id="SVGID_55_" x="-3604" y="-528.403" width="12912.166" height="8488.403"/>
		</defs>
		<clipPath id="SVGID_6_">
			<use xlink:href="#SVGID_55_"  overflow="visible"/>
		</clipPath>
	</g>
	<g clip-path="url(#SVGID_2_)">
		<defs>
			<rect id="SVGID_73_" x="-3604" y="-528.403" width="12912.166" height="8488.403"/>
		</defs>
		<clipPath id="SVGID_8_">
			<use xlink:href="#SVGID_73_"  overflow="visible"/>
		</clipPath>
	</g>
	<g clip-path="url(#SVGID_2_)">
		<defs>
			<rect id="SVGID_83_" x="-3604" y="-528.403" width="12912.166" height="8488.403"/>
		</defs>
		<clipPath id="SVGID_10_">
			<use xlink:href="#SVGID_83_"  overflow="visible"/>
		</clipPath>
	</g>
	<g clip-path="url(#SVGID_2_)">
		<defs>
			<rect id="SVGID_89_" x="-3604" y="-528.403" width="12912.166" height="8488.403"/>
		</defs>
		<clipPath id="SVGID_12_">
			<use xlink:href="#SVGID_89_"  overflow="visible"/>
		</clipPath>
	</g>
	<g clip-path="url(#SVGID_2_)">
		<defs>
			<rect id="SVGID_95_" x="-3604" y="-528.403" width="12912.166" height="8488.403"/>
		</defs>
		<clipPath id="SVGID_14_">
			<use xlink:href="#SVGID_95_"  overflow="visible"/>
		</clipPath>
	</g>
	<g clip-path="url(#SVGID_2_)">
		<defs>
			<rect id="SVGID_97_" x="-3604" y="-528.403" width="12912.166" height="8488.403"/>
		</defs>
		<clipPath id="SVGID_16_">
			<use xlink:href="#SVGID_97_"  overflow="visible"/>
		</clipPath>
	</g>
	<g clip-path="url(#SVGID_2_)">
		<defs>
			<rect id="SVGID_123_" x="-3604" y="-528.403" width="12912.166" height="8488.403"/>
		</defs>
		<clipPath id="SVGID_18_">
			<use xlink:href="#SVGID_123_"  overflow="visible"/>
		</clipPath>
	</g>
	<g clip-path="url(#SVGID_2_)">
		<defs>
			<rect id="SVGID_261_" x="-3604" y="-528.403" width="12912.166" height="8488.403"/>
		</defs>
		<clipPath id="SVGID_20_">
			<use xlink:href="#SVGID_261_"  overflow="visible"/>
		</clipPath>
	</g>
	<g clip-path="url(#SVGID_2_)">
		<defs>
			<rect id="SVGID_263_" x="-3604" y="-528.403" width="12912.166" height="8488.403"/>
		</defs>
		<clipPath id="SVGID_22_">
			<use xlink:href="#SVGID_263_"  overflow="visible"/>
		</clipPath>
	</g>
	<g clip-path="url(#SVGID_2_)">
		<defs>
			<rect id="SVGID_291_" x="-3604" y="-528.403" width="12912.166" height="8488.403"/>
		</defs>
		<clipPath id="SVGID_24_">
			<use xlink:href="#SVGID_291_"  overflow="visible"/>
		</clipPath>
	</g>
	<g clip-path="url(#SVGID_2_)">
		<defs>
			<rect id="SVGID_357_" x="-3604" y="-528.403" width="12912.166" height="8488.403"/>
		</defs>
		<clipPath id="SVGID_26_">
			<use xlink:href="#SVGID_357_"  overflow="visible"/>
		</clipPath>
	</g>
	<g clip-path="url(#SVGID_2_)">
		<defs>
			<rect id="SVGID_359_" x="-3604" y="-528.403" width="12912.166" height="8488.403"/>
		</defs>
		<clipPath id="SVGID_28_">
			<use xlink:href="#SVGID_359_"  overflow="visible"/>
		</clipPath>
	</g>
	<g clip-path="url(#SVGID_2_)">
		<defs>
			<rect id="SVGID_377_" x="-3604" y="-528.403" width="12912.166" height="8488.403"/>
		</defs>
		<clipPath id="SVGID_30_">
			<use xlink:href="#SVGID_377_"  overflow="visible"/>
		</clipPath>
	</g>
	<g clip-path="url(#SVGID_2_)">
		<defs>
			<rect id="SVGID_379_" x="-3604" y="-528.403" width="12912.166" height="8488.403"/>
		</defs>
		<clipPath id="SVGID_32_">
			<use xlink:href="#SVGID_379_"  overflow="visible"/>
		</clipPath>
	</g>
	<g clip-path="url(#SVGID_2_)">
		<defs>
			<rect id="SVGID_381_" x="-3604" y="-528.403" width="12912.166" height="8488.403"/>
		</defs>
		<clipPath id="SVGID_34_">
			<use xlink:href="#SVGID_381_"  overflow="visible"/>
		</clipPath>
	</g>
	<g clip-path="url(#SVGID_2_)">
		<defs>
			<rect id="SVGID_383_" x="-3604" y="-528.403" width="12912.166" height="8488.403"/>
		</defs>
		<clipPath id="SVGID_36_">
			<use xlink:href="#SVGID_383_"  overflow="visible"/>
		</clipPath>
		<polyline clip-path="url(#SVGID_36_)" fill="#00A1CD" points="289.59,598.175 310.418,734.655 335.383,734.655 356.211,598.117 		
			"/>
		<polygon clip-path="url(#SVGID_36_)" fill="#56C5D0" points="335.139,768.58 310.664,768.58 300.761,671.572 346.905,671.572 		
			"/>
		<path clip-path="url(#SVGID_36_)" fill="#504B48" d="M310.901,769.126c0-23.177,18.789-41.967,41.967-41.967
			c23.179,0,41.968,18.79,41.968,41.967"/>
		<polyline clip-path="url(#SVGID_36_)" fill="#00A1CD" points="231.144,607.979 254.969,764.087 279.933,764.087 300.762,621.542 
					"/>
		<polygon clip-path="url(#SVGID_36_)" fill="#56C5D0" points="277.848,798.012 253.373,798.012 243.471,701.005 289.615,701.005 		
			"/>
		<path clip-path="url(#SVGID_36_)" fill="#504B48" d="M252.241,798.56c0-23.178,18.79-41.967,41.967-41.967
			c23.179,0,41.968,18.79,41.968,41.967"/>
		<path clip-path="url(#SVGID_36_)" fill="#00A1CD" d="M76.828,300.917c0,141.435,134.764,340.5,215.232,340.5
			c90.204,0,242.621-196.203,242.621-337.638S426.057,129.238,292.061,129.238C158.065,129.238,76.828,159.483,76.828,300.917"/>
		<path clip-path="url(#SVGID_36_)" fill="#FFFFFF" d="M509.956,361.233c0.149-20.663-16.48-37.535-37.143-37.685
			c-20.665-0.15-37.537,16.48-37.686,37.143"/>
		<path clip-path="url(#SVGID_36_)" fill="none" stroke="#0D4060" stroke-width="3" stroke-miterlimit="10" d="M449.031,312.355
			c0,0,8.175-22.588,32.169-9.317"/>
		<path clip-path="url(#SVGID_36_)" fill="#0D4060" d="M512.791,401.452l-59.799-0.397c0,0,8.408,27.693,50.765,27.152
			c0,0,9.532-16.521,10.68-26.742L512.791,401.452z"/>
		<path clip-path="url(#SVGID_36_)" fill="#00A1CD" d="M511.409,376.358c-0.063,8.782,7.004,15.953,15.786,16.016
			c8.782,0.064,15.953-7.003,16.016-15.785c0.064-8.782-7.004-15.954-15.786-16.017
			C518.642,360.508,511.472,367.576,511.409,376.358"/>
		<path clip-path="url(#SVGID_36_)" fill="none" stroke="#00A1CD" stroke-width="14" stroke-miterlimit="10" d="M347.152,502.976
			c0,0,33.756,37.587,64.431,45.02c52.871,12.81,53.359,8.656,96.559,10.985"/>
		<path clip-path="url(#SVGID_36_)" fill="#A2CCED" d="M564.331,577.294c2.552-0.05,4.594-2.409,4.539-5.242
			c-0.055-2.833-2.189-5.11-4.741-5.06l-17.704,0.347c0.629-1.342,1.104-2.778,1.441-4.274l21.224-0.416
			c2.551-0.05,4.594-2.409,4.539-5.242c-0.055-2.833-2.189-5.11-4.741-5.06l-21.224,0.416c-0.355-1.331-0.828-2.604-1.415-3.803
			l18.239-0.357c2.553-0.05,4.595-2.409,4.54-5.242c-0.055-2.833-2.189-5.11-4.741-5.06l-30.394,0.595
			c-0.965-0.203-1.961-0.298-2.972-0.319l5.782-2.083c2.425-0.873,3.757-3.792,2.96-6.489c-0.796-2.695-3.433-4.186-5.857-3.313
			l-30.901,11.127c-1.189,0.427-2.11,1.351-2.651,2.496c-6.793,2.87-11.589,10.242-11.422,18.753
			c0.212,10.833,8.37,19.541,18.13,19.35l24.086-0.472c0.172-0.004,0.337-0.03,0.509-0.039c0.085,0.004,0.169,0.026,0.256,0.024
			L564.331,577.294z"/>
		<path clip-path="url(#SVGID_36_)" fill="none" stroke="#00A1CD" stroke-width="14" stroke-miterlimit="10" d="M388.786,466.026
			c0,0,43.836,25.114,75.294,22.557c54.223-4.406,53.385-8.504,95.137-19.832"/>
		<path clip-path="url(#SVGID_36_)" fill="#A2CCED" d="M618.314,468.529c2.408-0.846,3.608-3.726,2.668-6.4
			c-0.941-2.673-3.68-4.166-6.088-3.318l-16.703,5.877c0.177-1.47,0.178-2.984,0.029-4.51l20.024-7.048
			c2.409-0.847,3.608-3.727,2.668-6.4c-0.941-2.673-3.681-4.167-6.089-3.318l-20.023,7.046c-0.755-1.152-1.603-2.213-2.537-3.167
			l17.208-6.056c2.409-0.847,3.609-3.728,2.668-6.401c-0.941-2.672-3.68-4.166-6.088-3.318l-28.676,10.091
			c-0.98,0.11-1.957,0.331-2.923,0.627l4.838-3.789c2.029-1.59,2.379-4.78,0.778-7.09c-1.602-2.31-4.572-2.899-6.601-1.31
			l-25.857,20.251c-0.996,0.779-1.58,1.945-1.735,3.201c-5.551,4.855-7.795,13.357-4.969,21.389
			c3.597,10.22,14.074,15.932,23.282,12.691l22.724-7.997c0.162-0.057,0.312-0.133,0.471-0.197c0.083-0.022,0.167-0.028,0.25-0.056
			L618.314,468.529z"/>
		<g opacity="0.7" clip-path="url(#SVGID_36_)">
			<g>
				<defs>
					<rect id="SVGID_385_" x="385.48" y="377.72" width="49.65" height="16.28"/>
				</defs>
				<clipPath id="SVGID_38_">
					<use xlink:href="#SVGID_385_"  overflow="visible"/>
				</clipPath>
				<path clip-path="url(#SVGID_38_)" fill="#A2CCED" d="M385.479,386.807c0.17,4.467,11.422,7.665,25.131,7.143
					c13.71-0.522,24.686-4.566,24.516-9.034c-0.17-4.466-11.422-7.665-25.131-7.142
					C396.284,378.295,385.308,382.339,385.479,386.807"/>
			</g>
		</g>
		<path clip-path="url(#SVGID_36_)" fill="#00A1CD" d="M1215.869,338.343c14.166,105.025-59.491,201.648-164.516,215.813
			c-105.025,14.166-201.648-59.491-215.813-164.515c-14.166-105.025,59.489-201.647,164.516-215.813
			C1105.08,159.663,1201.703,233.318,1215.869,338.343"/>
		<path clip-path="url(#SVGID_36_)" fill="#FFFFFF" d="M849.785,358.07c0.552-14.484,12.741-25.78,27.226-25.227
			c14.484,0.551,25.779,12.74,25.228,27.226"/>
		<path clip-path="url(#SVGID_36_)" fill="none" stroke="#0D4060" stroke-width="3" stroke-miterlimit="10" d="M894.031,325.755
			c0,0-5.011-16.09-22.248-7.552"/>
		<path clip-path="url(#SVGID_36_)" fill="#0D4060" d="M835.109,385.646l38.493,1.467c0,0-6.771,19.139-36.435,17.414
			c0,0-2.732-11.724-3.211-18.924L835.109,385.646z"/>
		<g opacity="0.7" clip-path="url(#SVGID_36_)">
			<g>
				<defs>
					<rect id="SVGID_387_" x="895.02" y="376.84" width="34.83" height="11.42"/>
				</defs>
				<clipPath id="SVGID_40_">
					<use xlink:href="#SVGID_387_"  overflow="visible"/>
				</clipPath>
				<path clip-path="url(#SVGID_40_)" fill="#A2CCED" d="M929.853,383.211c-0.119,3.134-8.012,5.377-17.629,5.01
					c-9.617-0.366-17.317-3.203-17.197-6.336c0.119-3.134,8.011-5.377,17.629-5.01C922.272,377.242,929.973,380.079,929.853,383.211
					"/>
			</g>
		</g>
		<path clip-path="url(#SVGID_36_)" fill="#00A1CD" d="M846.004,368.519c-0.234,6.157-5.415,10.958-11.571,10.723
			s-10.956-5.415-10.723-11.571c0.236-6.156,5.416-10.956,11.572-10.722C841.438,357.184,846.238,362.363,846.004,368.519"/>
		<path clip-path="url(#SVGID_36_)" fill="none" stroke="#00A1CD" stroke-width="11" stroke-miterlimit="10" d="M862.154,430.302
			c0,0-17.728-18.32-33.433-21.36c-27.067-5.238-27.254-3.111-49.246-3.249"/>
		<polyline clip-path="url(#SVGID_36_)" fill="#00A1CD" points="1026.959,535.001 1012.348,630.738 994.836,630.738 980.226,534.96 
					"/>
		<polygon clip-path="url(#SVGID_36_)" fill="#5652A3" points="995.008,654.536 1012.176,654.536 1019.122,586.487 986.753,586.487 
					"/>
		<path clip-path="url(#SVGID_36_)" fill="#504B48" d="M1012.009,654.919c0-16.258-13.181-29.438-29.439-29.438
			c-16.259,0-29.439,13.18-29.439,29.438"/>
		<polyline clip-path="url(#SVGID_36_)" fill="#00A1CD" points="1067.958,541.878 1051.245,651.384 1033.733,651.384 
			1019.122,551.392 		"/>
		<polygon clip-path="url(#SVGID_36_)" fill="#5652A3" points="1035.196,675.182 1052.364,675.182 1059.31,607.134 
			1026.941,607.134 		"/>
		<path clip-path="url(#SVGID_36_)" fill="#504B48" d="M1052.197,675.566c0-16.259-13.18-29.439-29.439-29.439
			c-16.259,0-29.439,13.18-29.439,29.439"/>
		<path clip-path="url(#SVGID_36_)" fill="#0D4060" d="M850.88,351.185c2.014,2.09,4.955,3.234,8.052,2.817
			c5.162-0.696,8.783-5.446,8.086-10.609c-0.397-2.95-2.122-5.391-4.487-6.817C857.063,339.814,852.856,344.983,850.88,351.185"/>
		<path clip-path="url(#SVGID_36_)" fill="none" stroke="#00A1CD" stroke-width="11" stroke-miterlimit="10" d="M869.215,457.501
			c0,0-23.449,10.004-39.102,6.71c-26.98-5.677-26.325-7.711-46.647-16.12"/>
		<g opacity="0.7" clip-path="url(#SVGID_36_)">
			<g>
				<defs>
					<rect id="SVGID_389_" x="916.009" y="202.34" width="250.681" height="216.229"/>
				</defs>
				<clipPath id="SVGID_42_">
					<use xlink:href="#SVGID_389_"  overflow="visible"/>
				</clipPath>
				<path clip-path="url(#SVGID_42_)" fill="#FFFFFF" d="M1104.755,406.837c1.872,5.367,0.364,8.283-4.885,10.371
					c-6.373,2.537-9.435,1.75-13.573-4.206c-11.224-16.156-23.554-31.285-38.994-43.685c-2.605-2.09-4.852-2.842-8.414-2.128
					c-23.592,4.736-44.25-1.343-61.628-17.991c-2.188-2.097-3.949-3.1-7.082-2.508c-9.346,1.769-17.973-0.503-25.253-6.478
					c-10.749-8.821-18.267-20.473-24.305-32.625c-3.415-6.871-4.881-15.534-4.573-23.284c1.199-30.247,27.139-58.291,58.096-63.932
					c4.91-0.895,9.05-2.728,13.412-5.39c21.838-13.332,44.723-17.503,68.863-5.735c2.048,0.998,4.91,0.972,7.261,0.597
					c19.763-3.149,46.832,6.883,56.469,26.055c0.714,1.419,2.32,2.786,3.822,3.354c21.748,8.23,34.519,27.017,34.351,50.447
					c-0.016,2.202,0.72,4.721,1.911,6.577c13.675,21.311,4.747,52.738-18.408,63.169c-5.169,2.331-8.562,5.17-11.509,10.268
					c-3.048,5.268-8.331,9.641-13.476,13.187c-5.189,3.575-11.412,5.65-17.985,8.765
					C1100.819,396.677,1102.963,401.696,1104.755,406.837 M1161.547,320.446c0.855-15.125-5.5-25.717-19.315-32.726
					c-1.587-0.806-2.557-2.828-3.812-4.287c1.947-0.054,4.093-0.656,5.798-0.04c2.857,1.034,5.432,2.843,8.209,4.372
					c2.884-15.791-11.83-37.928-28.682-42.853c0.15,3.143,0.608,6.153,0.295,9.08c-0.148,1.38-1.775,2.603-2.731,3.896
					c-0.726-1.285-2.067-2.559-2.085-3.853c-0.205-14.896-7.491-25.502-20.239-32.215c-19.563-10.302-38.748-11.539-56.639,4.083
					c-0.9,0.786-2.787,0.441-4.215,0.622c0.337-1.429,0.191-3.435,1.094-4.187c3.899-3.252,8.104-6.138,12.702-9.527
					c-8.58-4.561-17.623-5.673-26.917-5.038c-12.433,0.851-24.257,4.029-34.541,11.31c-3.353,2.374-5.875,5.915-8.805,8.895
					c-1.401,1.424-2.867,2.786-4.303,4.175c-0.542-1.999-1.084-3.998-1.931-7.124c-4.386,1.421-9.843,2.604-14.789,4.891
					c-21.82,10.082-35.125,27.106-39.404,50.75c-2.237,12.354,1.366,24.448,8.779,33.408c1.018-3.595,1.815-7.277,3.158-10.746
					c0.453-1.167,2.295-1.796,3.502-2.672c0.357,1.402,1.391,3.063,0.968,4.167c-4.422,11.565-1.531,21.189,7.43,29.25
					c9.879,8.889,21.145,10.319,33.235,5.467c3.694-1.484,6.947-4.03,10.552-5.779c1.191-0.579,2.854-0.185,4.302-0.236
					c-0.471,1.387-0.519,3.358-1.486,4.055c-3.527,2.542-7.36,4.659-11.078,6.935c9.11,13.878,36.429,22.608,56.092,17.458
					c-1.348-1.088-2.601-1.733-3.293-2.757c-0.783-1.159-1.06-2.658-1.557-4.007c1.443-0.001,3.376-0.613,4.259,0.091
					c10.007,7.973,20.602,15.407,29.532,24.471c9.06,9.194,16.352,20.118,24.63,30.108c1.28,1.543,3.674,2.955,5.589,3.002
					c3.472,0.088,5.575-1.722,3.595-5.663c-4.832-9.617-9.695-19.22-14.39-28.903c-0.755-1.556-0.711-3.499-1.037-5.264
					c1.717,0.852,3.569,1.518,5.104,2.625c0.974,0.704,1.491,2.051,2.186,3.126c5.206,8.054,5.361,8.39,14.227,4.224
					c5.729-2.691,11.436-5.928,16.223-10.01c7.084-6.041,8.904-14.34,7.433-23.509c-0.272-1.693,0.956-3.629,1.491-5.453
					c1.117,1.613,2.624,3.086,3.254,4.87c0.836,2.369,0.991,4.979,1.437,7.482C1150.022,352.644,1160.543,338.218,1161.547,320.446"
					/>
				<path clip-path="url(#SVGID_42_)" fill="#A2CCED" d="M1133.939,348.928c-0.63-1.784-2.137-3.258-3.254-4.871
					c-0.536,1.823-1.763,3.758-1.491,5.452c1.471,9.168-0.349,17.468-7.433,23.509c-4.787,4.083-10.494,7.319-16.223,10.011
					c-8.866,4.166-9.021,3.829-14.227-4.225c-0.695-1.075-1.212-2.422-2.186-3.125c-1.535-1.107-3.387-1.773-5.104-2.626
					c0.326,1.766,0.282,3.708,1.037,5.265c4.694,9.684,9.558,19.287,14.39,28.903c1.98,3.94-0.123,5.75-3.595,5.663
					c-1.915-0.048-4.31-1.46-5.589-3.003c-8.278-9.99-15.57-20.913-24.63-30.108c-8.93-9.063-19.525-16.5-29.532-24.472
					c-0.883-0.703-2.815-0.092-4.259-0.091c0.497,1.352,0.773,2.851,1.557,4.008c0.692,1.024,1.945,1.669,3.292,2.758
					c-19.662,5.149-46.98-3.579-56.091-17.459c3.717-2.276,7.551-4.391,11.078-6.933c0.967-0.697,1.015-2.669,1.486-4.055
					c-1.448,0.051-3.111-0.343-4.302,0.235c-3.605,1.75-6.86,4.297-10.552,5.778c-12.09,4.854-23.356,3.422-33.235-5.466
					c-8.961-8.063-11.852-17.687-7.43-29.25c0.422-1.104-0.611-2.765-0.968-4.167c-1.207,0.875-3.049,1.505-3.502,2.671
					c-1.343,3.469-2.14,7.15-3.154,10.747c-7.417-8.961-11.02-21.055-8.783-33.41c4.279-23.643,17.584-40.667,39.404-50.75
					c4.946-2.286,10.403-3.469,14.789-4.89c0.847,3.126,1.389,5.125,1.931,7.124c1.436-1.39,2.901-2.751,4.303-4.175
					c2.93-2.98,5.452-6.52,8.805-8.895c10.284-7.282,22.108-10.46,34.541-11.31c9.294-0.637,18.336,0.476,26.917,5.037
					c-4.598,3.391-8.803,6.275-12.702,9.527c-0.902,0.752-0.757,2.758-1.094,4.188c1.428-0.182,3.315,0.163,4.215-0.623
					c17.891-15.622,37.076-14.384,56.639-4.083c12.748,6.713,20.034,17.318,20.239,32.215c0.018,1.294,1.359,2.57,2.085,3.854
					c0.956-1.294,2.583-2.516,2.731-3.897c0.313-2.927-0.145-5.938-0.295-9.08c16.852,4.926,31.566,27.062,28.682,42.853
					c-2.777-1.529-5.353-3.338-8.209-4.372c-1.705-0.617-3.851-0.014-5.798,0.04c1.255,1.458,2.225,3.482,3.812,4.288
					c13.815,7.008,20.17,17.601,19.315,32.725c-1.003,17.772-11.524,32.198-26.17,35.963
					C1134.93,353.906,1134.776,351.297,1133.939,348.928 M1015.896,306.071c6.767,0.591,12.997,2.046,18.019,6.93
					c5.221,5.078,6.198,12.877,2.233,17.9c-3.708,4.697-10.442,4.931-16.811,0.369c-2.215-1.587-3.987-3.789-6.198-5.386
					c-0.947-0.686-2.494-0.542-3.768-0.774c0.046,1.325-0.382,2.935,0.215,3.927c4.785,7.941,17.25,12.51,24.944,9.33
					c7.513-3.104,10.532-11.649,7.975-22.576c10.753-7.975,24.629-4.573,30.458,7.303c0.722,1.471,2.571,2.389,3.896,3.563
					c0.191-1.932,1.077-4.124,0.463-5.751c-4.651-12.348-20.603-18.04-33.807-11.917c-3.331,1.545-5.327,1.468-8.073-1.075
					c-5.649-5.232-12.794-6.587-20.329-6.868c-5.07-0.189-10.348-0.377-15.121-1.876c-11.327-3.559-16.344-12.616-14.597-24.264
					c0.214-1.43-0.799-3.044-1.244-4.573c-1.207,1.297-3.128,2.417-3.501,3.92c-1.812,7.311-0.691,14.361,4.247,20.141
					c2.591,3.032,2.279,5.419,0.452,8.273c-4.83,7.54-11.872,10.535-20.616,9.93c-1.636-0.113-3.27-0.727-4.878-0.635
					c-1.561,0.09-3.086,0.791-4.627,1.223c1.114,1.176,2.018,2.958,3.377,3.435c10.998,3.848,23.994-0.788,30.399-10.63
					c0.978-1.504,1.86-3.069,2.787-4.606c0.01,0.544,0.021,1.087,0.031,1.63C999.846,304.059,1007.844,305.369,1015.896,306.071
					 M1100.991,361.613c0.453,1.5,1.752,2.745,2.664,4.107c0.741-1.623,2.373-3.443,2.064-4.833
					c-1.217-5.487-3.205-10.8-4.555-16.265c-0.448-1.812-0.194-3.992,0.355-5.819c1.609-5.354,4.373-10.5,5.108-15.94
					c0.913-6.76,7.355-13.21,15.708-13.798c6.868-0.484,12.783,4.328,13.69,11.495c0.315,2.487-0.411,5.092-0.241,7.615
					c0.102,1.516,1.015,2.978,1.563,4.463c1.098-1.221,2.768-2.271,3.196-3.693c2.383-7.946-0.439-16.726-6.517-21.246
					c-6.692-4.978-14.451-5.199-22.1-0.502c-2.161,1.327-4.143,2.946-6.51,4.648c-2.253-4.234-4.432-8.327-6.752-12.688
					c6.671-3.196,11.657-7.913,13.423-15.12c0.465-1.901-0.569-4.172-0.915-6.272c-1.192,1.478-2.949,2.777-3.485,4.462
					c-3.815,11.994-16.971,16.926-27.944,9.518c-4.668-3.152-7.882-8.422-11.906-12.587c-1.075-1.11-2.702-1.688-4.074-2.509
					c-0.1,1.65-0.876,3.682-0.193,4.891c5.645,9.996,13.192,17.513,25.523,18.381c1.513,0.106,3.354,0.598,4.395,1.591
					c8.499,8.122,10.914,24.129,4.231,33.347c-2.917,4.024-8.024,6.437-12.034,9.708c-1.213,0.989-2.076,2.408-3.099,3.628
					c1.432,0.393,3.02,1.383,4.265,1.06c2.945-0.765,5.729-2.154,9.787-3.774C1098.072,350.889,1099.387,356.294,1100.991,361.613
					 M1067.184,231.687c0.972-0.474,1.341-2.185,1.989-3.325c-1.421-0.333-3.038-1.277-4.233-0.897
					c-5.274,1.674-7.602,6.018-8.771,11.032c-0.613,2.636-0.779,5.377-1.071,7.51c-9.486,3.037-18.616,6.064-27.837,8.784
					c-1.193,0.352-3.009-0.645-4.274-1.437c-6.099-3.82-12.651-5.771-19.831-4.79c-1.261,0.173-2.341,1.674-3.504,2.563
					c1.23,0.765,2.516,2.272,3.681,2.183c15.481-1.171,26.767,9.28,28.241,25.741c0.148,1.651,1.941,3.153,2.971,4.725
					c0.619-1.876,1.834-3.787,1.726-5.619c-0.193-3.252-0.905-6.549-1.931-9.653c-0.965-2.916-2.616-5.604-4.376-9.243
					c15.152-5.923,30.224-10.711,46.468-4.558c5.071,1.921,7.988,6.103,9.904,11.15c0.506,1.336,2.332,2.173,3.552,3.238
					c0.381-1.594,1.41-3.362,1.036-4.753c-2.127-7.903-7.693-12.815-15.206-15.251c-4.622-1.499-9.577-1.978-15.148-3.063
					C1060.574,240.199,1060.917,234.742,1067.184,231.687 M950.038,288.342c-0.147,1.627,1.802,3.442,2.789,5.172
					c0.749-1.776,2.162-3.558,2.142-5.324c-0.174-15.396,6.892-25.353,21.361-30.087c1.456-0.477,2.438-2.406,3.64-3.661
					c-1.589-0.374-3.543-1.529-4.703-0.987c-5.067,2.368-10.192,4.827-14.707,8.071c-2.452,1.763-4.031,2.77-7.109,1.652
					c-5.777-2.097-11.607-1.479-16.881,1.766c-1.068,0.657-1.371,2.556-2.026,3.882c1.434,0.165,3.171,0.935,4.251,0.393
					c4.887-2.449,9.687-2.995,14.167-0.904C951.855,275.478,950.619,281.879,950.038,288.342 M1059.085,328.421
					c-0.54-0.713-2.504-0.349-3.812-0.482c0.18,1.308-0.124,3.074,0.615,3.855c8.094,8.578,6.717,17.727,2.179,27.303
					c-0.679,1.43-0.19,3.413-0.242,5.14c1.517-0.946,3.604-1.539,4.453-2.901c3.783-6.065,5.055-12.796,3.943-22.516
					C1064.742,336.611,1062.087,332.385,1059.085,328.421 M1001.795,229.005c0.381-0.82-0.426-2.193-0.682-3.31
					c-1.211,0.427-2.706,0.539-3.583,1.333c-4.381,3.966-8.655,8.058-12.829,12.242c-0.854,0.856-1.517,2.313-1.475,3.466
					c0.019,0.544,1.913,1.02,2.603,1.356C993.264,240.665,998.595,235.888,1001.795,229.005"/>
				<path clip-path="url(#SVGID_42_)" fill="#FFFFFF" d="M991.826,303.011c8.021,1.048,16.018,2.358,24.07,3.06
					c6.768,0.592,12.998,2.046,18.02,6.93c5.22,5.079,6.198,12.877,2.233,17.9c-3.708,4.697-10.443,4.931-16.811,0.368
					c-2.215-1.586-3.988-3.789-6.197-5.384c-0.948-0.685-2.494-0.542-3.769-0.774c0.047,1.325-0.381,2.935,0.215,3.927
					c4.785,7.94,17.25,12.509,24.944,9.33c7.513-3.104,10.531-11.649,7.975-22.577c10.753-7.974,24.629-4.572,30.458,7.304
					c0.721,1.47,2.57,2.388,3.896,3.564c0.191-1.931,1.077-4.123,0.463-5.752c-4.651-12.349-20.602-18.041-33.806-11.917
					c-3.332,1.544-5.327,1.467-8.073-1.075c-5.65-5.231-12.794-6.586-20.329-6.868c-5.07-0.19-10.348-0.377-15.12-1.877
					c-11.326-3.558-16.345-12.614-14.598-24.263c0.215-1.43-0.799-3.044-1.243-4.573c-1.207,1.297-3.128,2.416-3.501,3.92
					c-1.812,7.31-0.692,14.361,4.247,20.14c2.592,3.033,2.279,5.419,0.452,8.273c-4.829,7.54-11.872,10.536-20.616,9.931
					c-1.636-0.113-3.27-0.727-4.878-0.635c-1.561,0.09-3.087,0.79-4.628,1.223c1.115,1.177,2.018,2.958,3.378,3.434
					c10.999,3.849,23.994-0.787,30.399-10.629c0.978-1.503,1.86-3.07,2.786-4.606C991.804,301.925,991.814,302.468,991.826,303.011"
					/>
				<path clip-path="url(#SVGID_42_)" fill="#FFFFFF" d="M1096.639,345.482c1.434,5.407,2.749,10.812,4.353,16.13
					c0.452,1.5,1.752,2.745,2.663,4.107c0.741-1.623,2.373-3.443,2.064-4.833c-1.217-5.486-3.205-10.8-4.555-16.265
					c-0.447-1.812-0.193-3.992,0.355-5.819c1.609-5.354,4.373-10.5,5.108-15.94c0.913-6.76,7.356-13.21,15.708-13.798
					c6.868-0.484,12.783,4.328,13.69,11.495c0.315,2.487-0.41,5.092-0.241,7.615c0.102,1.516,1.015,2.978,1.563,4.463
					c1.097-1.221,2.768-2.271,3.196-3.693c2.382-7.946-0.439-16.726-6.518-21.246c-6.692-4.978-14.45-5.199-22.101-0.502
					c-2.16,1.327-4.142,2.946-6.509,4.648c-2.253-4.234-4.431-8.327-6.752-12.688c6.671-3.196,11.657-7.913,13.423-15.12
					c0.466-1.901-0.569-4.172-0.915-6.272c-1.192,1.478-2.949,2.777-3.485,4.462c-3.815,11.994-16.971,16.926-27.944,9.518
					c-4.668-3.152-7.882-8.422-11.906-12.587c-1.074-1.11-2.702-1.688-4.074-2.509c-0.1,1.65-0.875,3.682-0.193,4.891
					c5.646,9.996,13.192,17.513,25.523,18.381c1.514,0.106,3.356,0.598,4.395,1.591c8.499,8.122,10.915,24.129,4.233,33.347
					c-2.917,4.024-8.026,6.437-12.035,9.708c-1.213,0.989-2.076,2.408-3.099,3.628c1.432,0.393,3.02,1.383,4.265,1.06
					C1089.798,348.492,1092.581,347.103,1096.639,345.482"/>
				<path clip-path="url(#SVGID_42_)" fill="#FFFFFF" d="M1060.568,246.021c0.006-5.823,0.349-11.279,6.616-14.336
					c0.972-0.473,1.342-2.185,1.989-3.323c-1.421-0.335-3.038-1.279-4.233-0.899c-5.274,1.676-7.603,6.019-8.771,11.032
					c-0.613,2.636-0.779,5.376-1.071,7.51c-9.486,3.036-18.616,6.065-27.837,8.783c-1.192,0.352-3.009-0.645-4.274-1.437
					c-6.099-3.82-12.651-5.771-19.831-4.788c-1.261,0.171-2.341,1.674-3.504,2.561c1.23,0.766,2.516,2.271,3.681,2.184
					c15.481-1.171,26.767,9.28,28.241,25.742c0.148,1.649,1.941,3.153,2.971,4.724c0.619-1.876,1.834-3.787,1.726-5.62
					c-0.193-3.251-0.905-6.55-1.931-9.652c-0.965-2.916-2.616-5.606-4.376-9.243c15.151-5.923,30.223-10.711,46.467-4.558
					c5.071,1.921,7.988,6.103,9.904,11.15c0.506,1.336,2.332,2.173,3.552,3.239c0.381-1.595,1.41-3.363,1.036-4.754
					c-2.127-7.903-7.693-12.816-15.206-15.253C1071.094,247.586,1066.139,247.107,1060.568,246.021"/>
				<path clip-path="url(#SVGID_42_)" fill="#FFFFFF" d="M952.962,268.313c-1.107,7.164-2.343,13.567-2.924,20.028
					c-0.147,1.626,1.802,3.442,2.789,5.172c0.749-1.775,2.162-3.558,2.142-5.325c-0.174-15.394,6.892-25.352,21.361-30.086
					c1.456-0.477,2.438-2.406,3.64-3.661c-1.589-0.373-3.543-1.529-4.703-0.986c-5.067,2.368-10.192,4.826-14.707,8.071
					c-2.452,1.762-4.031,2.769-7.109,1.652c-5.777-2.098-11.607-1.48-16.881,1.765c-1.068,0.657-1.371,2.555-2.026,3.882
					c1.434,0.166,3.171,0.934,4.251,0.393C943.682,266.769,948.481,266.224,952.962,268.313"/>
				<path clip-path="url(#SVGID_42_)" fill="#FFFFFF" d="M1066.223,338.818c-1.48-2.207-4.136-6.434-7.137-10.397
					c-0.54-0.713-2.504-0.349-3.811-0.482c0.18,1.308-0.124,3.074,0.615,3.855c8.093,8.578,6.717,17.727,2.179,27.303
					c-0.679,1.429-0.191,3.413-0.242,5.14c1.517-0.946,3.604-1.539,4.453-2.901C1066.063,355.27,1067.333,348.54,1066.223,338.818"
					/>
				<path clip-path="url(#SVGID_42_)" fill="#FFFFFF" d="M985.83,244.091c7.434-3.426,12.766-8.203,15.965-15.086
					c0.381-0.82-0.426-2.193-0.682-3.31c-1.211,0.427-2.706,0.539-3.583,1.333c-4.381,3.967-8.655,8.059-12.829,12.243
					c-0.854,0.856-1.517,2.313-1.476,3.466C983.245,243.28,985.139,243.756,985.83,244.091"/>
			</g>
		</g>
		<g opacity="0.7" clip-path="url(#SVGID_36_)">
			<g>
				<defs>
					<rect id="SVGID_391_" x="111.91" y="160.62" width="300.47" height="259.18"/>
				</defs>
				<clipPath id="SVGID_44_">
					<use xlink:href="#SVGID_391_"  overflow="visible"/>
				</clipPath>
				<path clip-path="url(#SVGID_44_)" fill="#FFFFFF" d="M193.216,387.546c-7.879-3.732-15.337-6.222-21.557-10.508
					c-6.167-4.249-12.498-9.491-16.151-15.806c-3.534-6.11-7.599-9.513-13.797-12.306c-27.753-12.503-38.456-50.175-22.063-75.718
					c1.427-2.225,2.309-5.242,2.29-7.882c-0.202-28.084,15.106-50.603,41.173-60.467c1.801-0.681,3.727-2.318,4.582-4.02
					c11.551-22.98,43.997-35.004,67.686-31.229c2.818,0.449,6.248,0.48,8.703-0.716c28.935-14.104,56.364-9.105,82.541,6.875
					c5.228,3.191,10.19,5.387,16.076,6.461c37.106,6.761,68.198,40.375,69.636,76.629c0.368,9.291-1.389,19.673-5.481,27.909
					c-7.24,14.566-16.25,28.534-29.134,39.106c-8.728,7.161-19.068,9.885-30.271,7.765c-3.754-0.711-5.865,0.492-8.487,3.005
					c-20.831,19.955-45.592,27.242-73.869,21.566c-4.271-0.858-6.963,0.043-10.085,2.549
					c-18.507,14.862-33.286,32.996-46.739,52.362c-4.96,7.14-8.631,8.081-16.27,5.042c-6.291-2.503-8.098-6-5.854-12.432
					C188.292,399.57,190.86,393.555,193.216,387.546 M149.439,345.288c0.535-3,0.719-6.128,1.722-8.967
					c0.756-2.138,2.562-3.906,3.901-5.838c0.642,2.187,2.113,4.505,1.788,6.535c-1.764,10.99,0.418,20.938,8.908,28.179
					c5.738,4.895,12.579,8.773,19.446,11.999c10.627,4.994,10.813,4.591,17.052-5.063c0.834-1.289,1.454-2.903,2.622-3.746
					c1.838-1.327,4.058-2.126,6.117-3.148c-0.39,2.115-0.338,4.445-1.243,6.311c-5.629,11.606-11.457,23.117-17.249,34.644
					c-2.373,4.723,0.147,6.892,4.31,6.787c2.295-0.059,5.167-1.75,6.699-3.599c9.923-11.975,18.663-25.067,29.522-36.088
					c10.704-10.865,23.404-19.778,35.398-29.334c1.058-0.843,3.374-0.109,5.106-0.108c-0.597,1.619-0.929,3.415-1.867,4.804
					c-0.829,1.228-2.332,2.001-3.947,3.305c23.568,6.175,56.313-4.29,67.232-20.925c-4.455-2.728-9.051-5.264-13.277-8.311
					c-1.159-0.836-1.218-3.198-1.781-4.861c1.735,0.061,3.729-0.411,5.156,0.283c4.32,2.097,8.221,5.149,12.648,6.926
					c14.491,5.817,27.995,4.103,39.836-6.553c10.74-9.664,14.206-21.198,8.905-35.06c-0.506-1.324,0.732-3.313,1.161-4.995
					c1.447,1.05,3.655,1.803,4.197,3.203c1.61,4.158,2.565,8.571,3.785,12.881c8.886-10.741,13.205-25.237,10.523-40.046
					c-5.13-28.337-21.077-48.743-47.23-60.83c-5.929-2.74-12.469-4.158-17.728-5.861c-1.016,3.747-1.665,6.143-2.314,8.539
					c-1.721-1.666-3.479-3.297-5.157-5.004c-3.512-3.572-6.535-7.815-10.554-10.661c-12.327-8.729-26.5-12.539-41.402-13.558
					c-11.141-0.762-21.979,0.571-32.264,6.038c5.511,4.063,10.552,7.521,15.226,11.42c1.081,0.901,0.907,3.307,1.311,5.02
					c-1.712-0.219-3.974,0.196-5.053-0.747c-21.443-18.725-44.44-17.242-67.888-4.894c-15.282,8.045-24.014,20.758-24.26,38.614
					c-0.022,1.551-1.628,3.08-2.499,4.619c-1.146-1.551-3.096-3.016-3.273-4.671c-0.375-3.509,0.174-7.116,0.354-10.884
					c-20.199,5.904-37.837,32.438-34.381,51.366c3.33-1.833,6.417-4.002,9.842-5.24c2.043-0.739,4.616-0.019,6.95,0.046
					c-1.505,1.75-2.667,4.174-4.57,5.139c-16.56,8.4-24.177,21.097-23.151,39.226C119.274,323.482,131.884,340.774,149.439,345.288"
					/>
				<path clip-path="url(#SVGID_44_)" fill="#A2CCED" d="M149.44,345.288c-17.556-4.514-30.166-21.804-31.37-43.105
					c-1.025-18.129,6.593-30.827,23.152-39.227c1.902-0.965,3.063-3.391,4.569-5.139c-2.335-0.065-4.907-0.787-6.951-0.048
					c-3.423,1.238-6.51,3.408-9.84,5.24c-3.457-18.928,14.18-45.46,34.379-51.365c-0.18,3.767-0.729,7.375-0.354,10.885
					c0.177,1.654,2.127,3.118,3.273,4.669c0.87-1.539,2.478-3.068,2.498-4.618c0.247-17.855,8.979-30.567,24.26-38.615
					c23.448-12.347,46.445-13.831,67.89,4.895c1.078,0.941,3.341,0.529,5.052,0.745c-0.404-1.712-0.229-4.116-1.311-5.019
					c-4.674-3.898-9.715-7.356-15.226-11.42c10.284-5.465,21.123-6.8,32.264-6.037c14.902,1.02,29.075,4.828,41.402,13.557
					c4.019,2.846,7.041,7.09,10.554,10.662c1.678,1.707,3.435,3.338,5.156,5.004c0.65-2.396,1.3-4.791,2.316-8.54
					c5.257,1.703,11.797,3.122,17.726,5.862c26.154,12.086,42.103,32.491,47.231,60.831c2.681,14.807-1.639,29.304-10.527,40.046
					c-1.216-4.312-2.171-8.724-3.782-12.883c-0.542-1.398-2.75-2.153-4.196-3.202c-0.429,1.68-1.667,3.671-1.161,4.994
					c5.302,13.862,1.836,25.398-8.904,35.062c-11.842,10.655-25.347,12.37-39.838,6.553c-4.427-1.776-8.326-4.83-12.647-6.927
					c-1.428-0.692-3.422-0.221-5.157-0.281c0.564,1.661,0.623,4.025,1.783,4.86c4.227,3.046,8.822,5.583,13.278,8.311
					c-10.921,16.637-43.665,27.099-67.233,20.926c1.614-1.304,3.117-2.078,3.946-3.305c0.938-1.389,1.271-3.186,1.867-4.805
					c-1.732-0.001-4.047-0.734-5.106,0.109c-11.994,9.556-24.694,18.469-35.398,29.332c-10.859,11.021-19.6,24.114-29.523,36.089
					c-1.532,1.849-4.403,3.542-6.698,3.599c-4.161,0.105-6.684-2.065-4.31-6.788c5.792-11.527,11.621-23.037,17.249-34.644
					c0.904-1.865,0.853-4.195,1.242-6.31c-2.058,1.022-4.278,1.821-6.117,3.147c-1.167,0.842-1.788,2.458-2.621,3.747
					c-6.24,9.653-6.426,10.055-17.052,5.064c-6.868-3.228-13.708-7.106-19.446-12c-8.491-7.241-10.672-17.19-8.909-28.178
					c0.326-2.031-1.145-4.35-1.786-6.535c-1.34,1.931-3.146,3.699-3.901,5.837C150.158,339.159,149.975,342.288,149.44,345.288
					 M321.504,281.284c0.013-0.652,0.025-1.304,0.038-1.954c1.11,1.842,2.167,3.718,3.339,5.52
					c7.678,11.796,23.254,17.353,36.438,12.74c1.631-0.57,2.713-2.706,4.049-4.115c-1.847-0.519-3.676-1.358-5.546-1.466
					c-1.927-0.11-3.886,0.625-5.848,0.761c-10.48,0.726-18.922-2.865-24.71-11.902c-2.19-3.42-2.565-6.282,0.541-9.916
					c5.92-6.928,7.264-15.377,5.092-24.141c-0.447-1.802-2.75-3.145-4.197-4.699c-0.532,1.833-1.746,3.768-1.489,5.481
					c2.092,13.962-3.922,24.818-17.497,29.084c-5.722,1.798-12.048,2.021-18.125,2.248c-9.031,0.338-17.594,1.962-24.367,8.233
					c-3.29,3.048-5.682,3.141-9.675,1.288c-15.827-7.338-34.946-0.515-40.522,14.286c-0.735,1.951,0.325,4.578,0.555,6.892
					c1.591-1.407,3.806-2.507,4.672-4.271c6.986-14.233,23.618-18.312,36.506-8.752c-3.063,13.098,0.555,23.34,9.56,27.06
					c9.223,3.812,24.165-1.664,29.898-11.183c0.717-1.189,0.203-3.119,0.259-4.707c-1.526,0.28-3.381,0.106-4.517,0.927
					c-2.648,1.914-4.773,4.553-7.428,6.457c-7.633,5.467-15.705,5.188-20.149-0.443c-4.753-6.02-3.583-15.368,2.676-21.455
					c6.02-5.854,13.487-7.599,21.599-8.306C302.303,284.109,311.889,282.539,321.504,281.284 M195.871,332.191
					c4.864,1.941,8.201,3.606,11.73,4.522c1.494,0.389,3.396-0.799,5.113-1.27c-1.227-1.464-2.262-3.164-3.715-4.35
					c-4.806-3.921-10.928-6.813-14.425-11.636c-8.009-11.049-5.114-30.236,5.073-39.972c1.246-1.19,3.453-1.779,5.268-1.907
					c14.78-1.04,23.825-10.05,30.593-22.032c0.818-1.449-0.111-3.885-0.231-5.863c-1.646,0.985-3.596,1.677-4.882,3.008
					c-4.825,4.991-8.677,11.311-14.272,15.088c-13.153,8.88-28.921,2.966-33.494-11.409c-0.643-2.021-2.749-3.578-4.178-5.351
					c-0.414,2.519-1.655,5.24-1.096,7.519c2.116,8.64,8.093,14.292,16.089,18.124c-2.782,5.228-5.393,10.133-8.095,15.208
					c-2.837-2.041-5.212-3.98-7.802-5.571c-9.169-5.631-18.469-5.365-26.49,0.601c-7.285,5.418-10.667,15.942-7.811,25.466
					c0.511,1.705,2.515,2.962,3.829,4.427c0.657-1.782,1.752-3.534,1.874-5.351c0.203-3.024-0.667-6.147-0.289-9.127
					c1.087-8.59,8.177-14.359,16.409-13.779c10.012,0.706,17.733,8.437,18.828,16.54c0.882,6.521,4.195,12.689,6.124,19.105
					c0.656,2.189,0.962,4.803,0.425,6.975c-1.618,6.55-4,12.918-5.46,19.496c-0.37,1.666,1.587,3.849,2.475,5.793
					c1.092-1.633,2.65-3.124,3.192-4.923C192.577,345.151,194.153,338.671,195.871,332.191 M239.106,212.976
					c-6.678,1.301-12.616,1.873-18.157,3.669c-9.005,2.921-15.677,8.809-18.226,18.282c-0.448,1.667,0.785,3.787,1.242,5.697
					c1.462-1.277,3.65-2.279,4.258-3.881c2.296-6.05,5.792-11.062,11.871-13.365c19.47-7.376,37.535-1.636,55.697,5.463
					c-2.11,4.361-4.09,7.584-5.247,11.08c-1.229,3.718-2.083,7.672-2.313,11.569c-0.13,2.196,1.326,4.487,2.068,6.735
					c1.234-1.883,3.384-3.685,3.562-5.663c1.767-19.731,15.294-32.257,33.851-30.854c1.396,0.107,2.937-1.7,4.411-2.616
					c-1.394-1.064-2.688-2.865-4.2-3.072c-8.604-1.176-16.459,1.162-23.77,5.741c-1.516,0.95-3.693,2.143-5.122,1.722
					c-11.053-3.259-21.997-6.889-33.367-10.528c-0.35-2.558-0.548-5.843-1.285-9.002c-1.399-6.009-4.189-11.215-10.511-13.223
					c-1.435-0.455-3.371,0.676-5.076,1.078c0.777,1.365,1.219,3.415,2.385,3.983C238.688,199.455,239.1,205.994,239.106,212.976
					 M368.087,239.695c5.37-2.506,11.124-1.852,16.98,1.084c1.295,0.648,3.377-0.273,5.096-0.472
					c-0.786-1.59-1.148-3.867-2.429-4.654c-6.321-3.889-13.311-4.629-20.233-2.115c-3.689,1.339-5.583,0.131-8.521-1.98
					c-5.412-3.89-11.556-6.837-17.628-9.674c-1.39-0.65-3.732,0.734-5.637,1.183c1.441,1.504,2.617,3.816,4.363,4.387
					c17.343,5.674,25.812,17.61,25.604,36.063c-0.024,2.118,1.67,4.253,2.567,6.382c1.183-2.073,3.519-4.25,3.344-6.199
					C370.896,255.956,369.414,248.281,368.087,239.695 M232.329,324.204c-1.332,11.652,0.193,19.718,4.726,26.989
					c1.02,1.633,3.521,2.344,5.34,3.479c-0.063-2.071,0.521-4.447-0.29-6.163c-5.44-11.478-7.09-22.444,2.611-32.726
					c0.884-0.938,0.521-3.053,0.736-4.622c-1.566,0.161-3.921-0.276-4.568,0.579C237.287,316.492,234.104,321.557,232.329,324.204
					 M328.691,210.661c0.828-0.402,3.097-0.974,3.121-1.626c0.049-1.38-0.746-3.128-1.77-4.154
					c-5.003-5.016-10.126-9.919-15.377-14.674c-1.051-0.951-2.844-1.085-4.295-1.597c-0.307,1.338-1.275,2.984-0.817,3.967
					C313.389,200.828,319.779,206.554,328.691,210.661"/>
				<path clip-path="url(#SVGID_44_)" fill="#FFFFFF" d="M321.504,281.283c-9.614,1.255-19.201,2.827-28.852,3.669
					c-8.112,0.707-15.579,2.451-21.599,8.306c-6.258,6.085-7.428,15.435-2.676,21.455c4.444,5.63,12.516,5.911,20.15,0.442
					c2.655-1.902,4.779-4.542,7.428-6.456c1.135-0.821,2.989-0.648,4.517-0.928c-0.057,1.587,0.458,3.518-0.259,4.707
					c-5.734,9.519-20.677,14.995-29.898,11.183c-9.005-3.721-12.624-13.962-9.56-27.061c-12.889-9.559-29.521-5.48-36.506,8.753
					c-0.866,1.763-3.082,2.864-4.672,4.271c-0.229-2.314-1.29-4.942-0.555-6.893c5.576-14.802,24.695-21.623,40.521-14.286
					c3.994,1.852,6.386,1.758,9.677-1.289c6.771-6.271,15.336-7.895,24.365-8.232c6.079-0.228,12.404-0.452,18.125-2.25
					c13.575-4.265,19.591-15.121,17.497-29.082c-0.257-1.714,0.958-3.649,1.49-5.481c1.447,1.554,3.749,2.896,4.196,4.698
					c2.172,8.763,0.83,17.213-5.09,24.141c-3.107,3.634-2.732,6.495-0.542,9.916c5.789,9.038,14.23,12.628,24.711,11.902
					c1.961-0.136,3.92-0.871,5.847-0.761c1.871,0.106,3.7,0.947,5.547,1.465c-1.337,1.411-2.419,3.546-4.049,4.117
					c-13.184,4.612-28.759-0.944-36.437-12.742c-1.172-1.801-2.229-3.678-3.34-5.52
					C321.529,279.982,321.517,280.632,321.504,281.283"/>
				<path clip-path="url(#SVGID_44_)" fill="#FFFFFF" d="M195.871,332.19c-1.718,6.481-3.294,12.961-5.217,19.334
					c-0.542,1.799-2.1,3.291-3.193,4.923c-0.887-1.946-2.844-4.127-2.474-5.793c1.46-6.578,3.842-12.946,5.46-19.496
					c0.537-2.171,0.232-4.785-0.426-6.974c-1.927-6.417-5.241-12.586-6.122-19.107c-1.096-8.102-8.818-15.833-18.829-16.539
					c-8.232-0.58-15.322,5.188-16.409,13.779c-0.378,2.98,0.492,6.103,0.289,9.127c-0.122,1.817-1.217,3.569-1.874,5.35
					c-1.314-1.464-3.318-2.722-3.829-4.426c-2.856-9.524,0.526-20.048,7.811-25.466c8.021-5.966,17.321-6.232,26.49-0.601
					c2.59,1.59,4.965,3.53,7.802,5.571c2.702-5.075,5.313-9.98,8.095-15.207c-7.996-3.832-13.973-9.485-16.089-18.123
					c-0.56-2.281,0.682-5.001,1.096-7.52c1.429,1.771,3.535,3.328,4.178,5.349c4.573,14.375,20.341,20.29,33.493,11.409
					c5.597-3.778,9.448-10.097,14.272-15.088c1.287-1.331,3.236-2.023,4.883-3.008c0.12,1.979,1.05,4.414,0.231,5.863
					c-6.768,11.981-15.813,20.991-30.593,22.031c-1.814,0.128-4.021,0.717-5.268,1.907c-10.188,9.736-13.083,28.923-5.073,39.972
					c3.497,4.823,9.619,7.715,14.425,11.636c1.453,1.186,2.488,2.886,3.715,4.35c-1.717,0.471-3.619,1.658-5.112,1.27
					C204.072,335.798,200.735,334.132,195.871,332.19"/>
				<path clip-path="url(#SVGID_44_)" fill="#FFFFFF" d="M239.107,212.975c-0.008-6.98-0.419-13.521-7.931-17.184
					c-1.166-0.568-1.607-2.618-2.385-3.984c1.705-0.401,3.642-1.531,5.076-1.077c6.321,2.008,9.112,7.214,10.511,13.223
					c0.737,3.16,0.936,6.445,1.285,9.002c11.37,3.639,22.314,7.269,33.367,10.528c1.429,0.421,3.606-0.772,5.122-1.722
					c7.311-4.579,15.165-6.917,23.77-5.741c1.512,0.207,2.807,2.008,4.2,3.072c-1.474,0.917-3.015,2.723-4.411,2.616
					c-18.557-1.403-32.084,11.123-33.851,30.854c-0.178,1.978-2.327,3.779-3.562,5.663c-0.742-2.248-2.198-4.54-2.067-6.735
					c0.229-3.897,1.082-7.851,2.313-11.569c1.157-3.496,3.137-6.719,5.247-11.08c-18.162-7.099-36.228-12.839-55.697-5.463
					c-6.079,2.303-9.575,7.315-11.871,13.365c-0.607,1.602-2.796,2.604-4.258,3.881c-0.457-1.91-1.69-4.03-1.242-5.697
					c2.549-9.473,9.221-15.361,18.226-18.282C226.49,214.848,232.429,214.276,239.107,212.975"/>
				<path clip-path="url(#SVGID_44_)" fill="#FFFFFF" d="M368.087,239.695c1.327,8.586,2.809,16.26,3.505,24.005
					c0.176,1.95-2.161,4.126-3.344,6.198c-0.897-2.127-2.592-4.263-2.567-6.381c0.209-18.453-8.262-30.389-25.604-36.063
					c-1.746-0.571-2.923-2.883-4.362-4.388c1.904-0.448,4.245-1.833,5.637-1.182c6.072,2.837,12.215,5.785,17.628,9.673
					c2.938,2.113,4.832,3.32,8.521,1.98c6.925-2.513,13.914-1.772,20.233,2.116c1.28,0.788,1.644,3.064,2.429,4.654
					c-1.719,0.198-3.801,1.12-5.095,0.472C379.21,237.843,373.458,237.189,368.087,239.695"/>
				<path clip-path="url(#SVGID_44_)" fill="#FFFFFF" d="M232.329,324.204c1.775-2.646,4.958-7.712,8.555-12.463
					c0.647-0.854,3.002-0.418,4.568-0.579c-0.216,1.569,0.148,3.684-0.736,4.622c-9.702,10.283-8.053,21.248-2.613,32.727
					c0.813,1.715,0.229,4.091,0.291,6.161c-1.819-1.135-4.32-1.844-5.339-3.478C232.521,343.922,230.997,335.855,232.329,324.204"/>
				<path clip-path="url(#SVGID_44_)" fill="#FFFFFF" d="M328.691,210.661c-8.912-4.107-15.302-9.833-19.138-18.084
					c-0.458-0.983,0.511-2.629,0.817-3.967c1.451,0.511,3.244,0.646,4.295,1.597c5.251,4.755,10.374,9.659,15.377,14.674
					c1.023,1.026,1.818,2.774,1.77,4.154C331.788,209.688,329.52,210.259,328.691,210.661"/>
			</g>
		</g>
		<path clip-path="url(#SVGID_36_)" fill="#ED1651" d="M659.833,403.508c0,38.25,31.008,69.259,69.259,69.259
			s69.259-31.01,69.259-69.259c0-38.251-31.008-69.26-69.259-69.26S659.833,365.257,659.833,403.508"/>
		<path clip-path="url(#SVGID_36_)" fill="#A2CCED" d="M742.274,460.378c-2.017-0.333-3.364-2.437-2.994-4.674
			c0.37-2.239,2.323-3.798,4.339-3.464l13.987,2.311c-0.344-1.135-0.555-2.328-0.65-3.552l-16.768-2.772
			c-2.017-0.333-3.364-2.437-2.994-4.674c0.37-2.238,2.322-3.797,4.337-3.464l16.77,2.771c0.435-1.014,0.956-1.969,1.559-2.851
			l-14.411-2.382c-2.016-0.333-3.363-2.437-2.994-4.676c0.37-2.238,2.322-3.797,4.339-3.462l24.014,3.968
			c0.789-0.051,1.589-0.012,2.392,0.087l-4.341-2.313c-1.82-0.972-2.541-3.438-1.599-5.482c0.94-2.043,3.201-2.922,5.023-1.951
			l23.204,12.371c0.893,0.476,1.517,1.314,1.814,2.283c5.052,3.055,8.003,9.448,6.893,16.173
			c-1.415,8.559-8.881,14.521-16.592,13.246l-19.03-3.145c-0.136-0.023-0.265-0.063-0.399-0.09c-0.069-0.006-0.136,0.001-0.206-0.01
			L742.274,460.378z"/>
		<path clip-path="url(#SVGID_36_)" fill="#0D4060" d="M509.76,355.05c-3.173,2.13-7.275,2.784-11.144,1.385
			c-6.449-2.331-9.789-9.449-7.457-15.897c1.332-3.686,4.229-6.348,7.669-7.525C504.963,338.698,508.94,346.519,509.76,355.05"/>
	</g>
	<g clip-path="url(#SVGID_2_)">
		<defs>
			<rect id="SVGID_393_" x="-3604" y="-528.403" width="12912.166" height="8488.403"/>
		</defs>
		<clipPath id="SVGID_46_">
			<use xlink:href="#SVGID_393_"  overflow="visible"/>
		</clipPath>
	</g>
	<g clip-path="url(#SVGID_2_)">
		<defs>
			<rect id="SVGID_395_" x="-3604" y="-528.403" width="12912.166" height="8488.403"/>
		</defs>
		<clipPath id="SVGID_48_">
			<use xlink:href="#SVGID_395_"  overflow="visible"/>
		</clipPath>
	</g>
	<g clip-path="url(#SVGID_2_)">
		<defs>
			<rect id="SVGID_397_" x="-3604" y="-528.403" width="12912.166" height="8488.403"/>
		</defs>
		<clipPath id="SVGID_50_">
			<use xlink:href="#SVGID_397_"  overflow="visible"/>
		</clipPath>
	</g>
	<g clip-path="url(#SVGID_2_)">
		<defs>
			<rect id="SVGID_815_" x="-3604" y="-528.403" width="12912.166" height="8488.403"/>
		</defs>
		<clipPath id="SVGID_52_">
			<use xlink:href="#SVGID_815_"  overflow="visible"/>
		</clipPath>
	</g>
</g>
</svg>
