<svg width="634" height="722" viewBox="0 0 634 722" fill="none" xmlns="http://www.w3.org/2000/svg">
<path d="M327.018 420.514C320.353 509.793 413.331 643.095 464.128 646.886C521.068 651.137 626.526 534.465 633.191 445.185C639.855 355.904 572.846 329.887 488.261 323.573C403.677 317.259 333.682 331.234 327.018 420.514Z" fill="#23ACD1"/>
<path d="M500.064 445.675C501.134 431.328 490.373 418.828 476.025 417.758C461.677 416.688 449.179 427.448 448.108 441.797" fill="white"/>
<path d="M432.824 440.657C433.895 426.309 423.133 413.809 408.785 412.74C394.438 411.669 381.939 422.43 380.868 436.779" fill="white"/>
<path d="M496.985 411.63C496.985 411.63 490.522 395.638 473.117 403.483" stroke="#0D4060" stroke-width="3" stroke-miterlimit="10"/>
<path d="M392.789 403.852C392.789 403.852 399.524 388.541 415.571 398.884" stroke="#0D4060" stroke-width="3" stroke-miterlimit="10"/>
<path d="M405.304 462.409C405.304 462.409 409.848 482.04 439.298 483.645C468.748 485.251 472.413 467.417 472.413 467.417L405.304 462.409Z" fill="#0D4060"/>
<g opacity="0.7">
<g opacity="0.7">
<path opacity="0.7" d="M498.434 467.527C498.202 470.631 505.737 473.723 515.262 474.434C524.787 475.145 532.699 473.205 532.929 470.102C533.161 466.998 525.626 463.906 516.1 463.195C506.574 462.484 498.664 464.423 498.434 467.527Z" fill="#A2CCED"/>
</g>
</g>
<g opacity="0.7">
<g opacity="0.7">
<path opacity="0.7" d="M338.73 455.606C338.499 458.71 346.033 461.801 355.559 462.513C365.084 463.224 372.995 461.284 373.227 458.181C373.457 455.077 365.923 451.985 356.398 451.274C346.872 450.563 338.962 452.502 338.73 455.606Z" fill="#A2CCED"/>
</g>
</g>
<path d="M428.606 629.592L439.555 701.557H452.678L463.627 629.814" fill="#23ACD1"/>
<path d="M452.411 718.994H439.545L433.874 660.913H459.177L452.411 718.994Z" fill="#CF2153"/>
<path d="M453.001 721.966C453.001 707.98 441.662 696.642 427.677 696.642C413.69 696.642 402.353 707.98 402.353 721.966" fill="#504B48"/>
<path d="M515.569 629.623L504.62 701.366H491.497L480.548 629.592" fill="#23ACD1"/>
<path d="M491.626 719.199H504.492L511.257 661.118H484.795L491.626 719.199Z" fill="#CF2153"/>
<path d="M455.433 721.775C455.433 707.789 466.771 696.451 480.757 696.451C494.743 696.451 506.081 707.789 506.081 721.775" fill="#504B48"/>
<path d="M257.918 5.16082C151.308 -10.6802 60.6828 4.75582 42.7318 125.559C38.1788 156.199 37.3798 187.653 36.8738 218.524C36.3108 252.797 36.8448 287.13 40.1838 321.161C41.6518 336.121 44.0448 349.411 40.4118 364.349C37.2268 377.445 31.7618 390.427 24.4688 401.577C4.79377 431.649 -4.09723 464.294 1.79377 500.405C5.70377 524.367 20.6888 545.229 38.7918 559.616C76.3228 589.44 125.485 595.5 170.75 602.224C220.465 609.613 278.711 614.1 324.578 585.894C343.493 574.263 358.526 556.929 368.516 536.233C374.422 523.999 377.645 511.37 381.178 498.308C386.065 480.243 383.678 463.674 379.706 446.035C373.746 419.553 367.689 384.117 378.16 357.619C402.512 295.846 424.343 212.913 429.162 180.481C447.112 59.6778 364.526 21.0028 257.918 5.16082Z" fill="#00A1CD"/>
<g opacity="0.7">
<g opacity="0.7">
<path opacity="0.7" d="M194.953 205.348C194.445 208.77 185.519 210.279 175.016 208.718C164.515 207.157 156.413 203.119 156.921 199.697C157.43 196.276 166.356 194.767 176.858 196.327C187.36 197.888 195.462 201.926 194.953 205.348Z" fill="#A2CCED"/>
</g>
</g>
<g opacity="0.7">
<g opacity="0.7">
<path opacity="0.7" d="M361.298 230.066C360.79 233.488 351.864 234.997 341.361 233.436C330.86 231.875 322.757 227.836 323.265 224.415C323.774 220.993 332.701 219.484 343.203 221.045C353.705 222.606 361.806 226.644 361.298 230.066Z" fill="#A2CCED"/>
</g>
</g>
<path d="M209.004 593.372L224.547 695.217H243.176L259.695 580.646" fill="#00A1CD"/>
<path d="M177.659 593.056L162.116 695.217H143.487L127.944 593.371" fill="#00A1CD"/>
<path d="M242.994 720.534H224.73L215.125 638.082H252.692L242.994 720.534Z" fill="#5652A3"/>
<path d="M143.866 719.97H162.13L171.827 637.519H134.261L143.866 719.97Z" fill="#5652A3"/>
<path d="M205.81 720.942C205.81 703.645 191.789 689.625 174.492 689.625C157.196 689.625 143.175 703.646 143.175 720.942" fill="#504B48"/>
<path d="M224.907 720.942C224.907 703.645 238.928 689.625 256.224 689.625C273.521 689.625 287.542 703.646 287.542 720.942" fill="#504B48"/>
<path d="M290.379 235.26C290.379 235.26 281.665 253.322 252.722 248.427C223.78 243.531 224.129 225.414 224.129 225.414L290.379 235.26Z" fill="#0D4060"/>
<path d="M198.597 190.676C200.982 174.621 215.93 163.542 231.985 165.927C248.039 168.313 259.119 183.261 256.734 199.315" fill="white"/>
<path d="M273.835 201.857C276.221 185.801 291.169 174.722 307.223 177.107C323.277 179.493 334.357 194.441 331.972 210.495" fill="white"/>
<path d="M210.442 153.976C210.442 153.976 221.527 137.983 238.731 150.939" stroke="#0D4060" stroke-width="3" stroke-miterlimit="10"/>
<path d="M327.034 171.301C327.034 171.301 323.425 152.78 303.197 160.175" stroke="#0D4060" stroke-width="3" stroke-miterlimit="10"/>
<path d="M221.39 194.469C222.422 187.525 228.888 182.732 235.832 183.763C242.777 184.795 247.57 191.261 246.538 198.205" fill="#0D4060"/>
<path d="M296.628 205.649C297.66 198.705 304.126 193.912 311.07 194.943C318.015 195.975 322.808 202.441 321.776 209.385" fill="#0D4060"/>
<path d="M361.89 552.096H233.58C228.08 552.096 223.58 547.596 223.58 542.096V469.662C223.58 464.162 228.08 459.662 233.58 459.662H361.89C367.39 459.662 371.89 464.162 371.89 469.662V542.097C371.89 547.596 367.39 552.096 361.89 552.096Z" fill="#4C4C4B"/>
<path d="M248.036 474.998H236.864C235.467 474.998 234.324 473.854 234.324 472.458V469.585C234.324 468.188 235.467 467.045 236.864 467.045H248.036C249.433 467.045 250.576 468.188 250.576 469.585V472.458C250.576 473.854 249.433 474.998 248.036 474.998Z" fill="#6B6767"/>
<path d="M240.909 472.868C239.889 474.093 238.07 474.259 236.845 473.239C235.62 472.219 235.454 470.4 236.474 469.176C237.493 467.951 239.313 467.784 240.537 468.805C241.763 469.824 241.929 471.642 240.909 472.868Z" fill="#9F9F9F"/>
<path d="M516 525C516 525 492.393 542.119 469.984 545.828C447.574 549.537 399 552 399 552" stroke="#00A1CD" stroke-width="10" stroke-miterlimit="10"/>
<path d="M396.15 535.783C400.783 538.262 403.705 543.805 403.031 549.835C402.174 557.508 395.816 563.154 388.903 562.382L371.843 560.474C371.722 560.461 371.606 560.431 371.485 560.414C371.423 560.411 371.364 560.422 371.302 560.414L348.27 557.841C346.462 557.638 345.166 555.831 345.391 553.825C345.615 551.818 347.277 550.342 349.085 550.544L361.624 551.945C361.265 550.952 361.022 549.901 360.88 548.818L345.848 547.136C344.04 546.936 342.745 545.128 342.969 543.121C343.193 541.115 344.856 539.638 346.663 539.841L361.696 541.52C362.035 540.599 362.453 539.727 362.948 538.915L350.029 537.471C348.221 537.269 346.926 535.462 347.15 533.456C347.375 531.449 349.037 529.972 350.844 530.175L372.371 532.581C373.07 532.499 373.783 532.496 374.502 532.547L370.535 530.693C368.871 529.916 368.116 527.756 368.857 525.896C369.598 524.036 371.566 523.15 373.23 523.927" fill="#A2CCED"/>
<path d="M200.308 481.234C193.359 482.297 187.048 488.798 184.961 498.006C182.305 509.726 187.454 521.527 196.403 524.23L218.488 530.902C218.645 530.949 218.804 530.969 218.962 531.01C219.039 531.041 219.109 531.088 219.189 531.114L249.005 540.121C251.346 540.828 253.829 538.899 254.523 535.834C255.218 532.77 253.871 529.684 251.531 528.977L235.299 524.074C236.225 522.818 237.036 521.414 237.737 519.905L257.197 525.783C259.537 526.49 262.02 524.561 262.715 521.497C263.409 518.432 262.063 515.346 259.723 514.639L240.262 508.76C240.288 507.223 240.192 505.712 239.972 504.247L256.697 509.298C259.037 510.006 261.52 508.077 262.214 505.011C262.909 501.948 261.562 498.862 259.222 498.156L231.353 489.737C230.527 489.229 229.643 488.83 228.727 488.506L234.547 487.989C236.988 487.772 238.971 485.028 238.953 481.889C238.935 478.752 236.924 476.363 234.483 476.579" fill="#A2CCED"/>
<path d="M395.169 438.461C395.668 432.576 400.842 428.21 406.728 428.708C412.612 429.207 416.978 434.381 416.479 440.266" fill="#0D4060"/>
<path d="M458.814 442.871C459.313 436.986 464.487 432.62 470.371 433.119C476.256 433.617 480.621 438.792 480.124 444.676" fill="#0D4060"/>
</svg>
