<svg width="1668" height="1007" viewBox="0 0 1668 1007" fill="none" xmlns="http://www.w3.org/2000/svg">
<path d="M912.67 672.804C927.087 762.628 865.957 847.132 776.135 861.549C686.312 875.966 601.808 814.837 587.39 725.014C572.973 635.191 634.102 550.687 723.925 536.269C813.748 521.852 898.252 582.98 912.67 672.804Z" fill="#00A1CD"/>
<path d="M634.567 804.891C634.567 804.891 618.898 820.686 616.528 834.443C614.156 848.199 614.573 877.469 614.573 877.469" stroke="#00A1CD" stroke-width="9" stroke-miterlimit="10"/>
<path d="M600.743 896.988C600.561 898.302 601.607 899.543 603.066 899.743C604.526 899.943 605.869 899.032 606.049 897.717L607.301 888.598C607.938 889.03 608.638 889.389 609.38 889.684L607.878 900.617C607.696 901.93 608.744 903.172 610.203 903.372C611.663 903.572 613.005 902.661 613.184 901.345L614.685 890.413C615.397 890.338 616.089 890.198 616.753 889.993L615.463 899.389C615.281 900.703 616.328 901.943 617.788 902.143C619.247 902.344 620.589 901.432 620.768 900.118L622.919 884.461C623.101 883.982 623.23 883.478 623.322 882.96L623.926 886.097C624.177 887.414 625.57 888.334 627.018 888.142C628.467 887.952 629.446 886.718 629.193 885.403L625.975 868.634C625.852 867.988 625.452 867.441 624.908 867.071C623.982 863.349 620.585 860.292 616.201 859.689C610.62 858.922 605.487 862.41 604.799 867.437L603.095 879.843C603.083 879.933 603.083 880.021 603.074 880.109C603.065 880.153 603.049 880.194 603.041 880.239L600.743 896.988Z" fill="#A2CCED"/>
<path d="M898.379 745.318C898.379 745.318 918.692 754.394 932.399 751.753C946.107 749.11 973.341 738.379 973.341 738.379" stroke="#00A1CD" stroke-width="9" stroke-miterlimit="10"/>
<path d="M1003.07 721.47C1003.98 720.507 1003.85 718.89 1002.79 717.875C1001.72 716.861 1000.1 716.82 999.183 717.782L992.846 724.457C992.58 723.735 992.221 723.035 991.79 722.363L999.388 714.36C1000.3 713.398 1000.17 711.781 999.107 710.766C998.039 709.752 996.418 709.709 995.504 710.672L987.905 718.675C987.284 718.321 986.64 718.03 985.98 717.81L992.51 710.932C993.422 709.969 993.297 708.351 992.228 707.337C991.162 706.322 989.54 706.28 988.625 707.243L977.745 718.704C977.317 718.988 976.917 719.322 976.541 719.688L977.882 716.789C978.445 715.573 977.851 714.014 976.563 713.323C975.275 712.635 973.76 713.064 973.199 714.282L966.03 729.777C965.754 730.374 965.758 731.051 965.983 731.67C964.564 735.232 965.541 739.697 968.752 742.745C972.837 746.622 979.038 746.785 982.532 743.105L991.153 734.021C991.215 733.957 991.265 733.884 991.325 733.818C991.356 733.786 991.395 733.764 991.427 733.732L1003.07 721.47Z" fill="#A2CCED"/>
<path d="M790.268 851.256L850.597 900.393L859.482 892.316L822.72 836.984" fill="#00A1CD"/>
<path d="M722.007 839.418L735.586 944.316L747.591 944.54L759.259 855.551" fill="#00A1CD"/>
<path d="M870.371 904.469L861.66 912.387L821.333 877.229L839.25 860.941L870.371 904.469Z" fill="#FFCB05"/>
<path d="M747.051 960.486L735.281 960.269L731.077 907.039L754.226 907.467L747.051 960.486Z" fill="#FFCB05"/>
<path d="M708.47 685.938C707.971 673.297 717.813 662.648 730.452 662.149C743.091 661.65 753.743 671.493 754.241 684.131" fill="white"/>
<path d="M767.706 683.601C767.209 670.961 777.051 660.311 789.69 659.812C802.329 659.313 812.98 669.156 813.479 681.795" fill="white"/>
<path d="M712.224 656.117C712.224 656.117 718.397 642.263 733.449 649.693" stroke="#0D4060" stroke-width="3" stroke-miterlimit="10"/>
<path d="M804.021 652.495C804.021 652.495 798.574 638.835 784.156 647.428" stroke="#0D4060" stroke-width="3" stroke-miterlimit="10"/>
<path d="M797.563 671.621C801.623 674.019 806.621 673.411 809.986 670.468C806.253 664.565 799.917 660.522 792.648 659.888C791.541 664.339 793.412 669.168 797.563 671.621Z" fill="#0D4060"/>
<path d="M738.728 674.044C742.788 676.443 747.786 675.834 751.153 672.891C747.418 666.987 741.082 662.946 733.813 662.311C732.706 666.762 734.577 671.591 738.728 674.044Z" fill="#0D4060"/>
<g opacity="0.7">
<g opacity="0.7">
<path opacity="0.7" d="M709.229 705.188C709.336 707.921 702.622 710.408 694.229 710.739C685.836 711.07 678.946 709.122 678.837 706.387C678.73 703.653 685.446 701.166 693.837 700.835C702.23 700.506 709.121 702.454 709.229 705.188Z" fill="#A2CCED"/>
</g>
</g>
<g opacity="0.7">
<g opacity="0.7">
<path opacity="0.7" d="M839.071 700.066C839.177 702.8 832.463 705.286 824.069 705.617C815.677 705.948 808.788 704 808.678 701.265C808.572 698.531 815.287 696.044 823.678 695.714C832.072 695.383 838.963 697.332 839.071 700.066Z" fill="#A2CCED"/>
</g>
</g>
<path d="M735.638 960.822C735.834 950.107 744.684 941.582 755.399 941.78C766.114 941.979 774.639 950.826 774.441 961.542" fill="#504B48"/>
<path d="M860.897 913.33C853.687 905.4 854.273 893.128 862.203 885.919C870.133 878.71 882.406 879.295 889.614 887.225" fill="#504B48"/>
<path d="M1262.66 93.7192C1127.22 93.7192 1017.42 127.184 1017.42 270.148C1017.42 306.406 1022.23 342.963 1027.31 378.794C1032.94 418.574 1039.94 458.236 1050.38 497.064C1054.97 514.133 1060.4 529.11 1058.64 547.032C1057.1 562.743 1052.7 578.716 1045.7 592.879C1026.8 631.083 1021.77 670.411 1035.77 711.21C1045.05 738.281 1067.53 759.86 1092.69 773.402C1144.85 801.478 1207.08 800.034 1264.59 800.034C1327.75 800.034 1400.98 795.212 1452.78 754.661C1474.15 737.938 1489.63 715.281 1498.22 689.601C1503.31 674.416 1504.98 659.241 1506.96 643.511C1509.7 621.75 1503.67 602.978 1495.48 583.237C1483.18 553.6 1469.1 513.613 1477.22 481.131C1496.08 405.415 1507.9 305.636 1507.9 267.256C1507.9 124.292 1398.1 93.7192 1262.66 93.7192Z" fill="#00A1CD"/>
<path d="M1140.83 306.771C1140.83 288.051 1156.01 272.875 1174.73 272.875C1193.45 272.875 1208.62 288.051 1208.62 306.771" fill="white"/>
<path d="M1228.56 306.771C1228.56 288.051 1243.74 272.875 1262.46 272.875C1281.18 272.875 1296.35 288.051 1296.35 306.771" fill="white"/>
<path d="M1148.13 262.895C1148.13 262.895 1158.06 242.77 1179.88 254.633" stroke="#0D4060" stroke-width="3" stroke-miterlimit="10"/>
<path d="M1284.07 262.895C1284.07 262.895 1276.81 242.377 1254.99 254.243" stroke="#0D4060" stroke-width="3" stroke-miterlimit="10"/>
<path d="M1152.84 306.771C1152.84 298.672 1159.4 292.109 1167.5 292.109C1175.6 292.109 1182.16 298.672 1182.16 306.771" fill="#0D4060"/>
<path d="M1242.01 306.771C1242.01 298.672 1248.58 292.109 1256.67 292.109C1264.77 292.109 1271.33 298.672 1271.33 306.771" fill="#0D4060"/>
<path d="M1262.16 337.658C1262.16 337.658 1254.37 362.689 1216 361.921C1177.63 361.152 1174.6 337.658 1174.6 337.658H1262.16Z" fill="#0D4060"/>
<g opacity="0.7">
<g opacity="0.7">
<path opacity="0.7" d="M1140.83 335.28C1140.83 339.329 1130.76 342.612 1118.33 342.612C1105.9 342.612 1095.82 339.329 1095.82 335.28C1095.82 331.23 1105.9 327.948 1118.33 327.948C1130.76 327.948 1140.83 331.23 1140.83 335.28Z" fill="#A2CCED"/>
</g>
</g>
<g opacity="0.7">
<g opacity="0.7">
<path opacity="0.7" d="M1333.12 335.28C1333.12 339.329 1323.05 342.612 1310.62 342.612C1298.19 342.612 1288.11 339.329 1288.11 335.28C1288.11 331.23 1298.19 327.948 1310.62 327.948C1323.05 327.948 1333.12 331.23 1333.12 335.28Z" fill="#A2CCED"/>
</g>
</g>
<path d="M1090.46 522.158C1090.46 522.158 1027.27 512.026 1001.81 485.525C976.359 459.023 936.532 394.073 936.532 394.073" stroke="#00A1CD" stroke-width="14" stroke-miterlimit="10"/>
<path d="M970.454 397.286C972.732 405.191 968.92 415.09 960.157 421.825C949.006 430.396 933.937 430.715 926.675 422.53L908.749 402.332C908.62 402.187 908.52 402.029 908.398 401.882C908.33 401.813 908.244 401.764 908.179 401.69L883.977 374.42C882.078 372.28 882.909 368.695 885.827 366.453C888.743 364.212 892.683 364.129 894.584 366.267L907.759 381.114C908.639 379.514 909.733 377.963 910.993 376.476L895.198 358.679C893.299 356.538 894.131 352.953 897.048 350.712C899.963 348.47 903.903 348.387 905.804 350.527L921.6 368.325C923.221 367.543 924.874 366.904 926.539 366.419L912.963 351.123C911.064 348.981 911.896 345.397 914.813 343.155C917.729 340.914 921.67 340.831 923.569 342.971L946.189 368.459C947.134 369.089 947.992 369.831 948.786 370.647L946.479 364.209C945.513 361.509 947.458 358.055 950.799 356.534C954.143 355.013 957.67 355.977 958.637 358.679" fill="#A2CCED"/>
<path d="M1433.98 541.099C1433.98 541.099 1489.84 512.883 1506.89 480.194C1523.94 447.503 1544.9 374.018 1544.9 374.018" stroke="#00A1CD" stroke-width="14" stroke-miterlimit="10"/>
<path d="M1514.37 387.045C1514.19 395.234 1520.12 403.527 1529.85 407.359C1542.22 412.234 1556.2 408.106 1560.92 398.186L1572.55 373.704C1572.64 373.529 1572.69 373.35 1572.77 373.174C1572.81 373.088 1572.88 373.016 1572.92 372.927L1588.63 339.874C1589.86 337.279 1588.22 334.113 1584.98 332.84C1581.74 331.567 1578.09 332.645 1576.85 335.238L1568.31 353.231C1567.1 351.968 1565.72 350.816 1564.19 349.773L1574.44 328.201C1575.67 325.606 1574.03 322.441 1570.8 321.166C1567.56 319.892 1563.9 320.971 1562.67 323.566L1552.42 345.137C1550.73 344.869 1549.05 344.747 1547.4 344.775L1556.21 326.236C1557.44 323.642 1555.8 320.477 1552.56 319.202C1549.33 317.928 1545.67 319.007 1544.44 321.6L1529.76 352.494C1529.04 353.371 1528.43 354.33 1527.89 355.338L1528.46 348.536C1528.69 345.683 1526.06 342.97 1522.6 342.506C1519.15 342.043 1516.13 343.997 1515.89 346.851" fill="#A2CCED"/>
<path d="M1266.87 787.011L1285.77 931.799L1307.57 931.693L1325.07 786.666" fill="#00A1CD"/>
<path d="M1092.2 743.399L1000.23 821.969L1011.74 840.492L1137.45 786.667" fill="#00A1CD"/>
<path d="M1307.5 961.328L1286.12 961.432L1274.41 864.972L1318.39 864.759L1307.5 961.328Z" fill="#56C5D0"/>
<path d="M986.892 855.407L975.608 837.249L1051.59 776.667L1074.8 814.018L986.892 855.407Z" fill="#56C5D0"/>
<path d="M947.656 794.42C964.851 783.732 987.457 789.012 998.141 806.209C1008.83 823.404 1003.55 846.009 986.351 856.695" fill="#504B48"/>
<path d="M1229.96 962.181C1229.86 941.935 1246.19 925.443 1266.44 925.345C1286.69 925.246 1303.18 941.58 1303.28 961.826" fill="#504B48"/>
<path d="M71.691 658.287C64.227 518.359 206.457 313.27 282.253 309.227C367.218 304.696 521.138 491.149 528.602 631.076C536.067 771.003 435.497 809.215 309.282 815.947C183.068 822.679 79.155 798.213 71.691 658.287Z" fill="#00A1CD"/>
<path d="M274.589 519.434C273.14 500.035 287.693 483.134 307.093 481.686C326.491 480.239 343.392 494.79 344.841 514.19" fill="white"/>
<path d="M365.506 512.647C364.058 493.248 378.609 476.347 398.01 474.899C417.408 473.451 434.31 488.003 435.758 507.403" fill="white"/>
<path d="M278.752 473.399C278.752 473.399 287.489 451.774 311.023 462.38" stroke="#0D4060" stroke-width="3" stroke-miterlimit="10"/>
<path d="M419.64 462.883C419.64 462.883 410.532 442.182 388.833 456.165" stroke="#0D4060" stroke-width="3" stroke-miterlimit="10"/>
<path d="M402.717 542.059C402.717 542.059 396.571 568.603 356.752 570.775C316.934 572.946 311.976 548.833 311.976 548.833L402.717 542.059Z" fill="#0D4060"/>
<path d="M360.161 803.496L457.513 862.995L470.804 847.217L395.595 761.355" fill="#00A1CD"/>
<path d="M272.781 809.008L287.104 922.547L307.728 923.072L327.812 810.761" fill="#00A1CD"/>
<path d="M492.116 865.433L479.086 880.902L412.5 835.513L437.066 806.348L492.116 865.433Z" fill="#56C5D0"/>
<path d="M306.621 950.006L286.4 949.49L281.985 869.183L316.847 870.072L306.621 950.006Z" fill="#56C5D0"/>
<path d="M482.027 883.124C467.377 870.783 465.505 848.902 477.844 834.254C490.185 819.604 512.064 817.733 526.714 830.072" fill="#504B48"/>
<path d="M282.816 960.21C283.303 941.063 299.222 925.936 318.372 926.424C337.519 926.912 352.646 942.831 352.159 961.98" fill="#504B48"/>
<g opacity="0.7">
<g opacity="0.7">
<path opacity="0.7" d="M276.795 542.685C277.107 546.881 266.92 551.063 254.038 552.025C241.159 552.986 230.465 550.364 230.15 546.167C229.837 541.971 240.024 537.789 252.904 536.828C265.785 535.866 276.481 538.488 276.795 542.685Z" fill="#A2CCED"/>
</g>
</g>
<g opacity="0.7">
<g opacity="0.7">
<path opacity="0.7" d="M489.586 524.468C489.899 528.664 479.712 532.846 466.83 533.808C453.949 534.769 443.256 532.147 442.942 527.95C442.629 523.754 452.816 519.572 465.696 518.611C478.577 517.649 489.273 520.271 489.586 524.468Z" fill="#A2CCED"/>
</g>
</g>
<path d="M498.991 641.495C498.991 641.495 532.518 629.927 545.591 611.918C558.665 593.908 578.666 551.746 578.666 551.746" stroke="#00A1CD" stroke-width="15" stroke-miterlimit="10"/>
<path d="M616.755 520.825C617.779 519.306 617.238 517.133 615.554 515.995C613.867 514.857 611.651 515.169 610.624 516.687L603.516 527.22C602.989 526.298 602.342 525.425 601.603 524.61L610.125 511.98C611.15 510.462 610.608 508.29 608.923 507.152C607.237 506.013 605.021 506.326 603.995 507.844L595.473 520.472C594.544 520.131 593.603 519.883 592.656 519.732L599.981 508.879C601.006 507.36 600.465 505.187 598.778 504.049C597.094 502.911 594.875 503.224 593.851 504.742L581.645 522.827C581.126 523.309 580.658 523.854 580.229 524.439L581.396 520.184C581.885 518.401 580.722 516.413 578.811 515.766C576.9 515.121 574.936 516.052 574.446 517.837L568.212 540.569C567.974 541.444 568.135 542.366 568.582 543.157C567.461 548.329 569.807 554.189 574.871 557.607C581.317 561.958 589.799 560.765 593.718 554.959L603.391 540.627C603.458 540.524 603.513 540.416 603.578 540.313C603.615 540.264 603.662 540.223 603.697 540.172L616.755 520.825Z" fill="#A2CCED"/>
<path d="M136.348 773.658L66.855 820.733L194.701 971.502L251.75 911.324L136.348 773.658Z" fill="#FFCB05"/>
<path d="M230.759 845.956C228.103 842.821 229.355 844.138 226.695 841.005C225.147 839.183 223.598 837.359 222.038 835.548C216.651 829.279 211.172 823.087 205.903 816.722C203.244 813.511 200.124 810.665 198.006 807.01C197.816 806.68 197.405 806.477 197.098 806.217C195.154 803.785 195.782 801.381 198.096 799.044C200.734 796.381 203.586 793.882 206.601 791.656C209.459 789.545 213.052 790.066 215.533 792.786C218.717 796.275 220.989 798.491 224.079 802.066C224.725 802.814 225.228 803.846 226.487 803.747C226.356 804.25 226.03 804.679 226.529 805.249C231.369 810.785 236.175 816.352 240.99 821.91C244.482 826.053 244.101 825.712 247.544 829.894C250.579 833.582 250.11 837.796 246.466 840.791C244.407 842.481 242.331 844.159 240.349 845.937C237.603 848.4 232.91 848.238 230.759 845.956Z" fill="#6E6E6E"/>
<path d="M123.524 887.42C124.521 888.011 125.408 887.949 126.337 887.171C131.109 883.178 135.884 879.189 140.714 875.267C143.633 872.899 146.797 870.819 149.597 868.323C154.648 863.819 160.024 859.723 165.285 855.489C168.049 853.264 170.586 850.741 173.611 848.839C173.979 848.606 174.299 848.4 174.742 848.551C172.636 851.275 169.872 853.316 167.345 855.596C160.833 861.472 154.36 867.394 147.704 873.104C141.255 878.637 135.233 884.648 128.599 889.969C128.009 890.443 127.598 891.141 127.107 891.736C125.655 890.513 124.411 889.115 123.524 887.42Z" fill="#FBAD18"/>
<path d="M105.288 865.946C106.566 866.797 107.59 866.248 108.62 865.404C117.164 858.42 125.655 851.37 134.303 844.515C138.1 841.503 141.882 838.45 145.622 835.386C150.026 831.781 154.604 828.369 158.834 824.543C159.111 824.291 159.363 823.905 160.261 824.191C157.923 826.296 155.763 828.242 153.6 830.186C149.729 833.67 145.877 837.178 141.976 840.633C137.782 844.35 133.527 848.001 129.324 851.709C122.657 857.592 116.011 863.496 109.366 869.405C109.126 869.621 109.02 869.992 108.852 870.29C107.361 869.091 106.325 867.516 105.288 865.946Z" fill="#FBAD18"/>
<path d="M153.506 922.695C158.345 919.212 162.761 915.206 167.395 911.468C172.828 907.087 178.254 902.698 183.677 898.302C189.411 893.653 195.136 888.988 200.869 884.336C202.12 883.321 203.396 882.337 204.848 881.525C204.428 883.283 202.844 884.123 201.684 885.125C196.397 889.694 191.223 894.388 186.012 899.043C178.288 905.941 170.452 912.713 162.68 919.554C160.431 921.532 158.229 923.562 156.003 925.569C154.93 924.822 154.012 923.938 153.506 922.695Z" fill="#FBAD18"/>
<path d="M88.392 846.258C88.441 845.876 88.278 845.486 88.729 845.164C94.866 840.793 100.497 835.781 106.406 831.121C111.985 826.721 117.352 822.052 122.817 817.506C124.361 816.223 126.246 815.342 127.412 813.611C128.497 813.069 129.639 812.606 130.33 811.514C130.711 811.683 131.092 811.852 131.474 812.021C131.392 812.269 131.309 812.516 131.228 812.764C127.862 815.66 124.474 818.533 121.135 821.459C116.552 825.476 111.993 829.519 107.448 833.577C102.33 838.148 97.269 842.784 92.108 847.306C91.197 848.104 91.715 848.877 91.622 849.673C90.312 848.756 89.196 847.654 88.392 846.258Z" fill="#FBAD18"/>
<path d="M97.381 856.877C99.231 854.643 101.687 853.088 103.86 851.23C108.533 847.235 113.396 843.461 118.183 839.598C125.66 833.563 133.133 827.524 140.626 821.51C141.02 821.194 141.41 820.722 142.159 820.795C142.18 822.33 140.735 822.756 139.954 823.475C135.155 827.883 130.214 832.137 125.331 836.454C120.355 840.854 115.395 845.273 110.422 849.676C106.785 852.894 103.373 856.37 99.438 859.243C98.75 858.455 98.066 857.666 97.381 856.877Z" fill="#FBAD18"/>
<path d="M143.96 911.439C144.848 911.96 145.33 911.286 145.917 910.811C152.697 905.329 159.467 899.833 166.281 894.395C171.985 889.841 177.759 885.373 183.473 880.833C184.65 879.897 185.439 878.423 187.144 878.157C187.385 879.077 186.737 879.395 186.295 879.767C178.239 886.521 170.701 893.854 162.754 900.722C159.635 903.418 156.455 906.098 153.504 908.933C151.398 910.955 148.452 912.334 147.335 915.342C145.67 914.51 144.97 912.84 143.96 911.439Z" fill="#FBAD18"/>
<path d="M115.1 877.397C115.945 877.85 116.478 877.35 117.094 876.841C121.865 872.917 126.662 869.023 131.452 865.122C138.624 859.281 145.793 853.436 152.977 847.608C155.657 845.433 158.373 843.299 161.107 841.121C161.477 841.891 161.02 842.184 160.674 842.489C157.129 845.638 153.566 848.766 150.028 851.925C145.885 855.623 141.766 859.345 137.635 863.057C131.214 868.828 124.794 874.602 118.361 880.358C118.19 880.512 117.85 880.48 117.587 880.536C116.596 879.619 115.496 878.787 115.1 877.397Z" fill="#FBAD18"/>
<path d="M109.949 810.88C107.547 811.663 105.762 813.456 103.894 814.966C100.276 817.89 96.5109 820.612 92.8629 823.488C88.2049 827.162 83.2499 830.467 78.9469 834.591C78.5069 834.574 78.1649 834.365 77.8799 834.048C77.9879 832.708 76.0599 832.393 76.3339 830.97C79.4479 830.109 81.702 827.823 84.299 826.114C91.88 821.127 99.1119 815.628 106.813 810.81C108.189 809.948 109.319 808.702 110.874 808.092C110.564 809.021 110.258 809.949 109.949 810.88Z" fill="#FBAD18"/>
<path d="M168.654 875.418C168.356 876.82 167.257 877.628 166.256 878.429C160.565 882.98 155.645 888.378 150.047 893.036C146.217 896.223 142.649 899.724 138.963 903.083C138.514 903.491 138.135 904.049 137.392 903.88C136.445 903.315 135.753 902.551 135.507 901.442C145.133 893.821 154.748 886.185 164.399 878.596C165.789 877.505 166.84 875.946 168.652 875.418H168.654Z" fill="#FBAD18"/>
<path d="M78.945 834.554C79.045 834.734 79.144 834.914 79.246 835.094C79.012 834.988 78.882 834.824 78.945 834.554Z" fill="#FBAD18"/>
<path d="M174.812 946.531C173.558 946.712 172.238 945.435 171.971 943.795C177.441 939.423 182.928 935.068 188.382 930.672C194.359 925.854 200.31 921.006 206.258 916.154C212.352 911.183 218.43 906.194 224.51 901.206C225.049 900.764 225.6 900.378 226.463 900.268C226.426 901.463 225.297 901.528 224.726 902.041C218.695 907.468 212.611 912.838 206.565 918.252C199.166 924.88 191.596 931.316 184.274 938.034C181.153 940.896 177.786 943.496 174.812 946.531Z" fill="#FBAD18"/>
<path d="M165.47 936.06C164.009 935.782 163.514 934.666 163.174 933.414C166.443 929.984 170.339 927.295 173.989 924.32C184.078 916.09 194.27 907.982 204.4 899.8C206.283 898.278 207.92 896.428 210.283 895.581C208.068 898.505 204.977 900.503 202.339 902.979C196.489 908.473 190.405 913.718 184.409 919.058C178.328 924.472 172.238 929.875 166.156 935.291C165.902 935.52 165.697 935.803 165.47 936.06Z" fill="#FBAD18"/>
<path d="M186.789 961.313C185.405 960.37 183.804 959.598 183.861 957.538C185.433 957.723 186.105 956.366 186.994 955.548C190.784 952.057 194.402 948.378 198.208 944.903C203.483 940.085 208.467 934.956 213.858 930.255C217.717 926.893 221.303 923.216 225.026 919.699C225.406 919.339 225.688 918.79 226.359 918.785C226.614 919.599 225.876 919.839 225.5 920.23C219.737 926.209 213.945 932.16 208.186 938.14C203.345 943.166 198.383 948.088 193.776 953.325C191.44 955.977 188.341 957.979 186.789 961.313Z" fill="#FBAD18"/>
<path d="M189.613 875.874C190.058 875.001 190.916 874.698 191.717 874.318C191.336 875.283 190.887 876.154 189.608 875.865L189.613 875.874Z" fill="#D2A72B"/>
<path d="M189.608 875.865C189.368 876.732 189.001 877.492 187.916 877.918C187.816 876.493 188.96 876.391 189.613 875.874L189.608 875.865Z" fill="#D2A72B"/>
<path d="M168.652 875.418C168.89 874.841 169.316 874.478 170.237 874.048C170.047 875.312 169.577 875.624 168.654 875.418H168.652Z" fill="#D2A72B"/>
<path d="M211.622 894.301C211.339 894.897 210.937 895.371 210.283 895.582C210.48 894.895 210.815 894.351 211.622 894.301Z" fill="#D2A72B"/>
<path d="M171.031 873.357C171.121 873.443 171.278 873.527 171.281 873.615C171.283 873.704 171.13 873.795 171.045 873.886C170.955 873.8 170.795 873.716 170.795 873.63C170.794 873.54 170.944 873.448 171.031 873.357Z" fill="#D2A72B"/>
<path d="M227.1 918.024C227.088 917.973 227.078 917.923 227.065 917.874C227.135 917.863 227.207 917.852 227.278 917.84C227.266 917.893 227.271 917.958 227.24 917.993C227.214 918.021 227.148 918.015 227.1 918.024Z" fill="#FBAD18"/>
<path d="M155.023 787.789C155.554 787.454 156.08 787.034 156.569 787.864C156.801 788.26 156.921 788.742 157.527 788.834C158.917 789.046 159.905 789.247 158.365 790.916C157.732 791.602 158.722 792.957 159.078 793.972C159.419 794.956 159.553 796.072 161.271 795.688C162.461 795.424 162.002 796.618 161.922 797.301C159.376 798.345 158.396 797.751 157.44 795.11C156.96 793.784 156.881 792.263 155.418 791.245C154.406 790.541 155.825 788.9 155.023 787.789Z" fill="#FBD859"/>
<path d="M85.25 810.838C85.432 810.443 85.752 810.5 86.078 810.587C85.891 810.961 85.569 810.898 85.25 810.838Z" fill="#FBAD18"/>
<path d="M237.865 923.04C238.017 922.779 238.128 922.441 238.545 922.622C238.589 922.641 238.636 922.741 238.622 922.786C238.494 923.222 238.166 923.093 237.867 923.045L237.865 923.04Z" fill="#FBAD18"/>
<path d="M261.741 899.976C261.042 897.457 258.553 894.03 257.965 892.944C255.883 889.117 253.803 885.29 251.722 881.462C246.353 871.585 240.746 861.828 235.484 851.919C234.799 850.596 233.425 849.44 233.817 847.661C231.161 844.526 228.504 841.39 225.844 838.257C224.296 836.435 222.746 834.612 221.187 832.8C215.799 826.532 210.321 820.339 205.051 813.974C202.392 810.763 199.273 807.917 197.154 804.262C196.964 803.932 196.553 803.73 196.247 803.469C192.649 802.347 189.684 798.997 186.845 796.638C183.426 793.796 179.98 790.984 176.512 788.202C167.273 780.794 157.694 773.829 148.452 766.431C147.87 765.966 147.008 765.348 146.449 766.073C144.861 768.131 142.436 769.266 140.888 771.336C142.781 771.137 144.209 772.163 144.732 773.705C145.359 775.552 146.984 776.574 148.015 777.956C148.944 779.202 149.807 781.481 152.106 781.561C152.257 781.566 152.502 781.806 152.529 781.966C152.86 783.938 154.088 785.673 154.505 787.667C155.924 787.39 157.279 788.288 158.448 789.142C158.583 789.24 158.719 789.341 158.807 789.481C159.074 789.905 158.799 790.442 158.618 790.908C157.778 793.061 159.557 795.78 161.868 795.875C161.735 797.744 163.851 798.823 165.493 799.727C169.021 801.67 171.628 804.906 174.139 808.058C175.814 810.163 177.489 812.268 179.165 814.372C180.851 816.491 182.538 818.615 184.37 820.612C185.645 822.004 188.506 823.75 188.412 825.883C188.406 825.978 188.568 826.105 188.68 826.174C191.946 828.198 193.754 831.614 196.298 834.32C199.688 837.928 202.444 842.125 205.641 845.928C207.809 848.507 210.578 850.622 212.517 853.345C214.782 856.524 217.414 859.396 219.999 862.23C221.536 863.914 222.305 866.327 224.592 867.416C225.274 867.742 225.563 868.845 226.099 869.541C229.51 873.963 233.108 878.245 236.678 882.531C238.639 884.888 240.952 887.094 242.879 889.473C244.685 891.705 247.144 893.351 248.401 896.228C249.287 898.249 251.596 899.682 253.37 901.266C254.628 902.388 254.782 904.237 256.238 905.233C256.663 905.523 256.151 906.26 256.053 906.791C258.08 905.66 259.547 903.838 261.372 902.453C262.014 901.963 262.042 901.053 261.741 899.976Z" fill="#5C5C5A"/>
<path d="M626.296 478.244C621.973 473.3 614.818 472.848 609.649 477.232C601.039 484.534 592.459 491.87 583.848 499.17C569.082 511.689 554.294 524.18 539.535 536.705C521.206 552.26 502.905 567.846 484.578 583.403C458.689 605.381 432.777 627.33 406.909 649.332C404.044 651.769 400.982 653.987 398.407 656.758C399.802 657.275 399.824 658.687 400.314 659.767C400.872 660.997 401.278 662.296 401.744 663.55C401.278 662.296 400.872 660.997 400.314 659.767C399.824 658.687 399.801 657.275 398.407 656.758C397.737 656.978 397.121 657.265 396.846 657.987C392.111 661.974 387.361 665.946 382.638 669.952C369.775 680.865 356.925 691.798 344.064 702.713C331.777 713.14 236.37 791.649 224.078 802.067C223.947 802.57 233.211 812.936 233.712 813.508C238.551 819.044 233.737 813.486 238.551 819.044C239.002 818.618 322.572 751.262 323.042 750.862C337.48 738.599 351.913 726.336 366.361 714.087C380.494 702.106 394.648 690.15 408.776 678.16C416.02 672.012 423.222 665.814 430.445 659.639C431.554 659.434 432 658.395 432.735 657.741C434.673 656.009 436.966 654.686 438.636 652.643C438.312 652.758 438.024 652.793 437.779 652.747C437.367 652.669 437.068 652.36 436.888 651.796C436.683 651.144 436.536 650.461 436.236 649.855C436.537 650.46 436.683 651.144 436.888 651.796C437.068 652.36 437.367 652.669 437.779 652.747C438.024 652.794 438.312 652.759 438.636 652.643C438.766 652.575 438.851 652.47 438.891 652.33C439.954 651.834 440.852 651.132 441.537 650.171C440.65 649.45 440.28 648.681 441.389 647.851C441.651 647.654 441.845 647.343 441.929 647.064C441.845 647.343 441.651 647.654 441.389 647.851C440.281 648.681 440.651 649.45 441.537 650.171C441.899 649.866 442.259 649.562 442.62 649.259C445.406 647.39 447.697 644.937 450.265 642.808L450.271 642.805C450.741 642.784 451.049 642.584 451.081 642.076C451.037 642.079 450.999 642.094 450.958 642.101C450.999 642.093 451.037 642.079 451.081 642.076C451.196 641.991 451.31 641.907 451.424 641.823C452.583 641.48 453.079 640.351 453.964 639.682C453.665 639.15 453.282 638.646 453.087 638.079C453.282 638.645 453.665 639.149 453.964 639.682L453.968 639.678C454.108 639.56 454.244 639.443 454.38 639.326L454.477 639.25C454.529 639.264 454.622 639.296 454.625 639.287C454.663 639.204 454.689 639.114 454.716 639.026C454.679 639.024 454.646 639.029 454.617 639.038C454.58 639.05 454.552 639.071 454.53 639.098C454.551 639.072 454.58 639.05 454.617 639.038C454.645 639.029 454.679 639.024 454.716 639.026C470.476 625.666 486.237 612.307 501.993 598.945C519.91 583.749 537.825 568.549 555.738 553.347C568.709 542.338 581.677 531.326 594.645 520.311C604.724 511.749 614.855 503.245 624.852 494.586C629.88 490.23 630.392 482.931 626.296 478.244ZM437.664 644.744C437.709 644.669 437.758 644.601 437.808 644.54C437.758 644.602 437.709 644.669 437.664 644.744C437.6 644.853 437.546 644.973 437.513 645.082C437.546 644.973 437.6 644.854 437.664 644.744ZM435.813 648.908C435.69 648.702 435.533 648.531 435.299 648.445C435.532 648.531 435.689 648.702 435.813 648.908ZM433.476 650.338C433.428 650.361 433.357 650.397 433.357 650.397L433.476 650.338ZM431.451 657.02C431.299 657.038 431.165 657.063 431.055 657.108C431.165 657.063 431.299 657.037 431.451 657.02ZM432.236 655.449C432.297 655.456 432.356 655.467 432.411 655.488C432.356 655.467 432.297 655.456 432.236 655.449ZM429.438 650.84C429.702 650.537 430.026 650.319 430.406 650.184C430.026 650.319 429.702 650.537 429.438 650.84C429.172 651.143 428.966 651.528 428.822 651.998C428.967 651.528 429.173 651.143 429.438 650.84ZM407.082 666.384C407.268 666.529 407.476 666.553 407.674 666.518C407.476 666.553 407.268 666.528 407.082 666.384C406.889 666.233 406.869 666.087 406.912 665.94C406.869 666.087 406.889 666.232 407.082 666.384ZM406.956 665.83C407.01 665.721 407.084 665.609 407.137 665.496C407.256 665.236 407.371 664.975 407.488 664.714C407.372 664.975 407.257 665.236 407.137 665.496C407.084 665.609 407.01 665.721 406.956 665.83ZM407.542 664.59C407.907 663.758 408.262 662.921 408.666 662.11C408.824 661.798 409.082 661.493 409.269 661.18C409.082 661.493 408.825 661.798 408.666 662.11C408.262 662.921 407.907 663.758 407.542 664.59ZM406.279 668.66C406.232 668.656 406.186 668.651 406.138 668.644C406.186 668.651 406.232 668.656 406.279 668.66ZM409.419 660.875C409.51 660.623 409.515 660.363 409.341 660.09C409.515 660.363 409.51 660.623 409.419 660.875ZM409.126 659.824C408.657 659.363 407.951 659.303 407.248 659.332C407.951 659.303 408.657 659.363 409.126 659.824ZM402.943 661.668C402.829 661.887 402.729 662.122 402.642 662.377C402.729 662.122 402.829 661.887 402.943 661.668ZM402.439 663.053C402.4 663.134 402.342 663.208 402.275 663.278C402.343 663.208 402.4 663.134 402.439 663.053C402.465 662.998 402.488 662.942 402.505 662.884C402.488 662.941 402.466 662.998 402.439 663.053ZM398.031 662.227C397.952 662.307 397.856 662.374 397.746 662.432C397.856 662.374 397.952 662.307 398.031 662.227ZM396.11 662.895C396.345 662.832 396.595 662.78 396.838 662.725C396.596 662.779 396.346 662.831 396.11 662.895ZM395.523 663.107C395.59 663.073 395.665 663.042 395.741 663.012C395.665 663.042 395.591 663.073 395.523 663.107C395.111 663.316 394.746 663.558 394.43 663.829C394.746 663.559 395.111 663.316 395.523 663.107ZM393.633 664.721C393.417 665.044 393.252 665.393 393.139 665.762C393.252 665.393 393.417 665.044 393.633 664.721ZM402.35 668.5C401.925 670.073 401.053 671.117 399.723 671.639C399.281 671.813 398.785 671.929 398.24 671.987C398.039 672.008 397.845 672.015 397.653 672.015C397.845 672.015 398.039 672.008 398.24 671.987C398.786 671.929 399.281 671.813 399.723 671.639C401.053 671.117 401.925 670.073 402.35 668.5C402.585 667.625 402.937 667.23 403.538 667.432C402.937 667.23 402.585 667.625 402.35 668.5ZM396.889 671.96C396.946 671.969 397.003 671.975 397.063 671.982C397.003 671.975 396.945 671.969 396.889 671.96ZM409.47 667.813C408.782 668.188 408.065 668.481 407.339 668.606C408.064 668.48 408.781 668.188 409.47 667.813C409.611 667.737 409.744 667.656 409.873 667.569C409.744 667.655 409.61 667.736 409.47 667.813ZM410.316 667.212C410.396 667.134 410.471 667.054 410.538 666.969C410.472 667.054 410.396 667.134 410.316 667.212ZM410.66 666.795C410.732 666.676 410.79 666.55 410.829 666.417C410.79 666.55 410.732 666.676 410.66 666.795ZM410.83 666.415C410.928 666.08 410.908 665.7 410.715 665.268C410.64 665.097 410.536 664.916 410.401 664.727C409.842 665.123 409.293 665.516 408.74 665.902C409.293 665.516 409.843 665.123 410.401 664.727C410.537 664.916 410.64 665.097 410.715 665.268C410.908 665.7 410.928 666.08 410.83 666.415ZM432.581 657.023C432.647 656.98 432.704 656.916 432.752 656.837C432.704 656.916 432.647 656.98 432.581 657.023ZM435.882 649.036C435.949 649.168 436.005 649.308 436.061 649.449C436.005 649.309 435.949 649.168 435.882 649.036ZM443.948 646.467C444.113 646.042 444.311 645.663 444.535 645.321C444.312 645.663 444.113 646.042 443.948 646.467ZM443.28 648.357C443.331 648.282 443.379 648.205 443.422 648.126C443.379 648.205 443.33 648.282 443.28 648.357ZM446.165 643.74C446.677 643.431 447.245 643.202 447.872 643.051C447.245 643.202 446.677 643.432 446.165 643.74ZM452.183 636.828C452.604 636.927 452.813 637.326 452.986 637.792C452.813 637.326 452.604 636.927 452.183 636.828Z" fill="#878884"/>
<path d="M143.29 770.849L258.229 907.07L252.007 912.987L136.353 775.532L143.29 770.849Z" fill="#FBAD18"/>
<path d="M129.952 720.649C129.952 720.649 118.275 754.14 124.323 775.556C130.371 796.973 151.094 838.785 151.094 838.785" stroke="#00A1CD" stroke-width="15" stroke-miterlimit="10"/>
<path d="M147.321 877.813C147.88 879.558 149.921 880.479 151.856 879.86C153.794 879.241 154.922 877.306 154.365 875.561L150.496 863.457C151.547 863.614 152.634 863.646 153.73 863.571L158.371 878.083C158.928 879.828 160.97 880.749 162.907 880.129C164.844 879.51 165.971 877.576 165.414 875.831L160.774 861.319C161.617 860.8 162.396 860.215 163.099 859.565L167.087 872.037C167.644 873.782 169.686 874.704 171.624 874.084C173.56 873.465 174.688 871.53 174.13 869.786L167.486 849.002C167.428 848.297 167.291 847.592 167.096 846.894L169.715 850.443C170.811 851.932 173.094 852.25 174.785 851.149C176.473 850.047 176.96 847.929 175.862 846.44L161.87 827.469C161.332 826.739 160.508 826.295 159.609 826.157C156.242 822.073 150.186 820.287 144.369 822.147C136.961 824.515 132.645 831.913 134.779 838.585L140.045 855.055C140.082 855.173 140.134 855.282 140.175 855.397C140.19 855.458 140.191 855.518 140.212 855.579L147.321 877.813Z" fill="#A2CCED"/>
<path d="M294.343 519.202C293.561 510.22 300.206 502.303 309.189 501.519C318.171 500.737 326.088 507.384 326.871 516.367" fill="#0D4060"/>
<path d="M385.398 513.052C384.615 504.071 391.261 496.154 400.245 495.371C409.226 494.588 417.142 501.235 417.926 510.218" fill="#0D4060"/>
<path d="M1529.01 408.428C1524.32 407.116 1520.2 403.583 1514.87 404.789L1514.44 404.387C1514.12 404.346 1513.94 404.485 1513.89 404.802C1510.81 410.813 1508.24 417.026 1506.36 423.52C1506.05 424.309 1505.73 425.097 1505.42 425.885C1504.05 429.263 1502.49 432.58 1501.34 436.033C1499.46 441.65 1501.94 446.691 1507.18 448.491C1512.39 450.275 1517.59 447.88 1519.54 442.305C1522.02 435.199 1524.26 427.996 1526.27 420.744C1527.39 416.705 1530.09 412.968 1529.01 408.428ZM1510.58 439.707C1507.34 438.712 1505.81 435.927 1506.86 432.603C1507.9 429.309 1510.57 427.886 1513.94 428.896C1517.37 429.924 1518.3 432.631 1517.83 435.913C1516.38 439.18 1513.81 440.697 1510.58 439.707Z" fill="#114B50"/>
<path d="M1600.58 229.33C1595.22 220.644 1587.06 216.728 1577.06 217.846C1563.49 219.36 1554.94 228.2 1547.98 239.078C1536.33 257.29 1534.05 287.269 1553.44 301.926C1553.31 302.548 1553.18 303.171 1553.06 303.793C1552.11 306.822 1551.96 310.191 1549.36 312.518C1539.88 336.661 1530.3 360.764 1520.99 384.972C1518.55 391.334 1515.23 397.45 1514.45 404.387L1514.87 404.789C1520.21 403.583 1524.32 407.116 1529.01 408.428C1531.12 407.893 1531.16 405.914 1531.65 404.388C1540.59 376.243 1549.48 348.081 1558.37 319.923C1560.92 311.011 1564.75 305.666 1575.44 302.392C1602.33 294.156 1615.38 253.278 1600.58 229.33Z" fill="#757677"/>
<path d="M881.934 335.424C870.56 335.41 859.408 334.035 848.537 330.488C810.499 318.079 783.443 282.618 781.833 242.93C780.16 201.732 803.97 164.178 841.552 148.741C892.924 127.638 950.728 153.028 969.99 205.154C987.304 252.009 965.021 305.533 919.542 326.343C918.89 326.641 918.268 327.005 917.632 327.337C914.384 327.89 911.72 330.019 908.538 330.731C899.741 332.697 891.023 335.121 881.934 335.424ZM859.404 149.854C809.662 159.85 779.786 210.121 789.856 257.099C800.559 307.02 849.846 336.787 896.668 327.27C948.021 316.832 977.781 266.158 967.709 219.475C957.019 169.93 907.484 138.369 859.404 149.854Z" fill="#555656"/>
<path d="M913.713 344.83C919.737 371.429 925.813 398.015 931.745 424.633C933.058 430.529 929.355 435.978 923.651 437.272C917.744 438.612 912.178 435.048 910.741 428.751C905.865 407.378 901.073 385.987 896.261 364.601C895.131 359.581 894.054 354.552 892.953 349.527C893.677 349.162 894.387 348.513 895.129 348.475C901.504 348.146 907.479 345.826 913.713 344.83ZM926.316 422.641C925.752 419.781 922.989 417.914 920.13 418.461C917.282 419.009 915.347 421.77 915.831 424.598C916.327 427.496 919.355 429.543 922.245 428.929C925.044 428.334 926.879 425.496 926.316 422.641Z" fill="#555656"/>
<path d="M913.714 344.831C907.48 345.826 901.504 348.144 895.129 348.474C894.388 348.512 893.678 349.161 892.952 349.526C892.241 349.543 891.528 349.524 890.82 349.582C887.17 349.876 884.945 348.371 884.033 344.768C883.249 341.675 882.626 338.54 881.934 335.425C891.024 335.122 899.74 332.698 908.536 330.732C911.72 330.021 914.383 327.892 917.631 327.34C918.103 329.421 918.578 331.501 919.042 333.584C920.705 341.055 920.387 341.726 913.714 344.831Z" fill="#474646"/>
<path d="M859.404 149.854C907.486 138.37 957.019 169.93 967.708 219.475C977.781 266.158 948.022 316.832 896.666 327.27C849.847 336.787 800.56 307.02 789.858 257.099C779.786 210.12 809.662 159.85 859.404 149.854ZM893.06 303.191C929.862 294.766 951.322 259.999 943.923 224.718C936.219 187.972 901.754 166.445 866.855 172.97C827.054 180.41 805.806 217.954 813.869 253.068C822.16 289.185 857.37 310.949 893.06 303.191Z" fill="#757677"/>
<path d="M893.06 303.191C857.371 310.949 822.161 289.184 813.869 253.068C805.806 217.955 827.055 180.411 866.855 172.97C901.754 166.445 936.219 187.972 943.923 224.718C951.321 259.999 929.861 294.767 893.06 303.191Z" fill="#555656"/>
<path d="M780.718 722.425C780.718 731.613 773.269 739.063 764.08 739.063C754.891 739.063 747.444 731.614 747.444 722.425C747.444 713.236 754.891 705.787 764.08 705.787C773.269 705.787 780.718 713.236 780.718 722.425Z" fill="#0D4060"/>
<path d="M969.033 721.952C969.74 725.857 968.614 730.138 971.399 733.622C971.399 733.622 971.255 734.076 971.256 734.079C971.34 734.329 971.506 734.414 971.756 734.335C977.263 734.453 982.736 734.132 988.172 733.197C988.86 733.145 989.55 733.093 990.238 733.04C993.205 732.848 996.195 732.81 999.14 732.426C1003.93 731.803 1006.74 728.19 1006.2 723.7C1005.65 719.248 1002.04 716.282 997.261 716.84C991.163 717.55 985.082 718.472 979.046 719.578C975.684 720.193 971.98 719.544 969.033 721.952ZM998.544 724.334C998.969 727.068 997.467 729.178 994.656 729.594C991.87 730.006 989.876 728.553 989.417 725.72C988.949 722.837 990.605 721.19 993.18 720.366C996.093 720.269 998.12 721.611 998.544 724.334Z" fill="#114B50"/>
<path d="M812.152 733.212C807.691 740.24 807.719 747.615 812.102 754.56C818.041 763.973 827.575 767.103 838.033 768.333C855.542 770.393 878.347 761.395 882.199 741.947C882.701 741.82 883.204 741.695 883.706 741.568C886.266 741.184 888.79 740.09 891.423 741.173C912.51 739.53 933.605 737.976 954.68 736.185C960.218 735.715 965.885 735.969 971.256 734.076L971.4 733.622C968.616 730.137 969.742 725.857 969.036 721.951C967.891 720.593 966.426 721.271 965.132 721.459C941.3 724.92 917.475 728.427 893.648 731.924C886.205 733.233 880.919 732.324 874.71 725.646C859.09 708.847 824.454 713.828 812.152 733.212Z" fill="#757677"/>
</svg>
