<svg width="1220" height="878" viewBox="0 0 1220 878" fill="none" xmlns="http://www.w3.org/2000/svg">
<path d="M809.483 15.311C675.371 15.311 566.651 48.447 566.651 190.004C566.651 225.907 571.422 262.106 576.442 297.584C582.017 336.975 588.955 376.246 599.288 414.692C603.83 431.593 609.207 446.421 607.467 464.17C605.942 479.725 601.59 495.541 594.653 509.566C575.938 547.395 570.964 586.337 584.82 626.734C594.014 653.54 616.274 674.907 641.184 688.315C692.833 716.116 754.45 714.686 811.393 714.686C873.932 714.686 946.445 709.911 997.739 669.758C1018.89 653.199 1034.22 630.766 1042.74 605.338C1047.77 590.303 1049.42 575.275 1051.38 559.7C1054.09 538.154 1048.13 519.565 1040.01 500.017C1027.83 470.671 1013.9 431.078 1021.94 398.913C1040.61 323.942 1052.32 225.142 1052.32 187.14C1052.32 45.582 943.596 15.311 809.483 15.311Z" fill="#00A1CD"/>
<path d="M688.854 226.268C688.854 207.734 703.879 192.707 722.415 192.707C740.951 192.707 755.976 207.733 755.976 226.268" fill="white"/>
<path d="M775.72 226.268C775.72 207.734 790.746 192.707 809.282 192.707C827.818 192.707 842.843 207.733 842.843 226.268" fill="white"/>
<path d="M696.073 182.822C696.073 182.822 705.91 162.896 727.517 174.642" stroke="#0D4060" stroke-width="3" stroke-miterlimit="10"/>
<path d="M830.685 182.822C830.685 182.822 823.498 162.509 801.891 174.256" stroke="#0D4060" stroke-width="3" stroke-miterlimit="10"/>
<path d="M695.015 226.268C695.015 218.25 701.515 211.75 709.533 211.75C717.55 211.75 724.05 218.25 724.05 226.268" fill="#0D4060"/>
<path d="M781.882 226.268C781.882 218.25 788.382 211.75 796.4 211.75C804.417 211.75 810.917 218.25 810.917 226.268" fill="#0D4060"/>
<path d="M808.99 256.852C808.99 256.852 801.269 281.637 763.279 280.877C725.291 280.116 722.293 256.852 722.293 256.852H808.99Z" fill="#0D4060"/>
<g opacity="0.7">
<g opacity="0.7">
<path opacity="0.7" d="M688.854 254.498C688.854 258.507 678.877 261.758 666.571 261.758C654.265 261.758 644.288 258.507 644.288 254.498C644.288 250.488 654.265 247.236 666.571 247.236C678.877 247.236 688.854 250.488 688.854 254.498Z" fill="#A2CCED"/>
</g>
</g>
<g opacity="0.7">
<g opacity="0.7">
<path opacity="0.7" d="M879.254 254.498C879.254 258.507 869.277 261.758 856.971 261.758C844.665 261.758 834.689 258.507 834.689 254.498C834.689 250.488 844.665 247.236 856.971 247.236C869.277 247.236 879.254 250.488 879.254 254.498Z" fill="#A2CCED"/>
</g>
</g>
<path d="M614.871 454.561C614.871 454.561 551.535 456.826 523.297 479.768C495.057 502.711 448.016 561.688 448.016 561.688" stroke="#00A1CD" stroke-width="14" stroke-miterlimit="10"/>
<path d="M982.698 467.359C982.698 467.359 1044.58 464.121 1073.09 441.318C1101.6 418.515 1149.96 360.316 1149.96 360.316" stroke="#00A1CD" stroke-width="14" stroke-miterlimit="10"/>
<path d="M1203.22 346.857C1205.37 345.001 1205.15 341.476 1202.73 339.029C1200.3 336.581 1196.56 336.097 1194.41 337.955L1179.47 350.84C1178.89 349.215 1178.09 347.616 1177.12 346.063L1195.03 330.616C1197.18 328.757 1196.96 325.235 1194.54 322.787C1192.12 320.338 1188.37 319.854 1186.22 321.713L1168.31 337.16C1166.89 336.244 1165.42 335.461 1163.91 334.826L1179.3 321.55C1181.45 319.693 1181.23 316.169 1178.81 313.72C1176.38 311.273 1172.64 310.789 1170.49 312.646L1144.84 334.769C1143.84 335.277 1142.9 335.9 1142.02 336.599L1145.24 330.663C1146.6 328.173 1145.3 324.661 1142.35 322.86C1139.41 321.059 1135.89 321.624 1134.54 324.114L1117.29 355.844C1116.62 357.065 1116.6 358.532 1117.1 359.922C1113.66 367.268 1115.71 377.151 1123 384.506C1132.26 393.87 1146.58 395.719 1154.81 388.615L1175.13 371.084C1175.28 370.958 1175.4 370.817 1175.54 370.688C1175.62 370.629 1175.71 370.59 1175.78 370.528L1203.22 346.857Z" fill="#A2CCED"/>
<path d="M820.181 709.129L838.196 827.175H859.787L877.805 709.078" fill="#00A1CD"/>
<path d="M712.491 708.764L730.508 827.174H752.1L770.115 709.129" fill="#00A1CD"/>
<path d="M859.577 856.518H838.408L827.275 760.951H870.818L859.577 856.518Z" fill="#FFCB05"/>
<path d="M751.66 855.865H730.49L719.251 760.298H762.793L751.66 855.865Z" fill="#FFCB05"/>
<path d="M679.862 856.99C679.862 836.943 696.114 820.691 716.162 820.691C736.21 820.691 752.461 836.943 752.461 856.99" fill="#504B48"/>
<path d="M787.086 856.99C787.086 836.943 803.338 820.691 823.386 820.691C843.433 820.691 859.685 836.943 859.685 856.99" fill="#504B48"/>
<path d="M486.008 552.594C486.008 552.594 527.672 550.647 541.777 535.283C555.882 519.919 569.823 477.592 569.823 477.592" stroke="#00A1CD" stroke-width="8" stroke-miterlimit="10"/>
<path d="M598.011 448.568C598.697 446.754 597.609 444.644 595.594 443.884C593.578 443.122 591.369 443.984 590.683 445.8L585.926 458.392C585.156 457.57 584.278 456.829 583.317 456.168L589.02 441.071C589.706 439.255 588.618 437.147 586.603 436.385C584.588 435.625 582.377 436.488 581.693 438.303L575.99 453.399C574.95 453.274 573.917 453.248 572.906 453.324L577.806 440.348C578.493 438.535 577.405 436.426 575.39 435.664C573.373 434.903 571.164 435.766 570.479 437.581L562.313 459.2C561.896 459.824 561.547 460.5 561.247 461.207L561.411 456.539C561.48 454.58 559.796 452.814 557.667 452.616C555.54 452.417 553.743 453.855 553.675 455.814L552.798 480.765C552.764 481.726 553.155 482.636 553.811 483.341C553.917 488.947 557.765 494.414 563.819 496.701C571.525 499.612 579.975 496.313 582.597 489.372L589.069 472.24C589.116 472.118 589.143 471.993 589.185 471.87C589.212 471.809 589.251 471.757 589.275 471.696L598.011 448.568Z" fill="#A2CCED"/>
<path d="M185.364 465.375H160.391V730.068H185.364V465.375Z" fill="#C2C4C4"/>
<path d="M187.402 464.004H111.371V485.496H187.402V464.004Z" fill="#353230"/>
<path d="M416.177 848.442C497.709 848.442 563.803 782.348 563.803 700.816C563.803 619.284 497.709 553.19 416.177 553.19C334.645 553.19 268.551 619.284 268.551 700.816C268.551 782.348 334.645 848.442 416.177 848.442Z" stroke="#353230" stroke-width="10" stroke-miterlimit="10"/>
<path d="M416.718 830.179C487.959 830.179 545.711 772.427 545.711 701.186C545.711 629.945 487.959 572.193 416.718 572.193C345.477 572.193 287.725 629.945 287.725 701.186C287.725 772.427 345.477 830.179 416.718 830.179Z" stroke="#C2C4C4" stroke-width="7" stroke-miterlimit="10"/>
<path d="M417.849 571.363V833.984" stroke="#C2C4C4" stroke-width="7" stroke-miterlimit="10"/>
<path d="M549.797 702.674H287.175" stroke="#C2C4C4" stroke-width="7" stroke-miterlimit="10"/>
<path d="M509.484 609.373L323.783 795.074" stroke="#C2C4C4" stroke-width="7" stroke-miterlimit="10"/>
<path d="M509.935 795.525L324.233 609.824" stroke="#C2C4C4" stroke-width="7" stroke-miterlimit="10"/>
<path d="M436.56 597.721H181.784V688.614H436.56V597.721Z" fill="#504B48"/>
<path d="M444.714 676.552H185.842V719.341H444.714V676.552Z" fill="#353230"/>
<path d="M471.738 770.522H212.865V796.57H471.738V770.522Z" fill="#C2C4C4"/>
<path d="M238.912 711.027H212.865V796.57H238.912V711.027Z" fill="#C2C4C4"/>
<path d="M418.75 689.266L418.295 752.146C418.262 756.65 421.951 760.293 426.455 760.206C429.929 760.136 432.96 757.837 433.961 754.511L458.919 671.581C459.688 669.023 459.132 666.251 457.436 664.189L433.825 621.176C432.153 619.145 429.591 618.065 426.971 618.286L298.72 643.444C290.732 644.12 288.588 654.816 295.699 658.517L348.6 686.06C351.101 687.362 352.731 689.883 352.895 692.698L356.454 754.337C356.702 758.638 360.31 761.97 364.616 761.876L366.545 761.835C370.02 761.759 373.049 759.45 374.04 756.119L394.647 686.947C395.157 685.234 395.079 683.4 394.426 681.737L388.155 665.766C387.884 665.075 387.516 664.422 387.063 663.83L386.782 663.461L415.212 682.566C417.439 684.064 418.77 686.58 418.75 689.266Z" fill="#00A1CD"/>
<path d="M357.505 783.072L372.679 782.744L390.043 711.036L353.283 711.736L357.505 783.072Z" fill="#56C5D0"/>
<path d="M417.487 780.928L432.662 780.655L449.027 708.971L418.256 709.549L417.487 780.928Z" fill="#56C5D0"/>
<path d="M469.093 780.813C468.834 766.442 456.977 755 442.606 755.258C428.236 755.516 416.793 767.374 417.052 781.745" fill="#504B48"/>
<path d="M409.229 782.947C408.916 768.578 397.016 757.181 382.646 757.494C368.277 757.805 356.879 769.707 357.192 784.077" fill="#504B48"/>
<path d="M173.594 581.619V844.24" stroke="#C2C4C4" stroke-width="7" stroke-miterlimit="10"/>
<path d="M305.541 712.93H42.9202" stroke="#C2C4C4" stroke-width="7" stroke-miterlimit="10"/>
<path d="M150.728 409.51C152.734 521.438 221.194 666.906 347.469 670.5C446.672 673.324 536.78 516.818 534.773 404.892C532.766 292.966 446.335 268.306 340.295 270.205C234.254 272.106 148.721 297.582 150.728 409.51Z" fill="#00A1CD"/>
<path d="M471.076 438.301C470.754 420.315 455.911 405.994 437.925 406.318C419.938 406.64 405.619 421.483 405.942 439.469" fill="white"/>
<path d="M386.781 439.813C386.458 421.826 371.616 407.506 353.63 407.829C335.643 408.151 321.323 422.994 321.645 440.98" fill="white"/>
<path d="M463.314 396.268C463.314 396.268 453.419 377.102 432.657 388.877" stroke="#0D4060" stroke-width="3" stroke-miterlimit="10"/>
<path d="M332.688 398.609C332.688 398.609 339.307 378.769 360.48 389.795" stroke="#0D4060" stroke-width="3" stroke-miterlimit="10"/>
<path d="M355.027 470.07C355.027 470.07 362.95 493.987 399.8 492.588C436.653 491.188 439.157 468.561 439.157 468.561L355.027 470.07Z" fill="#0D4060"/>
<g opacity="0.7">
<g opacity="0.7">
<path opacity="0.7" d="M471.567 465.695C471.636 469.586 481.375 472.566 493.316 472.351C505.257 472.138 514.882 468.81 514.812 464.919C514.744 461.028 505.005 458.047 493.064 458.261C481.122 458.477 471.497 461.803 471.567 465.695Z" fill="#A2CCED"/>
</g>
</g>
<g opacity="0.7">
<g opacity="0.7">
<path opacity="0.7" d="M286.803 469.006C286.871 472.898 296.611 475.877 308.551 475.664C320.494 475.449 330.119 472.121 330.049 468.231C329.98 464.34 320.242 461.36 308.299 461.574C296.357 461.787 286.733 465.115 286.803 469.006Z" fill="#A2CCED"/>
</g>
</g>
<path d="M453.381 422.105C457.613 426.447 464.024 427.369 469.192 424.847C466.538 416.263 460.03 409.118 451.222 405.89C448.353 411.042 449.054 417.667 453.381 422.105Z" fill="#0D4060"/>
<path d="M366.982 423.566C371.211 427.913 377.62 428.839 382.79 426.323C380.144 417.738 373.643 410.587 364.836 407.349C361.963 412.501 362.658 419.125 366.982 423.566Z" fill="#0D4060"/>
<path d="M171.923 858.698C253.455 858.698 319.549 792.604 319.549 711.072C319.549 629.541 253.455 563.446 171.923 563.446C90.3915 563.446 24.2971 629.541 24.2971 711.072C24.2971 792.604 90.3915 858.698 171.923 858.698Z" stroke="#353230" stroke-width="10" stroke-miterlimit="10"/>
<path d="M172.463 840.434C243.704 840.434 301.456 782.682 301.456 711.441C301.456 640.2 243.704 582.448 172.463 582.448C101.222 582.448 43.4702 640.2 43.4702 711.441C43.4702 782.682 101.222 840.434 172.463 840.434Z" stroke="#C2C4C4" stroke-width="7" stroke-miterlimit="10"/>
<path d="M265.229 619.629L79.5281 805.33" stroke="#C2C4C4" stroke-width="7" stroke-miterlimit="10"/>
<path d="M265.68 805.779L79.979 620.079" stroke="#C2C4C4" stroke-width="7" stroke-miterlimit="10"/>
<path d="M218.563 548.563C218.563 548.563 188.266 577.229 187.605 598.075C186.944 618.921 204.002 660.091 204.002 660.091" stroke="#00A1CD" stroke-width="8" stroke-miterlimit="10"/>
<path d="M201.586 700.475C202.25 702.299 204.449 703.187 206.475 702.449C208.498 701.71 209.61 699.615 208.944 697.792L204.331 685.147C205.45 685.268 206.602 685.254 207.761 685.129L213.292 700.289C213.956 702.111 216.155 702.998 218.181 702.26C220.204 701.523 221.316 699.426 220.65 697.604L215.119 682.445C215.99 681.861 216.789 681.206 217.507 680.489L222.26 693.518C222.925 695.34 225.125 696.228 227.149 695.49C229.172 694.751 230.284 692.656 229.618 690.833L221.698 669.122C221.607 668.378 221.429 667.638 221.196 666.907L224.118 670.552C225.345 672.08 227.772 672.319 229.514 671.08C231.256 669.843 231.678 667.58 230.452 666.052L214.833 646.573C214.232 645.823 213.342 645.387 212.385 645.281C208.647 641.103 202.163 639.471 196.083 641.69C188.345 644.512 184.095 652.527 186.638 659.497L192.915 676.703C192.96 676.826 193.019 676.938 193.067 677.059C193.087 677.122 193.091 677.186 193.114 677.248L201.586 700.475Z" fill="#A2CCED"/>
</svg>
