<?xml version="1.0" encoding="utf-8"?>
<!-- Generator: Adobe Illustrator 16.0.0, SVG Export Plug-In . SVG Version: 6.00 Build 0)  -->
<!DOCTYPE svg PUBLIC "-//W3C//DTD SVG 1.1//EN" "http://www.w3.org/Graphics/SVG/1.1/DTD/svg11.dtd">
<svg version="1.1" id="Layer_1" xmlns="http://www.w3.org/2000/svg" xmlns:xlink="http://www.w3.org/1999/xlink" x="0px" y="0px"
	 width="707.858px" height="795.321px" viewBox="0 0 707.858 795.321" enable-background="new 0 0 707.858 795.321"
	 xml:space="preserve">
<g>
	<defs>
		<rect id="SVGID_1_" x="-5672.518" y="-2657.079" width="12912.2" height="8488.399"/>
	</defs>
	<clipPath id="SVGID_2_">
		<use xlink:href="#SVGID_1_"  overflow="visible"/>
	</clipPath>
	<g clip-path="url(#SVGID_2_)">
		<defs>
			<rect id="SVGID_3_" x="-5672.518" y="-2657.083" width="12912.166" height="8488.403"/>
		</defs>
		<clipPath id="SVGID_4_">
			<use xlink:href="#SVGID_3_"  overflow="visible"/>
		</clipPath>
	</g>
	<g clip-path="url(#SVGID_2_)">
		<defs>
			<rect id="SVGID_55_" x="-5672.518" y="-2657.083" width="12912.166" height="8488.403"/>
		</defs>
		<clipPath id="SVGID_6_">
			<use xlink:href="#SVGID_55_"  overflow="visible"/>
		</clipPath>
	</g>
	<g clip-path="url(#SVGID_2_)">
		<defs>
			<rect id="SVGID_73_" x="-5672.518" y="-2657.083" width="12912.166" height="8488.403"/>
		</defs>
		<clipPath id="SVGID_8_">
			<use xlink:href="#SVGID_73_"  overflow="visible"/>
		</clipPath>
	</g>
	<g clip-path="url(#SVGID_2_)">
		<defs>
			<rect id="SVGID_83_" x="-5672.518" y="-2657.083" width="12912.166" height="8488.403"/>
		</defs>
		<clipPath id="SVGID_10_">
			<use xlink:href="#SVGID_83_"  overflow="visible"/>
		</clipPath>
	</g>
	<g clip-path="url(#SVGID_2_)">
		<defs>
			<rect id="SVGID_89_" x="-5672.518" y="-2657.083" width="12912.166" height="8488.403"/>
		</defs>
		<clipPath id="SVGID_12_">
			<use xlink:href="#SVGID_89_"  overflow="visible"/>
		</clipPath>
	</g>
	<g clip-path="url(#SVGID_2_)">
		<defs>
			<rect id="SVGID_95_" x="-5672.518" y="-2657.083" width="12912.166" height="8488.403"/>
		</defs>
		<clipPath id="SVGID_14_">
			<use xlink:href="#SVGID_95_"  overflow="visible"/>
		</clipPath>
	</g>
	<g clip-path="url(#SVGID_2_)">
		<defs>
			<rect id="SVGID_97_" x="-5672.518" y="-2657.083" width="12912.166" height="8488.403"/>
		</defs>
		<clipPath id="SVGID_16_">
			<use xlink:href="#SVGID_97_"  overflow="visible"/>
		</clipPath>
	</g>
	<g clip-path="url(#SVGID_2_)">
		<defs>
			<rect id="SVGID_123_" x="-5672.518" y="-2657.083" width="12912.166" height="8488.403"/>
		</defs>
		<clipPath id="SVGID_18_">
			<use xlink:href="#SVGID_123_"  overflow="visible"/>
		</clipPath>
	</g>
	<g clip-path="url(#SVGID_2_)">
		<defs>
			<rect id="SVGID_261_" x="-5672.518" y="-2657.083" width="12912.166" height="8488.403"/>
		</defs>
		<clipPath id="SVGID_20_">
			<use xlink:href="#SVGID_261_"  overflow="visible"/>
		</clipPath>
	</g>
	<g clip-path="url(#SVGID_2_)">
		<defs>
			<rect id="SVGID_263_" x="-5672.518" y="-2657.083" width="12912.166" height="8488.403"/>
		</defs>
		<clipPath id="SVGID_22_">
			<use xlink:href="#SVGID_263_"  overflow="visible"/>
		</clipPath>
	</g>
	<g clip-path="url(#SVGID_2_)">
		<defs>
			<rect id="SVGID_291_" x="-5672.518" y="-2657.083" width="12912.166" height="8488.403"/>
		</defs>
		<clipPath id="SVGID_24_">
			<use xlink:href="#SVGID_291_"  overflow="visible"/>
		</clipPath>
		<polyline clip-path="url(#SVGID_24_)" fill="#5E62AC" points="208.032,723.292 234.249,723.292 234.251,610.359 445.377,610.359 
			445.376,723.292 472.158,723.292 472.159,599.812 471.731,599.812 471.731,575.73 208.033,575.73 208.033,600.146 		"/>
		<path clip-path="url(#SVGID_24_)" fill="#5652A3" d="M473.538,583.393H204.522c-10.421,0-18.948-8.526-18.948-18.948v-23.488
			c0-10.42,8.526-18.947,18.948-18.947h269.016c10.421,0,18.947,8.527,18.947,18.947v23.488
			C492.484,574.867,483.958,583.393,473.538,583.393"/>
		<path clip-path="url(#SVGID_24_)" fill="#00A1CD" d="M564.678,313.512c6.549,129.023-92.736,238.926-221.76,245.475
			c-129.023,6.549-238.926-92.735-245.475-221.758c-6.55-129.024,92.735-238.926,221.758-245.476
			C448.226,85.203,558.128,184.489,564.678,313.512"/>
		<path clip-path="url(#SVGID_24_)" fill="#A2CCED" d="M575.466,452.71c2.319,0.033,4.247-2.048,4.283-4.622
			c0.036-2.575-1.832-4.709-4.151-4.741l-16.089-0.228c0.612-1.199,1.088-2.489,1.438-3.838l19.29,0.274
			c2.32,0.032,4.248-2.048,4.285-4.623c0.036-2.576-1.832-4.709-4.152-4.742l-19.29-0.272c-0.282-1.219-0.673-2.392-1.168-3.498
			l16.578,0.234c2.32,0.033,4.248-2.048,4.285-4.622c0.036-2.575-1.832-4.709-4.152-4.741l-27.625-0.391
			c-0.871-0.214-1.772-0.332-2.689-0.381l5.314-1.714c2.23-0.719,3.529-3.33,2.889-5.803c-0.642-2.473-2.99-3.908-5.221-3.188
			l-28.408,9.159c-1.093,0.352-1.958,1.163-2.483,2.186c-6.258,2.399-10.841,8.948-10.95,16.685
			c-0.139,9.846,7.005,18.005,15.875,18.13l21.892,0.31c0.157,0.001,0.309-0.017,0.465-0.02c0.077,0.006,0.15,0.028,0.23,0.029
			L575.466,452.71"/>
		<polyline clip-path="url(#SVGID_24_)" fill="#00A1CD" points="283.926,501.818 327.587,645.739 345.429,643.241 342.753,515.723 
					"/>
		<polyline clip-path="url(#SVGID_24_)" fill="#00A1CD" points="366.299,494.418 442.827,623.889 459.568,617.234 426.746,493.983 
					"/>
		<polygon clip-path="url(#SVGID_24_)" fill="#CF2153" points="466.356,635.848 450.925,642.277 413.785,575.996 445.525,562.773 		
			"/>
		<polygon clip-path="url(#SVGID_24_)" fill="#CF2153" points="346.038,666.032 329.481,668.351 311.721,594.635 344.279,590.076 		
			"/>
		<path clip-path="url(#SVGID_24_)" fill="#0D4060" d="M419.866,332.073c0,0-6.255,24.37-43.063,25.5
			c-36.808,1.13-40.853-21.24-40.853-21.24L419.866,332.073z"/>
		<g opacity="0.7" clip-path="url(#SVGID_24_)">
			<g>
				<defs>
					<rect id="SVGID_345_" x="260.332" y="329.681" width="43.141" height="14.22"/>
				</defs>
				<clipPath id="SVGID_26_">
					<use xlink:href="#SVGID_345_"  overflow="visible"/>
				</clipPath>
				<path clip-path="url(#SVGID_26_)" fill="#A2CCED" d="M303.467,335.695c0.196,3.882-9.3,7.519-21.211,8.123
					c-11.912,0.604-21.728-2.052-21.925-5.933c-0.197-3.88,9.299-7.517,21.211-8.122
					C293.453,329.159,303.27,331.814,303.467,335.695"/>
			</g>
		</g>
		<g opacity="0.7" clip-path="url(#SVGID_24_)">
			<g>
				<defs>
					<rect id="SVGID_347_" x="444.622" y="320.321" width="43.14" height="14.23"/>
				</defs>
				<clipPath id="SVGID_28_">
					<use xlink:href="#SVGID_347_"  overflow="visible"/>
				</clipPath>
				<path clip-path="url(#SVGID_28_)" fill="#A2CCED" d="M487.759,326.341c0.197,3.882-9.3,7.518-21.211,8.122
					c-11.912,0.605-21.727-2.052-21.925-5.932c-0.197-3.881,9.299-7.516,21.211-8.123
					C477.746,319.804,487.562,322.46,487.759,326.341"/>
			</g>
		</g>
		<path clip-path="url(#SVGID_24_)" fill="#504B48" d="M330.104,669.048c-2.109-15.072,8.397-29.001,23.47-31.111
			c15.072-2.11,29.001,8.397,31.11,23.47"/>
		<path clip-path="url(#SVGID_24_)" fill="#504B48" d="M449.454,643.173c-5.854-14.048,0.79-30.181,14.838-36.034
			c14.048-5.854,30.183,0.79,36.034,14.839"/>
		<path clip-path="url(#SVGID_24_)" fill="#FFFFFF" d="M281.909,294.367c-0.225-20.974,16.596-38.161,37.57-38.387
			c20.976-0.224,38.161,16.597,38.387,37.571"/>
		<path clip-path="url(#SVGID_24_)" fill="#FFFFFF" d="M380.21,293.312c-0.226-20.976,16.596-38.161,37.57-38.387
			c20.975-0.225,38.161,16.597,38.387,37.571"/>
		<path clip-path="url(#SVGID_24_)" fill="none" stroke="#0D4060" stroke-width="3" stroke-miterlimit="10" d="M289.551,245.116
			c0,0,10.89-22.669,35.485-9.639"/>
		<path clip-path="url(#SVGID_24_)" fill="none" stroke="#0D4060" stroke-width="3" stroke-miterlimit="10" d="M441.881,243.48
			c0,0-8.379-22.901-32.688-9.345"/>
		<path clip-path="url(#SVGID_24_)" fill="#0D4060" d="M313.25,294.541c-0.098-9.072,7.178-16.508,16.251-16.605
			c9.073-0.097,16.507,7.179,16.604,16.251"/>
		<path clip-path="url(#SVGID_24_)" fill="#0D4060" d="M413.17,293.466c-0.098-9.071,7.179-16.506,16.251-16.603
			c9.072-0.098,16.508,7.178,16.605,16.251"/>
		<path clip-path="url(#SVGID_24_)" fill="#4C4C4B" d="M574.799,524.24H349.925c-5.5,0-10-4.5-10-10V381.624c0-5.5,4.5-10,10-10
			h224.875c5.5,0,10,4.5,10,10V514.24C584.799,519.74,580.299,524.24,574.799,524.24"/>
		<path clip-path="url(#SVGID_24_)" fill="#A2CCED" d="M342.164,486.152c-6.927,1.821-12.557,8.243-13.572,16.449
			c-1.294,10.444,5.345,19.942,14.754,21.107l23.218,2.877c0.166,0.02,0.329,0.017,0.496,0.033c0.082,0.013,0.158,0.046,0.242,0.057
			l31.348,3.883c2.46,0.305,4.75-1.679,5.088-4.411c0.338-2.73-1.397-5.215-3.858-5.52l-17.066-2.114
			c0.79-1.203,1.446-2.518,1.977-3.91l20.46,2.535c2.459,0.304,4.75-1.681,5.089-4.412c0.337-2.73-1.399-5.215-3.859-5.519
			l-20.46-2.535c-0.158-1.329-0.436-2.618-0.834-3.852L402.77,503c2.46,0.305,4.75-1.681,5.088-4.412
			c0.338-2.73-1.397-5.215-3.858-5.52l-29.3-3.628c-0.9-0.33-1.845-0.56-2.813-0.719l5.845-1.202
			c2.452-0.505,4.137-3.127,3.744-5.828c-0.393-2.702-2.721-4.499-5.173-3.995"/>
		<path clip-path="url(#SVGID_24_)" fill="#A2CCED" d="M576.996,399.332c-2.502-0.071-4.483,2.104-4.402,4.832
			c0.082,2.729,2.195,5.02,4.698,5.09l5.965,0.17c-0.925,0.326-1.817,0.716-2.646,1.196l-28.227,8.656
			c-2.37,0.728-3.649,3.476-2.841,6.106c0.806,2.631,3.405,4.188,5.776,3.462l16.939-5.194c-0.179,1.283-0.229,2.602-0.154,3.938
			l-19.71,6.045c-2.37,0.726-3.648,3.474-2.841,6.105c0.806,2.631,3.406,4.189,5.776,3.462l19.71-6.045
			c0.764,1.279,1.638,2.461,2.623,3.508l-16.44,5.042c-2.37,0.727-3.649,3.475-2.842,6.106c0.807,2.63,3.406,4.188,5.775,3.462
			l27.363-8.241c9.063-2.779,10.714-24.624,7.629-34.685c-2.423-7.905-9.083-13.254-16.22-13.845"/>
		<path clip-path="url(#SVGID_24_)" fill="#6B6767" d="M380.928,396.942h-19.694c-1.963,0-3.571-1.606-3.571-3.569v-5.993
			c0-1.962,1.607-3.569,3.571-3.569h19.694c1.963,0,3.569,1.607,3.569,3.569v5.993C384.497,395.336,382.891,396.942,380.928,396.942
			"/>
		<path clip-path="url(#SVGID_24_)" fill="#9F9F9F" d="M368.537,393.424c-1.685,2.023-4.687,2.298-6.711,0.614
			c-2.021-1.683-2.297-4.687-0.613-6.71c1.683-2.021,4.688-2.296,6.71-0.613C369.945,388.4,370.22,391.403,368.537,393.424"/>
	</g>
	<g clip-path="url(#SVGID_2_)">
		<defs>
			<rect id="SVGID_357_" x="-5672.518" y="-2657.083" width="12912.166" height="8488.403"/>
		</defs>
		<clipPath id="SVGID_30_">
			<use xlink:href="#SVGID_357_"  overflow="visible"/>
		</clipPath>
	</g>
	<g clip-path="url(#SVGID_2_)">
		<defs>
			<rect id="SVGID_359_" x="-5672.518" y="-2657.083" width="12912.166" height="8488.403"/>
		</defs>
		<clipPath id="SVGID_32_">
			<use xlink:href="#SVGID_359_"  overflow="visible"/>
		</clipPath>
	</g>
	<g clip-path="url(#SVGID_2_)">
		<defs>
			<rect id="SVGID_377_" x="-5672.518" y="-2657.083" width="12912.166" height="8488.403"/>
		</defs>
		<clipPath id="SVGID_34_">
			<use xlink:href="#SVGID_377_"  overflow="visible"/>
		</clipPath>
	</g>
	<g clip-path="url(#SVGID_2_)">
		<defs>
			<rect id="SVGID_379_" x="-5672.518" y="-2657.083" width="12912.166" height="8488.403"/>
		</defs>
		<clipPath id="SVGID_36_">
			<use xlink:href="#SVGID_379_"  overflow="visible"/>
		</clipPath>
	</g>
	<g clip-path="url(#SVGID_2_)">
		<defs>
			<rect id="SVGID_381_" x="-5672.518" y="-2657.083" width="12912.166" height="8488.403"/>
		</defs>
		<clipPath id="SVGID_38_">
			<use xlink:href="#SVGID_381_"  overflow="visible"/>
		</clipPath>
	</g>
	<g clip-path="url(#SVGID_2_)">
		<defs>
			<rect id="SVGID_383_" x="-5672.518" y="-2657.083" width="12912.166" height="8488.403"/>
		</defs>
		<clipPath id="SVGID_40_">
			<use xlink:href="#SVGID_383_"  overflow="visible"/>
		</clipPath>
	</g>
	<g clip-path="url(#SVGID_2_)">
		<defs>
			<rect id="SVGID_393_" x="-5672.518" y="-2657.083" width="12912.166" height="8488.403"/>
		</defs>
		<clipPath id="SVGID_42_">
			<use xlink:href="#SVGID_393_"  overflow="visible"/>
		</clipPath>
	</g>
	<g clip-path="url(#SVGID_2_)">
		<defs>
			<rect id="SVGID_395_" x="-5672.518" y="-2657.083" width="12912.166" height="8488.403"/>
		</defs>
		<clipPath id="SVGID_44_">
			<use xlink:href="#SVGID_395_"  overflow="visible"/>
		</clipPath>
	</g>
	<g clip-path="url(#SVGID_2_)">
		<defs>
			<rect id="SVGID_397_" x="-5672.518" y="-2657.083" width="12912.166" height="8488.403"/>
		</defs>
		<clipPath id="SVGID_46_">
			<use xlink:href="#SVGID_397_"  overflow="visible"/>
		</clipPath>
	</g>
	<g clip-path="url(#SVGID_2_)">
		<defs>
			<rect id="SVGID_815_" x="-5672.518" y="-2657.083" width="12912.166" height="8488.403"/>
		</defs>
		<clipPath id="SVGID_48_">
			<use xlink:href="#SVGID_815_"  overflow="visible"/>
		</clipPath>
	</g>
</g>
</svg>
