<?xml version="1.0" encoding="utf-8"?>
<!-- Generator: Adobe Illustrator 16.0.0, SVG Export Plug-In . SVG Version: 6.00 Build 0)  -->
<!DOCTYPE svg PUBLIC "-//W3C//DTD SVG 1.1//EN" "http://www.w3.org/Graphics/SVG/1.1/DTD/svg11.dtd">
<svg version="1.1" id="Layer_1" xmlns="http://www.w3.org/2000/svg" xmlns:xlink="http://www.w3.org/1999/xlink" x="0px" y="0px"
	 width="960px" height="908px" viewBox="0 0 960 908" enable-background="new 0 0 960 908" xml:space="preserve">
<g>
	<defs>
		<rect id="SVGID_1_" x="-1880" y="-6116.399" width="12912.2" height="8488.399"/>
	</defs>
	<clipPath id="SVGID_2_">
		<use xlink:href="#SVGID_1_"  overflow="visible"/>
	</clipPath>
	<g clip-path="url(#SVGID_2_)">
		<defs>
			<rect id="SVGID_3_" x="-1880" y="-6116.403" width="12912.166" height="8488.403"/>
		</defs>
		<clipPath id="SVGID_4_">
			<use xlink:href="#SVGID_3_"  overflow="visible"/>
		</clipPath>
		<path clip-path="url(#SVGID_4_)" fill="#00A1CD" d="M489.438,498.902c-6.665,89.279,86.313,222.581,137.11,226.372
			c56.94,4.251,162.398-112.421,169.063-201.701c6.664-89.281-60.345-115.298-144.93-121.612
			C566.097,395.647,496.102,409.622,489.438,498.902"/>
		<path clip-path="url(#SVGID_4_)" fill="#FFFFFF" d="M662.484,524.063c1.07-14.347-9.691-26.847-24.039-27.917
			s-26.846,9.69-27.917,24.039"/>
		<path clip-path="url(#SVGID_4_)" fill="#FFFFFF" d="M595.244,519.045c1.071-14.348-9.691-26.848-24.039-27.917
			c-14.347-1.071-26.846,9.69-27.917,24.039"/>
		<path clip-path="url(#SVGID_4_)" fill="none" stroke="#0D4060" stroke-width="3" stroke-miterlimit="10" d="M659.405,490.018
			c0,0-6.463-15.992-23.868-8.147"/>
		<path clip-path="url(#SVGID_4_)" fill="none" stroke="#0D4060" stroke-width="3" stroke-miterlimit="10" d="M555.209,482.24
			c0,0,6.735-15.311,22.782-4.968"/>
		<path clip-path="url(#SVGID_4_)" fill="#0D4060" d="M567.724,540.797c0,0,4.544,19.631,33.994,21.236
			c29.45,1.606,33.115-16.228,33.115-16.228L567.724,540.797z"/>
		<g opacity="0.7" clip-path="url(#SVGID_4_)">
			<g>
				<defs>
					<rect id="SVGID_13_" x="660.85" y="541.439" width="34.5" height="11.53"/>
				</defs>
				<clipPath id="SVGID_6_">
					<use xlink:href="#SVGID_13_"  overflow="visible"/>
				</clipPath>
				<path clip-path="url(#SVGID_6_)" fill="#A2CCED" d="M660.854,545.915c-0.232,3.104,7.303,6.196,16.828,6.907
					s17.437-1.229,17.667-4.332c0.232-3.104-7.303-6.196-16.829-6.907S661.084,542.811,660.854,545.915"/>
			</g>
		</g>
		<g opacity="0.7" clip-path="url(#SVGID_4_)">
			<g>
				<defs>
					<rect id="SVGID_15_" x="501.15" y="529.51" width="34.5" height="11.54"/>
				</defs>
				<clipPath id="SVGID_8_">
					<use xlink:href="#SVGID_15_"  overflow="visible"/>
				</clipPath>
				<path clip-path="url(#SVGID_8_)" fill="#A2CCED" d="M501.15,533.994c-0.231,3.104,7.303,6.195,16.829,6.907
					c9.525,0.711,17.436-1.229,17.668-4.332c0.23-3.104-7.304-6.196-16.829-6.907C509.292,528.951,501.382,530.89,501.15,533.994"/>
			</g>
		</g>
	</g>
	<g clip-path="url(#SVGID_2_)">
		<defs>
			<rect id="SVGID_55_" x="-1880" y="-6116.403" width="12912.166" height="8488.403"/>
		</defs>
		<clipPath id="SVGID_10_">
			<use xlink:href="#SVGID_55_"  overflow="visible"/>
		</clipPath>
	</g>
	<g clip-path="url(#SVGID_2_)">
		<defs>
			<rect id="SVGID_73_" x="-1880" y="-6116.403" width="12912.166" height="8488.403"/>
		</defs>
		<clipPath id="SVGID_12_">
			<use xlink:href="#SVGID_73_"  overflow="visible"/>
		</clipPath>
	</g>
	<g clip-path="url(#SVGID_2_)">
		<defs>
			<rect id="SVGID_83_" x="-1880" y="-6116.403" width="12912.166" height="8488.403"/>
		</defs>
		<clipPath id="SVGID_14_">
			<use xlink:href="#SVGID_83_"  overflow="visible"/>
		</clipPath>
	</g>
	<g clip-path="url(#SVGID_2_)">
		<defs>
			<rect id="SVGID_89_" x="-1880" y="-6116.403" width="12912.166" height="8488.403"/>
		</defs>
		<clipPath id="SVGID_16_">
			<use xlink:href="#SVGID_89_"  overflow="visible"/>
		</clipPath>
	</g>
	<g clip-path="url(#SVGID_2_)">
		<defs>
			<rect id="SVGID_95_" x="-1880" y="-6116.403" width="12912.166" height="8488.403"/>
		</defs>
		<clipPath id="SVGID_18_">
			<use xlink:href="#SVGID_95_"  overflow="visible"/>
		</clipPath>
	</g>
	<g clip-path="url(#SVGID_2_)">
		<defs>
			<rect id="SVGID_97_" x="-1880" y="-6116.403" width="12912.166" height="8488.403"/>
		</defs>
		<clipPath id="SVGID_20_">
			<use xlink:href="#SVGID_97_"  overflow="visible"/>
		</clipPath>
	</g>
	<g clip-path="url(#SVGID_2_)">
		<defs>
			<rect id="SVGID_123_" x="-1880" y="-6116.403" width="12912.166" height="8488.403"/>
		</defs>
		<clipPath id="SVGID_22_">
			<use xlink:href="#SVGID_123_"  overflow="visible"/>
		</clipPath>
	</g>
	<g clip-path="url(#SVGID_2_)">
		<defs>
			<rect id="SVGID_261_" x="-1880" y="-6116.403" width="12912.166" height="8488.403"/>
		</defs>
		<clipPath id="SVGID_24_">
			<use xlink:href="#SVGID_261_"  overflow="visible"/>
		</clipPath>
	</g>
	<g clip-path="url(#SVGID_2_)">
		<defs>
			<rect id="SVGID_263_" x="-1880" y="-6116.403" width="12912.166" height="8488.403"/>
		</defs>
		<clipPath id="SVGID_26_">
			<use xlink:href="#SVGID_263_"  overflow="visible"/>
		</clipPath>
	</g>
	<g clip-path="url(#SVGID_2_)">
		<defs>
			<rect id="SVGID_291_" x="-1880" y="-6116.403" width="12912.166" height="8488.403"/>
		</defs>
		<clipPath id="SVGID_28_">
			<use xlink:href="#SVGID_291_"  overflow="visible"/>
		</clipPath>
		<polyline clip-path="url(#SVGID_28_)" fill="#00A1CD" points="591.026,707.98 601.975,779.945 615.098,779.945 626.047,708.202 		
			"/>
		<polygon clip-path="url(#SVGID_28_)" fill="#CF2153" points="614.831,797.382 601.965,797.382 596.294,739.301 621.597,739.301 		
			"/>
		<path clip-path="url(#SVGID_28_)" fill="#504B48" d="M615.421,800.354c0-13.986-11.339-25.324-25.324-25.324
			c-13.987,0-25.324,11.338-25.324,25.324"/>
		<polyline clip-path="url(#SVGID_28_)" fill="#00A1CD" points="677.989,708.011 667.04,779.754 653.917,779.754 642.968,707.98 		
			"/>
		<polygon clip-path="url(#SVGID_28_)" fill="#CF2153" points="654.046,797.587 666.912,797.587 673.677,739.506 647.215,739.506 		
			"/>
		<path clip-path="url(#SVGID_28_)" fill="#504B48" d="M617.853,800.163c0-13.986,11.338-25.324,25.324-25.324
			s25.324,11.338,25.324,25.324"/>
		<path clip-path="url(#SVGID_28_)" fill="#00A1CD" d="M420.338,83.549c-106.61-15.841-197.235-0.405-215.186,120.398
			c-4.553,30.64-5.352,62.094-5.858,92.965c-0.563,34.273-0.029,68.606,3.31,102.637c1.468,14.96,3.861,28.25,0.228,43.188
			c-3.185,13.096-8.65,26.078-15.943,37.228c-19.675,30.072-28.566,62.717-22.675,98.828c3.91,23.962,18.895,44.824,36.998,59.211
			c37.531,29.824,86.693,35.884,131.958,42.608c49.715,7.389,107.961,11.876,153.828-16.33
			c18.915-11.631,33.948-28.965,43.938-49.661c5.906-12.234,9.129-24.863,12.662-37.925c4.887-18.065,2.5-34.634-1.472-52.273
			c-5.96-26.482-12.017-61.918-1.546-88.416c24.352-61.773,46.183-144.706,51.002-177.138
			C609.532,138.066,526.946,99.391,420.338,83.549"/>
		<g opacity="0.7" clip-path="url(#SVGID_28_)">
			<g>
				<defs>
					<rect id="SVGID_341_" x="319.32" y="274.1" width="38.08" height="13.62"/>
				</defs>
				<clipPath id="SVGID_30_">
					<use xlink:href="#SVGID_341_"  overflow="visible"/>
				</clipPath>
				<path clip-path="url(#SVGID_30_)" fill="#A2CCED" d="M357.373,283.736c-0.508,3.422-9.434,4.931-19.937,3.37
					c-10.501-1.561-18.603-5.599-18.095-9.021c0.509-3.421,9.435-4.93,19.937-3.37C349.78,276.276,357.882,280.314,357.373,283.736"
					/>
			</g>
		</g>
		<g opacity="0.7" clip-path="url(#SVGID_28_)">
			<g>
				<defs>
					<rect id="SVGID_343_" x="485.66" y="298.82" width="38.08" height="13.619"/>
				</defs>
				<clipPath id="SVGID_32_">
					<use xlink:href="#SVGID_343_"  overflow="visible"/>
				</clipPath>
				<path clip-path="url(#SVGID_32_)" fill="#A2CCED" d="M523.718,308.454c-0.508,3.422-9.434,4.931-19.937,3.37
					c-10.501-1.561-18.604-5.6-18.096-9.021c0.509-3.422,9.436-4.931,19.938-3.37S524.226,305.032,523.718,308.454"/>
			</g>
		</g>
		<polyline clip-path="url(#SVGID_28_)" fill="#00A1CD" points="371.424,671.76 386.967,773.605 405.596,773.605 422.115,659.034 		
			"/>
		<polyline clip-path="url(#SVGID_28_)" fill="#00A1CD" points="340.079,671.444 324.536,773.605 305.907,773.605 290.364,671.759 
					"/>
		<polygon clip-path="url(#SVGID_28_)" fill="#5652A3" points="405.414,798.922 387.15,798.922 377.545,716.47 415.112,716.47 		"/>
		<polygon clip-path="url(#SVGID_28_)" fill="#5652A3" points="306.286,798.358 324.55,798.358 334.247,715.907 296.681,715.907 		
			"/>
		<path clip-path="url(#SVGID_28_)" fill="#504B48" d="M368.23,799.33c0-17.297-14.021-31.317-31.318-31.317
			c-17.296,0-31.317,14.021-31.317,31.317"/>
		<path clip-path="url(#SVGID_28_)" fill="#504B48" d="M387.327,799.33c0-17.297,14.021-31.317,31.317-31.317
			c17.297,0,31.318,14.021,31.318,31.317"/>
		<path clip-path="url(#SVGID_28_)" fill="#0D4060" d="M452.799,313.648c0,0-8.714,18.062-37.657,13.167
			c-28.942-4.896-28.593-23.013-28.593-23.013L452.799,313.648z"/>
		<path clip-path="url(#SVGID_28_)" fill="#FFFFFF" d="M361.017,269.064c2.385-16.055,17.333-27.134,33.388-24.749
			c16.054,2.386,27.134,17.334,24.749,33.388"/>
		<path clip-path="url(#SVGID_28_)" fill="#FFFFFF" d="M436.255,280.245c2.386-16.056,17.334-27.135,33.388-24.75
			c16.054,2.386,27.134,17.334,24.749,33.388"/>
		<path clip-path="url(#SVGID_28_)" fill="none" stroke="#0D4060" stroke-width="3" stroke-miterlimit="10" d="M372.862,232.364
			c0,0,11.085-15.993,28.289-3.037"/>
		<path clip-path="url(#SVGID_28_)" fill="none" stroke="#0D4060" stroke-width="3" stroke-miterlimit="10" d="M489.454,249.689
			c0,0-3.609-18.521-23.837-11.126"/>
		<path clip-path="url(#SVGID_28_)" fill="#0D4060" d="M383.81,272.857c1.032-6.944,7.498-11.737,14.442-10.706
			c6.945,1.032,11.738,7.498,10.706,14.442"/>
		<path clip-path="url(#SVGID_28_)" fill="#0D4060" d="M459.048,284.037c1.032-6.944,7.498-11.737,14.442-10.706
			c6.945,1.032,11.738,7.498,10.706,14.442"/>
		<path clip-path="url(#SVGID_28_)" fill="#4C4C4B" d="M524.31,630.484H396c-5.5,0-10-4.5-10-10V548.05c0-5.5,4.5-10,10-10H524.31
			c5.5,0,10,4.5,10,10v72.435C534.31,625.984,529.81,630.484,524.31,630.484"/>
		<path clip-path="url(#SVGID_28_)" fill="#6B6767" d="M410.456,553.386h-11.172c-1.397,0-2.54-1.144-2.54-2.54v-2.873
			c0-1.397,1.143-2.54,2.54-2.54h11.172c1.397,0,2.54,1.143,2.54,2.54v2.873C412.996,552.242,411.853,553.386,410.456,553.386"/>
		<path clip-path="url(#SVGID_28_)" fill="#9F9F9F" d="M403.329,551.256c-1.02,1.225-2.839,1.391-4.064,0.371
			s-1.391-2.839-0.371-4.063c1.019-1.225,2.839-1.392,4.063-0.371C404.183,548.212,404.349,550.03,403.329,551.256"/>
		<path clip-path="url(#SVGID_28_)" fill="none" stroke="#00A1CD" stroke-width="10" stroke-miterlimit="10" d="M678.22,602.991
			c0,0-24.966,30.196-48.665,36.739c-23.699,6.541-75.069,10.886-75.069,10.886"/>
		<path clip-path="url(#SVGID_28_)" fill="#A2CCED" d="M558.57,614.171c4.633,2.479,7.555,8.022,6.881,14.052
			c-0.857,7.673-7.215,13.319-14.128,12.547l-17.06-1.908c-0.121-0.013-0.237-0.043-0.358-0.06c-0.062-0.003-0.121,0.008-0.183,0
			l-23.032-2.573c-1.808-0.203-3.104-2.01-2.879-4.016c0.224-2.007,1.886-3.483,3.694-3.281l12.539,1.401
			c-0.359-0.993-0.602-2.044-0.744-3.127l-15.032-1.682c-1.808-0.2-3.103-2.008-2.879-4.015c0.224-2.006,1.887-3.483,3.694-3.28
			l15.033,1.679c0.339-0.921,0.757-1.793,1.252-2.605l-12.919-1.444c-1.808-0.202-3.103-2.009-2.879-4.015
			c0.225-2.007,1.887-3.484,3.694-3.281l21.527,2.406c0.699-0.082,1.412-0.085,2.131-0.034l-3.967-1.854
			c-1.664-0.777-2.419-2.937-1.678-4.797s2.709-2.746,4.373-1.969"/>
		<path clip-path="url(#SVGID_28_)" fill="#A2CCED" d="M362.728,559.622c-6.949,1.063-13.26,7.564-15.347,16.772
			c-2.656,11.72,2.493,23.521,11.442,26.224l22.085,6.672c0.157,0.047,0.316,0.067,0.474,0.108c0.077,0.031,0.147,0.078,0.227,0.104
			l29.816,9.007c2.341,0.707,4.824-1.222,5.518-4.287c0.695-3.064-0.652-6.15-2.992-6.857l-16.232-4.903
			c0.926-1.256,1.737-2.66,2.438-4.169l19.46,5.878c2.34,0.707,4.823-1.222,5.518-4.286c0.694-3.065-0.652-6.151-2.992-6.858
			l-19.461-5.879c0.026-1.537-0.07-3.048-0.29-4.513l16.725,5.051c2.34,0.708,4.823-1.221,5.517-4.287
			c0.695-3.063-0.652-6.149-2.992-6.855l-27.869-8.419c-0.826-0.508-1.71-0.907-2.626-1.231l5.82-0.517
			c2.441-0.217,4.424-2.961,4.406-6.1c-0.018-3.137-2.029-5.526-4.47-5.31"/>
		<path clip-path="url(#SVGID_28_)" fill="#0D4060" d="M557.589,516.849c0.499-5.885,5.673-10.251,11.559-9.753
			c5.884,0.499,10.25,5.673,9.751,11.558"/>
		<path clip-path="url(#SVGID_28_)" fill="#0D4060" d="M621.234,521.259c0.499-5.885,5.673-10.251,11.557-9.752
			c5.885,0.498,10.25,5.673,9.753,11.557"/>
	</g>
	<g clip-path="url(#SVGID_2_)">
		<defs>
			<rect id="SVGID_357_" x="-1880" y="-6116.403" width="12912.166" height="8488.403"/>
		</defs>
		<clipPath id="SVGID_34_">
			<use xlink:href="#SVGID_357_"  overflow="visible"/>
		</clipPath>
	</g>
	<g clip-path="url(#SVGID_2_)">
		<defs>
			<rect id="SVGID_359_" x="-1880" y="-6116.403" width="12912.166" height="8488.403"/>
		</defs>
		<clipPath id="SVGID_36_">
			<use xlink:href="#SVGID_359_"  overflow="visible"/>
		</clipPath>
	</g>
	<g clip-path="url(#SVGID_2_)">
		<defs>
			<rect id="SVGID_377_" x="-1880" y="-6116.403" width="12912.166" height="8488.403"/>
		</defs>
		<clipPath id="SVGID_38_">
			<use xlink:href="#SVGID_377_"  overflow="visible"/>
		</clipPath>
	</g>
	<g clip-path="url(#SVGID_2_)">
		<defs>
			<rect id="SVGID_379_" x="-1880" y="-6116.403" width="12912.166" height="8488.403"/>
		</defs>
		<clipPath id="SVGID_40_">
			<use xlink:href="#SVGID_379_"  overflow="visible"/>
		</clipPath>
	</g>
	<g clip-path="url(#SVGID_2_)">
		<defs>
			<rect id="SVGID_381_" x="-1880" y="-6116.403" width="12912.166" height="8488.403"/>
		</defs>
		<clipPath id="SVGID_42_">
			<use xlink:href="#SVGID_381_"  overflow="visible"/>
		</clipPath>
	</g>
	<g clip-path="url(#SVGID_2_)">
		<defs>
			<rect id="SVGID_383_" x="-1880" y="-6116.403" width="12912.166" height="8488.403"/>
		</defs>
		<clipPath id="SVGID_44_">
			<use xlink:href="#SVGID_383_"  overflow="visible"/>
		</clipPath>
	</g>
	<g clip-path="url(#SVGID_2_)">
		<defs>
			<rect id="SVGID_393_" x="-1880" y="-6116.403" width="12912.166" height="8488.403"/>
		</defs>
		<clipPath id="SVGID_46_">
			<use xlink:href="#SVGID_393_"  overflow="visible"/>
		</clipPath>
	</g>
	<g clip-path="url(#SVGID_2_)">
		<defs>
			<rect id="SVGID_395_" x="-1880" y="-6116.403" width="12912.166" height="8488.403"/>
		</defs>
		<clipPath id="SVGID_48_">
			<use xlink:href="#SVGID_395_"  overflow="visible"/>
		</clipPath>
	</g>
	<g clip-path="url(#SVGID_2_)">
		<defs>
			<rect id="SVGID_397_" x="-1880" y="-6116.403" width="12912.166" height="8488.403"/>
		</defs>
		<clipPath id="SVGID_50_">
			<use xlink:href="#SVGID_397_"  overflow="visible"/>
		</clipPath>
	</g>
	<g clip-path="url(#SVGID_2_)">
		<defs>
			<rect id="SVGID_815_" x="-1880" y="-6116.403" width="12912.166" height="8488.403"/>
		</defs>
		<clipPath id="SVGID_52_">
			<use xlink:href="#SVGID_815_"  overflow="visible"/>
		</clipPath>
	</g>
</g>
</svg>
