<svg width="180" height="330" viewBox="0 0 180 330" fill="none" xmlns="http://www.w3.org/2000/svg">
<g id="step1_eyes_closed">
<path id="Vector" d="M34.6902 329.268H45.8927V281.005H136.127V329.268H147.571V276.498H147.388V266.202H34.6902V276.637" fill="#444693"/>
<path id="Vector_2" d="M148.734 243.241H32.6122C28.458 243.241 25.0903 246.609 25.0903 250.763V261.951C25.0903 266.105 28.458 269.473 32.6122 269.473H148.734C152.889 269.473 156.256 266.105 156.256 261.951V250.763C156.256 246.609 152.889 243.241 148.734 243.241Z" fill="#5E62AC"/>
<path id="Vector_3" d="M89.6854 0C40.1561 0 0 12.2341 0 64.522C0 77.7805 1.76341 91.1488 3.62195 104.254C5.67805 118.8 8.23902 128.912 12.0585 143.115C13.7341 149.356 15.7171 154.822 15.0732 161.407C14.5098 167.151 12.878 177.38 10.3463 182.561C3.43171 196.537 1.56585 210.915 6.68781 225.834C10.0829 235.734 18.3073 243.629 27.5049 248.583C46.5805 258.827 69.3366 258.322 90.3732 258.322C113.466 258.322 140.246 259.485 159.19 244.654C167.005 238.537 172.668 231.717 175.807 222.322C180.132 209.422 180.044 195.249 174.805 182.7C170.063 171.337 165.022 157.822 168.132 145.383C175.024 117.695 179.349 77.5463 179.349 63.5122C179.349 11.2317 139.193 0.0512249 89.6634 0.0512249" fill="#00A1CD"/>
<path id="Vector_4" opacity="0.7" d="M48.0951 100.72C52.9929 100.72 56.9634 99.4258 56.9634 97.8293C56.9634 96.2327 52.9929 94.939 48.0951 94.939C43.1973 94.939 39.2268 96.2327 39.2268 97.8293C39.2268 99.4258 43.1973 100.72 48.0951 100.72Z" fill="#A2CCED"/>
<path id="Vector_5" opacity="0.7" d="M126.776 100.72C131.674 100.72 135.644 99.4258 135.644 97.8293C135.644 96.2327 131.674 94.939 126.776 94.939C121.878 94.939 117.907 96.2327 117.907 97.8293C117.907 99.4258 121.878 100.72 126.776 100.72Z" fill="#A2CCED"/>
<path id="Vector_6" d="M58.6391 228.059C58.6391 228.059 43.4927 228.285 33.0293 206.802C30.4757 201.549 30.2488 192.981 29.1879 188.378C28.683 186.183 28.3464 184.771 28.3464 184.771C28.3464 184.771 28.1854 182.773 29.0781 187.398" stroke="#0F8AB2" stroke-width="14" stroke-miterlimit="10"/>
<path id="Vector_7" d="M57.8049 221.268C54.878 221.89 52.4195 224.693 51.8707 228.476C51.139 233.29 53.8098 237.922 57.7244 238.771L67.4122 240.871H67.6244H67.7195L80.8024 243.695C81.8268 243.915 82.8219 243.066 82.9976 241.807C83.1139 241.248 83.0217 240.666 82.7385 240.171C82.4561 239.674 82.0017 239.299 81.461 239.115L74.3415 237.578C74.6985 237.026 74.9956 236.437 75.2268 235.822L83.7659 237.673C84.7902 237.893 85.7854 237.044 85.961 235.785C86.0788 235.226 85.9873 234.643 85.7041 234.147C85.421 233.651 84.9658 233.276 84.4244 233.093L75.8854 231.249C75.8444 230.633 75.7463 230.024 75.5927 229.427L82.9098 231.015C83.9341 231.234 84.9293 230.385 85.1049 229.127C85.2227 228.568 85.1312 227.985 84.848 227.489C84.5649 226.992 84.1098 226.617 83.5683 226.434L71.3415 223.793C70.9694 223.611 70.5795 223.469 70.178 223.368L72.6439 223.002C73.1919 222.852 73.6654 222.505 73.9719 222.026C74.2785 221.548 74.3971 220.973 74.3049 220.412C74.1805 219.139 73.2293 218.217 72.1902 218.385" fill="#A2CCED"/>
<path id="Vector_8" d="M124.332 227.561C124.332 227.561 139.478 227.78 149.941 206.298C152.495 201.044 152.722 192.483 153.783 187.88C154.288 185.685 154.624 184.273 154.624 184.273C154.624 184.273 154.785 182.276 153.893 186.893" stroke="#0F8AB2" stroke-width="14" stroke-miterlimit="10"/>
<path id="Vector_9" d="M125.173 220.771C128.1 221.393 130.566 224.195 131.115 227.978C131.846 232.793 129.176 237.424 125.261 238.273L115.551 240.359H115.339H115.237L102.176 243.285C101.151 243.505 100.156 242.656 99.9804 241.398C99.8612 240.839 99.9519 240.255 100.235 239.758C100.518 239.262 100.975 238.886 101.517 238.705L108.637 237.168C108.279 236.617 107.982 236.028 107.751 235.412L99.2122 237.256C98.1878 237.483 97.1926 236.634 97.017 235.376C96.8978 234.817 96.9885 234.233 97.2717 233.736C97.5548 233.24 98.0114 232.864 98.5536 232.683L107.078 230.846C107.12 230.235 107.216 229.627 107.363 229.032L100.046 230.62C99.0146 230.839 98.0268 229.99 97.8512 228.732C97.7319 228.173 97.8226 227.589 98.1058 227.092C98.389 226.596 98.8456 226.22 99.3878 226.039L111.615 223.398C111.986 223.215 112.376 223.073 112.778 222.973L110.312 222.6C109.763 222.453 109.287 222.106 108.98 221.627C108.672 221.148 108.555 220.571 108.651 220.01C108.776 218.744 109.727 217.815 110.758 217.99" fill="#A2CCED"/>
<path id="Vector_10" d="M57.2123 253.434L65.122 316.361H76.9464L84.8561 253.624" fill="#00A1CD"/>
<path id="Vector_11" d="M75.1903 328.954H65.8976L60.9659 287.005H80.861L75.1903 328.954Z" fill="#56C5D0"/>
<path id="Vector_12" d="M96.6512 253.434L104.561 316.361H116.385L124.295 253.624" fill="#00A1CD"/>
<path id="Vector_13" d="M114.622 328.954H105.337L100.398 287.005H120.293L114.622 328.954Z" fill="#56C5D0"/>
<path id="Vector_14" d="M96.9878 329.444C96.9878 321.395 102.841 314.81 110.1 314.81C117.359 314.81 123.219 321.395 123.219 329.444" fill="#504B48"/>
<path id="Vector_15" d="M57.9146 328.954C57.9146 320.868 63.7683 314.32 71.0341 314.32C78.3 314.32 84.1536 320.868 84.1536 328.954" fill="#504B48"/>
<path id="Vector_16" d="M28.3464 188.971C30.9003 188.971 32.9707 186.9 32.9707 184.346C32.9707 181.793 30.9003 179.722 28.3464 179.722C25.7924 179.722 23.7219 181.793 23.7219 184.346C23.7219 186.9 25.7924 188.971 28.3464 188.971Z" fill="#278AB2"/>
<path id="Vector_17" d="M28.9683 191.898C31.5223 191.898 33.5927 189.827 33.5927 187.273C33.5927 184.72 31.5223 182.649 28.9683 182.649C26.4143 182.649 24.3439 184.72 24.3439 187.273C24.3439 189.827 26.4143 191.898 28.9683 191.898Z" fill="#278AB2"/>
<path id="Vector_18" d="M154.705 188.466C157.259 188.466 159.329 186.395 159.329 183.841C159.329 181.288 157.259 179.217 154.705 179.217C152.151 179.217 150.081 181.288 150.081 183.841C150.081 186.395 152.151 188.466 154.705 188.466Z" fill="#278AB2"/>
<path id="Vector_19" d="M153.966 191.085C156.52 191.085 158.59 189.015 158.59 186.461C158.59 183.907 156.52 181.837 153.966 181.837C151.412 181.837 149.341 183.907 149.341 186.461C149.341 189.015 151.412 191.085 153.966 191.085Z" fill="#278AB2"/>
<path id="Vector_20" d="M57.8049 66.2501C57.8049 66.2501 62.8317 56.072 73.9024 62.0721" stroke="#0D4060" stroke-width="4" stroke-miterlimit="10"/>
<path id="Vector_21" d="M117.79 66.2501C117.79 66.2501 114.132 55.8745 103.083 61.8599" stroke="#0D4060" stroke-width="4" stroke-miterlimit="10"/>
<path id="Vector_22" d="M105.944 99.4039C105.944 99.4039 102.871 105.162 87.761 104.987C72.6512 104.811 71.4512 99.4039 71.4512 99.4039H105.944Z" fill="#0D4060"/>
<path id="Vector_23" d="M116.605 77.8844C116.605 83.16 111.629 87.4332 105.49 87.4332C99.3512 87.4332 94.3829 83.16 94.3829 77.8844" stroke="#0D4060" stroke-width="2" stroke-miterlimit="10"/>
<path id="Vector_24" d="M82.3463 77.8844C82.3463 83.16 77.3707 87.4332 71.2317 87.4332C65.0927 87.4332 60.1171 83.16 60.1171 77.8844" stroke="#0D4060" stroke-width="2" stroke-miterlimit="10"/>
</g>
</svg>
