<svg width="130" height="130" viewBox="0 0 130 130" fill="none" xmlns="http://www.w3.org/2000/svg">
<path d="M65.3348 129.337C101.02 129.337 129.948 100.409 129.948 64.7241C129.948 29.0394 101.02 0.111198 65.3348 0.111198C29.6501 0.111198 0.721924 29.0394 0.721924 64.7241C0.721924 100.409 29.6501 129.337 65.3348 129.337Z" fill="#FFCB05"/>
<path d="M64.9379 24C50.0605 24 38 27.553 38 42.7318C38 46.5815 38.5291 50.4628 39.0862 54.2671C39.7049 58.4907 40.4742 62.7017 41.6205 66.8242C42.1244 68.6363 42.7208 70.2263 42.5278 72.1294C42.3586 73.7973 41.8759 75.4932 41.1062 76.997C39.0301 81.0531 38.4784 85.2288 40.0154 89.5604C41.0354 92.4346 43.5047 94.7257 46.2683 96.1635C51.9975 99.1444 58.833 98.9913 65.1497 98.9913C72.0875 98.9913 80.1312 98.479 85.8215 94.1737C88.1681 92.3981 89.8689 89.9927 90.813 87.2661C91.3712 85.654 91.5551 84.0426 91.7724 82.3726C92.0732 80.0623 91.4111 78.0691 90.5111 75.9731C89.1598 72.8265 87.6141 68.581 88.5061 65.1322C90.5778 57.0934 91.876 46.4995 91.876 42.4246C91.876 27.2459 79.8153 24 64.9379 24Z" fill="#00A1CD"/>
<path fill-rule="evenodd" clip-rule="evenodd" d="M43.7296 63C43.7298 63.0001 43.7299 63.0003 42.8648 63.9562C41.9996 64.9121 41.9998 64.9123 42 64.9124L42.0015 64.914L42.0046 64.9173L42.0145 64.9278C42.0227 64.9365 42.0343 64.9486 42.049 64.9639C42.0783 64.9946 42.1203 65.038 42.174 65.0925C42.2811 65.2015 42.4351 65.3551 42.6277 65.5396C43.0118 65.9076 43.5551 66.4036 44.1916 66.9146C45.4086 67.8917 47.1735 69.0961 48.8828 69.3387C50.3736 69.5503 52.587 69.5079 54.3526 69.4243C55.2514 69.3818 56.0621 69.327 56.6481 69.2828C56.9413 69.2607 57.1789 69.2412 57.3436 69.2272C57.426 69.2202 57.4903 69.2146 57.5342 69.2107C57.5562 69.2087 57.5731 69.2072 57.5847 69.2062L57.603 69.2045C57.6031 69.2045 57.6032 69.2045 57.4981 67.8693C57.393 66.5341 57.3931 66.5341 57.3931 66.5341L57.3786 66.5354C57.3684 66.5363 57.3529 66.5377 57.3324 66.5396C57.2913 66.5432 57.2301 66.5486 57.151 66.5553C56.9926 66.5688 56.7624 66.5877 56.4771 66.6091C55.9063 66.6522 55.1174 66.7055 54.2451 66.7468C52.4687 66.8308 50.4544 66.8588 49.2029 66.6812C48.1702 66.5347 46.846 65.7122 45.6596 64.7597C45.0942 64.3059 44.6071 63.8614 44.2613 63.5301C44.0889 63.365 43.953 63.2293 43.8616 63.1363C43.8159 63.0899 43.7814 63.0542 43.7591 63.0309C43.748 63.0193 43.7399 63.0108 43.7349 63.0056L43.73 63.0004L43.7296 63Z" fill="#0089AE"/>
<path d="M66.7146 68.0169C67.0389 67.9232 67.1896 67.4844 67.0495 67.0418C66.9094 66.5989 66.5297 66.3133 66.2054 66.407L63.9568 67.0569C63.9742 66.8252 63.9675 66.5837 63.9405 66.3376L66.6365 65.5583C66.9607 65.4646 67.1114 65.0258 66.9714 64.583C66.8313 64.1403 66.4515 63.8546 66.1273 63.9485L63.4313 64.7275C63.3234 64.5305 63.2032 64.3465 63.0718 64.1783L65.3888 63.5086C65.713 63.4149 65.8637 62.976 65.7238 62.5331C65.5836 62.0904 65.2038 61.8048 64.8796 61.8985L61.0188 63.0144C60.8858 63.0148 60.7538 63.0334 60.6234 63.0639L61.2655 62.5427C61.5348 62.3241 61.5684 61.821 61.3399 61.4248C61.1115 61.0285 60.7043 60.8831 60.4349 61.1018L57.0032 63.8877C56.8713 63.9947 56.7967 64.1707 56.7811 64.3685C56.0466 65.0475 55.7789 66.3658 56.1996 67.6961C56.7351 69.3893 58.1875 70.4817 59.4273 70.1233L62.4868 69.239C62.5087 69.2327 62.5287 69.2228 62.5501 69.2159C62.5613 69.2134 62.5729 69.2141 62.5838 69.2109L66.7146 68.0169Z" fill="#A2CCED"/>
<path d="M68.9073 95.9644L71.7618 114.414H75.1829L78.0372 95.9565" fill="#00A1CD"/>
<path d="M55.426 95.9073L58.2804 114.414H61.7014L64.5558 95.9645" fill="#00A1CD"/>
<path d="M75.1495 119H71.7956L70.0317 104.064H76.9304L75.1495 119Z" fill="#5652A3"/>
<path d="M61.6319 118.898H58.2778L56.4969 103.962H63.3956L61.6319 118.898Z" fill="#5652A3"/>
<path d="M60.6154 48.9336C60.6154 46.8106 62.4681 45.0893 64.754 45.0893C67.0397 45.0893 68.8927 46.8104 68.8927 48.9336" fill="white"/>
<path d="M71.3276 48.9336C71.3276 46.8106 73.1806 45.0893 75.4664 45.0893C77.7521 45.0893 79.605 46.8104 79.605 48.9336" fill="white"/>
<path d="M61.5056 43.957C61.5056 43.957 62.7189 41.6746 65.3834 43.0202" stroke="#0D4060" stroke-miterlimit="10"/>
<path d="M78.1057 43.957C78.1057 43.957 77.2195 41.63 74.5549 42.9756" stroke="#0D4060" stroke-miterlimit="10"/>
<path d="M64.1572 48.9337C64.1572 48.0154 64.9588 47.2707 65.9475 47.2707C66.9363 47.2707 67.7377 48.0154 67.7377 48.9337" fill="#0D4060"/>
<path d="M74.8696 48.9337C74.8696 48.0154 75.6712 47.2707 76.6599 47.2707C77.6487 47.2707 78.45 48.0154 78.45 48.9337" fill="#0D4060"/>
<path d="M74 53C74 53 73.1983 56.0928 69.2549 55.9979C65.3115 55.9029 65 53 65 53H74Z" fill="#0D4060"/>
<g opacity="0.7">
<g opacity="0.7">
<path opacity="0.7" d="M60.6153 52.1673C60.6153 52.6266 59.3849 52.9989 57.8674 52.9989C56.3499 52.9989 55.1195 52.6266 55.1195 52.1673C55.1195 51.708 56.3498 51.3357 57.8674 51.3357C59.385 51.3357 60.6153 51.708 60.6153 52.1673Z" fill="#A2CCED"/>
</g>
</g>
<g opacity="0.7">
<g opacity="0.7">
<path opacity="0.7" d="M84.0953 52.1673C84.0953 52.6266 82.865 52.9989 81.3474 52.9989C79.8298 52.9989 78.5996 52.6266 78.5996 52.1673C78.5996 51.708 79.8298 51.3357 81.3474 51.3357C82.865 51.3357 84.0953 51.708 84.0953 52.1673Z" fill="#A2CCED"/>
</g>
</g>
<path d="M66.1117 66.6111H72.0042C72.9154 66.6111 73.6611 65.9377 73.6611 65.1146V58.7838C73.6611 57.6197 72.6065 57 71.3176 57H66.6475C65.4416 57 64.4551 57.5587 64.4551 58.6476V65.1146C64.455 65.9377 65.2004 66.6111 66.1117 66.6111Z" fill="white"/>
<path d="M65.314 58.2765C65.314 58.6175 66.8464 58.8941 69.0398 58.8941C71.2331 58.8941 72.7654 58.6175 72.7654 58.2765C72.7654 57.9355 71.2331 57.659 69.0398 57.659C66.8464 57.659 65.314 57.9356 65.314 58.2765Z" fill="#AA4925"/>
<path d="M64.5776 59.3111C63.154 59.3111 61.9999 60.3535 61.9999 61.6393C61.9999 62.9251 63.154 63.9675 64.5776 63.9675" stroke="white" stroke-miterlimit="10"/>
<path fill-rule="evenodd" clip-rule="evenodd" d="M98.3816 71.2745C98.3813 71.275 98.381 71.2756 99.4105 71.8164C100.44 72.3572 100.44 72.3578 100.439 72.3585L100.439 72.36L100.437 72.3635L100.433 72.3724C100.43 72.3792 100.425 72.3877 100.42 72.3979C100.411 72.4181 100.397 72.445 100.38 72.4779C100.347 72.5436 100.299 72.6335 100.237 72.7431C100.114 72.9619 99.9321 73.2612 99.6899 73.6039C99.2083 74.2854 98.4712 75.1609 97.4553 75.9095C95.3554 77.4567 92.215 78.3411 88.0813 76.2809L89.0854 74.0232C92.468 75.7091 94.7412 74.9257 96.1758 73.8686C96.9272 73.3149 97.4875 72.6542 97.8616 72.1249C98.0472 71.8622 98.183 71.6376 98.2699 71.4837C98.3132 71.407 98.3441 71.3484 98.3626 71.3122C98.3719 71.2941 98.378 71.2816 98.3811 71.2754C98.3826 71.2722 98.3834 71.2706 98.3834 71.2707L98.3828 71.2719L98.382 71.2735L98.3816 71.2745Z" fill="#0089AE"/>
<path d="M106.175 65.5076C106.336 65.2133 106.189 64.8265 105.849 64.6485C105.508 64.4705 105.098 64.5657 104.937 64.8602L103.82 66.9029C103.701 66.7439 103.562 66.5961 103.406 66.4603L104.745 64.0113C104.906 63.7167 104.759 63.3301 104.419 63.1521C104.078 62.974 103.668 63.0692 103.507 63.3637L102.168 65.8127C101.987 65.7666 101.804 65.7377 101.623 65.7267L102.774 63.6219C102.935 63.3275 102.788 62.9407 102.448 62.7627C102.108 62.5847 101.697 62.6798 101.536 62.9744L99.6185 66.4815C99.5311 66.5785 99.4545 66.6858 99.386 66.7999L99.5166 66.0046C99.5714 65.671 99.3117 65.3288 98.939 65.2443C98.5665 65.1596 98.2167 65.3635 98.1619 65.6971L97.4629 69.9478C97.436 70.1113 97.4855 70.2765 97.5862 70.4129C97.483 71.3748 98.0455 72.4021 99.0684 72.9371C100.37 73.6181 101.939 73.254 102.555 72.1278L104.075 69.3484C104.085 69.3286 104.093 69.3078 104.103 69.2878C104.109 69.2783 104.117 69.2703 104.123 69.2602L106.175 65.5076Z" fill="#A2CCED"/>
<path d="M58.2048 118.914C58.2048 116.174 60.4567 113.952 63.2344 113.952C66.0122 113.952 68.2639 116.174 68.2639 118.914" fill="#504B48"/>
<path d="M71.8015 118.914C71.8015 116.174 74.0534 113.952 76.8311 113.952C79.6088 113.952 81.8606 116.174 81.8606 118.914" fill="#504B48"/>
</svg>
