<svg width="130" height="130" viewBox="0 0 130 130" fill="none" xmlns="http://www.w3.org/2000/svg">
<circle cx="65.3348" cy="64.7241" r="64.6129" fill="#FFCB05"/>
<path fill-rule="evenodd" clip-rule="evenodd" d="M83.2864 91.0833L93.8904 47.0666L110.513 54.3941L96.9836 54.4579L84.3272 101.476L84.2526 101.407C82.183 106.93 76.2702 110.169 70.3898 108.753C64.0295 107.22 60.1157 100.822 61.6479 94.462C63.1801 88.1018 69.5782 84.1879 75.9385 85.7201C79.1302 86.4891 81.7059 88.4834 83.2864 91.0833Z" fill="black"/>
<path fill-rule="evenodd" clip-rule="evenodd" d="M57.9222 78.9203C63.2993 75.8159 67.0019 70.9248 68.713 65.4299C65.3514 64.6484 61.1772 61.8367 58.8061 55.0335C56.329 47.9267 57.5433 42.0238 59.1627 38.5781C51.8968 33.7742 42.247 33.1651 34.1907 37.8163C28.9478 40.8433 25.2969 45.5688 23.5317 50.8964C27.0209 51.3355 31.8033 53.9916 34.4088 61.467C37.0651 69.0882 35.4764 75.325 33.6954 78.6315C40.867 82.9976 50.1384 83.4143 57.9222 78.9203ZM30.8481 76.5945C32.1083 74.0054 33.3531 68.9643 31.1374 62.6072C28.779 55.8407 24.687 54.3964 22.6758 54.2998C21.7525 59.5893 22.6097 65.2203 25.5044 70.234C26.9418 72.7236 28.7622 74.8543 30.8481 76.5945ZM66.6085 46.5026C69.433 51.3949 70.3177 56.8747 69.5011 62.0516C67.3339 61.5479 64.0805 59.6401 62.0775 53.8933C60.0868 48.182 60.8894 43.5329 61.9868 40.7698C63.772 42.3865 65.3395 44.3047 66.6085 46.5026ZM59.6544 81.9206C72.662 74.4107 77.1187 57.778 69.6088 44.7704C62.0988 31.7628 45.4661 27.3061 32.4585 34.816C19.4509 42.326 14.9942 58.9587 22.5041 71.9663C30.0141 84.9738 46.6468 89.4306 59.6544 81.9206Z" fill="black"/>
</svg>
