<svg width="130" height="130" viewBox="0 0 130 130" fill="none" xmlns="http://www.w3.org/2000/svg">
<circle cx="65.3348" cy="65.0251" r="64.6129" fill="#FFCB05"/>
<path fill-rule="evenodd" clip-rule="evenodd" d="M86.7142 11.6137C86.7351 11.6124 86.7562 11.6118 86.7775 11.6118C86.8136 11.6118 86.8497 11.6119 86.8855 11.6121C86.9214 11.6119 86.9574 11.6118 86.9936 11.6118C87.0148 11.6118 87.0359 11.6124 87.0569 11.6137C90.2982 11.6592 92.3181 12.5055 94.4699 13.9076C96.6784 15.3466 97.809 17.1017 98.9138 18.8168L98.9425 18.8612C99.0026 18.9546 99.0626 19.0477 99.123 19.1411C100.467 21.2215 100.767 23.4865 100.664 26.1905C100.56 28.9519 99.621 32.1332 97.4977 34.2085C97.0783 34.6185 96.7829 34.893 96.5575 35.1015L96.5262 35.1305C96.3148 35.3261 96.1897 35.4419 96.0729 35.5631C95.76 35.8879 95.5019 36.2548 94.2411 38.0472C92.6486 40.3111 92.3732 42.9665 92.4301 43.9384C92.4456 44.2047 92.3483 44.4655 92.1609 44.6595C91.9735 44.8534 91.7126 44.9633 91.4397 44.9633H82.2144V44.9565C81.9849 44.9299 81.7706 44.8255 81.6102 44.6595C81.4228 44.4655 81.3254 44.2047 81.341 43.9384C81.3978 42.9665 81.1224 40.3111 79.53 38.0472C78.2692 36.2548 78.0111 35.8879 77.6982 35.5631C77.5814 35.4419 77.4562 35.3261 77.2449 35.1305L77.2135 35.1015C76.9882 34.893 76.6928 34.6185 76.2733 34.2085C74.15 32.1332 73.2114 28.9519 73.1068 26.1905C73.0043 23.4865 73.3038 21.2215 74.6481 19.1411C74.7084 19.0478 74.7683 18.9548 74.8284 18.8615L74.8286 18.8612L74.8572 18.8168C75.9621 17.1017 77.0927 15.3466 79.3012 13.9076C81.453 12.5055 83.4729 11.6592 86.7142 11.6137ZM83.3051 43.0242H90.466C90.581 41.4791 91.1031 39.0855 92.6062 36.9487C92.6794 36.8447 92.7494 36.7451 92.8166 36.6495C93.8545 35.1733 94.2086 34.6698 94.6284 34.234C94.786 34.0704 94.9521 33.9167 95.1449 33.7385C95.1609 33.7236 95.1772 33.7086 95.1936 33.6934C95.4126 33.4908 95.6935 33.2297 96.0949 32.8374C97.7411 31.2285 98.588 28.5927 98.6817 26.1187C98.7777 23.5872 98.4819 21.7803 97.4456 20.1765C97.3844 20.0818 97.3237 19.9876 97.2636 19.8944C96.1427 18.1545 95.2056 16.7174 93.3694 15.5209C91.4617 14.2779 89.7997 13.584 86.9821 13.552C86.9697 13.5518 86.9573 13.5515 86.945 13.5509C86.927 13.5509 86.9091 13.551 86.8912 13.5511C86.8874 13.5511 86.8836 13.5511 86.8798 13.5511C86.862 13.551 86.8441 13.5509 86.8261 13.5509C86.8138 13.5515 86.8014 13.5518 86.789 13.552C83.9714 13.584 82.3093 14.2779 80.4017 15.5209C78.5655 16.7174 77.6284 18.1545 76.5075 19.8944C76.4474 19.9876 76.3867 20.0819 76.3255 20.1765C75.2891 21.7803 74.9934 23.5872 75.0893 26.1187C75.1831 28.5927 76.03 31.2285 77.6762 32.8374C78.0776 33.2297 78.3585 33.4908 78.5775 33.6934C78.5939 33.7086 78.6101 33.7236 78.6261 33.7384C78.8189 33.9167 78.9851 34.0703 79.1427 34.234C79.5625 34.6698 79.9165 35.1733 80.9544 36.6495C81.0216 36.7451 81.0917 36.8447 81.1649 36.9487C82.6679 39.0855 83.1901 41.4791 83.3051 43.0242Z" fill="black"/>
<path fill-rule="evenodd" clip-rule="evenodd" d="M93.139 44.9633H80.6321C80.4129 44.9633 80.2351 45.141 80.2351 45.3603V49.1322C80.2351 49.3515 80.4129 49.5293 80.6321 49.5293H93.139C93.3582 49.5293 93.536 49.3515 93.536 49.1322V45.3603C93.536 45.141 93.3582 44.9633 93.139 44.9633ZM80.6321 43.3751C79.5357 43.3751 78.6469 44.2639 78.6469 45.3603V49.1322C78.6469 50.2286 79.5357 51.1174 80.6321 51.1174H93.139C94.2354 51.1174 95.1242 50.2286 95.1242 49.1322V45.3603C95.1242 44.2639 94.2354 43.3751 93.139 43.3751H80.6321Z" fill="black"/>
<path fill-rule="evenodd" clip-rule="evenodd" d="M89.5656 51.1174H84.4041C84.1848 51.1174 84.007 51.2952 84.007 51.5144V55.2863C84.007 55.5056 84.1848 55.6834 84.4041 55.6834H89.5656C89.7849 55.6834 89.9627 55.5056 89.9627 55.2863V51.5144C89.9627 51.2952 89.7849 51.1174 89.5656 51.1174ZM84.4041 49.5292C83.3077 49.5292 82.4189 50.418 82.4189 51.5144V55.2863C82.4189 56.3827 83.3077 57.2715 84.4041 57.2715H89.5656C90.662 57.2715 91.5508 56.3827 91.5508 55.2863V51.5144C91.5508 50.418 90.662 49.5292 89.5656 49.5292H84.4041Z" fill="black"/>
<path fill-rule="evenodd" clip-rule="evenodd" d="M86.9848 31.6624C87.533 31.6624 87.9774 32.1068 87.9774 32.655V43.1766C87.9774 43.7248 87.533 44.1692 86.9848 44.1692C86.4366 44.1692 85.9922 43.7248 85.9922 43.1766V32.655C85.9922 32.1068 86.4366 31.6624 86.9848 31.6624Z" fill="black"/>
<rect x="85.7937" y="22.1334" width="2.18373" height="4.96302" rx="1.09186" fill="black"/>
<rect x="80.2351" y="24.507" width="2.18373" height="4.96302" rx="1.09186" transform="rotate(-32.7855 80.2351 24.507)" fill="black"/>
<rect width="2.18373" height="4.96302" rx="1.09186" transform="matrix(-0.840703 -0.541496 -0.541496 0.840703 93.4934 24.507)" fill="black"/>
<path d="M51.6759 58.8211H38.4551H32.109C28.7245 58.8211 27.7021 61.9552 27.8783 63.3106L27.8784 85.6751C27.8784 88.2165 28.936 88.7248 31.0514 88.7248C32.7436 88.7248 34.5769 86.5223 34.7532 85.6751V68.9868H35.8418V110.158C36.1943 111.005 37.4283 112.598 39.5436 112.191C41.659 111.784 42.5404 109.988 42.7166 109.141V89.8265H45.8896C45.7134 95.9259 45.9645 107.515 46.3876 109.141C46.9164 111.174 47.4452 112.191 50.0894 112.191C52.2048 112.191 52.9099 110.327 53.2624 109.141L53.8222 67.9702V66.3603C61.0143 65.1404 67.9244 57.974 69.6872 54.7548C70.5686 52.044 71.4853 46.8256 68.1007 47.6389C63.87 48.6554 64.8968 51.6201 60.6661 55.6864C57.2816 58.9394 53.4387 59.16 51.6759 58.8211Z" stroke="black" stroke-width="4"/>
<path d="M51.2624 51.1118C51.2624 54.144 48.6818 56.736 45.3299 56.736C41.978 56.736 39.3973 54.144 39.3973 51.1118C39.3973 48.0796 41.978 45.4875 45.3299 45.4875C48.6818 45.4875 51.2624 48.0796 51.2624 51.1118Z" stroke="black" stroke-width="4"/>
</svg>
