<svg width="722" height="504" viewBox="0 0 722 504" fill="none" xmlns="http://www.w3.org/2000/svg">
<path d="M439.99 354.817C441.18 288.428 489.48 198.811 556.69 200.012C631.5 201.35 668.97 291.168 667.78 357.555C666.59 423.946 615.33 438.571 552.43 437.444C489.53 436.315 438.8 421.205 439.99 354.817Z" fill="#00A1CD"/>
<path d="M513.34 299.716C513.53 289.048 522.33 280.554 533 280.745C543.67 280.937 552.16 289.74 551.97 300.408" fill="white"/>
<path d="M563.33 300.612C563.52 289.943 572.33 281.45 583 281.641C593.67 281.833 602.16 290.636 601.97 301.304" fill="white"/>
<path d="M517.94 274.784C517.94 274.784 523.81 263.416 536.12 270.401" stroke="#0D4060" stroke-width="3" stroke-miterlimit="10"/>
<path d="M595.42 276.173C595.42 276.173 591.49 264.406 578.93 270.945" stroke="#0D4060" stroke-width="3" stroke-miterlimit="10"/>
<path d="M533.3 299.913C533.38 295.298 537.19 291.624 541.8 291.706C546.42 291.789 550.09 295.598 550.01 300.212" fill="#0D4060"/>
<path d="M582.3 300.809C582.38 296.195 586.19 292.521 590.8 292.603C595.42 292.686 599.09 296.494 599.01 301.109" fill="#0D4060"/>
<path d="M582.17 318.559C582.17 318.559 577.47 332.747 555.61 331.916C533.75 331.086 532.26 317.664 532.26 317.664L582.17 318.559Z" fill="#0D4060"/>
<path d="M452.96 325C452.96 325 432.584 356.215 423.812 361.52C415.039 366.824 371.284 376.358 371.284 376.358" stroke="#00A1CD" stroke-width="7" stroke-miterlimit="10"/>
<path d="M536.122 431.651L514.127 483.348L504.315 480.826L509.902 425.094" fill="#00A1CD"/>
<path d="M501.17 493.913L510.789 496.383L527.921 452.459L507.472 447.208L501.17 493.913Z" fill="#56C5D0"/>
<path d="M533.656 502.801C535.993 493.692 530.514 484.413 521.398 482.074C512.292 479.736 503.008 485.222 500.671 494.33" fill="#504B48"/>
<path d="M564 436.253L587.526 487.084L597.257 484.263L589.949 428.706" fill="#00A1CD"/>
<path d="M600.99 497.511L591.46 500.273L573.128 456.855L593.406 450.978L600.99 497.511Z" fill="#56C5D0"/>
<path d="M591.612 500.46C588.996 491.429 594.196 481.984 603.226 479.367C612.256 476.749 621.705 481.947 624.321 490.977" fill="#504B48"/>
<g opacity="0.7">
<g opacity="0.7">
<path opacity="0.7" d="M513.04 315.965C513 318.273 507.23 320.039 500.14 319.912C493.06 319.785 487.35 317.812 487.39 315.504C487.43 313.197 493.21 311.429 500.29 311.556C507.38 311.683 513.09 313.657 513.04 315.965Z" fill="#A2CCED"/>
</g>
</g>
<g opacity="0.7">
<g opacity="0.7">
<path opacity="0.7" d="M622.64 317.928C622.59 320.237 616.82 322.004 609.73 321.877C602.65 321.75 596.94 319.777 596.98 317.469C597.02 315.161 602.8 313.394 609.88 313.521C616.97 313.649 622.68 315.622 622.64 317.928Z" fill="#A2CCED"/>
</g>
</g>
<path fill-rule="evenodd" clip-rule="evenodd" d="M685.451 365.093C682.966 361.155 680.422 357.481 678.279 355.285C667.406 344.142 657.57 337.841 650.342 334.313C646.732 332.551 643.782 331.486 641.69 330.854C640.644 330.539 639.813 330.331 639.222 330.2C638.926 330.134 638.69 330.087 638.517 330.055C638.431 330.039 638.36 330.027 638.305 330.018C638.278 330.013 638.255 330.009 638.236 330.006L638.21 330.002L638.199 330.001L638.195 330C638.193 330 638.19 329.999 637.604 334.442C637.018 338.884 637.016 338.884 637.014 338.884L637.01 338.883L637.004 338.882L637 338.881C637.01 338.883 637.036 338.888 637.077 338.895C637.159 338.91 637.303 338.939 637.505 338.984C637.91 339.074 638.549 339.231 639.399 339.488C641.099 340.001 643.643 340.911 646.842 342.472C653.233 345.591 662.278 351.329 672.451 361.755C673.879 363.219 675.988 366.167 678.473 370.104C680.898 373.945 683.498 378.43 685.9 382.731C688.297 387.024 690.477 391.095 692.058 394.096C692.848 395.596 693.488 396.825 693.929 397.679C694.149 398.105 694.32 398.438 694.435 398.662L694.566 398.917L694.606 398.996L694.608 399L698.304 396.859C702 394.718 702 394.718 702 394.717L701.999 394.716L701.952 394.623C701.921 394.562 701.875 394.472 701.815 394.356C701.696 394.123 701.52 393.782 701.295 393.346C700.844 392.474 700.194 391.223 699.391 389.7C697.787 386.656 695.571 382.515 693.126 378.139C690.686 373.769 687.997 369.127 685.451 365.093Z" fill="#00A1CD"/>
<path d="M721.478 409.333C722.198 410.194 721.998 411.549 721.048 412.343C720.088 413.136 718.718 413.081 718.008 412.22L713.048 406.247C712.778 406.84 712.438 407.41 712.038 407.95L717.988 415.111C718.698 415.973 718.508 417.327 717.548 418.121C716.598 418.915 715.228 418.859 714.508 417.999L708.558 410.837C708.018 411.101 707.458 411.309 706.898 411.458L712.008 417.612C712.718 418.474 712.528 419.828 711.568 420.621C710.618 421.415 709.248 421.36 708.528 420.5L700.008 410.244C699.668 409.982 699.348 409.679 699.058 409.35L700.018 411.865C700.428 412.92 699.838 414.199 698.718 414.709C697.598 415.218 696.348 414.77 695.938 413.715L690.768 400.27C690.568 399.755 690.618 399.185 690.838 398.677C689.838 395.6 690.908 391.894 693.788 389.51C697.438 386.474 702.668 386.685 705.408 389.978L712.158 398.105C712.198 398.162 712.238 398.225 712.288 398.284C712.308 398.312 712.338 398.333 712.368 398.362L721.478 409.333Z" fill="#A2CCED"/>
<path d="M399.549 129.462C399.549 236.116 277.272 386.229 216.592 386.229C148.57 386.229 33.6336 238.274 33.6336 131.621C33.6336 24.967 115.546 0 216.592 0C317.636 0 399.549 22.808 399.549 129.462Z" fill="#00A1CD"/>
<path d="M149.841 151.779C149.841 134.641 163.735 120.746 180.875 120.746C198.014 120.746 211.908 134.641 211.908 151.779" fill="white"/>
<path d="M230.166 151.779C230.166 134.641 244.06 120.746 261.199 120.746C278.338 120.746 292.232 134.641 292.232 151.779" fill="white"/>
<path d="M156.517 111.606C156.517 111.606 165.614 93.181 185.594 104.043" stroke="#0D4060" stroke-width="3" stroke-miterlimit="10"/>
<path d="M280.991 111.606C280.991 111.606 274.345 92.821 254.366 103.685" stroke="#0D4060" stroke-width="3" stroke-miterlimit="10"/>
<path d="M177.45 151.779C177.45 144.365 183.46 138.356 190.874 138.356C198.288 138.356 204.299 144.366 204.299 151.779" fill="#0D4060"/>
<path d="M257.775 151.779C257.775 144.365 263.785 138.356 271.199 138.356C278.612 138.356 284.623 144.366 284.623 151.779" fill="#0D4060"/>
<path d="M260.93 180.061C260.93 180.061 253.79 202.978 218.661 202.276C183.533 201.572 180.761 180.061 180.761 180.061H260.93Z" fill="#0D4060"/>
<path fill-rule="evenodd" clip-rule="evenodd" d="M123.15 303.93C123.151 303.93 123.152 303.93 123.165 300.042C123.177 296.155 123.178 296.155 123.178 296.155L123.165 296.155L123.106 296.158C123.052 296.161 122.968 296.165 122.855 296.169C122.628 296.179 122.287 296.192 121.843 296.205C120.955 296.231 119.656 296.257 118.041 296.258C114.806 296.258 110.325 296.155 105.343 295.74C95.2027 294.894 83.6759 292.803 76.1349 288.169C68.0453 283.197 56.5711 273.903 46.9751 265.705C42.2105 261.634 37.964 257.881 34.9086 255.146C33.3813 253.779 32.1527 252.667 31.3071 251.898C30.8843 251.513 30.5573 251.215 30.3366 251.013L30.0867 250.783L30.0052 250.708C30.0051 250.708 30.0043 250.708 27.0779 253.582C24.1515 256.457 24.1517 256.458 24.1521 256.458L24.1533 256.459L24.2419 256.54L24.5003 256.777C24.7267 256.985 25.0597 257.289 25.4889 257.679C26.3472 258.46 27.5903 259.585 29.1335 260.967C32.2192 263.729 36.5096 267.52 41.3283 271.637C50.8989 279.814 62.7769 289.467 71.4296 294.786C80.631 300.441 93.7953 302.633 104.161 303.497C109.432 303.937 114.157 304.045 117.565 304.044C119.271 304.044 120.653 304.016 121.615 303.988C122.097 303.974 122.473 303.959 122.733 303.949C122.863 303.943 122.964 303.939 123.034 303.935L123.117 303.931L123.15 303.93Z" fill="#00A1CD"/>
<path d="M5.28635 252.296C4.17099 251.5 3.98074 249.836 4.86377 248.597C5.74638 247.358 7.38247 246.995 8.49826 247.791L16.2402 253.311C16.3673 252.525 16.5935 251.746 16.8973 250.98L7.61582 244.362C6.50046 243.567 6.3102 241.902 7.1928 240.663C8.07626 239.425 9.71193 239.061 10.8282 239.858L20.1101 246.475C20.6708 245.993 21.2672 245.573 21.8895 245.218L13.9132 239.533C12.7974 238.736 12.6072 237.072 13.4902 235.833C14.3737 234.595 16.0094 234.232 17.1247 235.027L30.4162 244.504C30.9056 244.706 31.3759 244.966 31.8307 245.263L29.899 242.588C29.0895 241.466 29.384 239.767 30.5543 238.815C31.7237 237.861 33.3445 237.999 34.1544 239.122L44.4784 253.421C44.8758 253.971 45.0044 254.659 44.8973 255.33C47.0379 258.662 46.9302 263.381 44.2756 267.104C40.8981 271.841 34.6422 273.228 30.3741 270.184L19.8411 262.675C19.7658 262.623 19.7001 262.559 19.6279 262.505C19.5891 262.479 19.5447 262.464 19.5063 262.437L5.28635 252.296Z" fill="#A2CCED"/>
<path d="M303.639 297.97C303.639 297.97 330.156 306.863 340.587 320.975C351.019 335.085 367.08 368.195 367.08 368.195" stroke="#00A1CD" stroke-width="8" stroke-miterlimit="10"/>
<path d="M389.007 380.862C389.783 381.991 389.393 383.621 388.139 384.483C386.885 385.345 385.224 385.126 384.448 383.998L379.061 376.164C378.672 376.857 378.194 377.514 377.647 378.13L384.105 387.522C384.88 388.651 384.491 390.281 383.237 391.144C381.984 392.006 380.322 391.787 379.546 390.657L373.088 381.265C372.396 381.527 371.692 381.718 370.985 381.837L376.535 389.909C377.312 391.039 376.922 392.668 375.668 393.53C374.414 394.392 372.753 394.174 371.976 393.043L362.728 379.592C362.337 379.235 361.984 378.83 361.658 378.397L362.557 381.57C362.935 382.902 362.077 384.397 360.653 384.892C359.227 385.388 357.752 384.704 357.374 383.372L352.563 366.405C352.378 365.752 352.493 365.062 352.823 364.467C351.95 360.605 353.667 356.206 357.433 353.616C362.227 350.32 368.579 351.156 371.55 355.475L378.878 366.134C378.931 366.209 378.972 366.291 379.021 366.368C379.05 366.405 379.085 366.434 379.111 366.472L389.007 380.862Z" fill="#A2CCED"/>
<path d="M219.011 375.504L257.555 456.8L273.139 452.128L260.587 363" fill="#00A1CD"/>
<path d="M279.336 473.35L264.059 477.931L239.72 419.231L268.525 410.594L279.336 473.35Z" fill="#ED1651"/>
<path d="M206.819 370.44L166.968 451.406L151.458 446.5L165.343 357.608" fill="#00A1CD"/>
<path d="M145.363 466.863L160.57 471.673L184.496 412.938L158.278 404.643L145.363 466.863Z" fill="#ED1651"/>
<path d="M196.573 484.333C201.129 469.933 193.147 454.566 178.746 450.01C164.344 445.454 148.977 453.435 144.422 467.835" fill="#504B48"/>
<path d="M264.309 478.227C259.971 463.76 268.184 448.515 282.651 444.177C297.12 439.839 312.365 448.052 316.702 462.518" fill="#504B48"/>
<path d="M116.843 320.551H312.526C312.526 320.551 264.067 392.403 224.71 393.512C185.354 394.624 139.44 349.6 116.843 320.551Z" fill="#00A1CD"/>
<g opacity="0.7">
<g opacity="0.7">
<path opacity="0.7" d="M149.841 177.883C149.841 181.591 140.616 184.596 129.237 184.596C117.857 184.596 108.632 181.591 108.632 177.883C108.632 174.175 117.857 171.17 129.237 171.17C140.616 171.169 149.841 174.175 149.841 177.883Z" fill="#A2CCED"/>
</g>
</g>
<g opacity="0.7">
<g opacity="0.7">
<path opacity="0.7" d="M325.902 177.883C325.902 181.591 316.677 184.596 305.297 184.596C293.918 184.596 284.693 181.591 284.693 177.883C284.693 174.175 293.919 171.17 305.297 171.17C316.676 171.169 325.902 174.175 325.902 177.883Z" fill="#A2CCED"/>
</g>
</g>
</svg>
