<svg width="521" height="349" viewBox="0 0 521 349" fill="none" xmlns="http://www.w3.org/2000/svg">
<path d="M505.797 266.566C511.287 226.119 490.34 167.153 449.41 161.596C403.852 155.411 372.691 206.477 367.201 246.922C361.711 287.37 391.473 301.051 429.779 306.25C468.084 311.448 500.307 307.012 505.797 266.566Z" fill="#00A1CD"/>
<path d="M463.007 230.547C464.674 224.253 460.833 217.773 454.426 216.071C448.018 214.371 441.476 218.094 439.808 224.388" fill="white"/>
<path d="M433.189 222.066C434.861 215.774 431.235 209.355 425.095 207.729C418.955 206.105 412.625 209.889 410.953 216.181" fill="white"/>
<path d="M464.382 214.743C464.382 214.743 462.836 207.196 454.523 209.199" stroke="#0D4060" stroke-width="3" stroke-miterlimit="10"/>
<path d="M418.902 202.847C418.902 202.847 423.428 195.646 429.513 202.094" stroke="#0D4060" stroke-width="3" stroke-miterlimit="10"/>
<path d="M451.406 227.467C452.251 224.324 450.767 221.208 448.098 220.509C445.422 219.809 442.575 221.792 441.731 224.935" fill="#0D4060"/>
<path d="M422.541 219.294C423.233 216.671 421.411 213.908 418.479 213.124C415.541 212.339 412.605 213.831 411.914 216.454" fill="#0D4060"/>
<path d="M419.603 229.624C419.603 229.624 419.876 238.994 432.657 242.085C445.439 245.176 448.613 237.289 448.613 237.289L419.603 229.624Z" fill="#0D4060"/>
<path d="M450.119 304.289L463.629 336.043L469.656 334.494L466.224 300.261" fill="#00A1CD"/>
<path d="M471.588 342.533L465.679 344.05L455.156 317.07L467.717 313.844L471.588 342.533Z" fill="#56C5D0"/>
<path d="M451.634 347.992C450.198 342.397 453.563 336.697 459.163 335.26C464.756 333.825 470.459 337.194 471.894 342.788" fill="#504B48"/>
<path d="M432.995 307.115L418.545 338.338L412.568 336.605L417.056 302.48" fill="#00A1CD"/>
<path d="M410.275 344.743L416.128 346.439L427.389 319.77L414.933 316.16L410.275 344.743Z" fill="#56C5D0"/>
<path d="M416.035 346.554C417.642 341.007 414.447 335.205 408.901 333.597C403.355 331.989 397.551 335.183 395.944 340.729" fill="#504B48"/>
<g opacity="0.7">
<g opacity="0.7">
<path opacity="0.7" d="M460.652 239.912C460.287 241.282 463.4 243.295 467.61 244.412C471.814 245.526 475.519 245.32 475.883 243.95C476.247 242.58 473.129 240.564 468.925 239.45C464.715 238.333 461.01 238.54 460.652 239.912Z" fill="#A2CCED"/>
</g>
</g>
<g opacity="0.7">
<g opacity="0.7">
<path opacity="0.7" d="M395.569 222.655C395.211 224.028 398.323 226.042 402.533 227.158C406.737 228.272 410.442 228.066 410.806 226.696C411.171 225.326 408.053 223.311 403.848 222.196C399.638 221.08 395.933 221.286 395.569 222.655Z" fill="#A2CCED"/>
</g>
</g>
<path fill-rule="evenodd" clip-rule="evenodd" d="M352.623 283.138C355.444 283.607 358.169 283.941 360.051 283.855C369.604 283.42 376.513 281.482 381.084 279.608C383.367 278.672 385.061 277.754 386.205 277.052C386.777 276.701 387.212 276.405 387.514 276.187C387.665 276.078 387.783 275.989 387.868 275.923C387.911 275.89 387.945 275.863 387.972 275.841C387.985 275.831 387.996 275.822 388.005 275.814L388.018 275.804L388.023 275.8L388.025 275.798C388.026 275.797 388.027 275.796 386.229 273.712C384.431 271.629 384.432 271.628 384.433 271.627L384.434 271.626L384.437 271.623L384.439 271.622C384.434 271.625 384.422 271.635 384.402 271.651C384.361 271.683 384.289 271.737 384.186 271.812C383.979 271.96 383.646 272.189 383.181 272.474C382.251 273.044 380.795 273.84 378.772 274.669C374.73 276.327 368.403 278.131 359.465 278.539C358.21 278.596 355.996 278.359 353.175 277.89C350.423 277.433 347.303 276.794 344.349 276.139C341.401 275.485 338.643 274.821 336.62 274.32C335.61 274.07 334.785 273.861 334.213 273.715C333.927 273.642 333.705 273.584 333.555 273.546L333.384 273.501L333.331 273.487L333.329 273.487L332.801 276.057C332.274 278.627 332.274 278.627 332.274 278.627L332.275 278.627L332.337 278.643C332.377 278.654 332.437 278.67 332.515 278.69C332.671 278.73 332.899 278.789 333.191 278.864C333.775 279.013 334.615 279.226 335.641 279.48C337.693 279.988 340.497 280.663 343.504 281.329C346.505 281.995 349.732 282.658 352.623 283.138Z" fill="#00A1CD"/>
<path d="M317.612 281.591C316.923 281.569 316.383 280.924 316.407 280.164C316.436 279.399 317.021 278.793 317.706 278.819L322.472 278.984C322.31 278.618 322.187 278.23 322.103 277.825L316.388 277.629C315.702 277.603 315.159 276.963 315.187 276.198C315.211 275.438 315.796 274.832 316.485 274.853L322.201 275.05C322.3 274.694 322.433 274.352 322.594 274.035L317.683 273.865C316.998 273.838 316.455 273.198 316.483 272.434C316.507 271.673 317.092 271.067 317.78 271.089L325.965 271.37C326.224 271.321 326.494 271.298 326.764 271.3L325.218 270.713C324.566 270.47 324.221 269.677 324.444 268.954C324.668 268.233 325.384 267.842 326.036 268.085L334.315 271.206C334.633 271.325 334.874 271.581 335.017 271.889C336.837 272.688 338.1 274.692 338.017 276.987C337.918 279.902 335.685 282.215 333.055 282.126L326.57 281.902C326.528 281.897 326.482 281.89 326.435 281.889C326.414 281.887 326.392 281.892 326.366 281.894L317.612 281.591Z" fill="#A2CCED"/>
<path fill-rule="evenodd" clip-rule="evenodd" d="M363.831 228.761C366.276 230.247 368.559 231.77 369.93 233.063C376.888 239.623 380.862 245.598 383.105 249.999C384.225 252.198 384.91 253.999 385.32 255.277C385.525 255.916 385.661 256.424 385.748 256.786C385.791 256.967 385.823 257.111 385.844 257.217C385.855 257.27 385.863 257.313 385.869 257.347C385.872 257.363 385.875 257.378 385.877 257.389L385.88 257.405L385.881 257.412L385.881 257.414C385.882 257.416 385.882 257.417 383.16 257.824C380.438 258.231 380.438 258.232 380.438 258.233L380.438 258.235L380.439 258.239L380.439 258.242C380.438 258.236 380.435 258.22 380.43 258.195C380.42 258.144 380.401 258.056 380.371 257.932C380.312 257.685 380.208 257.294 380.042 256.775C379.709 255.736 379.123 254.183 378.131 252.235C376.148 248.343 372.529 242.849 366.018 236.71C365.104 235.849 363.272 234.584 360.827 233.1C358.443 231.651 355.661 230.102 352.995 228.672C350.333 227.245 347.809 225.949 345.95 225.009C345.021 224.54 344.259 224.16 343.73 223.898C343.466 223.767 343.26 223.666 343.12 223.597L342.962 223.52L342.913 223.496L342.911 223.495L344.187 221.202C345.463 218.91 345.463 218.91 345.464 218.91L345.464 218.911L345.522 218.939C345.56 218.957 345.615 218.984 345.687 219.02C345.832 219.091 346.043 219.195 346.313 219.329C346.853 219.596 347.628 219.983 348.572 220.46C350.459 221.413 353.025 222.73 355.739 224.185C358.448 225.638 361.327 227.24 363.831 228.761Z" fill="#00A1CD"/>
<path d="M336.282 207.102C335.746 206.668 334.916 206.806 334.438 207.397C333.961 207.995 334.009 208.836 334.545 209.263L338.266 212.246C337.905 212.418 337.558 212.633 337.231 212.885L332.77 209.306C332.233 208.879 331.404 209.01 330.926 209.608C330.449 210.199 330.497 211.04 331.033 211.473L335.494 215.052C335.338 215.387 335.216 215.733 335.13 216.078L331.297 213.005C330.76 212.578 329.931 212.709 329.454 213.307C328.976 213.898 329.024 214.739 329.56 215.172L335.949 220.297C336.113 220.503 336.302 220.696 336.508 220.871L334.953 220.308C334.301 220.067 333.521 220.443 333.22 221.136C332.919 221.829 333.207 222.592 333.86 222.833L342.171 225.867C342.49 225.984 342.839 225.947 343.149 225.807C345.049 226.389 347.314 225.692 348.748 223.899C350.574 221.625 350.389 218.415 348.338 216.767L343.276 212.707C343.24 212.683 343.201 212.659 343.164 212.629C343.147 212.617 343.134 212.599 343.116 212.581L336.282 207.102Z" fill="#A2CCED"/>
<path d="M287.163 122.089C299.803 200.837 246.211 274.922 167.464 287.561C88.716 300.2 14.6311 246.609 1.99011 167.862C-10.6479 89.114 42.9421 15.0288 121.69 2.38879C200.438 -10.2502 274.522 43.3418 287.163 122.089Z" fill="#00A1CD"/>
<path d="M239.889 233C239.889 233 247.074 251.134 257.291 257.87C267.509 264.609 291.165 274.554 291.165 274.554" stroke="#00A1CD" stroke-width="12" stroke-miterlimit="10"/>
<path d="M301.987 292.521C302.978 293.128 304.342 292.723 305.016 291.623C305.69 290.52 305.429 289.123 304.436 288.515L297.552 284.306C298.122 283.944 298.657 283.509 299.153 283.019L307.408 288.064C308.401 288.671 309.763 288.266 310.437 287.164C311.111 286.063 310.85 284.665 309.856 284.058L301.602 279.011C301.792 278.413 301.923 277.809 301.99 277.204L309.085 281.541C310.076 282.147 311.441 281.742 312.114 280.641C312.789 279.538 312.528 278.141 311.535 277.533L299.714 270.307C299.393 269.992 299.033 269.71 298.652 269.455L301.382 270.075C302.529 270.333 303.756 269.539 304.111 268.308C304.467 267.076 303.82 265.858 302.672 265.599L288.074 262.292C287.513 262.164 286.932 262.294 286.443 262.601C283.129 262.037 279.478 263.693 277.454 267.002C274.879 271.217 275.877 276.563 279.673 278.882L289.041 284.608C289.109 284.649 289.179 284.679 289.246 284.718C289.278 284.742 289.304 284.769 289.339 284.789L301.987 292.521Z" fill="#A2CCED"/>
<path d="M262 205.289C262 205.289 273.272 221.209 284.791 225.338C296.312 229.466 321.652 233.531 321.652 233.531" stroke="#00A1CD" stroke-width="12" stroke-miterlimit="10"/>
<path d="M336.416 248.428C337.523 248.782 338.752 248.066 339.147 246.836C339.541 245.606 338.956 244.309 337.849 243.956L330.162 241.495C330.63 241.011 331.049 240.461 331.414 239.865L340.628 242.815C341.736 243.168 342.964 242.453 343.357 241.223C343.752 239.993 343.166 238.696 342.06 238.343L332.846 235.392C332.888 234.766 332.872 234.149 332.795 233.543L340.714 236.079C341.822 236.432 343.051 235.716 343.443 234.487C343.838 233.257 343.253 231.961 342.146 231.608L328.949 227.38C328.563 227.15 328.147 226.963 327.715 226.804L330.516 226.759C331.69 226.74 332.695 225.677 332.75 224.397C332.802 223.117 331.885 222.085 330.711 222.105L315.744 222.345C315.167 222.355 314.633 222.618 314.232 223.033C310.881 223.269 307.724 225.739 306.541 229.436C305.035 234.138 307.27 239.098 311.506 240.453L321.964 243.801C322.038 243.825 322.113 243.839 322.188 243.86C322.224 243.873 322.257 243.895 322.296 243.908L336.416 248.428Z" fill="#A2CCED"/>
<path d="M231.272 134.699C233.627 123.861 244.321 116.987 255.16 119.344C265.996 121.7 272.871 132.395 270.515 143.231" fill="white"/>
<path d="M263.546 109.907C263.546 109.907 257.447 98.5469 245.74 107.461" stroke="#0D4060" stroke-width="3" stroke-miterlimit="10"/>
<g opacity="0.7">
<g opacity="0.7">
<path opacity="0.7" d="M210.984 155.508C210.313 157.812 204.039 158.011 196.968 155.953C189.899 153.895 184.71 150.36 185.381 148.057C186.05 145.753 192.325 145.555 199.395 147.612C206.466 149.668 211.653 153.204 210.984 155.508Z" fill="#A2CCED"/>
</g>
</g>
<path d="M183.297 265.807L207.297 303.5L219.797 298.5L213.892 271.289" fill="#00A1CD"/>
<path d="M206.433 324.5L194.797 324.5L206.433 303L219.797 298L206.433 324.5Z" fill="#CF2153"/>
<path d="M190.388 333.759C190.129 324.366 197.532 316.542 206.924 316.283C216.316 316.024 224.14 323.428 224.4 332.819" fill="#504B48"/>
<path d="M125.297 265.807L149.297 303.5L161.797 298.5L155.892 271.289" fill="#00A1CD"/>
<path d="M148.433 324.5L136.797 324.5L148.433 303L161.797 298L148.433 324.5Z" fill="#CF2153"/>
<path d="M132.388 333.759C132.129 324.366 139.532 316.542 148.924 316.283C158.316 316.024 166.14 323.428 166.4 332.819" fill="#504B48"/>
<path fill-rule="evenodd" clip-rule="evenodd" d="M283.928 181.062C283.567 179.682 283.083 178.743 283.083 178.743L244.233 176.368C244.233 176.368 245.338 190.358 268.017 191.936C275.601 192.463 279.798 191.163 282.024 189.198C283.135 185.524 283.687 182.829 283.928 181.062Z" fill="#0D4060"/>
<path d="M251.559 139.454C252.558 134.584 256.877 131.357 261.205 132.245C265.533 133.133 268.232 137.801 267.233 142.669" fill="#0D4060"/>
<circle cx="288" cy="164" r="7" fill="#00A1CD"/>
</svg>
