<svg width="91" height="95" viewBox="0 0 91 95" fill="none" xmlns="http://www.w3.org/2000/svg">
<path fill-rule="evenodd" clip-rule="evenodd" d="M28.6172 47.1753C28.6171 47.1754 28.617 47.1755 29.4534 47.9664C30.2899 48.7572 30.2897 48.7573 30.2896 48.7575L30.2881 48.7588L30.2851 48.7615L30.2756 48.7702C30.2676 48.7774 30.2564 48.7874 30.2422 48.8001C30.2138 48.8254 30.1732 48.8614 30.1214 48.9065C30.0177 48.9966 29.8689 49.1237 29.6826 49.2764C29.3112 49.5808 28.786 49.9912 28.1706 50.4139C26.9938 51.2223 25.2874 52.2188 23.6347 52.4195C22.1933 52.5945 20.0533 52.5594 18.3461 52.4903C17.4771 52.4551 16.6932 52.4098 16.1266 52.3732C15.8431 52.3549 15.6135 52.3388 15.4542 52.3272C15.3745 52.3215 15.3124 52.3168 15.2699 52.3136C15.2486 52.3119 15.2323 52.3107 15.2211 52.3098L15.2034 52.3084C15.2033 52.3084 15.2032 52.3084 15.3048 51.2038C15.4064 50.0991 15.4064 50.0991 15.4063 50.0991L15.4204 50.1002C15.4302 50.101 15.4452 50.1021 15.4651 50.1037C15.5048 50.1067 15.5639 50.1111 15.6405 50.1167C15.7936 50.1278 16.0162 50.1434 16.292 50.1612C16.8439 50.1968 17.6067 50.2409 18.4501 50.2751C20.1676 50.3446 22.1152 50.3678 23.3253 50.2209C24.3238 50.0996 25.6041 49.4192 26.7512 48.6312C27.2978 48.2557 27.7688 47.8879 28.1032 47.6139C28.2698 47.4772 28.4012 47.365 28.4896 47.2881C28.5338 47.2496 28.5672 47.2201 28.5887 47.2009C28.5995 47.1913 28.6073 47.1842 28.6121 47.1799L28.6169 47.1756L28.6172 47.1753Z" fill="#00A1CD"/>
<path d="M50.5106 0C35.6332 0 23.5726 3.55303 23.5726 18.7318C23.5726 22.5815 24.1017 26.4628 24.6589 30.2671C25.2775 34.4907 26.0468 38.7017 27.1931 42.8242C27.697 44.6363 28.2935 46.2263 28.1005 48.1294C27.9312 49.7973 27.4485 51.4932 26.6788 52.997C24.6028 57.0531 24.051 61.2288 25.5881 65.5604C26.6081 68.4346 29.0774 70.7257 31.8409 72.1635C37.5702 75.1444 44.4056 74.9913 50.7223 74.9913C57.6601 74.9913 65.7038 74.479 71.3941 70.1737C73.7408 68.3981 75.4416 65.9927 76.3857 63.2661C76.9439 61.654 77.1277 60.0426 77.345 58.3726C77.6458 56.0623 76.9837 54.0691 76.0837 51.9731C74.7325 48.8265 73.1867 44.581 74.0788 41.1322C76.1504 33.0934 77.4486 22.4995 77.4486 18.4246C77.4486 3.24593 65.388 0 50.5106 0Z" fill="#00A1CD"/>
<path d="M5.80525 51.6138C5.49171 51.5363 5.34598 51.1733 5.48144 50.8071C5.61691 50.4407 5.98405 50.2044 6.29759 50.2819L8.47175 50.8196C8.45492 50.6279 8.46137 50.4281 8.48751 50.2245L5.8808 49.5798C5.56738 49.5023 5.42165 49.1392 5.557 48.7729C5.69246 48.4066 6.05972 48.1702 6.37314 48.2479L8.97984 48.8924C9.08416 48.7294 9.20041 48.5772 9.3274 48.4381L7.08712 47.884C6.7737 47.8065 6.62796 47.4434 6.76331 47.077C6.89878 46.7107 7.26603 46.4744 7.57946 46.5519L11.3124 47.4751C11.4411 47.4754 11.5686 47.4908 11.6947 47.5161L11.0739 47.0849C10.8135 46.904 10.781 46.4878 11.0019 46.16C11.2228 45.8322 11.6165 45.7119 11.8769 45.8928L15.195 48.1976C15.3226 48.2862 15.3947 48.4318 15.4097 48.5954C16.1199 49.1572 16.3787 50.2479 15.972 51.3484C15.4542 52.7492 14.0499 53.653 12.8512 53.3565L9.89302 52.6249C9.8719 52.6197 9.85256 52.6115 9.83179 52.6058C9.82105 52.6038 9.80983 52.6043 9.79921 52.6017L5.80525 51.6138Z" fill="#A2CCED"/>
<path d="M54.4801 71.9644L57.3346 90.4141H60.7556L63.61 71.9565" fill="#00A1CD"/>
<path d="M40.9988 71.9073L43.8531 90.414H47.2742L50.1286 71.9645" fill="#00A1CD"/>
<path d="M60.7222 95H57.3682L55.6044 80.0638H62.5031L60.7222 95Z" fill="#5652A3"/>
<path d="M47.2046 94.898H43.8505L42.0696 79.9616H48.9683L47.2046 94.898Z" fill="#5652A3"/>
<path d="M46.1881 24.9336C46.1881 22.8106 48.0408 21.0892 50.3267 21.0892C52.6125 21.0892 54.4655 22.8104 54.4655 24.9336" fill="white"/>
<path d="M56.9003 24.9336C56.9003 22.8106 58.7532 21.0892 61.039 21.0892C63.3248 21.0892 65.1776 22.8104 65.1776 24.9336" fill="white"/>
<path d="M47.0784 19.957C47.0784 19.957 48.2916 17.6746 50.9562 19.0202" stroke="#0D4060" stroke-miterlimit="10"/>
<path d="M63.6785 19.957C63.6785 19.957 62.7923 17.63 60.1277 18.9756" stroke="#0D4060" stroke-miterlimit="10"/>
<path d="M49.73 24.9337C49.73 24.0154 50.5316 23.2707 51.5203 23.2707C52.509 23.2707 53.3105 24.0154 53.3105 24.9337" fill="#0D4060"/>
<path d="M60.4423 24.9337C60.4423 24.0154 61.2438 23.2707 62.2326 23.2707C63.2213 23.2707 64.0227 24.0154 64.0227 24.9337" fill="#0D4060"/>
<path d="M61 28C61 28 60.0202 32.1237 55.2004 31.9971C50.3807 31.8706 50 28 50 28H61Z" fill="#0D4060"/>
<g opacity="0.7">
<g opacity="0.7">
<path opacity="0.7" d="M46.1879 28.1673C46.1879 28.6266 44.9575 28.9989 43.44 28.9989C41.9226 28.9989 40.6921 28.6266 40.6921 28.1673C40.6921 27.708 41.9224 27.3357 43.44 27.3357C44.9576 27.3357 46.1879 27.708 46.1879 28.1673Z" fill="#A2CCED"/>
</g>
</g>
<g opacity="0.7">
<g opacity="0.7">
<path opacity="0.7" d="M69.6679 28.1673C69.6679 28.6266 68.4376 28.9989 66.92 28.9989C65.4024 28.9989 64.1722 28.6266 64.1722 28.1673C64.1722 27.708 65.4024 27.3357 66.92 27.3357C68.4376 27.3357 69.6679 27.708 69.6679 28.1673Z" fill="#A2CCED"/>
</g>
</g>
<path d="M7.34078 54.0685H1.61117C0.725078 54.0685 0 53.3951 0 52.572V46.2413C0 45.0772 1.02549 44.4574 2.27871 44.4574H6.81979C7.99233 44.4574 8.95158 45.0161 8.95158 46.105V52.572C8.9517 53.3951 8.22686 54.0685 7.34078 54.0685Z" fill="white"/>
<path d="M8.11638 45.7339C8.11638 46.0749 6.62636 46.3516 4.49362 46.3516C2.36087 46.3516 0.870972 46.0749 0.870972 45.7339C0.870972 45.3929 2.36087 45.1164 4.49362 45.1164C6.62636 45.1164 8.11638 45.393 8.11638 45.7339Z" fill="#AA4925"/>
<path d="M8.8324 46.7686C10.2167 46.7686 11.3388 47.8109 11.3388 49.0967C11.3388 50.3826 10.2167 51.4249 8.8324 51.4249" stroke="white" stroke-width="6" stroke-miterlimit="10"/>
<path d="M4.84101 42.9933C3.89477 42.7724 3.25813 41.4172 3.14606 40.517C2.98839 39.2497 3.99085 38.6927 4.76677 37.8639C5.6852 36.8833 6.02775 35.6985 5.6827 34.4287C5.34934 33.2022 4.51613 32.0628 3.10583 31.7967" stroke="#0D4060" stroke-miterlimit="10"/>
<path d="M2.11334 35.1635C2.76955 36.1611 2.37162 37.1034 1.70658 37.9766C1.32763 38.4742 1.01086 39.1683 1.39841 39.6603" stroke="#0D4060" stroke-miterlimit="10"/>
<path d="M6.72849 41.2085C6.72849 41.2085 5.37585 40.4694 6.72849 38.8433" stroke="#0D4060" stroke-miterlimit="10"/>
<path fill-rule="evenodd" clip-rule="evenodd" d="M84.1775 52.3685C84.1774 52.3691 84.1772 52.3696 85.3289 52.6607C86.4806 52.9518 86.4804 52.9524 86.4802 52.953L86.4798 52.9545L86.4788 52.9578L86.4762 52.9663C86.4742 52.9729 86.4717 52.981 86.4687 52.9908C86.4625 53.0103 86.4542 53.0361 86.4435 53.0678C86.4221 53.1312 86.3913 53.2182 86.3497 53.3249C86.2668 53.5379 86.1406 53.8317 85.9613 54.1739C85.6046 54.8547 85.0262 55.7501 84.1397 56.5837C82.3072 58.3068 79.288 59.634 74.6853 58.5624L75.2657 56.4116C79.032 57.2885 81.1895 56.2026 82.4415 55.0254C83.0972 54.4088 83.5379 53.7323 83.8148 53.2037C83.9523 52.9413 84.0465 52.7209 84.1048 52.5711C84.1339 52.4964 84.1538 52.4397 84.1656 52.4048C84.1715 52.3874 84.1753 52.3754 84.1772 52.3694C84.1782 52.3664 84.1786 52.3648 84.1786 52.3649L84.1783 52.3661L84.1778 52.3676L84.1775 52.3685Z" fill="#00A1CD"/>
<path d="M90.9735 45.9524C91.0797 45.6667 90.8552 45.3545 90.4745 45.2589C90.0938 45.1634 89.6954 45.319 89.5892 45.6048L88.8523 47.5875C88.7009 47.4695 88.5302 47.3649 88.3453 47.2737L89.2287 44.8966C89.3351 44.6107 89.1104 44.2986 88.7298 44.2031C88.3491 44.1075 87.9507 44.2631 87.8445 44.5489L86.9609 46.926C86.7675 46.9178 86.5766 46.9247 86.3906 46.947L87.1498 44.904C87.256 44.6182 87.0317 44.306 86.6509 44.2105C86.2703 44.1149 85.8719 44.2704 85.7657 44.5564L84.5003 47.9605C84.4303 48.0607 84.3734 48.168 84.326 48.2799L84.3037 47.5616C84.2944 47.2604 83.9638 47.0071 83.5685 46.999C83.1734 46.9906 82.8577 47.2306 82.867 47.5319L82.9852 51.371C82.9897 51.5186 83.0723 51.6543 83.2012 51.7558C83.2838 52.6149 84.0558 53.4137 85.1996 53.7008C86.6552 54.0664 88.1786 53.4713 88.585 52.3782L89.5877 49.6804C89.5949 49.6612 89.5987 49.6417 89.6051 49.6224C89.6095 49.613 89.616 49.6045 89.6197 49.5948L90.9735 45.9524Z" fill="#A2CCED"/>
<path d="M43.7776 94.9136C43.7776 92.1735 46.0294 89.9523 48.8072 89.9523C51.5849 89.9523 53.8367 92.1735 53.8367 94.9136" fill="#504B48"/>
<path d="M57.3743 94.9136C57.3743 92.1735 59.6261 89.9523 62.4039 89.9523C65.1816 89.9523 67.4333 92.1735 67.4333 94.9136" fill="#504B48"/>
</svg>
