<svg width="581" height="359" viewBox="0 0 581 359" fill="none" xmlns="http://www.w3.org/2000/svg">
<path d="M382.015 248.682C382.909 198.646 419.159 131.104 469.603 132.009C525.75 133.017 553.873 200.711 552.979 250.745C552.086 300.783 513.614 311.805 466.405 310.956C419.197 310.105 381.122 298.717 382.015 248.682Z" fill="#00A1CD"/>
<path d="M437.124 207.724C437.125 199.586 443.616 192.993 451.627 192.999C459.638 193.006 466.127 199.608 466.126 207.746" fill="white"/>
<path d="M475.124 207.724C475.124 199.585 481.622 192.993 489.631 192.999C497.639 193.006 504.127 199.608 504.126 207.746" fill="white"/>
<path d="M441 188C441 188 445.197 179.456 454 184.706" stroke="#0D4060" stroke-width="3" stroke-miterlimit="10"/>
<path d="M499 189C499 189 495.902 180.835 486 185.373" stroke="#0D4060" stroke-width="3" stroke-miterlimit="10"/>
<path d="M445.97 207.919C445.975 204.664 448.893 202.021 452.48 202.016C456.074 202.012 458.976 204.648 458.97 207.903" fill="#0D4060"/>
<path d="M484.05 207.901C484.055 204.647 486.973 202.004 490.56 201.999C494.154 201.995 497.056 204.631 497.05 207.886" fill="#0D4060"/>
<path d="M489 221.626C489 221.626 485.422 231.557 468.778 230.975C452.134 230.394 451 221 451 221L489 221.626Z" fill="#0D4060"/>
<path d="M442.44 305.847L449.785 347.469L457.405 347.287L462.77 305.492" fill="#00A1CD"/>
<path d="M457.488 357.412L450.019 357.589L444.918 322.489L460.797 322.112L457.488 357.412Z" fill="#56C5D0"/>
<path d="M432.171 358.411C432.004 351.339 437.594 345.468 444.672 345.301C451.743 345.134 457.616 350.73 457.783 357.802" fill="#504B48"/>
<path d="M473 305.892L479.797 347.478L487.419 347.396L493.329 305.657" fill="#00A1CD"/>
<path d="M487.452 357.751L479.989 357.83L475.46 322.665L491.342 322.496L487.452 357.751Z" fill="#56C5D0"/>
<path d="M480.061 357.997C479.986 350.923 485.661 345.127 492.733 345.052C499.805 344.976 505.605 350.649 505.679 357.721" fill="#504B48"/>
<g opacity="0.7">
<g opacity="0.7">
<path opacity="0.7" d="M436.866 219.24C436.836 220.977 432.495 222.305 427.161 222.21C421.835 222.114 417.539 220.63 417.569 218.894C417.599 217.158 421.948 215.828 427.274 215.924C432.608 216.019 436.904 217.504 436.866 219.24Z" fill="#A2CCED"/>
</g>
</g>
<g opacity="0.7">
<g opacity="0.7">
<path opacity="0.7" d="M519.318 220.717C519.28 222.454 514.94 223.784 509.606 223.688C504.279 223.593 499.984 222.108 500.014 220.372C500.044 218.636 504.392 217.306 509.719 217.402C515.052 217.498 519.348 218.982 519.318 220.717Z" fill="#A2CCED"/>
</g>
</g>
<path fill-rule="evenodd" clip-rule="evenodd" d="M553.45 266.401C551.58 263.438 549.666 260.674 548.054 259.022C539.875 250.639 532.475 245.899 527.037 243.245C524.321 241.919 522.102 241.118 520.528 240.643C519.741 240.405 519.116 240.249 518.671 240.15C518.449 240.101 518.271 240.066 518.141 240.042C518.076 240.03 518.023 240.02 517.982 240.013C517.962 240.01 517.944 240.007 517.93 240.005L517.91 240.002L517.902 240.001L517.899 240C517.897 240 517.896 240 517.454 243.342C517.013 246.684 517.012 246.683 517.01 246.683L517.008 246.683L517.003 246.682L517 246.682C517.007 246.683 517.027 246.686 517.058 246.692C517.12 246.703 517.228 246.724 517.38 246.758C517.685 246.826 518.166 246.944 518.805 247.137C520.084 247.523 521.997 248.208 524.404 249.383C529.212 251.729 536.016 256.046 543.67 263.889C544.744 264.991 546.331 267.208 548.2 270.17C550.024 273.06 551.98 276.434 553.787 279.669C555.591 282.899 557.231 285.962 558.42 288.22C559.015 289.348 559.496 290.273 559.827 290.915C559.993 291.235 560.122 291.486 560.209 291.655L560.307 291.846L560.337 291.906L560.339 291.909L563.119 290.298C565.9 288.687 565.9 288.687 565.9 288.687L565.899 288.686L565.863 288.616C565.84 288.57 565.805 288.503 565.76 288.415C565.671 288.24 565.539 287.983 565.369 287.655C565.03 286.999 564.541 286.058 563.937 284.912C562.73 282.622 561.063 279.507 559.224 276.215C557.388 272.927 555.365 269.435 553.45 266.401Z" fill="#00A1CD"/>
<path d="M580.553 299.683C581.095 300.33 580.944 301.35 580.229 301.947C579.507 302.544 578.477 302.502 577.942 301.854L574.211 297.361C574.008 297.807 573.752 298.236 573.451 298.642L577.927 304.029C578.462 304.678 578.319 305.696 577.596 306.294C576.882 306.891 575.851 306.849 575.309 306.202L570.833 300.814C570.427 301.013 570.006 301.169 569.584 301.281L573.429 305.911C573.963 306.559 573.82 307.578 573.098 308.175C572.383 308.772 571.352 308.73 570.811 308.083L564.401 300.368C564.145 300.171 563.904 299.943 563.686 299.695L564.409 301.587C564.717 302.381 564.273 303.343 563.431 303.727C562.588 304.11 561.648 303.773 561.339 302.979L557.45 292.864C557.299 292.477 557.337 292.048 557.502 291.666C556.75 289.351 557.555 286.563 559.722 284.77C562.468 282.486 566.402 282.644 568.464 285.122L573.542 291.236C573.572 291.279 573.602 291.326 573.639 291.37C573.654 291.391 573.677 291.407 573.699 291.429L580.553 299.683Z" fill="#A2CCED"/>
<path fill-rule="evenodd" clip-rule="evenodd" d="M363.429 233.196C365.299 236.159 367.213 238.923 368.824 240.575C377.004 248.958 384.404 253.698 389.842 256.352C392.558 257.678 394.777 258.479 396.351 258.954C397.137 259.192 397.763 259.348 398.208 259.447C398.43 259.496 398.607 259.531 398.738 259.555C398.803 259.567 398.856 259.577 398.897 259.584C398.917 259.587 398.935 259.59 398.949 259.592L398.969 259.595L398.977 259.596L398.98 259.597C398.982 259.597 398.983 259.597 399.424 256.255C399.865 252.913 399.867 252.914 399.868 252.914L399.871 252.914L399.876 252.915L399.879 252.915C399.871 252.914 399.852 252.911 399.821 252.905C399.759 252.894 399.651 252.872 399.499 252.839C399.194 252.771 398.713 252.652 398.074 252.459C396.795 252.073 394.881 251.389 392.475 250.214C387.667 247.868 380.863 243.551 373.209 235.708C372.135 234.606 370.548 232.388 368.678 229.427C366.854 226.537 364.898 223.163 363.092 219.928C361.288 216.698 359.648 213.635 358.459 211.377C357.864 210.249 357.383 209.324 357.051 208.682C356.886 208.361 356.757 208.111 356.67 207.942L356.572 207.751L356.542 207.691L356.54 207.688L353.76 209.299C350.979 210.91 350.979 210.91 350.979 210.91L350.98 210.911L351.016 210.981C351.039 211.027 351.073 211.094 351.118 211.182C351.208 211.357 351.34 211.614 351.51 211.942C351.849 212.598 352.338 213.539 352.942 214.685C354.149 216.975 355.816 220.09 357.655 223.382C359.491 226.67 361.513 230.162 363.429 233.196Z" fill="#00A1CD"/>
<path d="M336.326 199.914C335.784 199.267 335.935 198.247 336.649 197.65C337.372 197.053 338.402 197.095 338.936 197.742L342.668 202.236C342.871 201.79 343.127 201.361 343.428 200.955L338.952 195.568C338.417 194.919 338.56 193.9 339.282 193.303C339.997 192.706 341.028 192.748 341.569 193.395L346.046 198.783C346.452 198.584 346.873 198.428 347.294 198.316L343.45 193.686C342.916 193.038 343.059 192.019 343.781 191.422C344.496 190.825 345.527 190.866 346.068 191.513L352.478 199.229C352.734 199.426 352.974 199.654 353.193 199.902L352.47 198.01C352.162 197.216 352.606 196.254 353.448 195.87C354.291 195.487 355.231 195.824 355.54 196.618L359.429 206.732C359.58 207.12 359.542 207.549 359.376 207.931C360.129 210.246 359.324 213.034 357.157 214.827C354.411 217.111 350.477 216.952 348.415 214.475L343.337 208.361C343.307 208.318 343.277 208.271 343.24 208.227C343.225 208.205 343.202 208.19 343.179 208.168L336.326 199.914Z" fill="#A2CCED"/>
<path fill-rule="evenodd" clip-rule="evenodd" d="M363.429 233.196C365.299 236.159 367.213 238.923 368.824 240.575C377.004 248.958 384.404 253.698 389.842 256.352C392.558 257.678 394.777 258.479 396.351 258.954C397.137 259.192 397.763 259.348 398.208 259.447C398.43 259.496 398.607 259.531 398.738 259.555C398.803 259.567 398.856 259.577 398.897 259.584C398.917 259.587 398.935 259.59 398.949 259.592L398.969 259.595L398.977 259.596L398.98 259.597C398.982 259.597 398.983 259.597 399.424 256.255C399.865 252.913 399.867 252.914 399.868 252.914L399.871 252.914L399.876 252.915L399.879 252.915C399.871 252.914 399.852 252.911 399.821 252.905C399.759 252.894 399.651 252.872 399.499 252.839C399.194 252.771 398.713 252.652 398.074 252.459C396.795 252.073 394.881 251.389 392.475 250.214C387.667 247.868 380.863 243.551 373.209 235.708C372.135 234.606 370.548 232.388 368.678 229.427C366.854 226.537 364.898 223.163 363.092 219.928C361.288 216.698 359.648 213.635 358.459 211.377C357.864 210.249 357.383 209.324 357.051 208.682C356.886 208.361 356.757 208.111 356.67 207.942L356.572 207.751L356.542 207.691L356.54 207.688L353.76 209.299C350.979 210.91 350.979 210.91 350.979 210.91L350.98 210.911L351.016 210.981C351.039 211.027 351.073 211.094 351.118 211.182C351.208 211.357 351.34 211.614 351.51 211.942C351.849 212.598 352.338 213.539 352.942 214.685C354.149 216.975 355.816 220.09 357.655 223.382C359.491 226.67 361.513 230.162 363.429 233.196Z" fill="#00A1CD"/>
<path d="M336.326 199.914C335.784 199.267 335.935 198.247 336.649 197.65C337.372 197.053 338.402 197.095 338.936 197.742L342.668 202.236C342.871 201.79 343.127 201.361 343.428 200.955L338.952 195.568C338.417 194.919 338.56 193.9 339.282 193.303C339.997 192.706 341.028 192.748 341.569 193.395L346.046 198.783C346.452 198.584 346.873 198.428 347.294 198.316L343.45 193.686C342.916 193.038 343.059 192.019 343.781 191.422C344.496 190.825 345.527 190.866 346.068 191.513L352.478 199.229C352.734 199.426 352.974 199.654 353.193 199.902L352.47 198.01C352.162 197.216 352.606 196.254 353.448 195.87C354.291 195.487 355.231 195.824 355.54 196.618L359.429 206.732C359.58 207.12 359.542 207.549 359.376 207.931C360.129 210.246 359.324 213.034 357.157 214.827C354.411 217.111 350.477 216.952 348.415 214.475L343.337 208.361C343.307 208.318 343.277 208.271 343.24 208.227C343.225 208.205 343.202 208.19 343.179 208.168L336.326 199.914Z" fill="#A2CCED"/>
<path d="M291.654 144.411C291.654 224.167 226.999 288.821 147.243 288.821C67.4875 288.821 2.83252 224.167 2.83252 144.411C2.83252 64.654 67.4875 0 147.243 0C226.999 0 291.654 64.654 291.654 144.411Z" fill="#00A1CD"/>
<path d="M36.0424 224.532C36.0424 224.532 21.2464 237.24 18.2114 249.097C15.1774 260.953 13.4954 286.561 13.4954 286.561" stroke="#00A1CD" stroke-width="12" stroke-miterlimit="10"/>
<path d="M0.0445456 302.652C-0.205454 303.789 0.622535 304.945 1.88353 305.223C3.14553 305.5 4.38152 304.797 4.63152 303.661L6.36352 295.779C6.89052 296.2 7.47654 296.564 8.10454 296.873L6.02752 306.322C5.77752 307.459 6.60557 308.615 7.86657 308.892C9.12757 309.169 10.3646 308.466 10.6146 307.33L12.6905 297.88C13.3185 297.865 13.9335 297.79 14.5265 297.657L12.7425 305.778C12.4925 306.915 13.3205 308.071 14.5815 308.349C15.8425 308.625 17.0795 307.923 17.3285 306.786L20.3025 293.254C20.4965 292.848 20.6445 292.417 20.7615 291.971L21.0685 294.754C21.1965 295.923 22.3485 296.824 23.6285 296.757C24.9075 296.691 25.8486 295.682 25.7206 294.514L24.0815 279.636C24.0185 279.062 23.7066 278.557 23.2576 278.195C22.7096 274.878 19.9536 271.968 16.1636 271.134C11.3406 270.076 6.61252 272.764 5.65752 277.109L3.30156 287.833C3.28456 287.909 3.27854 287.986 3.26354 288.062C3.25354 288.101 3.23455 288.133 3.22655 288.172L0.0445456 302.652Z" fill="#A2CCED"/>
<path d="M254 228.283C254 228.283 273.503 228.55 283.624 221.671C293.746 214.791 311.955 196.708 311.955 196.708" stroke="#00A1CD" stroke-width="12" stroke-miterlimit="10"/>
<path d="M332.689 193.549C333.629 192.862 333.774 191.447 333.012 190.405C332.248 189.363 330.858 189.07 329.918 189.757L323.403 194.519C323.286 193.855 323.087 193.194 322.822 192.547L330.633 186.838C331.572 186.152 331.717 184.737 330.955 183.695C330.193 182.651 328.801 182.36 327.861 183.047L320.051 188.757C319.57 188.352 319.059 188.002 318.527 187.708L325.24 182.8C326.179 182.115 326.325 180.699 325.563 179.657C324.799 178.614 323.408 178.323 322.468 179.009L311.283 187.186C310.869 187.362 310.472 187.588 310.09 187.844L311.702 185.554C312.38 184.593 312.112 183.156 311.108 182.359C310.107 181.561 308.732 181.694 308.056 182.655L299.437 194.893C299.105 195.364 299.004 195.95 299.101 196.519C297.317 199.367 297.457 203.374 299.747 206.506C302.661 210.492 307.984 211.607 311.577 208.981L320.439 202.503C320.504 202.455 320.558 202.402 320.62 202.355C320.653 202.333 320.69 202.32 320.722 202.296L332.689 193.549Z" fill="#A2CCED"/>
<path d="M161.479 277.304L170.261 334.854H180.787L189.57 277.279" fill="#00A1CD"/>
<path d="M108.979 277.126L117.761 334.853H128.287L137.07 277.304" fill="#00A1CD"/>
<path d="M180.685 349.158H170.365L164.938 302.568H186.164L180.685 349.158Z" fill="#CF2153"/>
<path d="M128.073 348.84H117.753L113.204 302.25H133.5L128.073 348.84Z" fill="#CF2153"/>
<path d="M93.0713 349.389C93.0713 339.616 100.994 331.694 110.767 331.694C120.541 331.694 128.464 339.616 128.464 349.389" fill="#504B48"/>
<path d="M170.464 349.389C170.464 339.616 178.387 331.694 188.16 331.694C197.934 331.694 205.857 339.616 205.857 349.389" fill="#504B48"/>
<path d="M102.751 136.172C102.751 125.082 111.741 116.092 122.831 116.092C133.921 116.092 142.912 125.082 142.912 136.172" fill="white"/>
<path d="M154.725 136.172C154.725 125.082 163.715 116.092 174.805 116.092C185.895 116.092 194.886 125.082 194.886 136.172" fill="white"/>
<path d="M107.07 110.178C107.07 110.178 112.956 98.255 125.885 105.284" stroke="#0D4060" stroke-width="3" stroke-miterlimit="10"/>
<path d="M187.611 110.178C187.611 110.178 183.311 98.023 170.383 105.052" stroke="#0D4060" stroke-width="3" stroke-miterlimit="10"/>
<path d="M114.146 136.172C114.146 131.375 118.034 127.486 122.831 127.486C127.628 127.486 131.518 131.375 131.518 136.172" fill="#0D4060"/>
<path d="M166.119 136.172C166.119 131.375 170.008 127.486 174.805 127.486C179.602 127.486 183.491 131.375 183.491 136.172" fill="#0D4060"/>
<path d="M174.631 154.471C174.631 154.471 170.012 169.301 147.282 168.845C124.552 168.391 122.758 154.471 122.758 154.471H174.631Z" fill="#0D4060"/>
<g opacity="0.7">
<g opacity="0.7">
<path opacity="0.7" d="M102.751 153.062C102.751 155.461 96.7824 157.406 89.4194 157.406C82.0564 157.406 76.0864 155.461 76.0864 153.062C76.0864 150.663 82.0564 148.718 89.4194 148.718C96.7814 148.718 102.751 150.663 102.751 153.062Z" fill="#A2CCED"/>
</g>
</g>
<g opacity="0.7">
<g opacity="0.7">
<path opacity="0.7" d="M216.671 153.062C216.671 155.461 210.702 157.406 203.339 157.406C195.975 157.406 190.006 155.461 190.006 153.062C190.006 150.663 195.975 148.718 203.339 148.718C210.702 148.718 216.671 150.663 216.671 153.062Z" fill="#A2CCED"/>
</g>
</g>
</svg>
