<svg width="51" height="60" viewBox="0 0 51 60" fill="none" xmlns="http://www.w3.org/2000/svg">
<path d="M4.75281 14.7065C3.7856 28.0699 17.2796 48.0218 24.6516 48.5893C32.9155 49.2255 48.2207 31.7624 49.1878 18.3991C50.1549 5.03583 40.4299 1.14171 28.1541 0.196506C15.8784 -0.748352 5.72001 1.34316 4.75281 14.7065Z" fill="#00A1CD"/>
<path d="M29.8671 18.4726C30.0225 16.3251 28.4605 14.4543 26.3783 14.2941C24.296 14.1338 22.4821 15.7446 22.3267 17.8922" fill="white"/>
<path d="M20.1087 17.7214C20.2641 15.5739 18.7021 13.7031 16.6199 13.5428C14.5376 13.3825 12.7236 14.9934 12.5682 17.1409" fill="white"/>
<path d="M29.4204 13.3767C29.4204 13.3767 28.4824 10.9831 25.9564 12.1571" stroke="#0D4060" stroke-miterlimit="10"/>
<path d="M14.2982 12.2125C14.2982 12.2125 15.2759 9.92105 17.6048 11.469" stroke="#0D4060" stroke-miterlimit="10"/>
<path d="M16.1146 20.9771C16.1146 20.9771 16.7741 23.9155 21.0482 24.1558C25.3222 24.3963 25.8542 21.727 25.8542 21.727L16.1146 20.9771Z" fill="#0D4060"/>
<path d="M37.0168 38.3907C37.0168 38.3907 40.389 38.8939 42.2978 37.9012C44.2068 36.9085 47.7705 34.1031 47.7705 34.1031" stroke="#00A1CD" stroke-width="2" stroke-miterlimit="10"/>
<path d="M50.8506 33.9227C50.997 33.8401 51.044 33.6352 50.955 33.4675C50.8658 33.3 50.6731 33.2305 50.5268 33.3132L49.511 33.8871C49.5068 33.7873 49.4908 33.6866 49.4648 33.5866L50.6826 32.8984C50.8291 32.8157 50.8762 32.6108 50.7869 32.4431C50.6979 32.2755 50.5053 32.2061 50.3588 32.2888L49.141 32.977C49.08 32.9085 49.014 32.8472 48.9436 32.7938L49.9903 32.2024C50.1367 32.1197 50.1836 31.9148 50.0945 31.7471C50.0055 31.5794 49.8128 31.51 49.6665 31.5928L47.9224 32.5784C47.8602 32.5964 47.7996 32.6217 47.7404 32.652L48.0125 32.3469C48.1266 32.2189 48.1154 32.0028 47.9875 31.8665C47.8596 31.7303 47.6615 31.7234 47.5475 31.8515L46.0932 33.4825C46.0372 33.5454 46.0118 33.6294 46.0152 33.7148C45.7083 34.0985 45.6536 34.6893 45.9212 35.193C46.2616 35.834 46.9987 36.0997 47.5587 35.7831L48.9407 35.0023C48.9505 34.9967 48.9594 34.9898 48.969 34.9841C48.9742 34.9815 48.9795 34.9802 48.9845 34.9775L50.8506 33.9227Z" fill="#A2CCED"/>
<path d="M24.5014 45.4132L22.9946 56.6101L21.0129 56.6377L19.2126 45.4824" fill="#00A1CD"/>
<path d="M31.2142 44.92L29.7337 56.1551L27.7521 56.1876L25.9263 45.0415" fill="#00A1CD"/>
<path d="M21.0687 59.415L23.0116 59.3879L23.6935 51.4347L20.0303 51.486L21.0687 59.415Z" fill="#56C5D0"/>
<path d="M27.8337 58.857L29.7765 58.8252L30.2747 50.8732L26.9252 50.9281L27.8337 58.857Z" fill="#56C5D0"/>
<path d="M22.9977 59.7527C22.9726 57.8552 21.4608 56.3378 19.6208 56.3633C17.781 56.3889 16.3096 57.9481 16.3344 59.8457" fill="#504B48"/>
<path d="M30.111 59.8906C30.0817 57.9931 28.5664 56.4792 26.7265 56.5095C24.8866 56.5398 23.4189 58.1025 23.4481 60" fill="#504B48"/>
<g opacity="0.7">
<g opacity="0.7">
<path opacity="0.7" d="M29.6304 21.7433C29.5968 22.2079 30.6903 22.6707 32.0727 22.7771C33.4553 22.8836 34.6032 22.5932 34.6368 22.1287C34.6704 21.6641 33.5769 21.2012 32.1944 21.0949C30.812 20.9884 29.664 21.2787 29.6304 21.7433Z" fill="#A2CCED"/>
</g>
</g>
<g opacity="0.7">
<g opacity="0.7">
<path opacity="0.7" d="M6.45278 19.9589C6.41915 20.4236 7.51266 20.8863 8.89505 20.9928C10.2775 21.0992 11.4255 20.8089 11.4592 20.3444C11.4928 19.8799 10.3994 19.417 9.0168 19.3106C7.63429 19.2042 6.4863 19.4944 6.45278 19.9589Z" fill="#A2CCED"/>
</g>
</g>
<path d="M13.5921 36.6518C13.5921 36.6518 9.6366 35.7995 7.81883 34.1148C6.00117 32.4301 2.92175 28.3892 2.92175 28.3892" stroke="#00A1CD" stroke-width="2" stroke-miterlimit="10"/>
<path d="M0.071734 27.1714C-0.0400247 27.0434 -0.0188272 26.8341 0.11879 26.7061C0.256519 26.578 0.460614 26.578 0.572484 26.7061L1.34769 27.5936C1.38365 27.5007 1.43093 27.4109 1.48731 27.3253L0.557724 26.2614C0.446076 26.1335 0.467162 25.9241 0.604891 25.7961C0.742619 25.6683 0.946715 25.6682 1.05847 25.7961L1.98806 26.8599C2.06752 26.8162 2.14943 26.7806 2.23288 26.7541L1.43404 25.8398C1.32228 25.7119 1.34325 25.5026 1.48098 25.3746C1.61871 25.2466 1.82292 25.2466 1.93468 25.3745L3.2659 26.8982C3.31884 26.9363 3.3679 26.9809 3.41417 27.0298L3.25492 26.6491C3.18811 26.4894 3.26779 26.2891 3.43215 26.2041C3.59641 26.1188 3.78552 26.1799 3.85222 26.3395L4.70356 28.374C4.7363 28.4523 4.73342 28.5401 4.70301 28.6196C4.86992 29.0863 4.73253 29.6627 4.31901 30.047C3.7924 30.5363 3.01187 30.5365 2.58436 30.0473L1.52948 28.84C1.52193 28.8314 1.51572 28.822 1.50862 28.8132C1.50451 28.8092 1.49974 28.806 1.49585 28.8016L0.071734 27.1714Z" fill="#A2CCED"/>
<path d="M14.6849 17.5192C14.6908 16.6519 15.3775 15.9539 16.2183 15.96C17.0591 15.9664 17.7357 16.6743 17.7298 17.5414" fill="#0D4060"/>
<path d="M24.3374 18.2393C24.3525 17.3723 25.0462 16.682 25.8869 16.6975C26.7276 16.713 27.3968 17.4285 27.3819 18.2955" fill="#0D4060"/>
</svg>
