<svg width="32" height="32" viewBox="0 0 32 32" fill="none" xmlns="http://www.w3.org/2000/svg">
<path d="M15.5699 31.22C23.7217 31.22 30.3299 24.6117 30.3299 16.46C30.3299 8.3083 23.7217 1.70001 15.5699 1.70001C7.41822 1.70001 0.809937 8.3083 0.809937 16.46C0.809937 24.6117 7.41822 31.22 15.5699 31.22Z" stroke="#0B4060" stroke-width="1.5" stroke-miterlimit="10"/>
<path d="M8.53992 18.91C9.54992 21.81 12.3199 23.9 15.5699 23.9C18.7999 23.9 21.5399 21.85 22.5699 18.98L8.53992 18.91Z" stroke="#0B4060" stroke-width="1.5" stroke-miterlimit="10"/>
<path d="M7.75 14.62C7.75 12.87 9.17 11.45 10.92 11.45C12.67 11.45 14.09 12.87 14.09 14.62" stroke="#0B4060" stroke-width="1.5" stroke-miterlimit="10"/>
<path d="M17.0399 14.62C17.0399 12.87 18.4599 11.45 20.2099 11.45C21.9599 11.45 23.3799 12.87 23.3799 14.62" stroke="#0B4060" stroke-width="1.5" stroke-miterlimit="10"/>
</svg>
