<svg width="107" height="94" viewBox="0 0 107 94" fill="none" xmlns="http://www.w3.org/2000/svg">
<path d="M56.0599 44.8C56.0599 44.8 59.3699 45.08 61.2599 44.3C66.0799 42.31 66.9799 36.26 66.9799 36.26C66.9799 36.26 67.0499 35.98 66.9799 36.26" stroke="#108AB2" stroke-width="1.405" stroke-miterlimit="10"/>
<path d="M50.9799 47.07C50.7399 47.08 50.53 46.87 50.52 46.6C50.51 46.33 50.7 46.11 50.94 46.1L52.5999 46.03C52.5299 45.91 52.48 45.78 52.44 45.64L50.45 45.73C50.21 45.74 49.9999 45.53 49.9899 45.26C49.9799 44.99 50.17 44.77 50.4 44.76L52.39 44.67C52.41 44.54 52.45 44.42 52.5 44.3L50.7899 44.37C50.5499 44.38 50.34 44.17 50.33 43.9C50.32 43.63 50.51 43.41 50.75 43.4L53.6099 43.28C53.6999 43.26 53.79 43.24 53.89 43.23L53.33 43.07C53.1 43 52.95 42.74 53.01 42.48C53.07 42.22 53.3099 42.07 53.5399 42.13L56.51 42.99C56.62 43.02 56.72 43.1 56.77 43.21C57.42 43.44 57.92 44.1 57.95 44.9C57.99 45.92 57.2799 46.78 56.3599 46.82L54.0999 46.92C54.0799 46.92 54.0699 46.92 54.0499 46.92C54.0399 46.92 54.03 46.92 54.03 46.92L50.9799 47.07Z" fill="#A1CBEC"/>
<path d="M82.53 0.579987C71.57 0.579987 62.6899 3.29001 62.6899 14.85C62.6899 17.78 63.0799 20.74 63.4899 23.64C63.9499 26.86 64.5099 30.07 65.3599 33.21C65.7299 34.59 66.17 35.8 66.03 37.25C65.91 38.52 65.5499 39.81 64.9799 40.96C63.4499 44.05 63.0399 47.23 64.1799 50.53C64.9299 52.72 66.75 54.46 68.78 55.56C73 57.83 78.0299 57.71 82.6799 57.71C87.7899 57.71 93.71 57.32 97.9 54.04C99.63 52.69 100.88 50.86 101.58 48.78C101.99 47.55 102.13 46.32 102.29 45.05C102.51 43.29 102.02 41.77 101.36 40.17C100.36 37.77 99.2299 34.54 99.8799 31.91C101.41 25.79 102.36 17.71 102.36 14.61C102.37 3.05999 93.48 0.579987 82.53 0.579987Z" fill="#00A0CC"/>
<path d="M86.3199 57.41L68.7899 64.82L67.8699 63.24L76.9 55.47" fill="#00A0CC"/>
<path d="M65.8099 48.81L54.5999 53.87L55.14 55.62L67.21 53.49" fill="#00A0CC"/>
<path d="M82.8599 21.09C82.8599 21.09 82.2799 23.95 79.4099 23.87C76.5499 23.78 76.3199 21.09 76.3199 21.09H82.8599Z" fill="#0D3F60"/>
<path d="M73.3599 18.11C73.3599 16.53 74.6399 15.24 76.2299 15.24C77.8099 15.24 79.0999 16.52 79.0999 18.11" fill="white"/>
<path d="M80.78 18.11C80.78 16.53 82.06 15.24 83.65 15.24C85.23 15.24 86.52 16.52 86.52 18.11" fill="white"/>
<path d="M73.9699 14.4C73.9699 14.4 74.8099 12.7 76.6599 13.7" stroke="#0D3F60" stroke-width="0.8167" stroke-miterlimit="10"/>
<path d="M85.4799 14.4C85.4799 14.4 84.87 12.66 83.02 13.67" stroke="#0D3F60" stroke-width="0.8167" stroke-miterlimit="10"/>
<path d="M74.2 18.11C74.2 17.42 74.7599 16.87 75.4399 16.87C76.1199 16.87 76.6799 17.43 76.6799 18.11" fill="#0D3F60"/>
<path d="M81.6199 18.11C81.6199 17.42 82.1799 16.87 82.8599 16.87C83.5499 16.87 84.0999 17.43 84.0999 18.11" fill="#0D3F60"/>
<path d="M65.33 64.7L66.2299 66.25L75.1199 62.19L72.9 58.82L65.33 64.7Z" fill="#56C4CF"/>
<path d="M52.3799 56.46L51.8499 54.75L60.8799 50.97L61.9699 54.49L52.3799 56.46Z" fill="#56C4CF"/>
<path d="M50.3499 50.52C51.9699 50.02 53.7 50.93 54.2 52.55C54.7 54.17 53.7899 55.9 52.1699 56.4" fill="#4F4A47"/>
<path d="M66.0499 66.49C67.5199 65.64 68.0199 63.75 67.1699 62.28C66.3199 60.81 64.43 60.31 62.96 61.16" fill="#4F4A47"/>
<path d="M74.6899 76.17C74.6899 76.17 75.9699 78.07 77.2399 78.54C78.5099 79.01 81.28 79.43 81.28 79.43" stroke="#00A0CC" stroke-width="1.0139" stroke-miterlimit="10"/>
<path d="M91.2 66.16C83.75 66.02 79.69 74.83 79.57 81.44C79.45 88.05 84.5 89.69 90.77 89.81C97.04 89.93 102.14 88.6 102.26 81.99C102.38 75.38 97.9 66.29 91.2 66.16Z" fill="#00A0CC"/>
<path d="M86.7599 87.71L80.9999 92.49L81.4899 93.29L92.1199 89.39" fill="#00A0CC"/>
<path d="M81.6799 84.94L74.6199 86.68L74.7399 87.62L83.4899 87.4" fill="#00A0CC"/>
<path d="M71.5799 74.43C71.4899 74.33 71.5199 74.17 71.6499 74.07C71.7799 73.97 71.9599 73.97 72.0399 74.07L72.6599 74.76C72.6999 74.69 72.7399 74.62 72.7999 74.55L72.0599 73.72C71.9699 73.62 71.9999 73.46 72.1299 73.36C72.2599 73.26 72.4399 73.26 72.5199 73.36L73.2599 74.19C73.3299 74.16 73.4099 74.13 73.4799 74.11L72.8399 73.4C72.7499 73.3 72.7799 73.14 72.9099 73.04C73.0399 72.94 73.2199 72.94 73.2999 73.04L74.3599 74.23C74.3999 74.26 74.4399 74.29 74.4799 74.33L74.3699 74.03C74.3199 73.91 74.3999 73.75 74.5499 73.68C74.6999 73.61 74.8599 73.66 74.9099 73.79L75.5199 75.38C75.5399 75.44 75.5399 75.51 75.4999 75.57C75.6199 75.93 75.4599 76.38 75.0799 76.68C74.5899 77.06 73.9099 77.06 73.5699 76.68L72.7299 75.74C72.7199 75.73 72.7199 75.73 72.7099 75.72L72.6999 75.71L71.5799 74.43Z" fill="#A1CBEC"/>
<path d="M103.3 76.83C103.3 76.83 101.17 79.32 99.9699 79.93C98.7599 80.54 96.0599 80.85 96.0599 80.85C96.0599 80.85 95.9099 80.91 96.3199 80.78" stroke="#108AB2" stroke-width="0.859" stroke-miterlimit="10"/>
<path d="M65.0999 72.95H60.6199V77.43H65.0999V72.95Z" fill="#5E61AB"/>
<path d="M60.28 72.95H55.7999V77.43H60.28V72.95Z" fill="#CF2053"/>
<path d="M62.8599 68.17H58.3799V72.65H62.8599V68.17Z" fill="#56C4CF"/>
<path d="M51.3599 70.39H46.8799V74.87H51.3599V70.39Z" fill="#56C4CF"/>
<path d="M57.96 68.14H53.4799V72.62H57.96V68.14Z" fill="#CF2053"/>
<path d="M69.58 79.24H65.0999V83.72H69.58V79.24Z" fill="#56C4CF"/>
<path d="M59.7399 81.25H55.2599V85.73H59.7399V81.25Z" fill="#CF2053"/>
<path d="M55.46 72.95H50.9799V77.43H55.46V72.95Z" fill="#5E61AB"/>
<path d="M59.7399 63.34H55.2599V67.82H59.7399V63.34Z" fill="#5E61AB"/>
<path d="M102.75 75.94C102.68 76.34 102.92 76.79 103.37 77.05C103.95 77.38 104.66 77.27 104.96 76.82L105.7 75.7C105.71 75.69 105.71 75.68 105.71 75.68L105.72 75.67L106.72 74.15C106.8 74.03 106.74 73.86 106.59 73.78C106.44 73.69 106.25 73.72 106.17 73.84L105.62 74.67C105.57 74.6 105.51 74.53 105.44 74.47L106.09 73.48C106.17 73.36 106.11 73.19 105.96 73.11C105.81 73.02 105.62 73.05 105.54 73.17L104.89 74.16C104.81 74.14 104.73 74.12 104.65 74.11L105.21 73.26C105.29 73.14 105.23 72.97 105.08 72.89C104.93 72.8 104.74 72.83 104.66 72.95L103.72 74.37C103.68 74.41 103.64 74.45 103.61 74.5L103.69 74.17C103.72 74.03 103.61 73.88 103.44 73.83C103.27 73.78 103.11 73.86 103.08 74" fill="#A1CBEC"/>
<path d="M84.7399 77.31C84.7399 77.31 85.1199 78.52 86.9699 78.48C88.8199 78.44 88.9699 77.31 88.9699 77.31H84.7399Z" fill="#0D3F60"/>
<path d="M91.5599 75.38C91.5599 74.36 90.73 73.53 89.71 73.53C88.69 73.53 87.8599 74.36 87.8599 75.38" fill="white"/>
<path d="M86.7599 75.38C86.7599 74.36 85.9299 73.53 84.9099 73.53C83.8899 73.53 83.0599 74.36 83.0599 75.38" fill="white"/>
<path d="M91.1599 72.56C91.1599 72.56 90.6199 71.46 89.4199 72.11" stroke="#0D3F60" stroke-width="0.528" stroke-miterlimit="10"/>
<path d="M83.7199 72.56C83.7199 72.56 84.1199 71.44 85.3099 72.09" stroke="#0D3F60" stroke-width="0.528" stroke-miterlimit="10"/>
<path d="M84.21 89.82L85.5699 91.79L81.4899 93.29L80.9999 91.82L84.21 89.82Z" fill="#CF2053"/>
<path d="M79.7499 89.99C80.5599 89.51 81.5499 89.86 81.9699 90.78C82.3899 91.69 82.08 92.82 81.28 93.29" fill="#4F4A47"/>
<path d="M78.2199 85.61L78.5599 87.58L74.8199 87.72L74.9999 86.59L78.2199 85.61Z" fill="#CF2053"/>
<path d="M74.1599 83.98C75.0599 83.81 75.8999 84.5 76.0499 85.52C76.1999 86.54 75.5899 87.49 74.6899 87.66" fill="#4F4A47"/>
<path d="M37.2999 54.21C37.9599 63.04 28.7599 76.23 23.7399 76.6C18.1099 77.02 7.66994 65.48 7.00994 56.65C6.34994 47.82 12.9799 45.24 21.3499 44.62C29.7199 43.99 36.6399 45.38 37.2999 54.21Z" fill="#00A0CC"/>
<path d="M20.15 56.25C20.16 54.83 21.3199 53.68 22.7399 53.69C24.1599 53.7 25.3099 54.86 25.2999 56.28" fill="white"/>
<path d="M26.8199 56.28C26.8299 54.86 27.9899 53.71 29.4099 53.72C30.8299 53.73 31.9799 54.89 31.9699 56.31" fill="white"/>
<path d="M20.7199 52.91C20.7199 52.91 21.48 51.38 23.14 52.29" stroke="#0D3F60" stroke-width="0.528" stroke-miterlimit="10"/>
<path d="M31.0599 52.96C31.0599 52.96 30.5199 51.4 28.8499 52.29" stroke="#0D3F60" stroke-width="0.528" stroke-miterlimit="10"/>
<path d="M29.3599 58.64C29.3599 58.64 28.76 60.54 25.84 60.47C22.92 60.4 22.7 58.61 22.7 58.61L29.3599 58.64Z" fill="#0D3F60"/>
<path d="M6.28992 64.92C6.28992 64.92 8.71996 66.77 10.02 67.43C11.32 68.09 15.3099 67.75 15.3099 67.75C15.3099 67.75 15.4199 67.74 15.1899 67.76" stroke="#108AB2" stroke-width="0.859" stroke-miterlimit="10"/>
<path d="M27.7599 74.41L38.5599 73.58L38.6199 72.23L31.28 70.8" fill="#00A0CC"/>
<path d="M22.7499 76.53L32.34 79.52L32.9299 78.3L26.78 74.05" fill="#00A0CC"/>
<path d="M40.1099 72.31L40.0599 73.64L34.7899 73.96L34.89 71.47L40.1099 72.31Z" fill="#5E61AB"/>
<path d="M34.4999 79.1L33.9199 80.29L29.02 78.37L30.02 76.32L34.4999 79.1Z" fill="#5E61AB"/>
<path d="M40.64 73.63C39.39 73.58 38.41 72.52 38.46 71.27C38.51 70.02 39.5699 69.04 40.8199 69.09" fill="#4F4A47"/>
<path d="M34.4599 80.79C33.3299 80.24 32.8599 78.88 33.4099 77.75C33.9599 76.62 35.3199 76.15 36.4499 76.7" fill="#4F4A47"/>
<path d="M32.3699 66.46C32.3699 66.46 34.6499 66.02 35.6599 64.97C36.6699 63.92 40.0399 61.37 40.0399 61.37" stroke="#00A0CC" stroke-width="1.0139" stroke-miterlimit="10"/>
<path d="M44.0699 60.8C44.2199 60.72 44.2499 60.51 44.1399 60.33C44.0299 60.15 43.8199 60.08 43.6699 60.16L42.6299 60.72C42.6199 60.62 42.5899 60.51 42.5499 60.41L43.7999 59.74C43.9499 59.66 43.9799 59.45 43.8699 59.27C43.7599 59.1 43.55 59.02 43.4 59.1L42.15 59.77C42.08 59.7 41.9999 59.63 41.9199 59.58L42.9899 59C43.1399 58.92 43.1699 58.71 43.0599 58.53C42.9499 58.36 42.74 58.28 42.59 58.36L40.7999 59.32C40.7399 59.34 40.6699 59.36 40.6099 59.39L40.8799 59.08C40.9899 58.95 40.9599 58.73 40.8099 58.59C40.6599 58.45 40.45 58.43 40.34 58.56L38.9199 60.2C38.8699 60.26 38.8499 60.35 38.8599 60.44C38.5599 60.83 38.5599 61.43 38.8899 61.96C39.3099 62.63 40.1299 62.92 40.6999 62.61L42.1199 61.85C42.1299 61.84 42.14 61.84 42.15 61.83C42.16 61.83 42.1599 61.83 42.1699 61.82L44.0699 60.8Z" fill="#A1CBEC"/>
<path d="M7.08998 63.95C7.34998 64.4 7.25998 65.04 6.83998 65.55C6.29998 66.19 5.38997 66.38 4.82997 65.97L3.44997 64.95C3.43997 64.94 3.42994 64.93 3.41994 64.93C3.40994 64.93 3.40998 64.92 3.39998 64.92L1.52999 63.55C1.37999 63.44 1.37998 63.22 1.51998 63.05C1.65998 62.88 1.89994 62.83 2.04994 62.94L3.06996 63.69C3.09996 63.58 3.13997 63.48 3.19997 63.37L1.97994 62.47C1.82994 62.36 1.82993 62.14 1.96993 61.97C2.10993 61.8 2.34996 61.75 2.49996 61.86L3.71993 62.76C3.80993 62.69 3.89995 62.64 3.98995 62.59L2.93996 61.82C2.78996 61.71 2.78995 61.49 2.92995 61.32C3.06995 61.15 3.30998 61.1 3.45998 61.21L5.20998 62.49C5.27998 62.52 5.33998 62.55 5.39998 62.59L5.15993 62.23C5.05993 62.08 5.12995 61.85 5.30995 61.72C5.48995 61.59 5.71995 61.61 5.80995 61.76" fill="#A1CBEC"/>
<path d="M53.2199 80.08H48.7399V84.56H53.2199V80.08Z" fill="#5E61AB"/>
<path d="M23.3499 54.96C22.8599 54.68 22.6299 54.12 22.7299 53.6C23.5699 53.64 24.36 54.06 24.86 54.78C24.47 55.16 23.8499 55.25 23.3499 54.96Z" fill="#0D3F60"/>
<path d="M30.0499 55.04C29.5499 54.77 29.3099 54.21 29.4099 53.69C30.2499 53.72 31.0499 54.12 31.5599 54.83C31.1699 55.22 30.5599 55.32 30.0499 55.04Z" fill="#0D3F60"/>
<path d="M89.2499 74.58C89.6299 74.36 89.8299 73.95 89.7899 73.54C89.7499 73.54 89.7199 73.53 89.6799 73.53C88.9799 73.53 88.3799 73.92 88.0599 74.5C88.3899 74.75 88.8599 74.8 89.2499 74.58Z" fill="#0D3F60"/>
<path d="M84.46 74.58C84.84 74.36 85.0399 73.95 84.9999 73.54C84.9599 73.54 84.93 73.53 84.89 73.53C84.19 73.53 83.59 73.92 83.27 74.5C83.6 74.75 84.07 74.8 84.46 74.58Z" fill="#0D3F60"/>
<path d="M88.8099 46.88C88.8099 46.88 91.8899 45.64 93.2299 44.09C96.6399 40.14 94.7199 34.34 94.7199 34.34C94.7199 34.34 94.6499 34.06 94.7199 34.34" stroke="#108AB2" stroke-width="1.405" stroke-miterlimit="10"/>
<path d="M85.2999 51.19C85.0899 51.31 84.8099 51.21 84.6799 50.98C84.5499 50.75 84.6099 50.46 84.8199 50.34L86.27 49.53C86.15 49.45 86.0499 49.36 85.9499 49.25L84.21 50.23C84 50.35 83.72 50.25 83.59 50.02C83.46 49.79 83.5199 49.5 83.7299 49.38L85.4699 48.4C85.4399 48.27 85.41 48.15 85.4 48.02L83.9 48.86C83.69 48.98 83.41 48.88 83.28 48.65C83.15 48.42 83.2099 48.13 83.4199 48.01L85.9099 46.61C85.9799 46.55 86.06 46.49 86.14 46.44L85.5699 46.55C85.3299 46.59 85.08 46.42 85.02 46.16C84.96 45.9 85.1 45.66 85.34 45.61L88.3799 45.04C88.4999 45.02 88.62 45.05 88.71 45.12C89.4 45.03 90.14 45.4 90.53 46.1C91.03 46.99 90.7799 48.08 89.9799 48.53L87.9999 49.64C87.9899 49.65 87.97 49.65 87.96 49.66C87.95 49.66 87.9499 49.67 87.9399 49.67L85.2999 51.19Z" fill="#A1CBEC"/>
<path d="M4.84991 59.44H0.369934V63.92H4.84991V59.44Z" fill="#CF2053"/>
</svg>
