<?xml version="1.0" encoding="utf-8"?>
<!-- Generator: Adobe Illustrator 16.0.0, SVG Export Plug-In . SVG Version: 6.00 Build 0)  -->
<!DOCTYPE svg PUBLIC "-//W3C//DTD SVG 1.1//EN" "http://www.w3.org/Graphics/SVG/1.1/DTD/svg11.dtd">
<svg version="1.1" id="Layer_1" xmlns="http://www.w3.org/2000/svg" xmlns:xlink="http://www.w3.org/1999/xlink" x="0px" y="0px"
	 width="1448px" height="1044px" viewBox="0 0 1448 1044" enable-background="new 0 0 1448 1044" xml:space="preserve">
<g>
	<defs>
		<rect id="SVGID_1_" x="-3608" y="-3452.399" width="12912.2" height="8488.399"/>
	</defs>
	<clipPath id="SVGID_2_">
		<use xlink:href="#SVGID_1_"  overflow="visible"/>
	</clipPath>
	<g clip-path="url(#SVGID_2_)">
		<defs>
			<rect id="SVGID_3_" x="-3608" y="-3452.403" width="12912.166" height="8488.403"/>
		</defs>
		<clipPath id="SVGID_4_">
			<use xlink:href="#SVGID_3_"  overflow="visible"/>
		</clipPath>
		<path clip-path="url(#SVGID_4_)" fill="none" stroke="#8E8E8E" stroke-width="14" stroke-miterlimit="10" d="M1305.137,603.15
			c-13.519,19.434-3.062,57.245-0.12,78.274c9.61,68.73,36.499,257.56,36.499,257.56"/>
		<path clip-path="url(#SVGID_4_)" fill="none" stroke="#5C5C5C" stroke-width="16" stroke-miterlimit="10" d="M1368.077,609.455
			c-15.116-22.549-38.681-29.458-61.028-6.12c-16.372,17.099-7.586,41.736-4.646,62.766"/>
		<polygon clip-path="url(#SVGID_4_)" points="1330.215,922.461 1348.295,918.133 1356.408,950.645 1335.253,955.046 		"/>
		<polyline clip-path="url(#SVGID_4_)" fill="#FBAD18" points="321.299,929.834 348.086,929.834 348.088,814.441 563.813,814.441 
			563.81,929.834 591.176,929.834 591.177,803.664 590.739,803.664 590.739,779.059 321.3,779.059 321.3,804.007 		"/>
		<path clip-path="url(#SVGID_4_)" fill="#FFCB05" d="M592.998,786.887H317.3c-10.421,0-18.948-8.526-18.948-18.947v-24.824
			c0-10.421,8.527-18.948,18.948-18.948h275.698c10.42,0,18.947,8.527,18.947,18.948v24.824
			C611.945,778.361,603.418,786.887,592.998,786.887"/>
		<polyline clip-path="url(#SVGID_4_)" fill="#FBAD18" points="932.131,932.783 958.918,932.783 958.921,817.391 1174.645,817.391 
			1174.644,932.783 1202.009,932.783 1202.01,806.613 1201.572,806.613 1201.572,782.009 932.132,782.009 932.132,806.956 		"/>
		<path clip-path="url(#SVGID_4_)" fill="#FFCB05" d="M1203.831,789.836H928.132c-10.421,0-18.947-8.526-18.947-18.947v-24.824
			c0-10.421,8.525-18.948,18.947-18.948h275.699c10.421,0,18.946,8.527,18.946,18.948v24.824
			C1222.777,781.311,1214.252,789.836,1203.831,789.836"/>
		<polygon clip-path="url(#SVGID_4_)" fill="#00A1CD" points="944.122,683.983 971.34,644.515 1020.478,698.608 988.115,853.787 
			959.494,852.236 		"/>
	</g>
	<g clip-path="url(#SVGID_2_)">
		<defs>
			<rect id="SVGID_55_" x="-3608" y="-3452.403" width="12912.166" height="8488.403"/>
		</defs>
		<clipPath id="SVGID_6_">
			<use xlink:href="#SVGID_55_"  overflow="visible"/>
		</clipPath>
	</g>
	<g clip-path="url(#SVGID_2_)">
		<defs>
			<rect id="SVGID_73_" x="-3608" y="-3452.403" width="12912.166" height="8488.403"/>
		</defs>
		<clipPath id="SVGID_8_">
			<use xlink:href="#SVGID_73_"  overflow="visible"/>
		</clipPath>
	</g>
	<g clip-path="url(#SVGID_2_)">
		<defs>
			<rect id="SVGID_83_" x="-3608" y="-3452.403" width="12912.166" height="8488.403"/>
		</defs>
		<clipPath id="SVGID_10_">
			<use xlink:href="#SVGID_83_"  overflow="visible"/>
		</clipPath>
	</g>
	<g clip-path="url(#SVGID_2_)">
		<defs>
			<rect id="SVGID_89_" x="-3608" y="-3452.403" width="12912.166" height="8488.403"/>
		</defs>
		<clipPath id="SVGID_12_">
			<use xlink:href="#SVGID_89_"  overflow="visible"/>
		</clipPath>
	</g>
	<g clip-path="url(#SVGID_2_)">
		<defs>
			<rect id="SVGID_95_" x="-3608" y="-3452.403" width="12912.166" height="8488.403"/>
		</defs>
		<clipPath id="SVGID_14_">
			<use xlink:href="#SVGID_95_"  overflow="visible"/>
		</clipPath>
	</g>
	<g clip-path="url(#SVGID_2_)">
		<defs>
			<rect id="SVGID_97_" x="-3608" y="-3452.403" width="12912.166" height="8488.403"/>
		</defs>
		<clipPath id="SVGID_16_">
			<use xlink:href="#SVGID_97_"  overflow="visible"/>
		</clipPath>
	</g>
	<g clip-path="url(#SVGID_2_)">
		<defs>
			<rect id="SVGID_123_" x="-3608" y="-3452.403" width="12912.166" height="8488.403"/>
		</defs>
		<clipPath id="SVGID_18_">
			<use xlink:href="#SVGID_123_"  overflow="visible"/>
		</clipPath>
	</g>
	<g clip-path="url(#SVGID_2_)">
		<defs>
			<rect id="SVGID_261_" x="-3608" y="-3452.403" width="12912.166" height="8488.403"/>
		</defs>
		<clipPath id="SVGID_20_">
			<use xlink:href="#SVGID_261_"  overflow="visible"/>
		</clipPath>
	</g>
	<g clip-path="url(#SVGID_2_)">
		<defs>
			<rect id="SVGID_263_" x="-3608" y="-3452.403" width="12912.166" height="8488.403"/>
		</defs>
		<clipPath id="SVGID_22_">
			<use xlink:href="#SVGID_263_"  overflow="visible"/>
		</clipPath>
	</g>
	<g clip-path="url(#SVGID_2_)">
		<defs>
			<rect id="SVGID_291_" x="-3608" y="-3452.403" width="12912.166" height="8488.403"/>
		</defs>
		<clipPath id="SVGID_24_">
			<use xlink:href="#SVGID_291_"  overflow="visible"/>
		</clipPath>
		<path clip-path="url(#SVGID_24_)" fill="none" stroke="#00A1CD" stroke-width="20" stroke-miterlimit="10" d="M291.235,510.31
			c0,0-27.835,27.347-50.048,30.251c-22.215,2.904-68.495-1.05-68.495-1.05"/>
		<path clip-path="url(#SVGID_24_)" fill="#00A1CD" d="M467.661,77.658c-124.649,0-225.697,32.048-225.697,168.959
			c0,34.724,4.433,69.733,9.101,104.047c5.183,38.097,11.629,76.08,21.233,113.264c4.222,16.345,9.219,30.687,7.602,47.853
			c-1.418,15.044-5.462,30.341-11.911,43.905c-17.394,36.586-22.017,74.25-9.139,113.321c8.546,25.925,29.235,46.59,52.389,59.559
			c48.002,26.887,105.272,25.506,158.196,25.506c58.128,0,125.521-4.62,173.197-43.454c19.661-16.016,33.911-37.712,41.821-62.306
			c4.677-14.541,6.217-29.075,8.038-44.139c2.52-20.838-3.027-38.817-10.568-57.723c-11.321-28.382-24.272-66.676-16.798-97.783
			c17.357-72.51,28.234-168.066,28.234-204.821C693.359,106.936,592.31,77.658,467.661,77.658"/>
		<path clip-path="url(#SVGID_24_)" fill="#A2CCED" d="M93.101,543.21c-2.627-0.699-3.848-3.974-2.713-7.277
			c1.135-3.305,4.211-5.436,6.838-4.737l18.216,4.85c-0.141-1.729-0.087-3.531,0.132-5.368l-21.84-5.815
			c-2.626-0.699-3.847-3.974-2.713-7.278c1.135-3.304,4.212-5.436,6.838-4.735l21.84,5.813c0.874-1.47,1.848-2.843,2.912-4.098
			l-18.77-4.998c-2.626-0.699-3.847-3.974-2.713-7.279c1.135-3.304,4.212-5.435,6.838-4.736l31.276,8.327
			c1.078,0.003,2.147,0.142,3.203,0.37l-5.201-3.89c-2.182-1.631-2.454-5.385-0.603-8.342c1.85-2.957,5.149-4.042,7.331-2.41
			l27.8,20.789c1.069,0.799,1.673,2.112,1.799,3.588c5.95,5.067,8.119,14.905,4.711,24.832
			c-4.338,12.635-16.104,20.787-26.147,18.113l-24.785-6.599c-0.177-0.047-0.339-0.121-0.513-0.173
			c-0.09-0.018-0.184-0.013-0.273-0.037L93.101,543.21z"/>
		<polyline clip-path="url(#SVGID_24_)" fill="#00A1CD" points="500.919,726.77 524.835,893.184 553.498,893.184 577.413,726.699 		
			"/>
		<polyline clip-path="url(#SVGID_24_)" fill="#00A1CD" points="387.966,726.255 411.881,893.184 440.544,893.184 464.459,726.771 
					"/>
		<polygon clip-path="url(#SVGID_24_)" fill="#5652A3" points="553.218,934.549 525.117,934.549 510.339,799.826 568.139,799.826 		
			"/>
		<polygon clip-path="url(#SVGID_24_)" fill="#5652A3" points="439.961,933.629 411.859,933.629 396.938,798.904 454.738,798.904 		
			"/>
		<polyline clip-path="url(#SVGID_24_)" fill="#00A1CD" points="1027.735,696.395 1051.65,853.098 1080.313,853.098 
			1104.229,696.328 		"/>
		<polygon clip-path="url(#SVGID_24_)" fill="#ED1651" points="1078.033,892.051 1051.932,892.051 1041.153,791.951 
			1090.954,791.951 		"/>
		<polygon clip-path="url(#SVGID_24_)" fill="#ED1651" points="985.471,891.842 957.411,890.642 952.378,790.051 1002.093,792.52 		
			"/>
		<path clip-path="url(#SVGID_24_)" fill="#FFFFFF" d="M431.444,302.557c0-19.15,15.523-34.676,34.675-34.676
			c19.151,0,34.676,15.525,34.676,34.676"/>
		<path clip-path="url(#SVGID_24_)" fill="#FFFFFF" d="M521.196,302.557c0-19.15,15.525-34.676,34.676-34.676
			s34.675,15.525,34.675,34.676"/>
		<path clip-path="url(#SVGID_24_)" fill="none" stroke="#0D4060" stroke-width="5" stroke-miterlimit="10" d="M438.903,257.668
			c0,0,10.165-20.587,32.49-8.45"/>
		<path clip-path="url(#SVGID_24_)" fill="none" stroke="#0D4060" stroke-width="5" stroke-miterlimit="10" d="M577.987,257.668
			c0,0-7.425-20.989-29.75-8.852"/>
		<path clip-path="url(#SVGID_24_)" fill="#0D4060" d="M461.12,302.557c0-8.283,6.716-15,15-15c8.284,0,14.999,6.717,14.999,15"/>
		<path clip-path="url(#SVGID_24_)" fill="#0D4060" d="M550.872,302.557c0-8.283,6.716-15,15-15c8.284,0,14.998,6.717,14.998,15"/>
		<path clip-path="url(#SVGID_24_)" fill="#0D4060" d="M555.572,334.157c0,0-7.979,25.608-47.229,24.822
			c-39.25-0.786-42.35-24.822-42.35-24.822H555.572z"/>
		<g opacity="0.7" clip-path="url(#SVGID_24_)">
			<g>
				<defs>
					<rect id="SVGID_309_" x="385.4" y="324.22" width="46.04" height="15.01"/>
				</defs>
				<clipPath id="SVGID_26_">
					<use xlink:href="#SVGID_309_"  overflow="visible"/>
				</clipPath>
				<path clip-path="url(#SVGID_26_)" fill="#A2CCED" d="M431.444,331.724c0,4.143-10.309,7.501-23.023,7.501
					s-23.023-3.358-23.023-7.501s10.308-7.501,23.023-7.501S431.444,327.581,431.444,331.724"/>
			</g>
		</g>
		<g opacity="0.7" clip-path="url(#SVGID_24_)">
			<g>
				<defs>
					<rect id="SVGID_311_" x="582.12" y="324.22" width="46.05" height="15.01"/>
				</defs>
				<clipPath id="SVGID_28_">
					<use xlink:href="#SVGID_311_"  overflow="visible"/>
				</clipPath>
				<path clip-path="url(#SVGID_28_)" fill="#A2CCED" d="M628.168,331.724c0,4.143-10.308,7.501-23.023,7.501
					c-12.715,0-23.022-3.358-23.022-7.501s10.307-7.501,23.022-7.501C617.86,324.223,628.168,327.581,628.168,331.724"/>
			</g>
		</g>
		<path clip-path="url(#SVGID_24_)" fill="#FFFFFF" d="M105.966,565.351H57.961c-7.424,0-13.499-6.074-13.499-13.498V494.75
			c0-10.5,8.592-16.09,19.092-16.09h38.047c9.824,0,17.861,5.039,17.861,14.861v58.332
			C119.463,559.277,113.39,565.351,105.966,565.351"/>
		<path clip-path="url(#SVGID_24_)" fill="#AA4925" d="M112.464,490.174c0,3.076-12.484,5.571-30.353,5.571
			s-30.352-2.495-30.352-5.571c0-3.076,12.483-5.57,30.352-5.57S112.464,487.099,112.464,490.174"/>
		<path clip-path="url(#SVGID_24_)" fill="none" stroke="#FFFFFF" stroke-width="6" stroke-miterlimit="10" d="M118.464,499.506
			c11.598,0,21,9.402,21,21c0,11.598-9.402,21-21,21"/>
		<path clip-path="url(#SVGID_24_)" fill="none" stroke="#0D4060" stroke-miterlimit="10" d="M85.022,465.453
			c-7.928-1.992-13.262-14.216-14.201-22.336c-1.321-11.431,7.078-16.455,13.579-23.931c7.695-8.845,10.565-19.531,7.674-30.985
			c-2.793-11.063-9.774-21.34-21.59-23.74"/>
		<path clip-path="url(#SVGID_24_)" fill="none" stroke="#0D4060" stroke-miterlimit="10" d="M62.168,394.829
			c5.498,8.999,2.164,17.498-3.408,25.374c-3.175,4.489-5.829,10.749-2.582,15.187"/>
		<path clip-path="url(#SVGID_24_)" fill="none" stroke="#0D4060" stroke-miterlimit="10" d="M100.835,449.355
			c0,0-11.333-6.667,0-21.334"/>
		<path clip-path="url(#SVGID_24_)" fill="#00A1CD" d="M1331.589,402.429c-7.354,156.024-149.636,357.885-282.82,363.128
			c-148.609,5.85-254.915-228.94-247.561-384.964C808.562,224.57,928.98,193.642,1075.4,200.542
			C1221.819,207.444,1338.943,246.405,1331.589,402.429"/>
		<path clip-path="url(#SVGID_24_)" fill="#FFFFFF" d="M895.192,386.03c2.27-22.353,22.23-38.636,44.584-36.365
			c22.354,2.27,38.636,22.23,36.366,44.584"/>
		<path clip-path="url(#SVGID_24_)" fill="#FFFFFF" d="M1016.02,402.491c2.27-22.354,22.231-38.636,44.585-36.365
			c22.353,2.269,38.634,22.23,36.364,44.584"/>
		<path clip-path="url(#SVGID_24_)" fill="#0D4060" d="M1026.745,441.136c0,0-9.641,22.038-44.55,17.46
			c-34.911-4.578-35.297-26.31-35.297-26.31L1026.745,441.136z"/>
		<path clip-path="url(#SVGID_24_)" fill="none" stroke="#00A1CD" stroke-width="20" stroke-miterlimit="10" d="M903.721,576.186
			c0,0-75.692,14.409-84.14,38.958c-15.575,45.261,42.048,59.09,42.048,59.09"/>
		<g opacity="0.7" clip-path="url(#SVGID_24_)">
			<g>
				<defs>
					<rect id="SVGID_313_" x="850.99" y="410.03" width="53.78" height="18.35"/>
				</defs>
				<clipPath id="SVGID_30_">
					<use xlink:href="#SVGID_313_"  overflow="visible"/>
				</clipPath>
				<path clip-path="url(#SVGID_30_)" fill="#A2CCED" d="M904.757,421.932c-0.491,4.837-12.922,7.534-27.763,6.027
					c-14.841-1.506-26.476-6.648-25.984-11.484c0.491-4.836,12.921-7.534,27.763-6.027
					C893.613,411.955,905.248,417.096,904.757,421.932"/>
			</g>
		</g>
		<g opacity="0.7" clip-path="url(#SVGID_24_)">
			<g>
				<defs>
					<rect id="SVGID_315_" x="1072.65" y="436.431" width="53.78" height="18.35"/>
				</defs>
				<clipPath id="SVGID_32_">
					<use xlink:href="#SVGID_315_"  overflow="visible"/>
				</clipPath>
				<path clip-path="url(#SVGID_32_)" fill="#A2CCED" d="M1126.417,448.334c-0.491,4.836-12.92,7.535-27.762,6.027
					c-14.842-1.506-26.476-6.647-25.985-11.484c0.49-4.836,12.921-7.534,27.762-6.027
					C1115.273,438.357,1126.907,443.499,1126.417,448.334"/>
			</g>
		</g>
		
			<ellipse transform="matrix(0.9977 0.068 -0.068 0.9977 28.2878 -62.3773)" clip-path="url(#SVGID_24_)" fill="none" stroke="#020203" stroke-width="3" stroke-miterlimit="10" cx="929.896" cy="384.102" rx="51.601" ry="27.3"/>
		
			<ellipse transform="matrix(0.9977 0.068 -0.068 0.9977 29.6743 -71.3444)" clip-path="url(#SVGID_24_)" fill="none" stroke="#020203" stroke-width="3" stroke-miterlimit="10" cx="1062.371" cy="400.028" rx="51.6" ry="27.3"/>
		<path clip-path="url(#SVGID_24_)" fill="none" stroke="#020203" stroke-width="3" stroke-miterlimit="10" d="M979.427,392.601
			c0,0,17.308-19.783,31.463,3.917"/>
		<path clip-path="url(#SVGID_24_)" fill="#FFFFFF" d="M941.629,704.25h48.004c7.424,0,13.498-6.073,13.498-13.498v-57.103
			c0-8.886-15.204-13.09-24.091-13.09h-27.047c-9.824,0-23.862,5.038-23.862,14.861v55.332
			C928.131,698.176,934.205,704.25,941.629,704.25"/>
		<path clip-path="url(#SVGID_24_)" fill="#AA4925" d="M935.131,629.073c0,3.076,12.484,5.571,30.352,5.571
			c17.867,0,30.353-2.495,30.353-5.571c0-3.076-12.485-5.57-30.353-5.57C947.615,623.503,935.131,625.997,935.131,629.073"/>
		<path clip-path="url(#SVGID_24_)" fill="none" stroke="#FFFFFF" stroke-width="6" stroke-miterlimit="10" d="M929.131,638.404
			c-11.598,0-21,9.401-21,21c0,11.598,9.402,21,21,21"/>
		<path clip-path="url(#SVGID_24_)" fill="#A2CCED" d="M930.036,707.607c2.699,0.31,5.033-2.293,5.186-5.783
			c0.152-3.49-1.932-6.599-4.632-6.908l-18.729-2.147c0.764-1.558,1.373-3.254,1.841-5.044l22.453,2.574
			c2.7,0.309,5.034-2.292,5.186-5.783c0.151-3.489-1.933-6.599-4.632-6.908l-22.454-2.574c-0.276-1.688-0.68-3.322-1.212-4.88
			l19.296,2.211c2.701,0.309,5.035-2.293,5.187-5.783c0.152-3.491-1.932-6.6-4.632-6.91l-32.155-3.684
			c-1.005-0.392-2.051-0.653-3.117-0.826l6.263-1.719c2.627-0.721,4.253-4.116,3.611-7.545c-0.641-3.429-3.314-5.644-5.942-4.924
			l-33.475,9.186c-1.288,0.353-2.33,1.355-2.987,2.682c-7.39,2.541-13.006,10.905-13.463,21.392
			c-0.583,13.346,7.388,25.233,17.714,26.417l25.481,2.92c0.182,0.021,0.36,0.013,0.541,0.026c0.091,0.018,0.176,0.056,0.269,0.067
			L930.036,707.607z"/>
		<path clip-path="url(#SVGID_24_)" fill="none" stroke="#00A1CD" stroke-width="20" stroke-miterlimit="10" d="M759.383,552.653
			c0,0-16.626,61.108-86.745,43.533"/>
		<path clip-path="url(#SVGID_24_)" fill="#A2CCED" d="M806.676,492.144c0.89-2.577-0.991-5.393-4.18-6.255
			c-3.19-0.862-6.528,0.542-7.418,3.12l-6.174,17.884c-1.268-1.065-2.699-2.008-4.248-2.831l7.402-21.441
			c0.891-2.579-0.991-5.394-4.18-6.255c-3.19-0.863-6.528,0.541-7.418,3.119l-7.403,21.441c-1.62-0.074-3.22-0.012-4.778,0.189
			l6.361-18.427c0.89-2.578-0.99-5.394-4.18-6.256c-3.189-0.862-6.527,0.541-7.417,3.12l-10.602,30.705
			c-0.586,0.904-1.063,1.872-1.46,2.881l-0.187-6.479c-0.078-2.717-2.848-5.002-6.16-5.075c-3.31-0.075-5.955,2.089-5.877,4.807
			l0.99,34.628c0.038,1.332,0.73,2.556,1.81,3.471c0.692,7.749,7.16,14.954,16.743,17.544c12.196,3.298,24.96-2.07,28.365-11.93
			l8.401-24.334c0.06-0.173,0.092-0.349,0.145-0.523c0.037-0.085,0.092-0.161,0.123-0.249L806.676,492.144z"/>
		<path clip-path="url(#SVGID_24_)" fill="none" stroke="#00A1CD" stroke-width="20" stroke-miterlimit="10" d="M1258.123,548.083
			c0,0,68.275-24.874,91.705-13.69c23.43,11.182-19.143,47.41-19.143,47.41"/>
		<path clip-path="url(#SVGID_24_)" fill="#A2CCED" d="M1318.422,653.088c-1.451,2.298-4.942,2.485-7.757,0.418
			c-2.815-2.07-3.931-5.644-2.479-7.94l10.066-15.94c-1.692-0.38-3.396-0.97-5.084-1.727l-12.068,19.109
			c-1.452,2.297-4.942,2.484-7.757,0.416c-2.815-2.069-3.931-5.643-2.48-7.939l12.068-19.109c-1.142-1.272-2.161-2.612-3.042-4.002
			l-10.372,16.421c-1.451,2.298-4.942,2.486-7.757,0.416c-2.815-2.068-3.93-5.642-2.479-7.939l17.283-27.366
			c0.325-1.027,0.776-2.005,1.31-2.945l-5.265,3.803c-2.209,1.597-5.873,0.733-8.143-1.915c-2.27-2.649-2.32-6.122-0.112-7.717
			l28.139-20.326c1.083-0.782,2.516-0.966,3.963-0.647c6.612-4.166,16.648-3.299,25.106,2.916
			c10.764,7.913,15.031,21.575,9.482,30.362l-13.697,21.685c-0.097,0.155-0.216,0.288-0.318,0.438
			c-0.044,0.082-0.067,0.173-0.116,0.251L1318.422,653.088z"/>
		<path clip-path="url(#SVGID_24_)" fill="#504B48" d="M411.25,933.77c0-24.715,18.867-44.75,42.14-44.75
			c23.273,0,42.139,20.035,42.139,44.75"/>
		<path clip-path="url(#SVGID_24_)" fill="#504B48" d="M525.167,933.77c0-24.715,18.867-44.75,42.14-44.75
			s42.139,20.035,42.139,44.75"/>
		<path clip-path="url(#SVGID_24_)" fill="#504B48" d="M907.359,893.256c0-22.781,17.389-41.249,38.842-41.249
			c21.452,0,38.843,18.468,38.843,41.249"/>
		<path clip-path="url(#SVGID_24_)" fill="#504B48" d="M997.927,893.256c0-22.781,17.39-41.249,38.842-41.249
			s38.843,18.468,38.843,41.249"/>
		<path clip-path="url(#SVGID_24_)" fill="#0D4060" d="M902.914,387.863c1-8.224,8.476-14.08,16.7-13.08
			c8.223,1,14.079,8.477,13.08,16.699"/>
		<path clip-path="url(#SVGID_24_)" fill="#0D4060" d="M1025.206,404.153c1-8.224,8.476-14.078,16.7-13.08
			c8.223,1,14.079,8.476,13.08,16.699"/>
		<path clip-path="url(#SVGID_24_)" fill="none" stroke="#0D4060" stroke-width="5" stroke-miterlimit="10" d="M904.43,339.214
			c0,0,11.938-20.721,34.394-8.828"/>
		<path clip-path="url(#SVGID_24_)" fill="none" stroke="#0D4060" stroke-width="5" stroke-miterlimit="10" d="M1094.698,355.128
			c0,0-0.158-14.389-29.868-10.524"/>
	</g>
	<g clip-path="url(#SVGID_2_)">
		<defs>
			<rect id="SVGID_357_" x="-3608" y="-3452.403" width="12912.166" height="8488.403"/>
		</defs>
		<clipPath id="SVGID_34_">
			<use xlink:href="#SVGID_357_"  overflow="visible"/>
		</clipPath>
	</g>
	<g clip-path="url(#SVGID_2_)">
		<defs>
			<rect id="SVGID_359_" x="-3608" y="-3452.403" width="12912.166" height="8488.403"/>
		</defs>
		<clipPath id="SVGID_36_">
			<use xlink:href="#SVGID_359_"  overflow="visible"/>
		</clipPath>
	</g>
	<g clip-path="url(#SVGID_2_)">
		<defs>
			<rect id="SVGID_377_" x="-3608" y="-3452.403" width="12912.166" height="8488.403"/>
		</defs>
		<clipPath id="SVGID_38_">
			<use xlink:href="#SVGID_377_"  overflow="visible"/>
		</clipPath>
	</g>
	<g clip-path="url(#SVGID_2_)">
		<defs>
			<rect id="SVGID_379_" x="-3608" y="-3452.403" width="12912.166" height="8488.403"/>
		</defs>
		<clipPath id="SVGID_40_">
			<use xlink:href="#SVGID_379_"  overflow="visible"/>
		</clipPath>
	</g>
	<g clip-path="url(#SVGID_2_)">
		<defs>
			<rect id="SVGID_381_" x="-3608" y="-3452.403" width="12912.166" height="8488.403"/>
		</defs>
		<clipPath id="SVGID_42_">
			<use xlink:href="#SVGID_381_"  overflow="visible"/>
		</clipPath>
	</g>
	<g clip-path="url(#SVGID_2_)">
		<defs>
			<rect id="SVGID_383_" x="-3608" y="-3452.403" width="12912.166" height="8488.403"/>
		</defs>
		<clipPath id="SVGID_44_">
			<use xlink:href="#SVGID_383_"  overflow="visible"/>
		</clipPath>
	</g>
	<g clip-path="url(#SVGID_2_)">
		<defs>
			<rect id="SVGID_393_" x="-3608" y="-3452.403" width="12912.166" height="8488.403"/>
		</defs>
		<clipPath id="SVGID_46_">
			<use xlink:href="#SVGID_393_"  overflow="visible"/>
		</clipPath>
	</g>
	<g clip-path="url(#SVGID_2_)">
		<defs>
			<rect id="SVGID_395_" x="-3608" y="-3452.403" width="12912.166" height="8488.403"/>
		</defs>
		<clipPath id="SVGID_48_">
			<use xlink:href="#SVGID_395_"  overflow="visible"/>
		</clipPath>
	</g>
	<g clip-path="url(#SVGID_2_)">
		<defs>
			<rect id="SVGID_397_" x="-3608" y="-3452.403" width="12912.166" height="8488.403"/>
		</defs>
		<clipPath id="SVGID_50_">
			<use xlink:href="#SVGID_397_"  overflow="visible"/>
		</clipPath>
	</g>
	<g clip-path="url(#SVGID_2_)">
		<defs>
			<rect id="SVGID_815_" x="-3608" y="-3452.403" width="12912.166" height="8488.403"/>
		</defs>
		<clipPath id="SVGID_52_">
			<use xlink:href="#SVGID_815_"  overflow="visible"/>
		</clipPath>
	</g>
</g>
</svg>
