<?xml version="1.0" encoding="utf-8"?>
<!-- Generator: Adobe Illustrator 16.0.0, SVG Export Plug-In . SVG Version: 6.00 Build 0)  -->
<!DOCTYPE svg PUBLIC "-//W3C//DTD SVG 1.1//EN" "http://www.w3.org/Graphics/SVG/1.1/DTD/svg11.dtd">
<svg version="1.1" id="Layer_1" xmlns="http://www.w3.org/2000/svg" xmlns:xlink="http://www.w3.org/1999/xlink" x="0px" y="0px"
	 width="1953.579px" height="801.528px" viewBox="0 0 1953.579 801.528" enable-background="new 0 0 1953.579 801.528"
	 xml:space="preserve">
<g>
	<defs>
		<rect id="SVGID_1_" x="-8416" y="-3694.871" width="12912.2" height="8488.399"/>
	</defs>
	<clipPath id="SVGID_2_">
		<use xlink:href="#SVGID_1_"  overflow="visible"/>
	</clipPath>
	<g clip-path="url(#SVGID_2_)">
		<defs>
			<rect id="SVGID_3_" x="-8416" y="-3694.875" width="12912.166" height="8488.403"/>
		</defs>
		<clipPath id="SVGID_4_">
			<use xlink:href="#SVGID_3_"  overflow="visible"/>
		</clipPath>
	</g>
	<g clip-path="url(#SVGID_2_)">
		<defs>
			<rect id="SVGID_55_" x="-8416" y="-3694.875" width="12912.166" height="8488.403"/>
		</defs>
		<clipPath id="SVGID_6_">
			<use xlink:href="#SVGID_55_"  overflow="visible"/>
		</clipPath>
	</g>
	<g clip-path="url(#SVGID_2_)">
		<defs>
			<rect id="SVGID_73_" x="-8416" y="-3694.875" width="12912.166" height="8488.403"/>
		</defs>
		<clipPath id="SVGID_8_">
			<use xlink:href="#SVGID_73_"  overflow="visible"/>
		</clipPath>
	</g>
	<g clip-path="url(#SVGID_2_)">
		<defs>
			<rect id="SVGID_83_" x="-8416" y="-3694.875" width="12912.166" height="8488.403"/>
		</defs>
		<clipPath id="SVGID_10_">
			<use xlink:href="#SVGID_83_"  overflow="visible"/>
		</clipPath>
	</g>
	<g clip-path="url(#SVGID_2_)">
		<defs>
			<rect id="SVGID_89_" x="-8416" y="-3694.875" width="12912.166" height="8488.403"/>
		</defs>
		<clipPath id="SVGID_12_">
			<use xlink:href="#SVGID_89_"  overflow="visible"/>
		</clipPath>
	</g>
	<g clip-path="url(#SVGID_2_)">
		<defs>
			<rect id="SVGID_95_" x="-8416" y="-3694.875" width="12912.166" height="8488.403"/>
		</defs>
		<clipPath id="SVGID_14_">
			<use xlink:href="#SVGID_95_"  overflow="visible"/>
		</clipPath>
	</g>
	<g clip-path="url(#SVGID_2_)">
		<defs>
			<rect id="SVGID_97_" x="-8416" y="-3694.875" width="12912.166" height="8488.403"/>
		</defs>
		<clipPath id="SVGID_16_">
			<use xlink:href="#SVGID_97_"  overflow="visible"/>
		</clipPath>
	</g>
	<g clip-path="url(#SVGID_2_)">
		<defs>
			<rect id="SVGID_123_" x="-8416" y="-3694.875" width="12912.166" height="8488.403"/>
		</defs>
		<clipPath id="SVGID_18_">
			<use xlink:href="#SVGID_123_"  overflow="visible"/>
		</clipPath>
		<path clip-path="url(#SVGID_18_)" fill="#00A1CD" d="M844.59,474.286c17.341,108.038-56.184,209.677-164.222,227.018
			c-108.037,17.341-209.676-56.184-227.017-164.221c-17.342-108.038,56.183-209.678,164.22-227.019
			C725.61,292.725,827.249,366.248,844.59,474.286"/>
		<path clip-path="url(#SVGID_18_)" fill="none" stroke="#00A1CD" stroke-width="12" stroke-miterlimit="10" d="M510.094,633.155
			c0,0-18.844,18.998-21.695,35.546c-2.854,16.546-2.352,51.751-2.352,51.751"/>
		<path clip-path="url(#SVGID_18_)" fill="#A2CCED" d="M469.412,743.93c-0.218,1.582,1.04,3.073,2.797,3.313
			c1.755,0.241,3.367-0.855,3.586-2.437l1.507-10.969c0.766,0.519,1.606,0.952,2.5,1.306l-1.806,13.15
			c-0.219,1.58,1.04,3.072,2.796,3.313c1.756,0.24,3.368-0.856,3.587-2.438l1.805-13.15c0.857-0.09,1.69-0.258,2.488-0.504
			l-1.554,11.301c-0.217,1.582,1.042,3.073,2.798,3.313c1.755,0.24,3.368-0.855,3.586-2.437l2.587-18.832
			c0.218-0.578,0.375-1.183,0.485-1.805l0.726,3.772c0.303,1.584,1.977,2.69,3.719,2.461c1.743-0.23,2.92-1.715,2.617-3.297
			l-3.87-20.169c-0.15-0.776-0.63-1.435-1.285-1.881c-1.112-4.475-5.201-8.153-10.473-8.878c-6.713-0.922-12.884,3.271-13.715,9.318
			l-2.05,14.924c-0.015,0.107-0.015,0.212-0.024,0.318c-0.011,0.053-0.033,0.102-0.041,0.156L469.412,743.93z"/>
		<path clip-path="url(#SVGID_18_)" fill="none" stroke="#00A1CD" stroke-width="12" stroke-miterlimit="10" d="M829.885,545.283
			c0,0,26.482-3.83,38.72-15.327c12.235-11.496,33.024-39.912,33.024-39.912"/>
		<path clip-path="url(#SVGID_18_)" fill="#A2CCED" d="M929.045,481.306c1.126-1.132,1.018-3.079-0.238-4.329
			c-1.257-1.249-3.205-1.345-4.33-0.213l-7.805,7.854c-0.302-0.877-0.714-1.729-1.212-2.548l9.355-9.415
			c1.126-1.132,1.019-3.08-0.239-4.329c-1.257-1.249-3.204-1.345-4.329-0.212l-9.356,9.414c-0.739-0.444-1.505-0.811-2.289-1.093
			l8.041-8.092c1.125-1.132,1.017-3.08-0.24-4.329c-1.256-1.249-3.205-1.345-4.331-0.213l-13.398,13.483
			c-0.523,0.328-1.013,0.718-1.476,1.148l1.693-3.449c0.71-1.448,0.039-3.338-1.491-4.203c-1.531-0.865-3.363-0.389-4.073,1.057
			l-9.049,18.437c-0.348,0.709-0.36,1.524-0.105,2.274c-1.806,4.243-0.756,9.641,3.02,13.394c4.805,4.776,12.258,5.141,16.562,0.812
			l10.618-10.684c0.076-0.076,0.141-0.16,0.212-0.239c0.041-0.036,0.088-0.061,0.125-0.1L929.045,481.306z"/>
		<polyline clip-path="url(#SVGID_18_)" fill="#00A1CD" points="757.604,669.532 851.184,668.474 853.173,654.17 776.598,631.354 		
			"/>
		<polyline clip-path="url(#SVGID_18_)" fill="#00A1CD" points="675.324,700.144 795.15,742.892 801.946,730.149 712.961,669.036 		
			"/>
		<polygon clip-path="url(#SVGID_18_)" fill="#CF2153" points="872.593,657.013 870.643,671.036 806.307,669.607 810.319,640.763 		
			"/>
		<polygon clip-path="url(#SVGID_18_)" fill="#CF2153" points="818.74,739.438 812.078,751.932 752.742,727.36 765.845,702.79 		"/>
		<path clip-path="url(#SVGID_18_)" fill="#FFFFFF" d="M627.549,497.674c-2.411-15.022,7.811-29.155,22.835-31.566
			c15.021-2.412,29.154,7.811,31.564,22.835"/>
		<path clip-path="url(#SVGID_18_)" fill="#FFFFFF" d="M697.952,486.374c-2.41-15.022,7.813-29.155,22.836-31.566
			c15.021-2.412,29.154,7.812,31.565,22.835"/>
		<path clip-path="url(#SVGID_18_)" fill="none" stroke="#0D4060" stroke-width="3" stroke-miterlimit="10" d="M627.749,461.523
			c0,0,5.38-17.43,24.422-10.72"/>
		<path clip-path="url(#SVGID_18_)" fill="none" stroke="#0D4060" stroke-width="3" stroke-miterlimit="10" d="M736.85,444.012
			c0,0-8.468-15.53-24.451-3.198"/>
		<path clip-path="url(#SVGID_18_)" fill="#0D4060" d="M731.884,467.779c5.191,2.282,11.073,0.836,14.67-3.162
			c-5.308-6.513-13.455-10.43-22.226-10.143C723.646,459.948,726.574,465.446,731.884,467.779"/>
		<path clip-path="url(#SVGID_18_)" fill="#0D4060" d="M661.973,479.125c5.192,2.282,11.072,0.837,14.672-3.162
			c-5.309-6.514-13.455-10.431-22.227-10.144C653.735,471.293,656.664,476.792,661.973,479.125"/>
		<path clip-path="url(#SVGID_18_)" fill="#0D4060" d="M728.897,506.835c0,0-3.034,21.092-33.924,25.417
			c-30.889,4.326-36.345-14.139-36.345-14.139L728.897,506.835z"/>
		<g opacity="0.7" clip-path="url(#SVGID_18_)">
			<g>
				<defs>
					<rect id="SVGID_145_" x="595.08" y="516.889" width="36.17" height="13.13"/>
				</defs>
				<clipPath id="SVGID_20_">
					<use xlink:href="#SVGID_145_"  overflow="visible"/>
				</clipPath>
				<path clip-path="url(#SVGID_20_)" fill="#A2CCED" d="M631.221,520.554c0.52,3.249-7.142,7.182-17.115,8.782
					c-9.977,1.603-18.483,0.265-19.004-2.985c-0.523-3.249,7.14-7.182,17.114-8.782C622.19,515.967,630.699,517.304,631.221,520.554
					"/>
			</g>
		</g>
		<g opacity="0.7" clip-path="url(#SVGID_18_)">
			<g>
				<defs>
					<rect id="SVGID_147_" x="749.39" y="492.118" width="36.17" height="13.13"/>
				</defs>
				<clipPath id="SVGID_22_">
					<use xlink:href="#SVGID_147_"  overflow="visible"/>
				</clipPath>
				<path clip-path="url(#SVGID_22_)" fill="#A2CCED" d="M785.538,495.785c0.521,3.25-7.142,7.184-17.115,8.783
					c-9.976,1.602-18.483,0.265-19.004-2.985c-0.524-3.25,7.14-7.182,17.113-8.783C776.508,491.199,785.017,492.537,785.538,495.785
					"/>
			</g>
		</g>
		<path clip-path="url(#SVGID_18_)" fill="#504B48" d="M812.866,751.853c-11.374-6.065-15.678-20.203-9.611-31.576
			c6.064-11.374,20.203-15.677,31.577-9.612"/>
		<path clip-path="url(#SVGID_18_)" fill="#504B48" d="M870.663,672.495c-12.769-1.774-21.68-13.563-19.901-26.331
			c1.774-12.767,13.563-21.679,26.332-19.901"/>
		<path clip-path="url(#SVGID_18_)" fill="#00A1CD" d="M1335.899,42.531c-128.55,0-232.761,31.763-232.761,167.448
			c0,34.414,4.573,69.11,9.387,103.116c5.345,37.756,11.992,75.399,21.896,112.25c4.356,16.201,9.509,30.415,7.841,47.425
			c-1.461,14.911-5.633,30.07-12.283,43.512c-17.938,36.261-22.704,73.586-9.425,112.309c8.814,25.694,30.15,46.174,54.028,59.026
			c49.505,26.646,108.564,25.277,163.146,25.277c59.945,0,129.448-4.579,178.615-43.064c20.276-15.871,34.973-37.374,43.13-61.748
			c4.823-14.411,6.41-28.815,8.288-43.744c2.601-20.653-3.121-38.469-10.896-57.206c-11.676-28.129-25.032-66.08-17.324-96.91
			c17.897-71.861,29.117-166.562,29.117-202.989C1568.658,71.548,1464.447,42.531,1335.899,42.531"/>
		<path clip-path="url(#SVGID_18_)" fill="#FFFFFF" d="M1220.273,244.738c0-17.767,14.401-32.169,32.168-32.169
			s32.169,14.402,32.169,32.169"/>
		<path clip-path="url(#SVGID_18_)" fill="#FFFFFF" d="M1303.536,244.738c0-17.767,14.401-32.169,32.168-32.169
			c17.768,0,32.17,14.402,32.17,32.169"/>
		<path clip-path="url(#SVGID_18_)" fill="none" stroke="#0D4060" stroke-width="3" stroke-miterlimit="10" d="M1227.193,203.095
			c0,0,9.43-19.101,30.143-7.839"/>
		<path clip-path="url(#SVGID_18_)" fill="none" stroke="#0D4060" stroke-width="3" stroke-miterlimit="10" d="M1356.222,203.095
			c0,0-6.89-19.472-27.602-8.212"/>
		<path clip-path="url(#SVGID_18_)" fill="#0D4060" d="M1231.667,244.738c0-7.686,6.229-13.915,13.913-13.915
			c7.687,0,13.916,6.229,13.916,13.915"/>
		<path clip-path="url(#SVGID_18_)" fill="#0D4060" d="M1316.302,244.738c0-7.686,6.229-13.915,13.915-13.915
			s13.915,6.229,13.915,13.915"/>
		<path clip-path="url(#SVGID_18_)" fill="#0D4060" d="M1335.427,274.053c0,0-7.4,23.758-43.813,23.028
			c-36.414-0.729-39.289-23.028-39.289-23.028H1335.427z"/>
		<g opacity="0.7" clip-path="url(#SVGID_18_)">
			<g>
				<defs>
					<rect id="SVGID_157_" x="1177.559" y="264.838" width="42.71" height="13.92"/>
				</defs>
				<clipPath id="SVGID_24_">
					<use xlink:href="#SVGID_157_"  overflow="visible"/>
				</clipPath>
				<path clip-path="url(#SVGID_24_)" fill="#A2CCED" d="M1220.273,271.796c0,3.843-9.563,6.958-21.358,6.958
					c-11.796,0-21.359-3.115-21.359-6.958c0-3.844,9.563-6.959,21.359-6.959C1210.71,264.837,1220.273,267.953,1220.273,271.796"/>
			</g>
		</g>
		<g opacity="0.7" clip-path="url(#SVGID_18_)">
			<g>
				<defs>
					<rect id="SVGID_159_" x="1360.059" y="264.838" width="42.721" height="13.92"/>
				</defs>
				<clipPath id="SVGID_26_">
					<use xlink:href="#SVGID_159_"  overflow="visible"/>
				</clipPath>
				<path clip-path="url(#SVGID_26_)" fill="#A2CCED" d="M1402.775,271.796c0,3.843-9.563,6.958-21.358,6.958
					c-11.797,0-21.359-3.115-21.359-6.958c0-3.844,9.563-6.959,21.359-6.959C1393.212,264.837,1402.775,267.953,1402.775,271.796"/>
			</g>
		</g>
		<path clip-path="url(#SVGID_18_)" fill="none" stroke="#00A1CD" stroke-width="14" stroke-miterlimit="10" d="M1172.468,449.163
			c0,0-59.98-9.617-84.141-34.77c-24.159-25.151-61.957-86.795-61.957-86.795"/>
		<path clip-path="url(#SVGID_18_)" fill="#A2CCED" d="M976.492,308.944c-1.804-2.031-1.014-5.434,1.755-7.562
			c2.767-2.126,6.508-2.206,8.31-0.174l12.504,14.09c0.836-1.519,1.874-2.991,3.072-4.4l-14.992-16.892
			c-1.802-2.032-1.013-5.434,1.754-7.563c2.77-2.127,6.508-2.206,8.312-0.175l14.989,16.893c1.54-0.742,3.109-1.35,4.69-1.81
			l-12.883-14.517c-1.805-2.032-1.016-5.434,1.754-7.562c2.768-2.128,6.507-2.206,8.31-0.175l21.47,24.192
			c0.896,0.597,1.711,1.301,2.464,2.075l-2.189-6.11c-0.918-2.563,0.928-5.841,4.102-7.285c3.174-1.443,6.52-0.527,7.438,2.037
			l11.697,32.657c0.449,1.257,0.228,2.683-0.481,3.983c2.163,7.504-1.456,16.899-9.772,23.29
			c-10.584,8.137-24.886,8.438-31.779,0.67l-17.011-19.171c-0.123-0.137-0.218-0.287-0.334-0.427
			c-0.066-0.065-0.146-0.112-0.208-0.181L976.492,308.944z"/>
		<path clip-path="url(#SVGID_18_)" fill="none" stroke="#00A1CD" stroke-width="14" stroke-miterlimit="10" d="M1526.982,465.874
			c0,0,57.42-15.211,79.68-42.209c22.258-26.999,56.175-91.107,56.175-91.107"/>
		<path clip-path="url(#SVGID_18_)" fill="#A2CCED" d="M1710.152,309.456c1.654-2.166,0.755-5.428-1.999-7.248
			c-2.756-1.82-6.362-1.537-8.019,0.629l-11.477,15.024c-0.867-1.409-1.93-2.752-3.14-4.02l13.761-18.014
			c1.653-2.167,0.755-5.428-2-7.249c-2.756-1.82-6.362-1.537-8.018,0.629l-13.759,18.015c-1.515-0.58-3.052-1.024-4.593-1.324
			l11.824-15.481c1.654-2.166,0.756-5.428-2-7.249c-2.754-1.82-6.361-1.538-8.017,0.628l-19.706,25.798
			c-0.839,0.672-1.595,1.442-2.29,2.273l1.861-6.205c0.779-2.603-1.132-5.64-4.248-6.75h-0.002c-3.117-1.11-6.306,0.11-7.086,2.714
			l-9.942,33.16c-0.382,1.276-0.11,2.654,0.625,3.862c-1.777,7.569,2.094,16.435,10.37,21.905c10.536,6.96,24.33,5.878,30.658-2.405
			l15.616-20.444c0.11-0.146,0.195-0.303,0.303-0.451c0.06-0.07,0.135-0.124,0.192-0.198L1710.152,309.456z"/>
		<polyline clip-path="url(#SVGID_18_)" fill="#00A1CD" points="1183.363,643.739 1058.163,703.153 1064.637,722.813 
			1200.695,696.183 		"/>
		<polyline clip-path="url(#SVGID_18_)" fill="#00A1CD" points="1132.641,574.251 1023.542,610.001 1026.955,630.415 
			1141.403,628.786 		"/>
		<polygon clip-path="url(#SVGID_18_)" fill="#5652A3" points="1037.859,731.418 1031.512,712.146 1115.18,673.356 
			1128.235,712.997 		"/>
		<polygon clip-path="url(#SVGID_18_)" fill="#5652A3" points="999.762,634.534 996.415,614.521 1084.987,588.788 1091.87,629.953 
					"/>
		<path clip-path="url(#SVGID_18_)" fill="#504B48" d="M987.349,566.835c18.952-3.168,36.887,9.627,40.055,28.58
			c3.169,18.953-9.626,36.886-28.578,40.055"/>
		<path clip-path="url(#SVGID_18_)" fill="#504B48" d="M1014.406,661.653c18.251-6.012,37.92,3.912,43.931,22.164
			c6.009,18.252-3.912,37.92-22.164,43.931"/>
		<path clip-path="url(#SVGID_18_)" fill="#00A1CD" d="M351.718,496.929c6.466,86.621-83.744,215.953-133.027,219.631
			c-55.245,4.123-157.563-109.073-164.03-195.695C48.195,434.243,113.209,409,195.275,402.875
			C277.341,396.749,345.251,410.308,351.718,496.929"/>
		<path clip-path="url(#SVGID_18_)" fill="#FFFFFF" d="M183.824,521.341c-1.039-13.92,9.402-26.047,23.322-27.085
			c13.92-1.04,26.047,9.403,27.085,23.323"/>
		<path clip-path="url(#SVGID_18_)" fill="#FFFFFF" d="M249.062,516.471c-1.039-13.92,9.402-26.047,23.322-27.086
			s26.047,9.404,27.086,23.323"/>
		<path clip-path="url(#SVGID_18_)" fill="none" stroke="#0D4060" stroke-width="3" stroke-miterlimit="10" d="M186.811,488.309
			c0,0,6.271-15.517,23.155-7.905"/>
		<path clip-path="url(#SVGID_18_)" fill="none" stroke="#0D4060" stroke-width="3" stroke-miterlimit="10" d="M287.905,480.763
			c0,0-6.537-14.854-22.105-4.82"/>
		<path clip-path="url(#SVGID_18_)" fill="#0D4060" d="M275.762,537.576c0,0-4.408,19.047-32.982,20.604
			c-28.572,1.56-32.128-15.744-32.128-15.744L275.762,537.576z"/>
		<path clip-path="url(#SVGID_18_)" fill="none" stroke="#00A1CD" stroke-width="6" stroke-miterlimit="10" d="M136.027,650.452
			c0,0-22.544,3.262-35.306-3.174c-12.761-6.435-36.585-24.619-36.585-24.619"/>
		<path clip-path="url(#SVGID_18_)" fill="#A2CCED" d="M43.547,621.491c-0.979-0.537-1.294-1.864-0.697-2.951
			c0.594-1.087,1.884-1.537,2.861-1.001l6.791,3.721c0.028-0.647,0.136-1.3,0.309-1.948l-8.143-4.461
			c-0.978-0.537-1.293-1.865-0.696-2.951c0.596-1.086,1.884-1.537,2.861-1l8.143,4.459c0.406-0.442,0.848-0.84,1.317-1.186
			l-6.995-3.834c-0.98-0.536-1.294-1.865-0.697-2.951c0.594-1.087,1.883-1.537,2.86-1l11.659,6.387
			c0.416,0.117,0.822,0.281,1.219,0.479l-1.82-1.979c-0.762-0.83-0.688-2.23,0.168-3.113c0.854-0.885,2.178-0.928,2.94-0.098
			l9.724,10.572c0.374,0.406,0.544,0.951,0.521,1.504c2.053,2.49,2.417,6.317,0.628,9.582c-2.276,4.156-7.202,5.877-10.945,3.826
			l-9.239-5.063c-0.067-0.035-0.125-0.08-0.19-0.117c-0.033-0.018-0.07-0.024-0.104-0.043L43.547,621.491z"/>
		<polyline clip-path="url(#SVGID_18_)" fill="#00A1CD" points="254.855,695.026 327.674,686.865 328.202,673.626 256.233,659.694 
					"/>
		<polyline clip-path="url(#SVGID_18_)" fill="#00A1CD" points="216.304,716.624 286.469,738.496 292.27,726.584 231.985,684.931 		
			"/>
		<polygon clip-path="url(#SVGID_18_)" fill="#56C5D0" points="346.188,674.472 345.669,687.451 294.016,690.653 294.992,666.183 		
			"/>
		<polygon clip-path="url(#SVGID_18_)" fill="#56C5D0" points="307.714,734.404 302.026,746.083 253.92,727.273 263.726,707.138 		
			"/>
		<path clip-path="url(#SVGID_18_)" fill="#504B48" d="M348.038,687.421c-12.294-0.49-21.86-10.852-21.369-23.145
			c0.489-12.291,10.85-21.859,23.142-21.369"/>
		<path clip-path="url(#SVGID_18_)" fill="#504B48" d="M307.337,751.033c-11.061-5.386-15.659-18.717-10.274-29.777
			c5.386-11.06,18.717-15.661,29.778-10.274"/>
		<g opacity="0.7" clip-path="url(#SVGID_18_)">
			<g>
				<defs>
					<rect id="SVGID_161_" x="151.93" y="538.198" width="33.48" height="11.19"/>
				</defs>
				<clipPath id="SVGID_28_">
					<use xlink:href="#SVGID_161_"  overflow="visible"/>
				</clipPath>
				<path clip-path="url(#SVGID_28_)" fill="#A2CCED" d="M185.406,542.542c0.225,3.013-7.087,6.013-16.327,6.701
					c-9.242,0.691-16.917-1.191-17.143-4.203c-0.224-3.011,7.085-6.012,16.327-6.701
					C177.507,537.649,185.181,539.531,185.406,542.542"/>
			</g>
		</g>
		<g opacity="0.7" clip-path="url(#SVGID_18_)">
			<g>
				<defs>
					<rect id="SVGID_163_" x="306.879" y="526.629" width="33.479" height="11.19"/>
				</defs>
				<clipPath id="SVGID_30_">
					<use xlink:href="#SVGID_163_"  overflow="visible"/>
				</clipPath>
				<path clip-path="url(#SVGID_30_)" fill="#A2CCED" d="M340.354,530.977c0.225,3.011-7.087,6.011-16.327,6.701
					c-9.242,0.69-16.917-1.192-17.143-4.203c-0.224-3.012,7.085-6.012,16.327-6.702
					C332.454,526.083,340.128,527.964,340.354,530.977"/>
			</g>
		</g>
		<path clip-path="url(#SVGID_18_)" fill="none" stroke="#00A1CD" stroke-width="6" stroke-miterlimit="10" d="M303.414,617.128
			c0,0,22.355-4.356,32.281-14.641c9.925-10.283,26.418-35.308,26.418-35.308"/>
		<path clip-path="url(#SVGID_18_)" fill="#A2CCED" d="M381.167,559.284c0.745-0.828,0.604-2.186-0.316-3.016
			c-0.92-0.828-2.285-0.83-3.032,0l-5.183,5.752c-0.241-0.601-0.558-1.183-0.934-1.738l6.215-6.896
			c0.747-0.829,0.605-2.187-0.314-3.016c-0.921-0.829-2.286-0.83-3.033-0.001l-6.215,6.896c-0.531-0.285-1.078-0.515-1.637-0.686
			l5.341-5.928c0.748-0.828,0.605-2.185-0.314-3.015c-0.921-0.83-2.284-0.83-3.032,0l-8.899,9.876
			c-0.354,0.246-0.682,0.535-0.993,0.852l1.066-2.467c0.446-1.035-0.086-2.334-1.186-2.885c-1.098-0.553-2.361-0.158-2.808,0.877
			l-5.692,13.188c-0.219,0.508-0.198,1.078,0.004,1.593c-1.115,3.024-0.198,6.761,2.566,9.253c3.522,3.172,8.739,3.172,11.598,0.002
			l7.053-7.826c0.051-0.057,0.092-0.117,0.141-0.174c0.026-0.027,0.058-0.047,0.084-0.076L381.167,559.284z"/>
		<path clip-path="url(#SVGID_18_)" fill="#0D4060" d="M280.419,502.499c5.252,2.143,11.093,0.54,14.58-3.553
			c-5.479-6.369-13.729-10.067-22.487-9.546C271.976,494.891,275.05,500.309,280.419,502.499"/>
		<path clip-path="url(#SVGID_18_)" fill="#0D4060" d="M214.188,506.3c5.251,2.143,11.091,0.54,14.58-3.553
			c-5.479-6.369-13.729-10.067-22.489-9.546C205.744,498.692,208.819,504.11,214.188,506.3"/>
		<path clip-path="url(#SVGID_18_)" fill="#00A1CD" d="M1605.155,550.222c1.224-68.3,50.914-160.495,120.055-159.26
			c76.966,1.376,115.518,93.779,114.294,162.079c-1.226,68.299-53.966,83.346-118.673,82.188
			C1656.124,634.066,1603.93,618.521,1605.155,550.222"/>
		<path clip-path="url(#SVGID_18_)" fill="#FFFFFF" d="M1654.544,493.536c0.196-10.976,9.254-19.713,20.229-19.518
			c10.976,0.198,19.714,9.254,19.518,20.23"/>
		<path clip-path="url(#SVGID_18_)" fill="#FFFFFF" d="M1705.982,494.458c0.195-10.976,9.254-19.714,20.229-19.516
			c10.976,0.197,19.713,9.252,19.517,20.229"/>
		<path clip-path="url(#SVGID_18_)" fill="none" stroke="#0D4060" stroke-width="3" stroke-miterlimit="10" d="M1659.281,467.886
			c0,0,6.035-11.695,18.706-4.51"/>
		<path clip-path="url(#SVGID_18_)" fill="none" stroke="#0D4060" stroke-width="3" stroke-miterlimit="10" d="M1738.991,469.315
			c0,0-4.04-12.105-16.961-5.379"/>
		<path clip-path="url(#SVGID_18_)" fill="#0D4060" d="M1660.333,493.738c0.086-4.748,4.003-8.527,8.752-8.442
			c4.745,0.085,8.525,4.003,8.44,8.75"/>
		<path clip-path="url(#SVGID_18_)" fill="#0D4060" d="M1711.771,494.66c0.085-4.747,4.003-8.527,8.75-8.441
			c4.747,0.084,8.526,4.002,8.441,8.75"/>
		<path clip-path="url(#SVGID_18_)" fill="#0D4060" d="M1725.359,512.921c0,0-4.837,14.595-27.322,13.74
			C1675.549,525.809,1674.02,512,1674.02,512L1725.359,512.921z"/>
		<path clip-path="url(#SVGID_18_)" fill="none" stroke="#00A1CD" stroke-width="10" stroke-miterlimit="10" d="M1640.171,517.173
			c0,0-37.893,28.531-49.938,29.807c-12.047,1.274-63.25-15.267-63.25-15.267"/>
		<polyline clip-path="url(#SVGID_18_)" fill="#00A1CD" points="1731.847,632.776 1739.519,689.888 1749.937,690.075 
			1759.649,633.252 		"/>
		<polyline clip-path="url(#SVGID_18_)" fill="#00A1CD" points="1679.893,631.669 1687.561,688.956 1697.979,689.145 
			1707.691,632.345 		"/>
		<polygon clip-path="url(#SVGID_18_)" fill="#56C5D0" points="1749.581,704.231 1739.366,704.048 1734.554,655.802 
			1756.273,656.191 		"/>
		<polygon clip-path="url(#SVGID_18_)" fill="#56C5D0" points="1697.519,702.983 1687.304,702.8 1682.336,654.55 1704.057,654.94 		
			"/>
		<path clip-path="url(#SVGID_18_)" fill="#504B48" d="M1662.867,702.905c0.174-9.673,8.154-17.373,17.827-17.2
			c9.674,0.173,17.373,8.155,17.2,17.828"/>
		<path clip-path="url(#SVGID_18_)" fill="#504B48" d="M1714.767,704.278c0.174-9.673,8.154-17.373,17.827-17.2
			s17.373,8.155,17.2,17.828"/>
		<g opacity="0.7" clip-path="url(#SVGID_18_)">
			<g>
				<defs>
					<rect id="SVGID_165_" x="1627.901" y="505.709" width="26.3" height="8.61"/>
				</defs>
				<clipPath id="SVGID_32_">
					<use xlink:href="#SVGID_165_"  overflow="visible"/>
				</clipPath>
				<path clip-path="url(#SVGID_32_)" fill="#A2CCED" d="M1654.245,510.251c-0.044,2.374-5.985,4.193-13.272,4.062
					c-7.288-0.13-13.161-2.161-13.118-4.535c0.042-2.375,5.985-4.193,13.273-4.062
					C1648.414,505.847,1654.287,507.878,1654.245,510.251"/>
			</g>
		</g>
		<g opacity="0.7" clip-path="url(#SVGID_18_)">
			<g>
				<defs>
					<rect id="SVGID_167_" x="1740.6" y="507.728" width="26.4" height="8.61"/>
				</defs>
				<clipPath id="SVGID_34_">
					<use xlink:href="#SVGID_167_"  overflow="visible"/>
				</clipPath>
				<path clip-path="url(#SVGID_34_)" fill="#A2CCED" d="M1766.99,512.272c-0.044,2.375-5.984,4.193-13.271,4.062
					c-7.289-0.129-13.161-2.161-13.119-4.535c0.043-2.374,5.986-4.193,13.272-4.062
					C1761.16,507.869,1767.032,509.898,1766.99,512.272"/>
			</g>
		</g>
		<path clip-path="url(#SVGID_18_)" fill="none" stroke="#00A1CD" stroke-width="10" stroke-miterlimit="10" d="M1824.686,532.212
			c0,0,20.444-2.879,46.182-27.609c8.735-8.393,28.057-43.96,28.057-43.96"/>
		<path clip-path="url(#SVGID_18_)" fill="#A2CCED" d="M1918.064,452.601c0.734-0.886,0.532-2.278-0.45-3.095
			c-0.984-0.816-2.392-0.76-3.126,0.125l-5.104,6.146c-0.271-0.61-0.623-1.197-1.034-1.753l6.118-7.367
			c0.737-0.886,0.534-2.28-0.45-3.096c-0.982-0.816-2.39-0.76-3.125,0.126l-6.118,7.367c-0.56-0.271-1.134-0.485-1.717-0.639
			l5.26-6.332c0.734-0.885,0.532-2.278-0.45-3.095c-0.984-0.817-2.391-0.76-3.126,0.126l-8.764,10.55
			c-0.354,0.27-0.681,0.582-0.984,0.92l0.994-2.587c0.418-1.085-0.188-2.402-1.342-2.925s-2.441-0.063-2.858,1.022l-5.318,13.83
			c-0.204,0.532-0.161,1.119,0.071,1.642c-1.025,3.165,0.077,6.977,3.032,9.431c3.761,3.123,9.139,2.907,11.953-0.481l6.942-8.361
			c0.05-0.06,0.09-0.124,0.137-0.186c0.027-0.028,0.06-0.05,0.085-0.08L1918.064,452.601z"/>
	</g>
	<g clip-path="url(#SVGID_2_)">
		<defs>
			<rect id="SVGID_261_" x="-8416" y="-3694.875" width="12912.166" height="8488.403"/>
		</defs>
		<clipPath id="SVGID_36_">
			<use xlink:href="#SVGID_261_"  overflow="visible"/>
		</clipPath>
	</g>
	<g clip-path="url(#SVGID_2_)">
		<defs>
			<rect id="SVGID_263_" x="-8416" y="-3694.875" width="12912.166" height="8488.403"/>
		</defs>
		<clipPath id="SVGID_38_">
			<use xlink:href="#SVGID_263_"  overflow="visible"/>
		</clipPath>
	</g>
	<g clip-path="url(#SVGID_2_)">
		<defs>
			<rect id="SVGID_291_" x="-8416" y="-3694.875" width="12912.166" height="8488.403"/>
		</defs>
		<clipPath id="SVGID_40_">
			<use xlink:href="#SVGID_291_"  overflow="visible"/>
		</clipPath>
	</g>
	<g clip-path="url(#SVGID_2_)">
		<defs>
			<rect id="SVGID_357_" x="-8416" y="-3694.875" width="12912.166" height="8488.403"/>
		</defs>
		<clipPath id="SVGID_42_">
			<use xlink:href="#SVGID_357_"  overflow="visible"/>
		</clipPath>
	</g>
	<g clip-path="url(#SVGID_2_)">
		<defs>
			<rect id="SVGID_359_" x="-8416" y="-3694.875" width="12912.166" height="8488.403"/>
		</defs>
		<clipPath id="SVGID_44_">
			<use xlink:href="#SVGID_359_"  overflow="visible"/>
		</clipPath>
	</g>
	<g clip-path="url(#SVGID_2_)">
		<defs>
			<rect id="SVGID_377_" x="-8416" y="-3694.875" width="12912.166" height="8488.403"/>
		</defs>
		<clipPath id="SVGID_46_">
			<use xlink:href="#SVGID_377_"  overflow="visible"/>
		</clipPath>
	</g>
	<g clip-path="url(#SVGID_2_)">
		<defs>
			<rect id="SVGID_379_" x="-8416" y="-3694.875" width="12912.166" height="8488.403"/>
		</defs>
		<clipPath id="SVGID_48_">
			<use xlink:href="#SVGID_379_"  overflow="visible"/>
		</clipPath>
	</g>
	<g clip-path="url(#SVGID_2_)">
		<defs>
			<rect id="SVGID_381_" x="-8416" y="-3694.875" width="12912.166" height="8488.403"/>
		</defs>
		<clipPath id="SVGID_50_">
			<use xlink:href="#SVGID_381_"  overflow="visible"/>
		</clipPath>
	</g>
	<g clip-path="url(#SVGID_2_)">
		<defs>
			<rect id="SVGID_383_" x="-8416" y="-3694.875" width="12912.166" height="8488.403"/>
		</defs>
		<clipPath id="SVGID_52_">
			<use xlink:href="#SVGID_383_"  overflow="visible"/>
		</clipPath>
	</g>
	<g clip-path="url(#SVGID_2_)">
		<defs>
			<rect id="SVGID_393_" x="-8416" y="-3694.875" width="12912.166" height="8488.403"/>
		</defs>
		<clipPath id="SVGID_54_">
			<use xlink:href="#SVGID_393_"  overflow="visible"/>
		</clipPath>
	</g>
	<g clip-path="url(#SVGID_2_)">
		<defs>
			<rect id="SVGID_395_" x="-8416" y="-3694.875" width="12912.166" height="8488.403"/>
		</defs>
		<clipPath id="SVGID_56_">
			<use xlink:href="#SVGID_395_"  overflow="visible"/>
		</clipPath>
	</g>
	<g clip-path="url(#SVGID_2_)">
		<defs>
			<rect id="SVGID_397_" x="-8416" y="-3694.875" width="12912.166" height="8488.403"/>
		</defs>
		<clipPath id="SVGID_58_">
			<use xlink:href="#SVGID_397_"  overflow="visible"/>
		</clipPath>
	</g>
	<g clip-path="url(#SVGID_2_)">
		<defs>
			<rect id="SVGID_815_" x="-8416" y="-3694.875" width="12912.166" height="8488.403"/>
		</defs>
		<clipPath id="SVGID_60_">
			<use xlink:href="#SVGID_815_"  overflow="visible"/>
		</clipPath>
	</g>
</g>
</svg>
