<?xml version="1.0" encoding="utf-8"?>
<!-- Generator: Adobe Illustrator 16.0.0, SVG Export Plug-In . SVG Version: 6.00 Build 0)  -->
<!DOCTYPE svg PUBLIC "-//W3C//DTD SVG 1.1//EN" "http://www.w3.org/Graphics/SVG/1.1/DTD/svg11.dtd">
<svg version="1.1" id="Layer_1" xmlns="http://www.w3.org/2000/svg" xmlns:xlink="http://www.w3.org/1999/xlink" x="0px" y="0px"
	 width="1547.69px" height="977.805px" viewBox="0 0 1547.69 977.805" enable-background="new 0 0 1547.69 977.805"
	 xml:space="preserve">
<g>
	<defs>
		<rect id="SVGID_1_" x="-5456.562" y="-3604.889" width="12912.2" height="8488.399"/>
	</defs>
	<clipPath id="SVGID_2_">
		<use xlink:href="#SVGID_1_"  overflow="visible"/>
	</clipPath>
	<g clip-path="url(#SVGID_2_)">
		<defs>
			<rect id="SVGID_3_" x="-5456.562" y="-3604.893" width="12912.166" height="8488.403"/>
		</defs>
		<clipPath id="SVGID_4_">
			<use xlink:href="#SVGID_3_"  overflow="visible"/>
		</clipPath>
	</g>
	<g clip-path="url(#SVGID_2_)">
		<defs>
			<rect id="SVGID_55_" x="-5456.562" y="-3604.893" width="12912.166" height="8488.403"/>
		</defs>
		<clipPath id="SVGID_6_">
			<use xlink:href="#SVGID_55_"  overflow="visible"/>
		</clipPath>
		<path clip-path="url(#SVGID_6_)" fill="#00A1CD" d="M1197.46,686.165c1.189-66.389,49.49-156.006,116.695-154.805
			c74.814,1.338,112.287,91.156,111.098,157.543c-1.189,66.391-52.457,81.016-115.354,79.889
			C1247.003,767.663,1196.27,752.553,1197.46,686.165"/>
		<path clip-path="url(#SVGID_6_)" fill="#FFFFFF" d="M1270.805,631.064c0.19-10.668,8.995-19.162,19.663-18.971
			c10.668,0.192,19.162,8.995,18.973,19.663"/>
		<path clip-path="url(#SVGID_6_)" fill="#FFFFFF" d="M1320.804,631.96c0.191-10.669,8.994-19.162,19.664-18.971
			c10.668,0.192,19.162,8.995,18.971,19.663"/>
		<path clip-path="url(#SVGID_6_)" fill="none" stroke="#0D4060" stroke-width="3" stroke-miterlimit="10" d="M1275.409,606.132
			c0,0,5.867-11.368,18.184-4.383"/>
		<path clip-path="url(#SVGID_6_)" fill="none" stroke="#0D4060" stroke-width="3" stroke-miterlimit="10" d="M1352.89,607.521
			c0,0-3.928-11.767-16.486-5.228"/>
		<path clip-path="url(#SVGID_6_)" fill="#0D4060" d="M1281.767,631.261c0.082-4.615,3.891-8.289,8.506-8.207
			c4.613,0.083,8.288,3.892,8.206,8.506"/>
		<path clip-path="url(#SVGID_6_)" fill="#0D4060" d="M1331.766,632.157c0.081-4.614,3.89-8.288,8.507-8.206
			c4.613,0.083,8.287,3.891,8.205,8.506"/>
		<path clip-path="url(#SVGID_6_)" fill="#0D4060" d="M1339.638,649.907c0,0-4.699,14.188-26.557,13.357
			c-21.859-0.83-23.346-14.252-23.346-14.252L1339.638,649.907z"/>
		<path clip-path="url(#SVGID_6_)" fill="none" stroke="#00A1CD" stroke-width="10" stroke-miterlimit="10" d="M1231.496,654.04
			c0,0-36.832,27.734-48.541,28.974c-11.71,1.239-61.481-14.839-61.481-14.839"/>
		<polyline clip-path="url(#SVGID_6_)" fill="#00A1CD" points="1320.606,766.411 1328.063,821.925 1338.19,822.106 
			1347.632,766.872 		"/>
		<polyline clip-path="url(#SVGID_6_)" fill="#00A1CD" points="1270.106,765.335 1277.56,821.02 1287.687,821.2 1297.128,765.989 		
			"/>
		<polygon clip-path="url(#SVGID_6_)" fill="#56C5D0" points="1337.845,835.866 1327.917,835.687 1323.238,788.791 1344.351,789.17 
					"/>
		<polygon clip-path="url(#SVGID_6_)" fill="#56C5D0" points="1287.239,834.652 1277.312,834.474 1272.481,787.575 
			1293.595,787.953 		"/>
		<path clip-path="url(#SVGID_6_)" fill="#504B48" d="M1253.558,834.577c0.168-9.402,7.926-16.889,17.328-16.719
			c9.402,0.169,16.889,7.927,16.721,17.328"/>
		<path clip-path="url(#SVGID_6_)" fill="#504B48" d="M1328.009,835.911c0.169-9.401,7.928-16.887,17.328-16.718
			c9.402,0.168,16.889,7.927,16.72,17.327"/>
		<g opacity="0.7" clip-path="url(#SVGID_6_)">
			<g>
				<defs>
					<rect id="SVGID_57_" x="1244.858" y="642.901" width="25.66" height="8.369"/>
				</defs>
				<clipPath id="SVGID_8_">
					<use xlink:href="#SVGID_57_"  overflow="visible"/>
				</clipPath>
				<path clip-path="url(#SVGID_8_)" fill="#A2CCED" d="M1270.514,647.313c-0.041,2.308-5.816,4.074-12.901,3.947
					c-7.082-0.127-12.791-2.1-12.75-4.408c0.041-2.307,5.816-4.075,12.9-3.948S1270.556,645.005,1270.514,647.313"/>
			</g>
		</g>
		<g opacity="0.7" clip-path="url(#SVGID_6_)">
			<g>
				<defs>
					<rect id="SVGID_59_" x="1354.458" y="644.86" width="25.65" height="8.371"/>
				</defs>
				<clipPath id="SVGID_10_">
					<use xlink:href="#SVGID_59_"  overflow="visible"/>
				</clipPath>
				<path clip-path="url(#SVGID_10_)" fill="#A2CCED" d="M1380.106,649.276c-0.043,2.309-5.818,4.076-12.902,3.949
					s-12.791-2.1-12.75-4.408s5.816-4.075,12.9-3.948C1374.437,644.997,1380.146,646.97,1380.106,649.276"/>
			</g>
		</g>
		<path clip-path="url(#SVGID_6_)" fill="none" stroke="#00A1CD" stroke-width="10" stroke-miterlimit="10" d="M1410.85,668.659
			c0,0,19.872-2.797,44.889-26.836c8.491-8.158,27.272-42.73,27.272-42.73"/>
		<path clip-path="url(#SVGID_6_)" fill="#A2CCED" d="M1501.615,591.276c0.714-0.861,0.519-2.216-0.437-3.01
			c-0.957-0.793-2.324-0.738-3.039,0.123l-4.961,5.973c-0.266-0.593-0.605-1.163-1.006-1.703l5.947-7.161
			c0.716-0.862,0.518-2.216-0.438-3.01s-2.322-0.738-3.039,0.122l-5.947,7.162c-0.543-0.264-1.102-0.472-1.668-0.621l5.111-6.154
			c0.717-0.862,0.52-2.216-0.437-3.009c-0.956-0.794-2.323-0.739-3.038,0.121l-8.518,10.256c-0.344,0.262-0.662,0.565-0.959,0.894
			l0.967-2.515c0.406-1.055-0.182-2.334-1.303-2.844c-1.123-0.509-2.375-0.061-2.779,0.994l-5.168,13.445
			c-0.199,0.515-0.157,1.085,0.066,1.593c-0.994,3.077,0.076,6.783,2.948,9.167c3.655,3.036,8.884,2.825,11.619-0.468l6.749-8.127
			c0.049-0.057,0.087-0.12,0.133-0.179c0.025-0.028,0.057-0.049,0.082-0.078L1501.615,591.276z"/>
		<path clip-path="url(#SVGID_6_)" fill="#A2CCED" d="M1100.95,673.495c-1.079-0.301-1.689-1.524-1.356-2.723
			c0.333-1.197,1.487-1.93,2.565-1.631l7.48,2.08c-0.119-0.638-0.164-1.301-0.145-1.973l-8.969-2.493
			c-1.078-0.3-1.689-1.524-1.355-2.722c0.333-1.197,1.486-1.932,2.566-1.633l8.969,2.494c0.296-0.527,0.635-1.016,1.016-1.461
			l-7.709-2.143c-1.078-0.301-1.688-1.525-1.355-2.723c0.334-1.196,1.488-1.93,2.566-1.631l12.844,3.571
			c0.434,0.019,0.865,0.087,1.297,0.188l-2.228-1.517c-0.935-0.635-1.182-2.021-0.549-3.079c0.634-1.057,1.915-1.402,2.849-0.767
			l11.91,8.099c0.459,0.312,0.75,0.805,0.854,1.35c2.571,1.959,3.804,5.613,2.804,9.213c-1.273,4.576-5.688,7.385-9.813,6.238
			l-10.178-2.83c-0.072-0.021-0.141-0.051-0.212-0.072c-0.038-0.008-0.075-0.008-0.112-0.018L1100.95,673.495z"/>
	</g>
	<g clip-path="url(#SVGID_2_)">
		<defs>
			<rect id="SVGID_73_" x="-5456.562" y="-3604.893" width="12912.166" height="8488.403"/>
		</defs>
		<clipPath id="SVGID_12_">
			<use xlink:href="#SVGID_73_"  overflow="visible"/>
		</clipPath>
	</g>
	<g clip-path="url(#SVGID_2_)">
		<defs>
			<rect id="SVGID_83_" x="-5456.562" y="-3604.893" width="12912.166" height="8488.403"/>
		</defs>
		<clipPath id="SVGID_14_">
			<use xlink:href="#SVGID_83_"  overflow="visible"/>
		</clipPath>
	</g>
	<g clip-path="url(#SVGID_2_)">
		<defs>
			<rect id="SVGID_89_" x="-5456.562" y="-3604.893" width="12912.166" height="8488.403"/>
		</defs>
		<clipPath id="SVGID_16_">
			<use xlink:href="#SVGID_89_"  overflow="visible"/>
		</clipPath>
	</g>
	<g clip-path="url(#SVGID_2_)">
		<defs>
			<rect id="SVGID_95_" x="-5456.562" y="-3604.893" width="12912.166" height="8488.403"/>
		</defs>
		<clipPath id="SVGID_18_">
			<use xlink:href="#SVGID_95_"  overflow="visible"/>
		</clipPath>
	</g>
	<g clip-path="url(#SVGID_2_)">
		<defs>
			<rect id="SVGID_97_" x="-5456.562" y="-3604.893" width="12912.166" height="8488.403"/>
		</defs>
		<clipPath id="SVGID_20_">
			<use xlink:href="#SVGID_97_"  overflow="visible"/>
		</clipPath>
	</g>
	<g clip-path="url(#SVGID_2_)">
		<defs>
			<rect id="SVGID_123_" x="-5456.562" y="-3604.893" width="12912.166" height="8488.403"/>
		</defs>
		<clipPath id="SVGID_22_">
			<use xlink:href="#SVGID_123_"  overflow="visible"/>
		</clipPath>
		<rect x="226.781" y="589.088" clip-path="url(#SVGID_22_)" fill="#504B48" width="206.93" height="148.724"/>
		<rect x="226.781" y="689.823" clip-path="url(#SVGID_22_)" fill="#353230" width="206.93" height="50.869"/>
		<rect x="221.383" y="575.373" clip-path="url(#SVGID_22_)" fill="#C2C4C4" width="12.883" height="218.896"/>
		<rect x="425.145" y="575.373" clip-path="url(#SVGID_22_)" fill="#C2C4C4" width="12.883" height="218.896"/>
		<rect x="220.797" y="793.265" clip-path="url(#SVGID_22_)" fill="#C2C4C4" width="218.896" height="12.884"/>
		<path clip-path="url(#SVGID_22_)" fill="#00A1CD" d="M541.195,398.239c0,121.628-139.445,292.815-208.644,292.815
			c-77.571,0-208.644-168.727-208.644-290.354c0-121.628,93.413-150.099,208.644-150.099
			C447.781,250.601,541.195,276.611,541.195,398.239"/>
		<path clip-path="url(#SVGID_22_)" fill="#FFFFFF" d="M256.429,423.689c0-19.546,15.844-35.391,35.39-35.391
			c19.546,0,35.39,15.845,35.39,35.391"/>
		<path clip-path="url(#SVGID_22_)" fill="#FFFFFF" d="M348.031,423.689c0-19.546,15.845-35.391,35.39-35.391
			c19.546,0,35.39,15.845,35.39,35.391"/>
		<path clip-path="url(#SVGID_22_)" fill="none" stroke="#0D4060" stroke-width="3" stroke-miterlimit="10" d="M264.043,377.875
			c0,0,10.373-21.013,33.159-8.625"/>
		<path clip-path="url(#SVGID_22_)" fill="none" stroke="#0D4060" stroke-width="3" stroke-miterlimit="10" d="M405.992,377.875
			c0,0-7.578-21.42-30.364-9.033"/>
		<path clip-path="url(#SVGID_22_)" fill="#0D4060" d="M276.511,423.689c0-8.455,6.853-15.309,15.309-15.309
			c8.455,0,15.309,6.854,15.309,15.309"/>
		<path clip-path="url(#SVGID_22_)" fill="#0D4060" d="M368.112,423.689c0-8.455,6.854-15.309,15.309-15.309
			c8.454,0,15.308,6.854,15.308,15.309"/>
		<path clip-path="url(#SVGID_22_)" fill="#0D4060" d="M383.115,455.941c0,0-8.142,26.136-48.203,25.334
			c-40.059-0.803-43.221-25.334-43.221-25.334H383.115z"/>
		<path clip-path="url(#SVGID_22_)" fill="none" stroke="#00A1CD" stroke-width="10" stroke-miterlimit="10" d="M234.823,575.373
			c0,0-54.506,12.903-64.857,30.03c-10.352,17.126,0.253,56.42,0.253,56.42"/>
		<polyline clip-path="url(#SVGID_22_)" fill="#00A1CD" points="334.652,668.604 350.131,770.031 368.684,770.031 384.163,668.562 
					"/>
		<polyline clip-path="url(#SVGID_22_)" fill="#00A1CD" points="277.603,668.29 293.081,770.03 311.634,770.03 327.113,668.604 		
			"/>
		<polygon clip-path="url(#SVGID_22_)" fill="#ED1651" points="368.503,795.243 350.315,795.243 342.954,723.151 377.248,723.151 		
			"/>
		<polygon clip-path="url(#SVGID_22_)" fill="#ED1651" points="311.257,794.269 293.067,794.269 285.922,722.177 318.616,722.177 		
			"/>
		<path clip-path="url(#SVGID_22_)" fill="#504B48" d="M272.238,795.65c0-17.226,13.964-31.188,31.188-31.188
			c17.226,0,31.189,13.963,31.189,31.188"/>
		<path clip-path="url(#SVGID_22_)" fill="#504B48" d="M330.487,795.65c0-17.226,13.963-31.188,31.188-31.188
			s31.188,13.963,31.188,31.188"/>
		<g opacity="0.7" clip-path="url(#SVGID_22_)">
			<g>
				<defs>
					<rect id="SVGID_137_" x="209.438" y="445.801" width="46.99" height="15.31"/>
				</defs>
				<clipPath id="SVGID_24_">
					<use xlink:href="#SVGID_137_"  overflow="visible"/>
				</clipPath>
				<path clip-path="url(#SVGID_24_)" fill="#A2CCED" d="M256.429,453.458c0,4.228-10.52,7.655-23.498,7.655
					c-12.977,0-23.497-3.427-23.497-7.655s10.52-7.656,23.497-7.656C245.909,445.802,256.429,449.229,256.429,453.458"/>
			</g>
		</g>
		<g opacity="0.7" clip-path="url(#SVGID_22_)">
			<g>
				<defs>
					<rect id="SVGID_139_" x="410.208" y="445.801" width="47" height="15.31"/>
				</defs>
				<clipPath id="SVGID_26_">
					<use xlink:href="#SVGID_139_"  overflow="visible"/>
				</clipPath>
				<path clip-path="url(#SVGID_26_)" fill="#A2CCED" d="M457.208,453.458c0,4.228-10.52,7.655-23.497,7.655
					c-12.979,0-23.499-3.427-23.499-7.655s10.52-7.656,23.499-7.656C446.688,445.802,457.208,449.229,457.208,453.458"/>
			</g>
		</g>
		<path clip-path="url(#SVGID_22_)" fill="#353230" d="M187.665,840.036h-4.579c-3.775,0-6.864-3.089-6.864-6.864V629.088
			c0-3.774,3.089-6.863,6.864-6.863h4.579c3.775,0,6.864,3.088,6.864,6.863v204.084C194.529,836.947,191.44,840.036,187.665,840.036
			"/>
		<path clip-path="url(#SVGID_22_)" fill="#353230" d="M216.397,840.036h-4.58c-3.774,0-6.864-3.089-6.864-6.864V786.92
			c0-3.776,3.089-6.864,6.864-6.864h4.58c3.775,0,6.864,3.088,6.864,6.864v46.252C223.261,836.947,220.172,840.036,216.397,840.036"
			/>
		<path clip-path="url(#SVGID_22_)" fill="#353230" d="M452.456,840.036h-4.579c-3.775,0-6.864-3.089-6.864-6.864V786.92
			c0-3.776,3.089-6.864,6.864-6.864h4.579c3.775,0,6.863,3.088,6.863,6.864v46.252C459.319,836.947,456.231,840.036,452.456,840.036
			"/>
		<path clip-path="url(#SVGID_22_)" fill="#A2CCED" d="M159.692,694.19c0.08,1.561,1.563,2.766,3.295,2.677
			c1.733-0.089,3.085-1.438,3.005-3l-0.554-10.828c0.833,0.358,1.722,0.622,2.644,0.8l0.665,12.981
			c0.08,1.56,1.563,2.767,3.296,2.677c1.732-0.088,3.084-1.439,3.004-3l-0.665-12.982c0.809-0.242,1.578-0.556,2.3-0.938
			l0.571,11.155c0.081,1.562,1.563,2.766,3.296,2.677c1.733-0.089,3.086-1.439,3.006-2.999l-0.952-18.591
			c0.106-0.596,0.145-1.207,0.137-1.826l1.386,3.5c0.583,1.466,2.396,2.225,4.029,1.686c1.634-0.541,2.495-2.182,1.914-3.649
			l-7.408-18.697c-0.285-0.72-0.869-1.266-1.578-1.575c-1.889-4.102-6.493-6.895-11.7-6.629c-6.626,0.34-11.797,5.502-11.492,11.471
			l0.754,14.733c0.006,0.104,0.024,0.207,0.033,0.312c0,0.053-0.012,0.104-0.009,0.156L159.692,694.19z"/>
		<path clip-path="url(#SVGID_22_)" fill="none" stroke="#00A1CD" stroke-width="10" stroke-miterlimit="10" d="M425.483,577.062
			c0,0,54.505,12.903,64.857,30.03c10.352,17.127-0.253,56.42-0.253,56.42"/>
		<path clip-path="url(#SVGID_22_)" fill="#353230" d="M473.974,841.83h4.579c3.775,0,6.864-3.089,6.864-6.864V630.882
			c0-3.775-3.089-6.863-6.864-6.863h-4.579c-3.775,0-6.865,3.088-6.865,6.863v204.084
			C467.109,838.741,470.199,841.83,473.974,841.83"/>
		<path clip-path="url(#SVGID_22_)" fill="#A2CCED" d="M500.614,695.88c-0.08,1.561-1.563,2.766-3.297,2.677
			c-1.731-0.089-3.084-1.438-3.004-3l0.555-10.828c-0.833,0.358-1.722,0.622-2.644,0.8l-0.666,12.981
			c-0.08,1.56-1.563,2.767-3.296,2.677c-1.733-0.089-3.084-1.439-3.005-3l0.665-12.982c-0.808-0.242-1.579-0.556-2.301-0.938
			l-0.571,11.156c-0.08,1.562-1.563,2.766-3.296,2.677c-1.732-0.089-3.084-1.439-3.004-2.999l0.952-18.591
			c-0.106-0.596-0.146-1.206-0.139-1.825l-1.386,3.498c-0.581,1.468-2.395,2.226-4.028,1.687c-1.635-0.541-2.496-2.182-1.916-3.649
			l7.409-18.697c0.285-0.72,0.868-1.266,1.579-1.575c1.888-4.102,6.492-6.895,11.699-6.629c6.625,0.34,11.796,5.502,11.49,11.471
			l-0.753,14.733c-0.005,0.104-0.025,0.207-0.034,0.312c0.001,0.053,0.012,0.104,0.009,0.156L500.614,695.88z"/>
		<path clip-path="url(#SVGID_22_)" fill="#C2C4C4" d="M198.845,806.366h-1.727c-1.424,0-2.588-1.165-2.588-2.589V657.865
			c0-1.424,1.164-2.589,2.588-2.589h1.727c1.423,0,2.587,1.165,2.587,2.589v145.912
			C201.432,805.201,200.268,806.366,198.845,806.366"/>
		<path clip-path="url(#SVGID_22_)" fill="#C2C4C4" d="M463.954,805.448h-1.727c-1.424,0-2.589-1.165-2.589-2.588V656.947
			c0-1.423,1.165-2.587,2.589-2.587h1.727c1.424,0,2.588,1.164,2.588,2.587V802.86C466.542,804.283,465.378,805.448,463.954,805.448
			"/>
		<rect x="197.981" y="711.507" clip-path="url(#SVGID_22_)" fill="#C2C4C4" width="29.842" height="18.518"/>
		<rect x="435.245" y="712.917" clip-path="url(#SVGID_22_)" fill="#C2C4C4" width="29.842" height="18.517"/>
		<path clip-path="url(#SVGID_22_)" fill="#00A1CD" d="M831.507,49.173c-124.953,0-226.247,30.873-226.247,162.764
			c0,33.45,4.444,67.175,9.123,100.232c5.194,36.699,11.657,73.29,21.285,109.108c4.231,15.748,9.241,29.565,7.62,46.099
			c-1.421,14.493-5.475,29.229-11.939,42.295c-17.437,35.246-22.071,71.527-9.161,109.166c8.565,24.976,29.305,44.883,52.514,57.374
			c48.122,25.902,105.53,24.57,158.583,24.57c58.269,0,125.827-4.449,173.618-41.859c19.709-15.428,33.995-36.328,41.924-60.021
			c4.688-14.007,6.23-28.007,8.058-42.52c2.526-20.074-3.034-37.394-10.595-55.605c-11.348-27.342-24.33-64.233-16.84-94.199
			c17.4-69.85,28.305-161.903,28.305-197.31C1057.755,77.378,956.46,49.173,831.507,49.173"/>
		<path clip-path="url(#SVGID_22_)" fill="#FFFFFF" d="M759.122,245.723c0-17.268,14-31.268,31.27-31.268
			c17.268,0,31.268,14,31.268,31.268"/>
		<path clip-path="url(#SVGID_22_)" fill="#FFFFFF" d="M840.057,245.723c0-17.268,13.999-31.268,31.269-31.268
			c17.269,0,31.268,14,31.268,31.268"/>
		<path clip-path="url(#SVGID_22_)" fill="none" stroke="#0D4060" stroke-width="3" stroke-miterlimit="10" d="M765.85,205.246
			c0,0,9.165-18.565,29.298-7.62"/>
		<path clip-path="url(#SVGID_22_)" fill="none" stroke="#0D4060" stroke-width="3" stroke-miterlimit="10" d="M891.268,205.246
			c0,0-6.696-18.927-26.828-7.981"/>
		<path clip-path="url(#SVGID_22_)" fill="#0D4060" d="M776.865,245.723c0-7.47,6.056-13.525,13.526-13.525
			c7.47,0,13.525,6.055,13.525,13.525"/>
		<path clip-path="url(#SVGID_22_)" fill="#0D4060" d="M857.799,245.723c0-7.47,6.057-13.525,13.525-13.525
			c7.47,0,13.525,6.055,13.525,13.525"/>
		<path clip-path="url(#SVGID_22_)" fill="#0D4060" d="M871.054,274.219c0,0-7.193,23.093-42.588,22.384
			c-35.395-0.708-38.188-22.384-38.188-22.384H871.054z"/>
		<g opacity="0.7" clip-path="url(#SVGID_22_)">
			<g>
				<defs>
					<rect id="SVGID_141_" x="717.598" y="265.261" width="41.52" height="13.53"/>
				</defs>
				<clipPath id="SVGID_28_">
					<use xlink:href="#SVGID_141_"  overflow="visible"/>
				</clipPath>
				<path clip-path="url(#SVGID_28_)" fill="#A2CCED" d="M759.122,272.025c0,3.735-9.296,6.764-20.761,6.764
					c-11.466,0-20.761-3.029-20.761-6.764c0-3.735,9.294-6.764,20.761-6.764C749.826,265.261,759.122,268.29,759.122,272.025"/>
			</g>
		</g>
		<g opacity="0.7" clip-path="url(#SVGID_22_)">
			<g>
				<defs>
					<rect id="SVGID_143_" x="894.999" y="265.261" width="41.52" height="13.53"/>
				</defs>
				<clipPath id="SVGID_30_">
					<use xlink:href="#SVGID_143_"  overflow="visible"/>
				</clipPath>
				<path clip-path="url(#SVGID_30_)" fill="#A2CCED" d="M936.519,272.025c0,3.735-9.295,6.764-20.761,6.764
					c-11.465,0-20.761-3.029-20.761-6.764c0-3.735,9.295-6.764,20.761-6.764C927.223,265.261,936.519,268.29,936.519,272.025"/>
			</g>
		</g>
		<path clip-path="url(#SVGID_22_)" fill="none" stroke="#00A1CD" stroke-width="14" stroke-miterlimit="10" d="M646.661,495.069
			c0,0-47.924,34.493-57.955,66.874c-10.031,32.382-16.011,102.414-16.011,102.414"/>
		<path clip-path="url(#SVGID_22_)" fill="#A2CCED" d="M537.486,702.3c-0.681,2.551,1.488,5.162,4.82,5.806
			c3.332,0.642,6.615-0.919,7.297-3.469l4.725-17.691c1.387,0.955,2.932,1.782,4.586,2.485l-5.666,21.21
			c-0.681,2.551,1.489,5.163,4.82,5.805c3.332,0.642,6.615-0.917,7.297-3.469l5.665-21.21c1.661-0.025,3.287-0.184,4.862-0.471
			l-4.868,18.228c-0.682,2.55,1.487,5.163,4.819,5.806s6.617-0.92,7.297-3.469l8.113-30.375c0.518-0.91,0.919-1.877,1.236-2.878
			l0.761,6.263c0.32,2.627,3.35,4.672,6.737,4.543c3.385-0.129,5.895-2.384,5.575-5.01l-4.068-33.473
			c-0.157-1.287-0.97-2.432-2.153-3.252c-1.39-7.463-8.629-14.047-18.64-15.978c-12.743-2.456-25.3,3.514-27.904,13.267
			l-6.428,24.07c-0.046,0.172-0.063,0.344-0.102,0.517c-0.029,0.085-0.079,0.161-0.103,0.248L537.486,702.3z"/>
		<path clip-path="url(#SVGID_22_)" fill="none" stroke="#00A1CD" stroke-width="14" stroke-miterlimit="10" d="M1019.142,488.093
			c0,0,49.406,29.877,62.794,61.145c13.388,31.267,27.51,100.337,27.51,100.337"/>
		<path clip-path="url(#SVGID_22_)" fill="#A2CCED" d="M1147.27,684.052c0.952,2.474-0.779,5.271-3.847,6.216
			c-3.066,0.944-6.354-0.304-7.306-2.776l-6.603-17.154c-1.192,1.078-2.551,2.043-4.025,2.895l7.914,20.563
			c0.951,2.474-0.78,5.271-3.848,6.215c-3.065,0.945-6.354-0.303-7.307-2.776l-7.914-20.563c-1.57,0.127-3.125,0.121-4.645-0.021
			l6.801,17.673c0.951,2.473-0.779,5.27-3.846,6.215s-6.355-0.304-7.307-2.777l-11.334-29.447c-0.599-0.859-1.094-1.782-1.515-2.748
			l0.04,6.297c0.016,2.641-2.598,4.952-5.809,5.135l0,0c-3.211,0.185-5.852-1.826-5.867-4.467l-0.215-33.65
			c-0.008-1.295,0.621-2.507,1.639-3.43c0.41-7.547,6.443-14.76,15.658-17.6c11.729-3.616,24.302,1.163,27.941,10.619l8.98,23.337
			c0.064,0.167,0.102,0.336,0.158,0.503c0.039,0.082,0.095,0.152,0.127,0.238L1147.27,684.052z"/>
		<polyline clip-path="url(#SVGID_22_)" fill="#00A1CD" points="854.808,695.604 871.594,805.59 891.711,805.59 908.496,695.558 		
			"/>
		<polyline clip-path="url(#SVGID_22_)" fill="#00A1CD" points="754.476,695.265 771.26,805.589 791.378,805.589 808.164,695.605 		
			"/>
		<polygon clip-path="url(#SVGID_22_)" fill="#FFCB05" points="891.516,832.929 871.792,832.929 861.42,743.889 901.988,743.889 		
			"/>
		<polygon clip-path="url(#SVGID_22_)" fill="#FFCB05" points="790.969,832.32 771.245,832.32 760.773,743.28 801.34,743.28 		"/>
		<path clip-path="url(#SVGID_22_)" fill="#504B48" d="M724.075,833.37c0-18.68,15.142-33.82,33.819-33.82
			c18.679,0,33.821,15.141,33.821,33.82"/>
		<path clip-path="url(#SVGID_22_)" fill="#504B48" d="M871.983,833.37c0-18.68,15.142-33.82,33.82-33.82
			c18.678,0,33.82,15.141,33.82,33.82"/>
	</g>
	<g clip-path="url(#SVGID_2_)">
		<defs>
			<rect id="SVGID_261_" x="-5456.562" y="-3604.893" width="12912.166" height="8488.403"/>
		</defs>
		<clipPath id="SVGID_32_">
			<use xlink:href="#SVGID_261_"  overflow="visible"/>
		</clipPath>
	</g>
	<g clip-path="url(#SVGID_2_)">
		<defs>
			<rect id="SVGID_263_" x="-5456.562" y="-3604.893" width="12912.166" height="8488.403"/>
		</defs>
		<clipPath id="SVGID_34_">
			<use xlink:href="#SVGID_263_"  overflow="visible"/>
		</clipPath>
	</g>
	<g clip-path="url(#SVGID_2_)">
		<defs>
			<rect id="SVGID_291_" x="-5456.562" y="-3604.893" width="12912.166" height="8488.403"/>
		</defs>
		<clipPath id="SVGID_36_">
			<use xlink:href="#SVGID_291_"  overflow="visible"/>
		</clipPath>
	</g>
	<g clip-path="url(#SVGID_2_)">
		<defs>
			<rect id="SVGID_357_" x="-5456.562" y="-3604.893" width="12912.166" height="8488.403"/>
		</defs>
		<clipPath id="SVGID_38_">
			<use xlink:href="#SVGID_357_"  overflow="visible"/>
		</clipPath>
	</g>
	<g clip-path="url(#SVGID_2_)">
		<defs>
			<rect id="SVGID_359_" x="-5456.562" y="-3604.893" width="12912.166" height="8488.403"/>
		</defs>
		<clipPath id="SVGID_40_">
			<use xlink:href="#SVGID_359_"  overflow="visible"/>
		</clipPath>
	</g>
	<g clip-path="url(#SVGID_2_)">
		<defs>
			<rect id="SVGID_377_" x="-5456.562" y="-3604.893" width="12912.166" height="8488.403"/>
		</defs>
		<clipPath id="SVGID_42_">
			<use xlink:href="#SVGID_377_"  overflow="visible"/>
		</clipPath>
	</g>
	<g clip-path="url(#SVGID_2_)">
		<defs>
			<rect id="SVGID_379_" x="-5456.562" y="-3604.893" width="12912.166" height="8488.403"/>
		</defs>
		<clipPath id="SVGID_44_">
			<use xlink:href="#SVGID_379_"  overflow="visible"/>
		</clipPath>
	</g>
	<g clip-path="url(#SVGID_2_)">
		<defs>
			<rect id="SVGID_381_" x="-5456.562" y="-3604.893" width="12912.166" height="8488.403"/>
		</defs>
		<clipPath id="SVGID_46_">
			<use xlink:href="#SVGID_381_"  overflow="visible"/>
		</clipPath>
	</g>
	<g clip-path="url(#SVGID_2_)">
		<defs>
			<rect id="SVGID_383_" x="-5456.562" y="-3604.893" width="12912.166" height="8488.403"/>
		</defs>
		<clipPath id="SVGID_48_">
			<use xlink:href="#SVGID_383_"  overflow="visible"/>
		</clipPath>
	</g>
	<g clip-path="url(#SVGID_2_)">
		<defs>
			<rect id="SVGID_393_" x="-5456.562" y="-3604.893" width="12912.166" height="8488.403"/>
		</defs>
		<clipPath id="SVGID_50_">
			<use xlink:href="#SVGID_393_"  overflow="visible"/>
		</clipPath>
	</g>
	<g clip-path="url(#SVGID_2_)">
		<defs>
			<rect id="SVGID_395_" x="-5456.562" y="-3604.893" width="12912.166" height="8488.403"/>
		</defs>
		<clipPath id="SVGID_52_">
			<use xlink:href="#SVGID_395_"  overflow="visible"/>
		</clipPath>
	</g>
	<g clip-path="url(#SVGID_2_)">
		<defs>
			<rect id="SVGID_397_" x="-5456.562" y="-3604.893" width="12912.166" height="8488.403"/>
		</defs>
		<clipPath id="SVGID_54_">
			<use xlink:href="#SVGID_397_"  overflow="visible"/>
		</clipPath>
	</g>
	<g clip-path="url(#SVGID_2_)">
		<defs>
			<rect id="SVGID_815_" x="-5456.562" y="-3604.893" width="12912.166" height="8488.403"/>
		</defs>
		<clipPath id="SVGID_56_">
			<use xlink:href="#SVGID_815_"  overflow="visible"/>
		</clipPath>
	</g>
</g>
</svg>
