<?xml version="1.0" encoding="utf-8"?>
<!-- Generator: Adobe Illustrator 16.0.0, SVG Export Plug-In . SVG Version: 6.00 Build 0)  -->
<!DOCTYPE svg PUBLIC "-//W3C//DTD SVG 1.1//EN" "http://www.w3.org/Graphics/SVG/1.1/DTD/svg11.dtd">
<svg version="1.1" id="Layer_1" xmlns="http://www.w3.org/2000/svg" xmlns:xlink="http://www.w3.org/1999/xlink" x="0px" y="0px"
	 width="1120px" height="744px" viewBox="0 0 1120 744" enable-background="new 0 0 1120 744" xml:space="preserve">
<g>
	<defs>
		<rect id="SVGID_1_" x="-1880" y="-5296.399" width="12912.2" height="8488.399"/>
	</defs>
	<clipPath id="SVGID_2_">
		<use xlink:href="#SVGID_1_"  overflow="visible"/>
	</clipPath>
	<g clip-path="url(#SVGID_2_)">
		<defs>
			<rect id="SVGID_3_" x="-1880" y="-5296.403" width="12912.166" height="8488.403"/>
		</defs>
		<clipPath id="SVGID_4_">
			<use xlink:href="#SVGID_3_"  overflow="visible"/>
		</clipPath>
		<path clip-path="url(#SVGID_4_)" fill="#00A1CD" d="M391.621,395.004c13.538,84.346-43.862,163.695-128.208,177.232
			C179.068,585.774,99.718,528.375,86.18,444.029c-13.538-84.345,43.862-163.695,128.208-177.233
			C298.733,253.258,378.083,310.658,391.621,395.004"/>
		<path clip-path="url(#SVGID_4_)" fill="none" stroke="#00A1CD" stroke-width="12" stroke-miterlimit="10" d="M130.479,519.034
			c0,0-14.712,14.832-16.938,27.75c-2.227,12.918-1.836,40.401-1.836,40.401"/>
		<path clip-path="url(#SVGID_4_)" fill="#A2CCED" d="M98.718,605.516c-0.169,1.234,0.813,2.398,2.184,2.587
			c1.37,0.188,2.63-0.668,2.799-1.902l1.176-8.563c0.599,0.404,1.257,0.742,1.952,1.02l-1.41,10.267
			c-0.169,1.234,0.813,2.398,2.184,2.586c1.37,0.188,2.63-0.668,2.8-1.902l1.409-10.266c0.669-0.071,1.319-0.202,1.942-0.395
			l-1.212,8.823c-0.169,1.234,0.813,2.398,2.184,2.587c1.37,0.188,2.63-0.668,2.8-1.903l2.019-14.701
			c0.171-0.45,0.293-0.925,0.38-1.409l0.565,2.946c0.237,1.235,1.544,2.1,2.904,1.92c1.361-0.18,2.28-1.338,2.042-2.574
			l-3.021-15.745c-0.116-0.606-0.491-1.12-1.002-1.47c-0.869-3.492-4.06-6.364-8.177-6.93c-5.241-0.72-10.059,2.553-10.707,7.275
			l-1.6,11.65c-0.011,0.082-0.011,0.164-0.02,0.248c-0.008,0.041-0.025,0.08-0.031,0.123L98.718,605.516z"/>
		<path clip-path="url(#SVGID_4_)" fill="none" stroke="#00A1CD" stroke-width="12" stroke-miterlimit="10" d="M380.14,450.432
			c0,0,20.676-2.99,30.229-11.966c9.553-8.976,25.783-31.16,25.783-31.16"/>
		<path clip-path="url(#SVGID_4_)" fill="#A2CCED" d="M442.36,417.493c0.806-0.812,0.729-2.207-0.171-3.103
			c-0.901-0.896-2.297-0.964-3.104-0.152l-5.593,5.628c-0.215-0.628-0.51-1.239-0.868-1.826l6.706-6.746
			c0.806-0.812,0.729-2.208-0.172-3.103c-0.9-0.896-2.297-0.965-3.104-0.152l-6.706,6.746c-0.529-0.317-1.078-0.58-1.641-0.783
			l5.763-5.799c0.806-0.813,0.729-2.207-0.171-3.104c-0.9-0.894-2.297-0.962-3.104-0.151l-9.603,9.662
			c-0.374,0.235-0.725,0.515-1.057,0.823l1.214-2.472c0.508-1.037,0.028-2.393-1.069-3.013c-1.095-0.62-2.408-0.278-2.918,0.759
			l-6.485,13.212c-0.249,0.508-0.258,1.093-0.076,1.63c-1.292,3.041-0.541,6.909,2.166,9.599c3.444,3.423,8.784,3.685,11.868,0.582
			l7.61-7.657c0.055-0.056,0.1-0.114,0.152-0.171c0.029-0.025,0.062-0.044,0.09-0.072L442.36,417.493z"/>
		<polyline clip-path="url(#SVGID_4_)" fill="#00A1CD" points="211.082,549.107 228.616,646.871 239.885,646.53 246.759,562.534 		
			"/>
		<polygon clip-path="url(#SVGID_4_)" fill="#CF2153" points="237.442,657.618 226.388,657.582 221.68,607.664 243.42,607.736 		"/>
		<path clip-path="url(#SVGID_4_)" fill="#FFFFFF" d="M229.875,407.337c-0.468-11.869,8.774-21.87,20.643-22.338
			c11.869-0.47,21.87,8.773,22.338,20.643"/>
		<path clip-path="url(#SVGID_4_)" fill="#FFFFFF" d="M285.5,405.143c-0.468-11.869,8.774-21.87,20.643-22.339
			c11.869-0.468,21.871,8.774,22.339,20.644"/>
		<path clip-path="url(#SVGID_4_)" fill="none" stroke="#0D4060" stroke-width="3" stroke-miterlimit="10" d="M233.401,379.335
			c0,0,5.796-13.009,19.929-6.032"/>
		<path clip-path="url(#SVGID_4_)" fill="none" stroke="#0D4060" stroke-width="3" stroke-miterlimit="10" d="M319.6,375.935
			c0,0-5.115-12.827-18.655-4.759"/>
		<path clip-path="url(#SVGID_4_)" fill="#0D4060" d="M313.534,393.894c3.812,2.253,8.505,1.681,11.667-1.083
			c-3.507-5.543-9.457-9.339-16.282-9.936C307.88,387.055,309.637,391.59,313.534,393.894"/>
		<path clip-path="url(#SVGID_4_)" fill="#0D4060" d="M258.288,396.169c3.812,2.253,8.505,1.681,11.667-1.083
			c-3.507-5.544-9.457-9.339-16.282-9.936C252.634,389.33,254.391,393.865,258.288,396.169"/>
		<path clip-path="url(#SVGID_4_)" fill="#0D4060" d="M307.578,423.887c0,0-4.318,16.066-28.664,16.539
			c-24.345,0.473-26.853-14.35-26.853-14.35L307.578,423.887z"/>
		<g opacity="0.7" clip-path="url(#SVGID_4_)">
			<g>
				<defs>
					<rect id="SVGID_17_" x="202.05" y="421.29" width="28.54" height="9.37"/>
				</defs>
				<clipPath id="SVGID_6_">
					<use xlink:href="#SVGID_17_"  overflow="visible"/>
				</clipPath>
				<path clip-path="url(#SVGID_6_)" fill="#A2CCED" d="M230.588,425.414c0.102,2.566-6.205,4.9-14.085,5.212
					c-7.881,0.31-14.351-1.519-14.453-4.086c-0.101-2.567,6.205-4.901,14.086-5.212
					C224.016,421.017,230.487,422.847,230.588,425.414"/>
			</g>
		</g>
		<g opacity="0.7" clip-path="url(#SVGID_4_)">
			<g>
				<defs>
					<rect id="SVGID_19_" x="323.97" y="416.48" width="28.54" height="9.369"/>
				</defs>
				<clipPath id="SVGID_8_">
					<use xlink:href="#SVGID_19_"  overflow="visible"/>
				</clipPath>
				<path clip-path="url(#SVGID_8_)" fill="#A2CCED" d="M352.511,420.604c0.101,2.567-6.205,4.899-14.085,5.211
					c-7.881,0.312-14.352-1.519-14.453-4.086s6.205-4.9,14.086-5.212C345.939,416.207,352.409,418.036,352.511,420.604"/>
			</g>
		</g>
		<path clip-path="url(#SVGID_4_)" fill="#504B48" d="M226.73,658.097c0.033-10.063,8.218-18.194,18.281-18.161
			c10.064,0.033,18.195,8.218,18.161,18.281"/>
		<polyline clip-path="url(#SVGID_4_)" fill="#00A1CD" points="257.524,549.107 275.058,646.871 286.328,646.53 293.201,562.534 		
			"/>
		<polygon clip-path="url(#SVGID_4_)" fill="#CF2153" points="283.884,657.618 272.831,657.582 268.123,607.664 289.862,607.736 		
			"/>
		<path clip-path="url(#SVGID_4_)" fill="#504B48" d="M273.173,658.097c0.033-10.063,8.218-18.194,18.281-18.161
			c10.063,0.033,18.194,8.218,18.161,18.281"/>
	</g>
	<g clip-path="url(#SVGID_2_)">
		<defs>
			<rect id="SVGID_55_" x="-1880" y="-5296.403" width="12912.166" height="8488.403"/>
		</defs>
		<clipPath id="SVGID_10_">
			<use xlink:href="#SVGID_55_"  overflow="visible"/>
		</clipPath>
	</g>
	<g clip-path="url(#SVGID_2_)">
		<defs>
			<rect id="SVGID_73_" x="-1880" y="-5296.403" width="12912.166" height="8488.403"/>
		</defs>
		<clipPath id="SVGID_12_">
			<use xlink:href="#SVGID_73_"  overflow="visible"/>
		</clipPath>
	</g>
	<g clip-path="url(#SVGID_2_)">
		<defs>
			<rect id="SVGID_83_" x="-1880" y="-5296.403" width="12912.166" height="8488.403"/>
		</defs>
		<clipPath id="SVGID_14_">
			<use xlink:href="#SVGID_83_"  overflow="visible"/>
		</clipPath>
	</g>
	<g clip-path="url(#SVGID_2_)">
		<defs>
			<rect id="SVGID_89_" x="-1880" y="-5296.403" width="12912.166" height="8488.403"/>
		</defs>
		<clipPath id="SVGID_16_">
			<use xlink:href="#SVGID_89_"  overflow="visible"/>
		</clipPath>
	</g>
	<g clip-path="url(#SVGID_2_)">
		<defs>
			<rect id="SVGID_95_" x="-1880" y="-5296.403" width="12912.166" height="8488.403"/>
		</defs>
		<clipPath id="SVGID_18_">
			<use xlink:href="#SVGID_95_"  overflow="visible"/>
		</clipPath>
	</g>
	<g clip-path="url(#SVGID_2_)">
		<defs>
			<rect id="SVGID_97_" x="-1880" y="-5296.403" width="12912.166" height="8488.403"/>
		</defs>
		<clipPath id="SVGID_20_">
			<use xlink:href="#SVGID_97_"  overflow="visible"/>
		</clipPath>
	</g>
	<g clip-path="url(#SVGID_2_)">
		<defs>
			<rect id="SVGID_123_" x="-1880" y="-5296.403" width="12912.166" height="8488.403"/>
		</defs>
		<clipPath id="SVGID_22_">
			<use xlink:href="#SVGID_123_"  overflow="visible"/>
		</clipPath>
	</g>
	<g clip-path="url(#SVGID_2_)">
		<defs>
			<rect id="SVGID_261_" x="-1880" y="-5296.403" width="12912.166" height="8488.403"/>
		</defs>
		<clipPath id="SVGID_24_">
			<use xlink:href="#SVGID_261_"  overflow="visible"/>
		</clipPath>
	</g>
	<g clip-path="url(#SVGID_2_)">
		<defs>
			<rect id="SVGID_263_" x="-1880" y="-5296.403" width="12912.166" height="8488.403"/>
		</defs>
		<clipPath id="SVGID_26_">
			<use xlink:href="#SVGID_263_"  overflow="visible"/>
		</clipPath>
	</g>
	<g clip-path="url(#SVGID_2_)">
		<defs>
			<rect id="SVGID_291_" x="-1880" y="-5296.403" width="12912.166" height="8488.403"/>
		</defs>
		<clipPath id="SVGID_28_">
			<use xlink:href="#SVGID_291_"  overflow="visible"/>
		</clipPath>
		<path clip-path="url(#SVGID_28_)" fill="#00A1CD" d="M819.692,537.084c0.957-53.383,39.796-125.443,93.835-124.479
			c60.159,1.076,90.29,73.299,89.333,126.682s-42.18,65.145-92.755,64.236C859.53,602.618,818.735,590.468,819.692,537.084"/>
		<path clip-path="url(#SVGID_28_)" fill="#FFFFFF" d="M878.67,492.778c0.153-8.578,7.231-15.408,15.811-15.255
			c8.579,0.154,15.409,7.233,15.255,15.812"/>
		<path clip-path="url(#SVGID_28_)" fill="#FFFFFF" d="M918.874,493.499c0.153-8.578,7.232-15.408,15.812-15.255
			c8.578,0.154,15.408,7.233,15.254,15.812"/>
		<path clip-path="url(#SVGID_28_)" fill="none" stroke="#0D4060" stroke-width="3" stroke-miterlimit="10" d="M882.372,472.73
			c0,0,4.718-9.141,14.621-3.524"/>
		<path clip-path="url(#SVGID_28_)" fill="none" stroke="#0D4060" stroke-width="3" stroke-miterlimit="10" d="M944.674,473.848
			c0,0-3.157-9.462-13.256-4.204"/>
		<path clip-path="url(#SVGID_28_)" fill="#0D4060" d="M887.483,492.937c0.066-3.711,3.128-6.665,6.839-6.599s6.665,3.129,6.6,6.84"
			/>
		<path clip-path="url(#SVGID_28_)" fill="#0D4060" d="M927.688,493.657c0.066-3.711,3.129-6.665,6.839-6.599
			c3.711,0.066,6.665,3.129,6.6,6.839"/>
		<path clip-path="url(#SVGID_28_)" fill="#0D4060" d="M934.019,507.931c0,0-3.779,11.407-21.355,10.739
			s-18.771-11.459-18.771-11.459L934.019,507.931z"/>
		<path clip-path="url(#SVGID_28_)" fill="none" stroke="#00A1CD" stroke-width="10" stroke-miterlimit="10" d="M843.889,538.946
			c0,0-35.601-10.353-42.039-17.293c-6.439-6.941-20.066-46.729-20.066-46.729"/>
		<polyline clip-path="url(#SVGID_28_)" fill="#00A1CD" points="915.716,601.611 921.711,646.249 929.854,646.396 937.446,601.981 
					"/>
		<polyline clip-path="url(#SVGID_28_)" fill="#00A1CD" points="885.107,600.745 891.102,645.521 899.243,645.667 906.835,601.271 
					"/>
		<polygon clip-path="url(#SVGID_28_)" fill="#56C5D0" points="929.576,657.459 921.593,657.316 917.831,619.605 934.809,619.911 		
			"/>
		<polygon clip-path="url(#SVGID_28_)" fill="#56C5D0" points="898.884,656.483 890.9,656.34 887.019,618.629 903.995,618.933 		"/>
		<path clip-path="url(#SVGID_28_)" fill="#504B48" d="M871.801,656.423c0.135-7.56,6.374-13.579,13.934-13.443
			c7.561,0.136,13.58,6.374,13.443,13.935"/>
		<path clip-path="url(#SVGID_28_)" fill="#504B48" d="M921.668,657.496c0.135-7.561,6.374-13.579,13.934-13.443
			c7.56,0.135,13.579,6.374,13.443,13.935"/>
		<g opacity="0.7" clip-path="url(#SVGID_28_)">
			<g>
				<defs>
					<rect id="SVGID_329_" x="857.81" y="502.29" width="20.63" height="6.729"/>
				</defs>
				<clipPath id="SVGID_30_">
					<use xlink:href="#SVGID_329_"  overflow="visible"/>
				</clipPath>
				<path clip-path="url(#SVGID_30_)" fill="#A2CCED" d="M878.436,505.844c-0.033,1.855-4.679,3.277-10.373,3.176
					c-5.696-0.103-10.286-1.689-10.253-3.546c0.033-1.856,4.677-3.277,10.373-3.175
					C873.878,502.401,878.468,503.988,878.436,505.844"/>
			</g>
		</g>
		<g opacity="0.7" clip-path="url(#SVGID_28_)">
			<g>
				<defs>
					<rect id="SVGID_331_" x="945.93" y="503.87" width="20.63" height="6.729"/>
				</defs>
				<clipPath id="SVGID_32_">
					<use xlink:href="#SVGID_331_"  overflow="visible"/>
				</clipPath>
				<path clip-path="url(#SVGID_32_)" fill="#A2CCED" d="M966.558,507.424c-0.033,1.855-4.677,3.277-10.373,3.175
					c-5.696-0.103-10.286-1.69-10.253-3.545c0.033-1.856,4.678-3.277,10.373-3.176C962.001,503.98,966.591,505.567,966.558,507.424"
					/>
			</g>
		</g>
		<path clip-path="url(#SVGID_28_)" fill="none" stroke="#00A1CD" stroke-width="10" stroke-miterlimit="10" d="M982.616,531.672
			c0,0,15.979-2.25,36.096-21.579c6.827-6.562,21.929-34.359,21.929-34.359"/>
		<path clip-path="url(#SVGID_28_)" fill="#A2CCED" d="M1059.837,468.537c0.745-0.897,0.539-2.309-0.456-3.135
			s-2.419-0.77-3.164,0.128l-5.167,6.221c-0.276-0.617-0.632-1.211-1.047-1.774l6.194-7.459c0.745-0.896,0.54-2.307-0.455-3.133
			c-0.996-0.826-2.42-0.77-3.165,0.127l-6.194,7.459c-0.567-0.275-1.148-0.492-1.737-0.647l5.323-6.41
			c0.745-0.897,0.54-2.308-0.456-3.134c-0.995-0.826-2.419-0.77-3.164,0.128l-8.871,10.681c-0.359,0.273-0.689,0.589-0.998,0.932
			l1.007-2.621c0.422-1.098-0.188-2.43-1.357-2.961c-1.171-0.528-2.473-0.063-2.896,1.036l-5.382,14.001
			c-0.208,0.54-0.163,1.133,0.07,1.663c-1.037,3.204,0.078,7.063,3.069,9.546c3.808,3.163,9.253,2.944,12.102-0.485l7.03-8.466
			c0.05-0.06,0.09-0.125,0.138-0.187c0.028-0.028,0.059-0.051,0.085-0.081L1059.837,468.537z"/>
		<path clip-path="url(#SVGID_28_)" fill="#00A1CD" d="M601.808,67.303c-93.699,0-169.656,23.15-169.656,122.051
			c0,25.084,3.332,50.374,6.841,75.161c3.895,27.521,8.741,54.958,15.961,81.817c3.173,11.81,6.93,22.17,5.714,34.568
			c-1.066,10.868-4.106,21.918-8.953,31.715c-13.076,26.431-16.551,53.638-6.87,81.862c6.423,18.728,21.976,33.655,39.38,43.022
			c36.084,19.424,79.133,18.426,118.915,18.426c43.695,0,94.355-3.337,130.192-31.391c14.779-11.567,25.491-27.241,31.438-45.007
			c3.516-10.504,4.673-21.003,6.042-31.885c1.894-15.053-2.275-28.04-7.943-41.697c-8.51-20.503-18.246-48.165-12.628-70.637
			c13.047-52.379,21.223-121.406,21.223-147.957C771.463,88.451,695.506,67.303,601.808,67.303"/>
		<path clip-path="url(#SVGID_28_)" fill="#FFFFFF" d="M547.528,214.689c0-12.949,10.498-23.447,23.447-23.447
			c12.949,0,23.447,10.498,23.447,23.447"/>
		<path clip-path="url(#SVGID_28_)" fill="#FFFFFF" d="M608.218,214.689c0-12.949,10.498-23.447,23.448-23.447
			c12.949,0,23.447,10.498,23.447,23.447"/>
		<path clip-path="url(#SVGID_28_)" fill="none" stroke="#0D4060" stroke-width="3" stroke-miterlimit="10" d="M552.572,184.336
			c0,0,6.873-13.922,21.969-5.714"/>
		<path clip-path="url(#SVGID_28_)" fill="none" stroke="#0D4060" stroke-width="3" stroke-miterlimit="10" d="M646.62,184.336
			c0,0-5.021-14.192-20.117-5.985"/>
		<path clip-path="url(#SVGID_28_)" fill="#0D4060" d="M560.833,214.689c0-5.602,4.541-10.143,10.143-10.143
			s10.143,4.541,10.143,10.143"/>
		<path clip-path="url(#SVGID_28_)" fill="#0D4060" d="M621.523,214.689c0-5.602,4.541-10.143,10.143-10.143
			c5.601,0,10.142,4.541,10.142,10.143"/>
		<path clip-path="url(#SVGID_28_)" fill="#0D4060" d="M631.463,236.058c0,0-5.395,17.315-31.937,16.785
			c-26.541-0.532-28.636-16.785-28.636-16.785H631.463z"/>
		<g opacity="0.7" clip-path="url(#SVGID_28_)">
			<g>
				<defs>
					<rect id="SVGID_333_" x="516.39" y="229.34" width="31.141" height="10.141"/>
				</defs>
				<clipPath id="SVGID_34_">
					<use xlink:href="#SVGID_333_"  overflow="visible"/>
				</clipPath>
				<path clip-path="url(#SVGID_34_)" fill="#A2CCED" d="M547.528,234.412c0,2.802-6.971,5.072-15.568,5.072
					s-15.568-2.271-15.568-5.072c0-2.801,6.971-5.072,15.568-5.072S547.528,231.611,547.528,234.412"/>
			</g>
		</g>
		<g opacity="0.7" clip-path="url(#SVGID_28_)">
			<g>
				<defs>
					<rect id="SVGID_335_" x="649.42" y="229.34" width="31.13" height="10.141"/>
				</defs>
				<clipPath id="SVGID_36_">
					<use xlink:href="#SVGID_335_"  overflow="visible"/>
				</clipPath>
				<path clip-path="url(#SVGID_36_)" fill="#A2CCED" d="M680.553,234.412c0,2.802-6.971,5.072-15.568,5.072
					s-15.568-2.271-15.568-5.072c0-2.801,6.971-5.072,15.568-5.072S680.553,231.611,680.553,234.412"/>
			</g>
		</g>
		<path clip-path="url(#SVGID_28_)" fill="none" stroke="#00A1CD" stroke-width="14" stroke-miterlimit="10" d="M723.854,358.814
			c0,0,52.694,30.253,65.023,52.58c12.33,22.327,5.646,52.58,5.646,52.58"/>
		<path clip-path="url(#SVGID_28_)" fill="#A2CCED" d="M807.952,506.008c-0.15,1.98-2.222,3.318-4.604,2.974
			c-2.382-0.346-4.207-2.249-4.058-4.23l1.043-13.742c-1.155,0.347-2.384,0.562-3.658,0.665l-1.25,16.476
			c-0.15,1.981-2.222,3.319-4.604,2.974c-2.381-0.346-4.207-2.249-4.057-4.23l1.25-16.476c-1.105-0.418-2.156-0.923-3.141-1.507
			l-1.074,14.159c-0.15,1.98-2.223,3.319-4.604,2.974c-2.382-0.346-4.207-2.25-4.057-4.23l1.791-23.594
			c-0.131-0.773-0.169-1.561-0.145-2.35l-1.997,4.279c-0.837,1.795-3.351,2.52-5.586,1.612c-2.234-0.908-3.377-3.119-2.539-4.914
			l10.675-22.864c0.41-0.88,1.226-1.498,2.211-1.797c2.705-4.982,9.11-7.928,16.268-6.889c9.106,1.32,16.089,8.602,15.514,16.177
			l-1.419,18.698c-0.01,0.133-0.04,0.26-0.054,0.392c-0.001,0.067,0.014,0.134,0.009,0.201L807.952,506.008z"/>
		<polyline clip-path="url(#SVGID_28_)" fill="#00A1CD" points="619.28,552.043 631.867,634.517 646.952,634.517 659.539,552.008 		
			"/>
		<polyline clip-path="url(#SVGID_28_)" fill="#00A1CD" points="544.043,551.788 556.63,634.517 571.715,634.517 584.302,552.043 		
			"/>
		<polygon clip-path="url(#SVGID_28_)" fill="#FFCB05" points="646.806,655.018 632.016,655.018 624.238,588.248 654.659,588.248 		
			"/>
		<polygon clip-path="url(#SVGID_28_)" fill="#FFCB05" points="571.408,654.562 556.618,654.562 548.766,587.793 579.187,587.793 		
			"/>
		<path clip-path="url(#SVGID_28_)" fill="#504B48" d="M521.247,655.349c0-14.007,11.354-25.361,25.36-25.361
			c14.006,0,25.361,11.354,25.361,25.361"/>
		<path clip-path="url(#SVGID_28_)" fill="#504B48" d="M632.159,655.349c0-14.007,11.354-25.361,25.36-25.361
			c14.006,0,25.361,11.354,25.361,25.361"/>
		<path clip-path="url(#SVGID_28_)" fill="#00A1CD" d="M535.943,367.16c-11.834,0.375-23.409-7.503-29.763-17.014
			c-4.313-6.455-6.915-13.883-10.57-20.733c-14.068-26.364-50.063-28.586-70.799-8.832c-17.941,17.09-19.018,45.769-13.536,68.458
			c6.426,26.597,24.075,49.571,47.125,64.033c21.052,13.21,46.51,19.299,71.214,15.811c22.692-3.205,50.103-16.086,61.027-37.365
			c1.131-2.203,2.081-4.496,2.833-6.855c6.219-19.534-1.855-41.48-19.202-52.365c-12.267-7.697-23.296-6.503-36.763-5.236
			C536.987,367.111,536.465,367.143,535.943,367.16"/>
		<path clip-path="url(#SVGID_28_)" fill="#FFFFFF" d="M441.201,370.076c-3.706-5.889-1.937-13.667,3.952-17.373
			c5.889-3.707,13.667-1.938,17.373,3.951"/>
		<path clip-path="url(#SVGID_28_)" fill="#FFFFFF" d="M468.799,352.706c-3.706-5.89-1.937-13.666,3.952-17.373
			c5.889-3.706,13.667-1.937,17.373,3.952"/>
		<path clip-path="url(#SVGID_28_)" fill="none" stroke="#0D4060" stroke-miterlimit="10" d="M430.68,356.712
			c0,0-0.672-6.492,6.537-6.952"/>
		<path clip-path="url(#SVGID_28_)" fill="none" stroke="#0D4060" stroke-miterlimit="10" d="M479.485,326.238
			c0,0-4.965-3.925-8.498,2.376"/>
		<path clip-path="url(#SVGID_28_)" fill="#0D4060" d="M477.985,359.252c0,0,2.035,5.187-2.389,7.773
			c-4.424,2.586-7.503-1.547-7.503-1.547L477.985,359.252z"/>
		<g opacity="0.7" clip-path="url(#SVGID_28_)">
			<g>
				<defs>
					<rect id="SVGID_337_" x="447.13" y="369.84" width="10.7" height="7.42"/>
				</defs>
				<clipPath id="SVGID_38_">
					<use xlink:href="#SVGID_337_"  overflow="visible"/>
				</clipPath>
				<path clip-path="url(#SVGID_38_)" fill="#A2CCED" d="M457.715,370.254c0.593,0.941-1.271,3.183-4.164,5.003
					c-2.892,1.821-5.718,2.533-6.311,1.59c-0.593-0.942,1.271-3.182,4.163-5.003C454.296,370.023,457.122,369.312,457.715,370.254"
					/>
			</g>
		</g>
		<g opacity="0.7" clip-path="url(#SVGID_28_)">
			<g>
				<defs>
					<rect id="SVGID_339_" x="486.88" y="345.67" width="10.7" height="7.43"/>
				</defs>
				<clipPath id="SVGID_40_">
					<use xlink:href="#SVGID_339_"  overflow="visible"/>
				</clipPath>
				<path clip-path="url(#SVGID_40_)" fill="#A2CCED" d="M497.47,346.087c0.593,0.942-1.271,3.183-4.164,5.003
					c-2.892,1.82-5.718,2.532-6.312,1.59c-0.592-0.943,1.271-3.183,4.164-5.003C494.051,345.856,496.877,345.145,497.47,346.087"/>
			</g>
		</g>
		<path clip-path="url(#SVGID_28_)" fill="none" stroke="#00A1CD" stroke-width="14" stroke-miterlimit="10" d="M523.877,463.975
			c0,0-52.249-8.046-76.158-16.927c-23.91-8.88-38.098-44.789-38.098-44.789s-3.174-10.812,5.037-19.065"/>
		<path clip-path="url(#SVGID_28_)" fill="#A2CCED" d="M551.086,491.04c1.887,0.622,3.918-0.776,4.514-3.108
			s-0.46-4.748-2.348-5.371l-13.088-4.314c0.763-0.936,1.435-1.986,2.019-3.122l15.692,5.173c1.886,0.622,3.918-0.777,4.513-3.109
			c0.597-2.33-0.461-4.748-2.347-5.369l-15.692-5.175c0.038-1.181-0.024-2.345-0.186-3.478l13.485,4.445
			c1.888,0.623,3.919-0.776,4.515-3.107c0.595-2.332-0.461-4.749-2.349-5.371l-22.472-7.409c-0.664-0.417-1.375-0.754-2.113-1.034
			l4.717-0.201c1.979-0.084,3.614-2.127,3.634-4.538c0.02-2.412-1.582-4.316-3.561-4.231l-25.211,1.073
			c-0.97,0.042-1.854,0.558-2.509,1.353c-5.637,0.584-10.817,5.367-12.607,12.373c-2.278,8.917,1.762,18.159,8.978,20.538
			l17.808,5.871c0.127,0.042,0.255,0.063,0.383,0.101c0.062,0.025,0.118,0.064,0.183,0.086L551.086,491.04z"/>
		<path clip-path="url(#SVGID_28_)" fill="#0D4060" d="M453.011,355.245c2.228,0.267,4.305-0.854,5.363-2.683
			c-2.55-1.714-5.721-2.515-8.995-1.994c-0.369,0.059-0.729,0.14-1.085,0.229C448.705,353.095,450.573,354.954,453.011,355.245"/>
		<path clip-path="url(#SVGID_28_)" fill="#0D4060" d="M481.432,338.23c2.23,0.266,4.305-0.854,5.364-2.684
			c-2.551-1.713-5.723-2.515-8.996-1.994c-0.369,0.059-0.729,0.14-1.085,0.229C477.125,336.079,478.994,337.938,481.432,338.23"/>
	</g>
	<g clip-path="url(#SVGID_2_)">
		<defs>
			<rect id="SVGID_357_" x="-1880" y="-5296.403" width="12912.166" height="8488.403"/>
		</defs>
		<clipPath id="SVGID_42_">
			<use xlink:href="#SVGID_357_"  overflow="visible"/>
		</clipPath>
	</g>
	<g clip-path="url(#SVGID_2_)">
		<defs>
			<rect id="SVGID_359_" x="-1880" y="-5296.403" width="12912.166" height="8488.403"/>
		</defs>
		<clipPath id="SVGID_44_">
			<use xlink:href="#SVGID_359_"  overflow="visible"/>
		</clipPath>
	</g>
	<g clip-path="url(#SVGID_2_)">
		<defs>
			<rect id="SVGID_377_" x="-1880" y="-5296.403" width="12912.166" height="8488.403"/>
		</defs>
		<clipPath id="SVGID_46_">
			<use xlink:href="#SVGID_377_"  overflow="visible"/>
		</clipPath>
	</g>
	<g clip-path="url(#SVGID_2_)">
		<defs>
			<rect id="SVGID_379_" x="-1880" y="-5296.403" width="12912.166" height="8488.403"/>
		</defs>
		<clipPath id="SVGID_48_">
			<use xlink:href="#SVGID_379_"  overflow="visible"/>
		</clipPath>
	</g>
	<g clip-path="url(#SVGID_2_)">
		<defs>
			<rect id="SVGID_381_" x="-1880" y="-5296.403" width="12912.166" height="8488.403"/>
		</defs>
		<clipPath id="SVGID_50_">
			<use xlink:href="#SVGID_381_"  overflow="visible"/>
		</clipPath>
	</g>
	<g clip-path="url(#SVGID_2_)">
		<defs>
			<rect id="SVGID_383_" x="-1880" y="-5296.403" width="12912.166" height="8488.403"/>
		</defs>
		<clipPath id="SVGID_52_">
			<use xlink:href="#SVGID_383_"  overflow="visible"/>
		</clipPath>
	</g>
	<g clip-path="url(#SVGID_2_)">
		<defs>
			<rect id="SVGID_393_" x="-1880" y="-5296.403" width="12912.166" height="8488.403"/>
		</defs>
		<clipPath id="SVGID_54_">
			<use xlink:href="#SVGID_393_"  overflow="visible"/>
		</clipPath>
	</g>
	<g clip-path="url(#SVGID_2_)">
		<defs>
			<rect id="SVGID_395_" x="-1880" y="-5296.403" width="12912.166" height="8488.403"/>
		</defs>
		<clipPath id="SVGID_56_">
			<use xlink:href="#SVGID_395_"  overflow="visible"/>
		</clipPath>
	</g>
	<g clip-path="url(#SVGID_2_)">
		<defs>
			<rect id="SVGID_397_" x="-1880" y="-5296.403" width="12912.166" height="8488.403"/>
		</defs>
		<clipPath id="SVGID_58_">
			<use xlink:href="#SVGID_397_"  overflow="visible"/>
		</clipPath>
	</g>
	<g clip-path="url(#SVGID_2_)">
		<defs>
			<rect id="SVGID_815_" x="-1880" y="-5296.403" width="12912.166" height="8488.403"/>
		</defs>
		<clipPath id="SVGID_60_">
			<use xlink:href="#SVGID_815_"  overflow="visible"/>
		</clipPath>
	</g>
</g>
</svg>
