<svg width="38" height="31" viewBox="0 0 38 31" fill="none" xmlns="http://www.w3.org/2000/svg">
<path d="M25.61 1.51999H6.85001C3.70001 1.51999 1.13 4.09999 1.13 7.23999V14.71C1.13 17.54 4.21001 19.9 6.92001 20.35C6.95001 23.01 4.99001 25.12 4.99001 25.12C11.62 25.23 11.92 22.51 12.14 20.44H25.62C28.77 20.44 31.34 17.86 31.34 14.72V7.25C31.33 4.1 28.75 1.51999 25.61 1.51999Z" stroke="#0B4060" stroke-width="1.5" stroke-miterlimit="10"/>
<path d="M34.4899 10.55C35.7899 11.41 36.6499 12.88 36.6499 14.54V20.78C36.6499 23.14 34.0799 25.11 31.8199 25.49C31.7999 27.71 33.2699 29.31 33.2699 29.31C27.7299 29.41 26.6399 27.29 26.4599 25.56H14.1899" stroke="#0B4060" stroke-width="1.5" stroke-miterlimit="10"/>
</svg>
