<svg width="32" height="35" viewBox="0 0 32 35" fill="none" xmlns="http://www.w3.org/2000/svg">
<path d="M27.03 16.06C27.39 18.25 27.62 20.4799 28.15 22.6399C28.88 25.6399 29.85 28.58 30.71 31.55C31.04 32.7 30.71 33.47 29.76 33.74C28.81 34.01 28.53 33.5 28.19 32.34C27.37 29.55 26.82 26.77 25.89 23.98C25.89 23.88 25.47 23.81 25.36 23.81C25.25 23.81 24.89 23.97 24.89 24.13C24.95 26.68 25.02 29.52 25.06 32.07C25.06 33.41 24.2 34.27 23.22 33.59C23.0013 33.4026 22.8223 33.1733 22.6935 32.9157C22.5647 32.6581 22.4887 32.3774 22.47 32.09C22.3 28.09 22.25 24.09 22.09 20.16C22.02 18.4 21.76 16.65 21.61 14.9C21.6178 14.7092 21.5563 14.522 21.4368 14.3731C21.3173 14.2242 21.1479 14.1236 20.96 14.09C19.4557 13.6038 18.1658 12.6123 17.3092 11.2836C16.4525 9.95492 16.0819 8.3708 16.26 6.79995C16.2569 6.64643 16.2858 6.49395 16.3446 6.35214C16.4035 6.21032 16.4912 6.08224 16.6021 5.97604C16.713 5.86983 16.8447 5.78782 16.9889 5.73513C17.1332 5.68245 17.2868 5.66023 17.44 5.66995C17.5937 5.66596 17.7466 5.69229 17.8901 5.74743C18.0336 5.80257 18.1648 5.88546 18.2762 5.99133C18.3877 6.0972 18.4771 6.22397 18.5396 6.36444C18.602 6.5049 18.6361 6.6563 18.64 6.80996C18.7565 7.67894 18.9234 8.54038 19.14 9.38995C19.3523 10.1075 19.7895 10.7379 20.3873 11.188C20.9851 11.6381 21.7117 11.8842 22.46 11.8899C23.64 11.8899 24.83 11.8899 26.01 11.8899C27.01 11.8899 27.69 11.77 28.33 12.51C29.86 14.29 30.33 17 31.04 19.16C31.32 20.03 31.35 20.66 30.67 20.91C29.99 21.16 29.38 20.83 29.06 19.98C28.74 19.13 28.44 18.14 28.06 17.24C27.89 16.8 27.64 16.39 27.43 15.96L27.03 16.06Z" stroke="#114064" stroke-width="0.72" stroke-miterlimit="10"/>
<path d="M4.70998 16.0599C4.34998 18.2499 4.11998 20.4799 3.59998 22.6399C2.85998 25.6399 1.89999 28.5799 1.03999 31.5499C0.709985 32.6999 1.03999 33.4699 2.03999 33.7399C3.03999 34.0099 3.25998 33.4999 3.59998 32.3399C4.42998 29.5499 4.97999 26.7699 5.89999 23.9799C5.89999 23.8799 6.31998 23.8099 6.42998 23.8099C6.53998 23.8099 6.89999 23.9699 6.89999 24.1299C6.89999 26.6799 6.76999 29.5199 6.72999 32.0699C6.72999 33.4099 7.58998 34.2699 8.56998 33.5899C8.78869 33.4025 8.9677 33.1733 9.0965 32.9157C9.2253 32.6581 9.30129 32.3773 9.31998 32.0899C9.48998 28.0899 9.53999 24.0899 9.69999 20.1599C9.77999 18.3999 10.04 16.6499 10.18 14.8999C10.1742 14.7097 10.2365 14.5236 10.3557 14.3751C10.4748 14.2267 10.643 14.1255 10.83 14.0899C12.3362 13.6057 13.6283 12.615 14.4869 11.2861C15.3454 9.95718 15.7175 8.37205 15.54 6.79992C15.5417 6.64592 15.5116 6.49325 15.4516 6.35141C15.3916 6.20957 15.303 6.08163 15.1913 5.97558C15.0796 5.86953 14.9472 5.78763 14.8025 5.73504C14.6577 5.68245 14.5037 5.66028 14.35 5.66992C14.1963 5.66593 14.0434 5.69226 13.8999 5.7474C13.7564 5.80254 13.6252 5.88543 13.5138 5.9913C13.4023 6.09717 13.3128 6.22394 13.2504 6.36441C13.188 6.50487 13.1539 6.65627 13.15 6.80993C13.0335 7.67891 12.8666 8.54035 12.65 9.38992C12.4411 10.1075 12.0061 10.7385 11.4097 11.189C10.8133 11.6394 10.0874 11.8852 9.33999 11.8899C8.14999 11.8899 6.96998 11.8899 5.77998 11.8899C4.77998 11.8899 4.09998 11.7699 3.45998 12.5099C1.93998 14.2899 1.45998 16.9999 0.749984 19.1599C0.469984 20.0299 0.439987 20.6599 1.11999 20.9099C1.79999 21.1599 2.41999 20.8299 2.72999 19.9799C3.03999 19.1299 3.34999 18.1399 3.72999 17.2399C3.89999 16.7999 4.14998 16.3899 4.35998 15.9599L4.70998 16.0599Z" stroke="#114064" stroke-width="0.72" stroke-miterlimit="10"/>
<path d="M4.58002 8.12007C4.58003 7.58296 4.73907 7.05786 5.03707 6.611C5.33507 6.16415 5.7587 5.81553 6.25455 5.60908C6.75041 5.40264 7.29627 5.34763 7.82335 5.45097C8.35042 5.55431 8.8351 5.81137 9.21629 6.18977C9.59747 6.56817 9.85809 7.05098 9.96529 7.57728C10.0725 8.10359 10.0215 8.64985 9.81866 9.1472C9.61586 9.64455 9.27035 10.0707 8.82568 10.372C8.38102 10.6733 7.85711 10.8361 7.32001 10.8401C6.96151 10.8414 6.60625 10.7721 6.27453 10.6361C5.94281 10.5001 5.64111 10.3001 5.38668 10.0476C5.13225 9.79498 4.93006 9.49476 4.79165 9.16404C4.65324 8.83333 4.58133 8.47858 4.58002 8.12007V8.12007Z" stroke="#114064" stroke-width="0.72" stroke-miterlimit="10"/>
<path d="M16.31 1.80001C16.3451 2.03202 16.3451 2.268 16.31 2.50002C16.2752 2.58157 16.2218 2.65388 16.1541 2.71117C16.0864 2.76846 16.0062 2.80913 15.92 2.83C15.82 2.83 15.59 2.63003 15.58 2.51003C15.535 2.02774 15.535 1.5423 15.58 1.06002C15.58 0.930016 15.82 0.750029 15.97 0.730029C16.12 0.710029 16.28 0.910006 16.31 1.05001C16.3401 1.2991 16.3401 1.55091 16.31 1.80001V1.80001Z" fill="#114064"/>
<path d="M14.73 3.20002C14.66 3.28002 14.61 3.43 14.51 3.46C14.4406 3.49029 14.3657 3.50593 14.29 3.50593C14.2143 3.50593 14.1394 3.49029 14.07 3.46C13.7135 3.15069 13.3793 2.81652 13.07 2.46C13.0314 2.38588 13.0113 2.30357 13.0113 2.22001C13.0113 2.13646 13.0314 2.05414 13.07 1.98002C13.1283 1.93368 13.197 1.90219 13.2701 1.88826C13.3433 1.87432 13.4187 1.87834 13.49 1.9C13.9 2.28 14.28 2.68 14.66 3.08C14.71 3.06 14.7 3.11002 14.73 3.20002Z" fill="#114064"/>
<path d="M18.49 1.79999C18.5596 1.79508 18.6291 1.80996 18.6906 1.84289C18.7521 1.87582 18.8031 1.92548 18.8376 1.98611C18.8721 2.04675 18.8887 2.11588 18.8856 2.18558C18.8825 2.25527 18.8597 2.32269 18.82 2.38C18.4802 2.7698 18.1089 3.131 17.71 3.45999C17.64 3.52999 17.38 3.45999 17.29 3.39999C17.2 3.33999 17.16 3.05001 17.23 2.98001C17.58 2.58001 17.97 2.22 18.36 1.84C18.39 1.81 18.46 1.80999 18.49 1.79999Z" fill="#114064"/>
<path d="M21.43 8.12007C21.43 7.58296 21.589 7.05786 21.887 6.611C22.185 6.16415 22.6087 5.81553 23.1045 5.60908C23.6004 5.40264 24.1462 5.34763 24.6733 5.45097C25.2004 5.55431 25.6851 5.81137 26.0663 6.18977C26.4475 6.56817 26.7081 7.05098 26.8153 7.57728C26.9225 8.10359 26.8714 8.64985 26.6686 9.1472C26.4658 9.64455 26.1203 10.0707 25.6757 10.372C25.231 10.6733 24.7071 10.8361 24.17 10.8401C23.8115 10.8414 23.4562 10.7721 23.1245 10.6361C22.7928 10.5001 22.4911 10.3001 22.2367 10.0476C21.9822 9.79498 21.78 9.49476 21.6416 9.16404C21.5032 8.83333 21.4313 8.47858 21.43 8.12007V8.12007Z" stroke="#114064" stroke-width="0.72" stroke-miterlimit="10"/>
</svg>
