<svg width="29" height="29" viewBox="0 0 29 29" fill="none" xmlns="http://www.w3.org/2000/svg">
<path d="M14.59 27.92C21.9243 27.92 27.87 21.9743 27.87 14.64C27.87 7.30564 21.9243 1.35999 14.59 1.35999C7.25565 1.35999 1.31 7.30564 1.31 14.64C1.31 21.9743 7.25565 27.92 14.59 27.92Z" stroke="#114064" stroke-width="1.35" stroke-miterlimit="10"/>
<path d="M8.27002 16.84C8.72384 18.1483 9.5725 19.2836 10.6989 20.0892C11.8253 20.8947 13.174 21.3309 14.5588 21.3375C15.9436 21.3441 17.2963 20.9208 18.4303 20.1259C19.5643 19.3311 20.4238 18.2039 20.89 16.9" stroke="#114064" stroke-width="1.35" stroke-miterlimit="10"/>
<path d="M21.46 10.36C21.4812 10.6875 21.4349 11.0159 21.3242 11.3249C21.2134 11.6338 21.0404 11.9168 20.8159 12.1562C20.5914 12.3957 20.3203 12.5866 20.0191 12.717C19.7179 12.8475 19.3932 12.9148 19.065 12.9148C18.7368 12.9148 18.412 12.8475 18.1109 12.717C17.8097 12.5866 17.5385 12.3957 17.3141 12.1562C17.0896 11.9168 16.9166 11.6338 16.8058 11.3249C16.695 11.0159 16.6488 10.6875 16.67 10.36" stroke="#114064" stroke-width="1.13" stroke-miterlimit="10"/>
<path d="M12.51 10.36C12.51 10.6738 12.4482 10.9846 12.3281 11.2746C12.208 11.5646 12.0319 11.8281 11.81 12.05C11.588 12.2719 11.3246 12.448 11.0346 12.5681C10.7446 12.6882 10.4339 12.75 10.12 12.75C9.80614 12.75 9.49535 12.6882 9.20538 12.5681C8.91542 12.448 8.65192 12.2719 8.42999 12.05C8.20806 11.8281 8.03203 11.5646 7.91193 11.2746C7.79182 10.9846 7.72998 10.6738 7.72998 10.36" stroke="#114064" stroke-width="1.13" stroke-miterlimit="10"/>
</svg>
