<svg width="23" height="27" viewBox="0 0 23 27" fill="none" xmlns="http://www.w3.org/2000/svg">
<path d="M6.47998 4.87002V12.52L20.58 8.97002V1.64001L6.47998 4.87002Z" stroke="#114064" stroke-width="1.5" stroke-miterlimit="10"/>
<path d="M6.47998 10.97V22.59" stroke="#114064" stroke-width="1.5" stroke-miterlimit="10"/>
<path d="M20.58 7.59998V20.35" stroke="#114064" stroke-width="1.5" stroke-miterlimit="10"/>
<path d="M20.0361 23.6263C21.5761 22.5136 22.1243 20.6427 21.2607 19.4474C20.397 18.2522 18.4486 18.1853 16.9087 19.2979C15.3687 20.4106 14.8205 22.2816 15.6841 23.4768C16.5477 24.672 18.4962 24.739 20.0361 23.6263Z" fill="#114064"/>
<path d="M6.56951 24.0895C8.10839 22.9686 8.65062 21.0916 7.78061 19.8972C6.9106 18.7028 4.9578 18.6432 3.41891 19.7641C1.88002 20.885 1.33779 22.762 2.20781 23.9564C3.07782 25.1508 5.03062 25.2104 6.56951 24.0895Z" fill="#114064"/>
</svg>
