<svg width="32" height="27" viewBox="0 0 32 27" fill="none" xmlns="http://www.w3.org/2000/svg">
<path d="M3.32996 0.779994H4.90994C5.79941 0.80188 6.68721 0.868628 7.56995 0.979991C8.95499 1.13908 10.328 1.38963 11.68 1.72999C13.0711 2.06713 14.4349 2.50838 15.7599 3.05C15.8116 3.07984 15.8703 3.09555 15.93 3.09555C15.9896 3.09555 16.0483 3.07984 16.0999 3.05C17.8552 2.3386 19.6731 1.79288 21.53 1.41999C22.53 1.22999 23.46 1.06999 24.43 0.959987C25.7813 0.811434 27.1407 0.747989 28.5 0.77V0.77V21.77H28.39C27.62 21.77 26.84 21.77 26.06 21.84C25.28 21.91 24.63 21.96 23.92 22.05C22.8837 22.184 21.8555 22.3743 20.84 22.62C19.2664 22.9858 17.7248 23.4774 16.2299 24.09C16.1255 24.1559 16.0105 24.2033 15.89 24.23C15.7773 24.1922 15.6724 24.1346 15.58 24.06C14.3035 23.5312 12.99 23.0967 11.65 22.76C10.6156 22.4878 9.56741 22.2708 8.50995 22.11C7.65637 21.9629 6.7949 21.8661 5.92996 21.82C5.09996 21.82 4.25996 21.77 3.42996 21.74H3.31995L3.32996 0.779994ZM4.64996 2.02V20.59C6.4696 20.6326 8.28251 20.8266 10.0699 21.17C11.8423 21.505 13.5822 21.9935 15.27 22.63V4.27999C15.27 4.17999 15.27 4.13999 15.14 4.09999C13.7209 3.55657 12.2636 3.11871 10.78 2.78999C9.7403 2.55172 8.68884 2.36813 7.62994 2.23999C6.94994 2.15999 6.25995 2.10999 5.56995 2.05999C5.26995 2.05999 4.95996 2.05999 4.64996 2.05999V2.02ZM27.21 2.02L25.4 2.14C24.4541 2.21344 23.5128 2.33694 22.58 2.50999C20.5685 2.85671 18.5958 3.39931 16.6899 4.13C16.6601 4.13888 16.634 4.15747 16.6159 4.18283C16.5978 4.20819 16.5887 4.23886 16.59 4.27V22.54C16.59 22.54 16.59 22.6 16.59 22.65C19.9901 21.3953 23.5764 20.7193 27.2 20.65L27.21 2.02Z" fill="#114064"/>
<path d="M0.670013 3.77002H1.99002V23H2.82001C3.60001 23 4.37001 23.06 5.14001 23.13C5.91001 23.2 6.96003 23.3 7.87003 23.42C9.46649 23.6211 11.0494 23.9183 12.61 24.31C13.7177 24.5823 14.8094 24.9162 15.88 25.31H15.99C17.5561 24.7547 19.1602 24.3136 20.79 23.99C22.04 23.73 23.29 23.52 24.56 23.37C25.49 23.27 26.43 23.18 27.37 23.11C28.31 23.04 28.99 23.04 29.8 23.01H29.87V3.81001H31.19V24.16H31.11C30.11 24.16 29.18 24.16 28.22 24.22C27.56 24.22 26.91 24.3 26.22 24.36C25.36 24.45 24.5 24.55 23.64 24.67C22.32 24.86 21.02 25.12 19.73 25.43C18.5633 25.7027 17.4117 26.0365 16.28 26.43C16.1625 26.4984 16.0339 26.5458 15.9 26.57C15.7657 26.5475 15.6368 26.5 15.52 26.43C14.4716 26.0407 13.4035 25.7069 12.32 25.43C11.0029 25.088 9.66739 24.8209 8.32001 24.63C7.44667 24.4967 6.57669 24.3867 5.71002 24.3C4.07141 24.145 2.42589 24.0749 0.780029 24.09H0.650024L0.670013 3.77002Z" fill="#114064"/>
</svg>
