<svg width="36" height="39" viewBox="0 0 36 39" fill="none" xmlns="http://www.w3.org/2000/svg">
<path d="M15.3 38.76C13.79 38.65 12.8299 37.61 12.8299 36.11C12.8299 35.25 12.8299 34.39 12.8299 33.53C12.8299 33.14 12.7899 32.74 12.8399 32.35C13.0799 30.19 12.25 28.4 10.99 26.73C9.87995 25.25 8.79995 23.75 8.16995 21.99C6.66995 17.76 7.28995 13.43 10.6899 10.35C12.3499 8.84999 14.3 7.94999 16.52 7.56999C20.62 6.86999 25.15 8.82998 27.41 12.27C28.74 14.29 29.1599 16.5 28.9699 18.88C28.7499 21.72 27.4199 24.05 25.7899 26.28C25.0299 27.32 24.22 28.35 23.88 29.62C23.71 30.25 23.59 30.92 23.57 31.57C23.53 33.11 23.5199 34.65 23.5599 36.19C23.6099 37.75 22.48 38.66 21.16 38.75L15.3 38.76ZM18.2299 30.64C18.2299 30.64 18.2299 30.65 18.2299 30.64C19.1099 30.64 19.9899 30.64 20.8699 30.64C22.0399 30.64 22.04 30.64 22.32 29.52C22.34 29.43 22.3799 29.35 22.3999 29.26C22.8799 27.66 23.86 26.36 24.83 25.04C26.3 23.03 27.3999 20.89 27.5099 18.31C27.6099 15.97 27.0299 13.88 25.4499 12.17C23.0799 9.58998 20.14 8.48998 16.63 9.05998C14 9.48998 11.89 10.78 10.38 12.96C8.47995 15.71 8.53994 18.67 9.64994 21.69C10.2599 23.34 11.37 24.7 12.38 26.11C13.24 27.32 13.9799 28.59 14.2299 30.07C14.3099 30.51 14.4899 30.64 14.8999 30.64C16.0099 30.64 17.1199 30.64 18.2299 30.64ZM18.1999 35.39C17.1099 35.39 16.0199 35.39 14.9299 35.38C14.5399 35.38 14.3499 35.52 14.3399 35.95C14.3299 36.9 14.6399 37.25 15.6099 37.25C17.3499 37.25 19.08 37.25 20.82 37.25C21 37.25 21.18 37.25 21.35 37.21C21.9 37.07 22.14 36.59 22.07 35.83C22.01 35.22 21.5199 35.41 21.1999 35.4C20.2099 35.37 19.2099 35.39 18.1999 35.39ZM18.2499 32.11C17.7999 32.11 17.35 32.11 16.91 32.11C16.46 32.11 16.01 32.1 15.57 32.11C14.25 32.13 14.3799 31.92 14.3599 33.31C14.3499 33.78 14.4999 33.93 14.9799 33.93C16.9499 33.91 18.9199 33.93 20.8899 33.92C22.2399 33.91 22.07 34.17 22.1 32.68C22.11 32.22 21.91 32.1 21.49 32.11C20.4 32.12 19.3199 32.11 18.2499 32.11Z" fill="#0B4060"/>
<path d="M18.98 3.2C18.98 3.7 18.99 4.2 18.98 4.7C18.97 5.22 18.66 5.59001 18.25 5.60001C17.84 5.61001 17.53 5.25001 17.52 4.72001C17.51 3.68001 17.5 2.65001 17.52 1.61001C17.53 1.10001 17.86 0.770006 18.25 0.780006C18.66 0.800006 18.97 1.18001 18.98 1.69001C18.98 2.20001 18.98 2.7 18.98 3.2Z" fill="#0B4060"/>
<path d="M33.2799 18.81C32.7399 18.81 32.1999 18.82 31.6699 18.81C31.2399 18.8 30.9199 18.64 30.9099 18.16C30.8999 17.69 31.1899 17.38 31.6199 17.37C32.7499 17.33 33.8799 17.34 35.0099 17.37C35.4199 17.38 35.6999 17.68 35.7399 18.1C35.7699 18.46 35.3899 18.79 34.9399 18.8C34.3999 18.82 33.8399 18.81 33.2799 18.81Z" fill="#0B4060"/>
<path d="M5.58997 6.39002C5.73997 6.17002 5.82996 5.87002 6.00996 5.80002C6.23996 5.71002 6.63997 5.69001 6.79997 5.84001C7.66997 6.64001 8.48998 7.48002 9.31998 8.33002C9.62998 8.65002 9.52997 9.00002 9.22997 9.27002C8.86997 9.60002 8.49996 9.52002 8.17996 9.21002C7.41996 8.48002 6.66996 7.73001 5.92996 6.98001C5.77996 6.85001 5.70997 6.63002 5.58997 6.39002Z" fill="#0B4060"/>
<path d="M26.8799 8.78999C27.0499 8.49999 27.1299 8.27999 27.2799 8.11999C27.9899 7.38999 28.7199 6.67 29.4599 5.97C29.8299 5.62 30.3099 5.6 30.6099 5.91C30.9099 6.22 30.8999 6.61 30.5099 7C29.7699 7.75 29.0299 8.51 28.2399 9.21C28.0599 9.37 27.6799 9.45 27.4399 9.38C27.2299 9.32 27.0799 9.00999 26.8799 8.78999Z" fill="#0B4060"/>
<path d="M3.11992 18.81C2.57992 18.81 2.03993 18.81 1.50993 18.81C1.07993 18.81 0.769925 18.64 0.739925 18.17C0.699925 17.68 1.00993 17.39 1.42993 17.37C2.55993 17.33 3.68993 17.33 4.81993 17.37C5.26993 17.38 5.53992 17.7 5.50992 18.17C5.47992 18.63 5.16993 18.81 4.73993 18.81C4.19993 18.81 3.65992 18.81 3.11992 18.81Z" fill="#0B4060"/>
</svg>
