<svg width="181" height="66" viewBox="0 0 181 66" fill="none" xmlns="http://www.w3.org/2000/svg">
<path d="M37.64 38.09C37.2217 39.3224 36.7205 40.5252 36.14 41.69C35.9686 42.0059 35.7211 42.274 35.42 42.47C34.2035 43.3119 32.7773 43.8 31.3 43.88" stroke="#138AB2" stroke-width="1.09" stroke-miterlimit="10"/>
<path d="M39.12 36.85C39.1364 36.7851 39.1281 36.7164 39.0967 36.6573C39.0652 36.5982 39.013 36.5528 38.95 36.53C38.8888 36.5059 38.8206 36.5059 38.7594 36.53C38.6981 36.5542 38.6483 36.6006 38.62 36.66L38.3 37.51C38.2507 37.4522 38.1935 37.4017 38.13 37.36L38.51 36.36C38.5209 36.3285 38.5254 36.2952 38.5233 36.2619C38.5211 36.2287 38.5123 36.1962 38.4974 36.1663C38.4825 36.1365 38.4618 36.11 38.4365 36.0883C38.4111 36.0666 38.3817 36.0502 38.35 36.04C38.3198 36.0268 38.2873 36.0197 38.2543 36.019C38.2214 36.0184 38.1886 36.0243 38.158 36.0364C38.1273 36.0485 38.0993 36.0665 38.0756 36.0894C38.0519 36.1124 38.033 36.1398 38.02 36.17L37.64 37.17H37.43L37.76 36.3C37.7709 36.2685 37.7754 36.2352 37.7733 36.2019C37.7711 36.1687 37.7623 36.1362 37.7474 36.1063C37.7325 36.0765 37.7118 36.05 37.6865 36.0283C37.6611 36.0066 37.6317 35.9902 37.6 35.98C37.5698 35.9668 37.5373 35.9597 37.5043 35.959C37.4714 35.9584 37.4386 35.9643 37.408 35.9764C37.3773 35.9885 37.3493 36.0065 37.3256 36.0294C37.3019 36.0524 37.283 36.0798 37.27 36.11L36.72 37.56C36.6907 37.6035 36.6672 37.6506 36.65 37.7V37.38C36.6477 37.3135 36.6209 37.2502 36.5748 37.2022C36.5286 37.1542 36.4664 37.1249 36.4 37.12V37.12C36.3674 37.1143 36.334 37.1156 36.3021 37.1239C36.2701 37.1322 36.2402 37.1473 36.2146 37.1682C36.189 37.1891 36.1682 37.2152 36.1536 37.2449C36.139 37.2745 36.1309 37.307 36.13 37.34L36.07 39.01C36.068 39.0418 36.0733 39.0737 36.0854 39.1031C36.0975 39.1326 36.1162 39.1589 36.14 39.18C36.1489 39.3799 36.2174 39.5724 36.3369 39.7328C36.4563 39.8933 36.6211 40.0142 36.81 40.08C37.0432 40.1709 37.3021 40.1709 37.5353 40.0802C37.7686 39.9895 37.9594 39.8146 38.07 39.59L38.51 38.44L39.12 36.85Z" fill="#A2CCED"/>
<path d="M60.1 1.67999C50.04 1.67999 41.88 4.15999 41.88 14.79C41.9381 17.4935 42.182 20.1899 42.61 22.86C43.0019 25.8226 43.5763 28.7582 44.33 31.65C44.67 32.92 45.33 34.03 45.22 35.36C44.9933 36.562 44.5602 37.7157 43.94 38.77C43.2202 40.106 42.7831 41.5758 42.6558 43.088C42.5284 44.6002 42.7137 46.1225 43.2 47.56C43.9887 49.5735 45.4958 51.2231 47.43 52.19C51.31 54.27 52.84 54.19 60.75 54.19C65.45 54.19 70.34 54.45 74.19 51.43C75.7399 50.4264 76.9251 48.9501 77.57 47.22C77.8736 46.3168 78.065 45.3798 78.14 44.43C78.34 42.82 77.91 39.26 76.89 38.04C75.03 35.81 75.09 33.21 75.7 30.8C77.1 25.17 78.29 17.45 78.29 14.59C78.29 3.97 70.13 1.69999 60.06 1.69999" fill="#0AA0CC"/>
<path d="M66.89 53.93L65.54 64.57H63.92L62.56 53.96" fill="#0AA0CC"/>
<path d="M58.13 53.93L56.78 64.57H55.16L53.81 53.69" fill="#0AA0CC"/>
<path d="M57.36 20.73C57.36 20.73 57.94 22.45 60.54 22.38C63.14 22.31 63.39 20.71 63.39 20.71L57.36 20.73Z" fill="#0D4061"/>
<path d="M66.69 18.25C66.6486 17.5766 66.3519 16.9444 65.8604 16.4822C65.3689 16.02 64.7197 15.7627 64.045 15.7627C63.3703 15.7627 62.7211 16.02 62.2296 16.4822C61.7381 16.9444 61.4414 17.5766 61.4 18.25" fill="white"/>
<path d="M59.28 18.25C59.2386 17.5766 58.9419 16.9444 58.4504 16.4822C57.9589 16.02 57.3097 15.7627 56.635 15.7627C55.9603 15.7627 55.3111 16.02 54.8196 16.4822C54.3281 16.9444 54.0314 17.5766 53.99 18.25" fill="white"/>
<path d="M66.12 14.83C66.0121 14.6124 65.8588 14.4204 65.6704 14.2669C65.482 14.1135 65.2629 14.0023 65.0279 13.9407C64.7929 13.8791 64.5474 13.8686 64.308 13.9099C64.0686 13.9511 63.8408 14.0433 63.64 14.18" stroke="#0D4061" stroke-width="0.57" stroke-miterlimit="10"/>
<path d="M54.94 14.83C55.0157 14.6113 55.1422 14.4136 55.3093 14.2534C55.4764 14.0932 55.6791 13.9751 55.9008 13.9086C56.1226 13.8422 56.3569 13.8295 56.5845 13.8714C56.8122 13.9134 57.0265 14.0089 57.21 14.15" stroke="#0D4061" stroke-width="0.57" stroke-miterlimit="10"/>
<path d="M65.26 18.25C65.2333 17.9648 65.1012 17.6998 64.8894 17.5069C64.6776 17.314 64.4015 17.2071 64.115 17.2071C63.8286 17.2071 63.5524 17.314 63.3406 17.5069C63.1289 17.6998 62.9967 17.9648 62.97 18.25" fill="#0D4061"/>
<path d="M57.85 18.25C57.8233 17.9648 57.6912 17.6998 57.4794 17.5069C57.2676 17.314 56.9915 17.2071 56.705 17.2071C56.4185 17.2071 56.1424 17.314 55.9306 17.5069C55.7188 17.6998 55.5867 17.9648 55.56 18.25" fill="#0D4061"/>
<path d="M63.92 64.57L63.03 57.64H66.42L65.78 64.2L63.92 64.57Z" fill="#57C4CF"/>
<path d="M55.16 64.57L54.28 57.64H57.66L57.02 64.2L55.16 64.57Z" fill="#57C4CF"/>
<path d="M63.84 64.85C63.8175 64.4783 63.8712 64.1058 63.998 63.7557C64.1248 63.4055 64.3218 63.0849 64.5771 62.8137C64.8323 62.5425 65.1404 62.3265 65.4822 62.1787C65.8241 62.031 66.1926 61.9548 66.565 61.9548C66.9374 61.9548 67.3059 62.031 67.6478 62.1787C67.9897 62.3265 68.2977 62.5425 68.5529 62.8137C68.8082 63.0849 69.0053 63.4055 69.132 63.7557C69.2588 64.1058 69.3125 64.4783 69.29 64.85" fill="#504B48"/>
<path d="M57.14 64.85C57.1625 64.4783 57.1088 64.1058 56.982 63.7557C56.8553 63.4055 56.6582 63.0849 56.4029 62.8137C56.1477 62.5425 55.8396 62.3265 55.4978 62.1787C55.1559 62.031 54.7874 61.9548 54.415 61.9548C54.0426 61.9548 53.6741 62.031 53.3322 62.1787C52.9904 62.3265 52.6823 62.5425 52.4271 62.8137C52.1718 63.0849 51.9748 63.4055 51.848 63.7557C51.7212 64.1058 51.6675 64.4783 51.69 64.85" fill="#504B48"/>
<path d="M80.63 28.61C80.4631 30.4574 80.1725 32.2915 79.76 34.1C79.01 36.04 76.16 38.69 76.16 38.69C76.16 38.69 76.16 38.69 76.27 38.69" stroke="#138AB2" stroke-width="1.09" stroke-miterlimit="10"/>
<path d="M78.94 29.59C79.0808 29.9126 79.3131 30.1868 79.6081 30.3788C79.9032 30.5707 80.248 30.672 80.6 30.67C81.053 30.7383 81.5154 30.6388 81.9003 30.3902C82.2851 30.1416 82.566 29.761 82.69 29.32L82.95 27.32L83.3 24.63C83.3 24.42 83.13 24.24 82.86 24.22C82.7416 24.2029 82.621 24.2288 82.5201 24.293C82.4192 24.3572 82.3447 24.4555 82.31 24.57L82.12 26.03C81.9942 25.9697 81.8638 25.9195 81.73 25.88L81.96 24.13C81.96 23.92 81.78 23.73 81.51 23.72C81.3926 23.7011 81.2724 23.7264 81.1727 23.7911C81.0729 23.8557 81.0007 23.9551 80.97 24.07L80.73 25.82C80.6011 25.8393 80.4739 25.8694 80.35 25.91L80.55 24.4C80.55 24.19 80.38 24.01 80.1 23.99C79.9826 23.9711 79.8624 23.9964 79.7627 24.0611C79.6629 24.1257 79.5907 24.2251 79.56 24.34L79.22 26.85C79.1893 26.9304 79.1692 27.0144 79.16 27.1L79.03 26.6C78.9801 26.4911 78.8941 26.4027 78.7866 26.3499C78.6791 26.2971 78.5567 26.283 78.44 26.31V26.31C78.18 26.36 78 26.56 78.05 26.77" fill="#A1CBEC"/>
<path d="M40.09 29.38C40.2569 31.2274 40.5475 33.0615 40.96 34.87C41.71 36.81 44.56 39.46 44.56 39.46C44.56 39.46 44.56 39.46 44.45 39.46" stroke="#138AB2" stroke-width="1.09" stroke-miterlimit="10"/>
<path d="M41.83 30.38C41.6892 30.7026 41.4569 30.9768 41.1619 31.1688C40.8668 31.3607 40.522 31.462 40.17 31.46C39.7172 31.5261 39.2559 31.4257 38.8715 31.1774C38.4872 30.9291 38.2059 30.5499 38.08 30.11L37.82 28.11L37.46 25.38C37.46 25.17 37.63 24.99 37.9 24.97C38.0184 24.9529 38.139 24.9788 38.2399 25.043C38.3408 25.1072 38.4153 25.2055 38.45 25.32L38.64 26.78C38.7651 26.718 38.8956 26.6678 39.03 26.63L38.8 24.88C38.8 24.67 38.97 24.48 39.25 24.47C39.3674 24.4511 39.4876 24.4764 39.5873 24.5411C39.6871 24.6057 39.7593 24.7051 39.79 24.82L40.03 26.57C40.1589 26.5893 40.2861 26.6194 40.41 26.66L40.21 25.15C40.21 24.94 40.38 24.76 40.66 24.74C40.7774 24.7211 40.8976 24.7464 40.9973 24.8111C41.0971 24.8757 41.1693 24.9751 41.2 25.09L41.53 27.6C41.5683 27.6784 41.592 27.7631 41.6 27.85L41.73 27.35C41.778 27.2419 41.8622 27.1538 41.968 27.1009C42.0738 27.048 42.1947 27.0335 42.31 27.06V27.06C42.58 27.11 42.76 27.31 42.71 27.52" fill="#A1CBEC"/>
<path d="M11.4 38.72H9.72V56.5H11.4V38.72Z" fill="#C2C4C4"/>
<path d="M11.54 38.63H6.43V40.07H11.54V38.63Z" fill="#353230"/>
<path d="M26.9 64.46C32.3787 64.46 36.82 60.0187 36.82 54.54C36.82 49.0613 32.3787 44.62 26.9 44.62C21.4213 44.62 16.98 49.0613 16.98 54.54C16.98 60.0187 21.4213 64.46 26.9 64.46Z" stroke="#353230" stroke-width="0.89" stroke-miterlimit="10"/>
<path d="M26.94 63.22C31.7228 63.22 35.6 59.3428 35.6 54.56C35.6 49.7772 31.7228 45.9 26.94 45.9C22.1572 45.9 18.28 49.7772 18.28 54.56C18.28 59.3428 22.1572 63.22 26.94 63.22Z" stroke="#C2C4C4" stroke-width="0.89" stroke-miterlimit="10"/>
<path d="M27.02 45.84V63.48" stroke="#C2C4C4" stroke-width="0.89" stroke-miterlimit="10"/>
<path d="M35.88 54.66H18.24" stroke="#C2C4C4" stroke-width="0.89" stroke-miterlimit="10"/>
<path d="M33.17 48.39L20.7 60.87" stroke="#C2C4C4" stroke-width="0.89" stroke-miterlimit="10"/>
<path d="M33.2 60.9L20.73 48.42" stroke="#C2C4C4" stroke-width="0.89" stroke-miterlimit="10"/>
<path d="M28.27 47.61H11.16V53.71H28.27V47.61Z" fill="#504B48"/>
<path d="M28.82 55.78V52.91H11.43V55.78H28.82Z" fill="#353230"/>
<path d="M30.64 60.97V59.22H13.25V60.97H30.64Z" fill="#C2C4C4"/>
<path d="M15 55.22H13.25V60.97H15V55.22Z" fill="#C2C4C4"/>
<path d="M10.61 46.53V64.17" stroke="#C2C4C4" stroke-width="0.89" stroke-miterlimit="10"/>
<path d="M19.47 55.35H1.83" stroke="#C2C4C4" stroke-width="0.89" stroke-miterlimit="10"/>
<path d="M9.07 34.97C9.21 42.49 12.24 51.97 22.29 51.61C29.69 51.34 35 42.18 34.87 34.66C34.74 27.14 28.93 25.49 21.81 25.66C14.69 25.83 8.94 27.46 9.07 34.97Z" fill="#00A1CD"/>
<path d="M22.28 35.38C22.28 34.8734 22.4812 34.3876 22.8394 34.0294C23.1976 33.6712 23.6834 33.47 24.19 33.47C24.6966 33.47 25.1824 33.6712 25.5406 34.0294C25.8988 34.3876 26.1 34.8734 26.1 35.38" fill="white"/>
<path d="M27.66 35.38C27.66 34.8734 27.8612 34.3876 28.2194 34.0294C28.5776 33.6712 29.0634 33.47 29.57 33.47C30.0766 33.47 30.5624 33.6712 30.9206 34.0294C31.2788 34.3876 31.48 34.8734 31.48 35.38" fill="white"/>
<path d="M22.69 32.92C22.7691 32.764 22.8806 32.6266 23.0169 32.5171C23.1533 32.4076 23.3115 32.3285 23.4809 32.2849C23.6503 32.2414 23.8271 32.2345 23.9993 32.2647C24.1716 32.2949 24.3355 32.3614 24.48 32.46" stroke="#0D4060" stroke-width="0.45" stroke-miterlimit="10"/>
<path d="M30.79 32.92C30.735 32.7622 30.6431 32.6198 30.5219 32.5047C30.4008 32.3895 30.2539 32.305 30.0935 32.258C29.9331 32.2111 29.7638 32.2031 29.5997 32.2348C29.4356 32.2664 29.2814 32.3368 29.15 32.44" stroke="#0D4060" stroke-width="0.45" stroke-miterlimit="10"/>
<path d="M23.36 35.38C23.3824 35.1769 23.479 34.9891 23.6312 34.8528C23.7834 34.7164 23.9806 34.641 24.185 34.641C24.3894 34.641 24.5866 34.7164 24.7388 34.8528C24.891 34.9891 24.9876 35.1769 25.01 35.38" fill="#0D4060"/>
<path d="M28.75 35.38C28.7724 35.1769 28.869 34.9891 29.0212 34.8528C29.1734 34.7164 29.3706 34.641 29.575 34.641C29.7794 34.641 29.9766 34.7164 30.1288 34.8528C30.281 34.9891 30.3776 35.1769 30.4 35.38" fill="#0D4060"/>
<path d="M29.33 37.13C29.33 37.13 28.89 38.54 26.73 38.5C24.57 38.46 24.4 37.13 24.4 37.13H29.33Z" fill="#0D4060"/>
<path opacity="0.7" d="M21.01 37.4C21.7114 37.4 22.28 37.2165 22.28 36.99C22.28 36.7636 21.7114 36.58 21.01 36.58C20.3086 36.58 19.74 36.7636 19.74 36.99C19.74 37.2165 20.3086 37.4 21.01 37.4Z" fill="#A2CCED"/>
<path opacity="0.7" d="M32.28 37.4C32.9814 37.4 33.55 37.2165 33.55 36.99C33.55 36.7636 32.9814 36.58 32.28 36.58C31.5786 36.58 31.01 36.7636 31.01 36.99C31.01 37.2165 31.5786 37.4 32.28 37.4Z" fill="#A2CCED"/>
<path d="M27.3 52.87L27.05 57.99C27.0486 58.0613 27.0617 58.1321 27.0883 58.1982C27.115 58.2644 27.1547 58.3244 27.2051 58.3748C27.2556 58.4253 27.3156 58.465 27.3818 58.4917C27.4479 58.5183 27.5187 58.5313 27.59 58.53V58.53C27.7039 58.5273 27.8141 58.4893 27.9055 58.4212C27.9969 58.3531 28.0648 58.2584 28.1 58.15L30 52.15C30.0241 52.0647 30.0276 51.9749 30.0102 51.888C29.9928 51.801 29.9551 51.7195 29.9 51.65L28.53 49.21C28.2532 49.0652 27.9418 48.9994 27.63 49.02L15 49.38C14.46 49.38 17.76 51.44 18.24 51.69L22.36 53.52C22.4419 53.5624 22.5115 53.6252 22.5623 53.7022C22.6131 53.7792 22.6433 53.868 22.65 53.96L22.89 58.1C22.8977 58.2397 22.9594 58.3709 23.062 58.4661C23.1646 58.5612 23.3001 58.6128 23.44 58.61H23.57C23.6842 58.6076 23.7947 58.5683 23.8848 58.498C23.9749 58.4277 24.0398 58.3302 24.07 58.22L25.68 52.91C25.7148 52.7959 25.7148 52.6741 25.68 52.56L25.03 51.49C25.005 51.4495 24.9747 51.4125 24.94 51.38V51.38L27.06 52.38C27.1399 52.433 27.2043 52.5063 27.2464 52.5925C27.2886 52.6786 27.3071 52.7744 27.3 52.87Z" fill="#00A1CD"/>
<path d="M22.96 60.06L23.98 60.04L24.98 55.25L22.68 55.22L22.96 60.06Z" fill="#ED1651"/>
<path d="M26.99 59.92L28.01 59.9L28.98 55.35L27.05 55.04L26.99 59.92Z" fill="#ED1651"/>
<path d="M30.46 59.91C30.4507 59.4459 30.2574 59.0044 29.9227 58.6828C29.5879 58.3612 29.1391 58.1857 28.675 58.195C28.2109 58.2043 27.7694 58.3975 27.4478 58.7323C27.1262 59.0671 26.9507 59.5159 26.96 59.98" fill="#504B48"/>
<path d="M26.44 60.06C26.4354 59.8302 26.3856 59.6035 26.2934 59.393C26.2012 59.1824 26.0684 58.9921 25.9027 58.8328C25.7369 58.6736 25.5414 58.5485 25.3274 58.4648C25.1133 58.3811 24.8848 58.3404 24.655 58.345C24.4252 58.3496 24.1985 58.3994 23.988 58.4916C23.7774 58.5838 23.5871 58.7166 23.4278 58.8823C23.2686 59.0481 23.1435 59.2436 23.0598 59.4577C22.9761 59.6717 22.9354 59.9002 22.94 60.13" fill="#504B48"/>
<path d="M10.5 65.14C8.53716 65.142 6.61785 64.5616 4.98498 63.4723C3.35211 62.3831 2.07909 60.8339 1.32703 59.0208C0.574972 57.2078 0.37768 55.2124 0.760127 53.2872C1.14257 51.3619 2.08757 49.5934 3.4755 48.2055C4.86344 46.8176 6.63194 45.8726 8.55716 45.4901C10.4824 45.1077 12.4778 45.305 14.2908 46.057C16.1039 46.8091 17.6531 48.0821 18.7423 49.715C19.8316 51.3478 20.412 53.2672 20.41 55.23C20.4074 57.8575 19.3624 60.3766 17.5045 62.2345C15.6466 64.0924 13.1275 65.1373 10.5 65.14" stroke="#353230" stroke-width="0.89" stroke-miterlimit="10"/>
<path d="M10.54 63.91C15.3228 63.91 19.2 60.0328 19.2 55.25C19.2 50.4672 15.3228 46.59 10.54 46.59C5.75721 46.59 1.88 50.4672 1.88 55.25C1.88 60.0328 5.75721 63.91 10.54 63.91Z" stroke="#C2C4C4" stroke-width="0.89" stroke-miterlimit="10"/>
<path d="M16.77 49.08L4.29 61.56" stroke="#C2C4C4" stroke-width="0.89" stroke-miterlimit="10"/>
<path d="M16.8 61.59L4.32 49.11" stroke="#C2C4C4" stroke-width="0.89" stroke-miterlimit="10"/>
<path d="M12.02 51.62C11.765 50.7591 11.6271 49.8677 11.61 48.97C11.43 47.38 13.28 44.38 13.28 44.38C13.28 44.38 13.5 44.11 13.28 44.6" stroke="#138AB2" stroke-width="1.09" stroke-miterlimit="10"/>
<path d="M12.08 55.19C12.0902 55.2218 12.1066 55.2511 12.1283 55.2765C12.1499 55.3018 12.1765 55.3225 12.2063 55.3374C12.2361 55.3523 12.2686 55.3611 12.3019 55.3633C12.3351 55.3654 12.3685 55.3609 12.4 55.35C12.4646 55.3313 12.5199 55.2891 12.555 55.2318C12.5901 55.1744 12.6026 55.1061 12.59 55.04L12.33 54.18H12.56L12.87 55.18C12.88 55.2117 12.8964 55.241 12.9183 55.266C12.9402 55.291 12.967 55.3112 12.9971 55.3253C13.0271 55.3394 13.0598 55.3471 13.093 55.3479C13.1262 55.3487 13.1593 55.3426 13.19 55.33C13.2533 55.3135 13.3076 55.2728 13.3412 55.2167C13.3749 55.1607 13.3852 55.0936 13.37 55.03L13.06 54.03C13.1242 54.0019 13.182 53.961 13.23 53.91L13.5 54.8C13.5102 54.8318 13.5266 54.8611 13.5483 54.8865C13.57 54.9118 13.5965 54.9325 13.6263 54.9474C13.6561 54.9623 13.6886 54.9711 13.7219 54.9733C13.7551 54.9754 13.7885 54.9709 13.82 54.96C13.8833 54.9435 13.9376 54.9028 13.9712 54.8467C14.0049 54.7907 14.0152 54.7236 14 54.66L13.56 53.17C13.5649 53.1201 13.5649 53.0699 13.56 53.02L13.74 53.27C13.7801 53.3253 13.8403 53.3626 13.9077 53.3738C13.9751 53.385 14.0441 53.3693 14.1 53.33V53.33C14.128 53.3146 14.1525 53.2936 14.1719 53.2682C14.1913 53.2428 14.2052 53.2137 14.2127 53.1826C14.2203 53.1516 14.2212 53.1193 14.2156 53.0879C14.21 53.0564 14.1978 53.0265 14.18 53L13.18 51.63C13.1619 51.603 13.1383 51.5801 13.1107 51.5628C13.0831 51.5456 13.0522 51.5344 13.02 51.53C12.8917 51.3761 12.7202 51.2643 12.5277 51.209C12.3351 51.1537 12.1304 51.1575 11.94 51.22C11.6992 51.2881 11.4928 51.444 11.3613 51.6569C11.2299 51.8698 11.183 52.1243 11.23 52.37L11.58 53.55L12.08 55.19Z" fill="#A2CCED"/>
<path d="M176.17 41.94C176.06 38.76 175.37 35.48 175.04 32.43C174.937 31.1699 174.585 29.9429 174.004 28.8202C173.422 27.6975 172.624 26.7015 171.654 25.8902C170.685 25.0788 169.564 24.4682 168.356 24.094C167.148 23.7197 165.878 23.5892 164.62 23.71L156.04 24.71C154.183 24.9531 152.437 25.7325 151.016 26.9527C149.595 28.1729 148.561 29.7809 148.04 31.58C147.38 33.81 147.72 36.07 147.97 38.34C148.29 41.34 148.71 44.34 149.3 47.34C150 50.88 151.56 53.96 155.01 55.39C157.956 56.4832 161.118 56.8669 164.24 56.51H164.07C166.851 56.141 169.528 55.2123 171.94 53.78C174.88 51.78 175.44 49.18 176.01 45.84C176.194 44.5487 176.248 43.242 176.17 41.94V41.94Z" fill="#00A1CD"/>
<path d="M163.5 38.26C163.5 38.26 163.23 39.66 161.16 39.85C159.09 40.04 158.78 38.79 158.78 38.79L163.5 38.26Z" fill="#0D4060"/>
<path d="M154.14 36.55C154.104 36.1334 154.232 35.7191 154.497 35.3958C154.762 35.0725 155.143 34.8658 155.559 34.8201C155.975 34.7743 156.392 34.8931 156.721 35.151C157.05 35.4089 157.265 35.7855 157.32 36.2" fill="white"/>
<path d="M153.83 34.12C153.895 33.9404 153.998 33.7768 154.132 33.6404C154.265 33.5041 154.427 33.3981 154.605 33.3298C154.784 33.2615 154.975 33.2324 155.165 33.2445C155.356 33.2566 155.542 33.3097 155.71 33.4" stroke="#0D4060" stroke-width="0.43" stroke-miterlimit="10"/>
<path d="M166.38 32.82C166.301 32.6551 166.185 32.5112 166.039 32.4003C165.894 32.2895 165.725 32.2148 165.545 32.1825C165.365 32.1503 165.18 32.1614 165.005 32.2148C164.83 32.2683 164.671 32.3626 164.54 32.49" stroke="#0D4060" stroke-width="0.43" stroke-miterlimit="10"/>
<path d="M154.99 36.46C154.973 36.2762 155.028 36.0931 155.144 35.9494C155.26 35.8056 155.427 35.7126 155.61 35.69C155.701 35.6803 155.792 35.6887 155.88 35.7147C155.967 35.7407 156.049 35.7838 156.119 35.8414C156.19 35.8991 156.249 35.9702 156.292 36.0506C156.335 36.131 156.361 36.2192 156.37 36.31" fill="#0D4060"/>
<path d="M163.74 35.38C163.716 35.1712 163.734 34.9598 163.792 34.7579C163.85 34.5559 163.948 34.3674 164.078 34.203C164.209 34.0386 164.371 33.9017 164.555 33.7999C164.739 33.6982 164.941 33.6336 165.15 33.61C165.359 33.5864 165.57 33.6041 165.772 33.6622C165.974 33.7202 166.163 33.8175 166.327 33.9484C166.491 34.0794 166.628 34.2414 166.73 34.4253C166.832 34.6091 166.896 34.8112 166.92 35.02" fill="white"/>
<path d="M164.6 35.28C164.58 35.0984 164.634 34.9164 164.748 34.7739C164.862 34.6314 165.028 34.5401 165.21 34.52C165.3 34.5089 165.392 34.516 165.479 34.5408C165.566 34.5656 165.648 34.6077 165.719 34.6646C165.79 34.7214 165.848 34.7919 165.891 34.8719C165.935 34.9518 165.961 35.0396 165.97 35.13" fill="#0D4060"/>
<path d="M155.08 39.8C157.378 39.8 159.24 37.9375 159.24 35.64C159.24 33.3425 157.378 31.48 155.08 31.48C152.783 31.48 150.92 33.3425 150.92 35.64C150.92 37.9375 152.783 39.8 155.08 39.8Z" stroke="#231F20" stroke-width="0.32" stroke-miterlimit="10"/>
<path d="M166.41 38.56C168.708 38.56 170.57 36.6975 170.57 34.4C170.57 32.1025 168.708 30.24 166.41 30.24C164.112 30.24 162.25 32.1025 162.25 34.4C162.25 36.6975 164.112 38.56 166.41 38.56Z" stroke="#231F20" stroke-width="0.32" stroke-miterlimit="10"/>
<path d="M159.16 34.73C159.16 34.73 160.63 32.61 162.29 34.41" stroke="#231F20" stroke-width="0.32" stroke-miterlimit="10"/>
<path d="M156.89 53.94L158.76 65.45H159.84L161.71 53.97" fill="#00A1CD"/>
<path d="M164.04 53.88L165.91 65.4H167L168.86 53.92" fill="#00A1CD"/>
<path d="M144.54 65.76L144.35 56.19C144.35 56.19 144.35 54.55 142.96 54.5" stroke="#633413" stroke-width="1.08" stroke-miterlimit="10"/>
<path d="M144.94 52.66C146.35 48.38 149.09 47.82 149.94 47.75C150.03 47.7412 150.12 47.7412 150.21 47.75V47.75" stroke="#138AB2" stroke-width="1.09" stroke-miterlimit="10"/>
<path d="M145.62 53.38C145.654 53.1617 145.622 52.9381 145.528 52.7383C145.433 52.5385 145.281 52.3718 145.09 52.26C144.977 52.1793 144.85 52.1218 144.715 52.0907C144.579 52.0596 144.44 52.0555 144.303 52.0788C144.166 52.102 144.036 52.1521 143.918 52.2261C143.801 52.3001 143.7 52.3966 143.62 52.51L142.89 53.66L141.89 55.21C141.851 55.2749 141.839 55.3525 141.857 55.4261C141.874 55.4998 141.92 55.5636 141.984 55.6041C142.048 55.6446 142.125 55.6584 142.199 55.6427C142.273 55.627 142.338 55.583 142.38 55.52L142.92 54.68C142.961 54.7527 143.012 54.8199 143.07 54.88L142.43 55.88C142.394 55.945 142.386 56.0215 142.406 56.0928C142.427 56.164 142.475 56.2242 142.54 56.26C142.569 56.2808 142.603 56.2955 142.638 56.3032C142.673 56.3109 142.709 56.3116 142.745 56.305C142.78 56.2985 142.814 56.285 142.844 56.2652C142.874 56.2455 142.9 56.2199 142.92 56.19L143.56 55.19C143.636 55.2039 143.714 55.2039 143.79 55.19L143.24 56.06C143.198 56.125 143.183 56.2042 143.199 56.2801C143.215 56.3561 143.26 56.4226 143.325 56.465C143.39 56.5075 143.469 56.5223 143.545 56.5064C143.621 56.4904 143.688 56.445 143.73 56.38L144.65 54.93C144.686 54.8892 144.72 54.8457 144.75 54.8L144.67 55.13C144.657 55.2039 144.671 55.2801 144.709 55.3444C144.748 55.4088 144.809 55.457 144.88 55.48V55.48C144.914 55.4923 144.95 55.4973 144.986 55.4948C145.023 55.4922 145.058 55.4821 145.09 55.4652C145.122 55.4483 145.15 55.4248 145.172 55.3964C145.195 55.3679 145.211 55.3351 145.22 55.3" fill="#A2CCED"/>
<path d="M179.17 36.75C179.66 43.47 175.23 44.11 175.23 44.11" stroke="#138AB2" stroke-width="1.09" stroke-miterlimit="10"/>
<path d="M177.81 36.27C177.879 36.4836 178.012 36.6709 178.191 36.8068C178.37 36.9426 178.586 37.0205 178.81 37.03C179.087 37.0705 179.368 37.0011 179.594 36.8366C179.821 36.6722 179.973 36.4257 180.02 36.15L180.15 34.79L180.33 32.96C180.33 32.8874 180.302 32.8177 180.252 32.7655C180.201 32.7132 180.133 32.6826 180.06 32.68C180.024 32.6743 179.988 32.6758 179.953 32.6844C179.918 32.6929 179.886 32.7084 179.857 32.7298C179.828 32.7512 179.803 32.7782 179.785 32.8091C179.767 32.8401 179.755 32.8744 179.75 32.91L179.65 33.91L179.42 33.8L179.54 32.61C179.548 32.5331 179.525 32.4562 179.476 32.3962C179.428 32.3361 179.357 32.298 179.28 32.29C179.203 32.282 179.126 32.305 179.066 32.3537C179.006 32.4025 178.968 32.4731 178.96 32.55L178.84 33.74C178.765 33.7553 178.692 33.7754 178.62 33.8L178.72 32.8C178.723 32.7274 178.697 32.6565 178.649 32.6024C178.6 32.5483 178.533 32.5151 178.46 32.51C178.386 32.5013 178.312 32.5213 178.252 32.566C178.192 32.6107 178.152 32.6766 178.14 32.75L177.94 34.38C177.935 34.4366 177.935 34.4934 177.94 34.55L177.86 34.21C177.837 34.1386 177.789 34.0779 177.724 34.0393C177.66 34.0006 177.584 33.9867 177.51 34V34C177.44 34.0122 177.377 34.0517 177.336 34.1097C177.295 34.1678 177.278 34.2398 177.29 34.31" fill="#A2CCED"/>
<path d="M159.86 65.43L160.94 58.68H157.74L158.39 65.36L159.86 65.43Z" fill="#5652A3"/>
<path d="M167.02 65.22L168.11 58.68H164.84L165.74 65.4L167.02 65.22Z" fill="#5652A3"/>
<path d="M165.72 65.51C165.698 65.157 165.749 64.8033 165.869 64.4706C165.989 64.1379 166.175 63.8333 166.418 63.5755C166.66 63.3178 166.952 63.1124 167.277 62.972C167.601 62.8316 167.951 62.7592 168.305 62.7592C168.659 62.7592 169.009 62.8316 169.333 62.972C169.658 63.1124 169.95 63.3178 170.192 63.5755C170.435 63.8333 170.621 64.1379 170.741 64.4706C170.861 64.8033 170.912 65.157 170.89 65.51" fill="#504B48"/>
<path d="M154.74 65.56C154.74 64.8731 155.013 64.2143 155.499 63.7286C155.984 63.2428 156.643 62.97 157.33 62.97C158.017 62.97 158.676 63.2428 159.161 63.7286C159.647 64.2143 159.92 64.8731 159.92 65.56" fill="#504B48"/>
<path d="M100.11 0.589966H99.11C92.5047 0.589966 87.15 5.94465 87.15 12.55V36.25C87.15 42.8553 92.5047 48.21 99.11 48.21H100.11C106.715 48.21 112.07 42.8553 112.07 36.25V12.55C112.07 5.94465 106.715 0.589966 100.11 0.589966Z" fill="#00A1CD"/>
<path d="M92.43 45.5L94.79 65.12H96.36L97.66 45.55" fill="#00A1CD"/>
<path d="M101.3 45.94L102.6 65.12H104.17L106.53 45.55" fill="#00A1CD"/>
<path d="M102.73 17.24C102.73 17.24 102.23 18.85 99.73 18.8C97.23 18.75 97.07 17.24 97.07 17.24H102.73Z" fill="#0D4060"/>
<path d="M94.02 14.94C94.02 14.2849 94.2802 13.6566 94.7434 13.1934C95.2067 12.7302 95.8349 12.47 96.49 12.47C97.1451 12.47 97.7733 12.7302 98.2366 13.1934C98.6998 13.6566 98.96 14.2849 98.96 14.94" fill="white"/>
<path d="M100.94 14.94C100.94 14.2849 101.2 13.6566 101.663 13.1934C102.127 12.7302 102.755 12.47 103.41 12.47C104.065 12.47 104.693 12.7302 105.157 13.1934C105.62 13.6566 105.88 14.2849 105.88 14.94" fill="white"/>
<path d="M94.56 11.74C94.6618 11.5385 94.8054 11.3609 94.9812 11.2192C95.1569 11.0775 95.3609 10.9748 95.5794 10.9181C95.798 10.8613 96.0261 10.8517 96.2486 10.89C96.4712 10.9283 96.683 11.0135 96.87 11.14" stroke="#0D4060" stroke-width="0.53" stroke-miterlimit="10"/>
<path d="M104.94 11.74C104.869 11.5372 104.751 11.3542 104.595 11.2059C104.44 11.0576 104.252 10.9483 104.046 10.8868C103.84 10.8253 103.622 10.8135 103.411 10.8523C103.2 10.8911 103.001 10.9794 102.83 11.11" stroke="#0D4060" stroke-width="0.53" stroke-miterlimit="10"/>
<path d="M95.36 14.94C95.3456 14.7915 95.3624 14.6416 95.4094 14.4999C95.4563 14.3583 95.5324 14.228 95.6327 14.1175C95.733 14.007 95.8553 13.9187 95.9917 13.8583C96.1282 13.7979 96.2758 13.7667 96.425 13.7667C96.5742 13.7667 96.7218 13.7979 96.8582 13.8583C96.9947 13.9187 97.117 14.007 97.2173 14.1175C97.3176 14.228 97.3937 14.3583 97.4406 14.4999C97.4876 14.6416 97.5044 14.7915 97.49 14.94" fill="#0D4060"/>
<path d="M102.27 14.94C102.27 14.6562 102.383 14.384 102.583 14.1834C102.784 13.9827 103.056 13.87 103.34 13.87C103.624 13.87 103.896 13.9827 104.097 14.1834C104.297 14.384 104.41 14.6562 104.41 14.94" fill="#0D4060"/>
<path d="M116.4 20.73L116.21 25.37C116.22 25.4797 116.22 25.5902 116.21 25.7C114.71 32.19 111.83 31.81 111.83 31.81" stroke="#138AB2" stroke-width="1.09" stroke-miterlimit="10"/>
<path d="M114.94 20.45C115.09 20.7531 115.328 21.0044 115.622 21.1719C115.915 21.3393 116.253 21.4153 116.59 21.39C117.03 21.4274 117.469 21.3043 117.826 21.0433C118.182 20.7823 118.433 20.401 118.53 19.97L118.66 18.03L118.84 15.42C118.84 15.22 118.65 15.05 118.39 15.05C118.275 15.0398 118.16 15.0716 118.066 15.1396C117.972 15.2076 117.906 15.3072 117.88 15.42L117.78 16.84C117.657 16.7895 117.53 16.7494 117.4 16.72L117.51 15.02C117.51 14.81 117.32 14.65 117.06 14.65C116.946 14.6402 116.832 14.6723 116.74 14.7404C116.648 14.8086 116.584 14.908 116.56 15.02L116.44 16.72L116.07 16.83L116.17 15.37C116.17 15.16 115.98 15 115.72 15C115.605 14.9898 115.49 15.0216 115.396 15.0896C115.302 15.1576 115.236 15.2572 115.21 15.37L115.04 17.81C115.033 17.8898 115.033 17.9701 115.04 18.05L114.89 17.58C114.842 17.4737 114.755 17.3893 114.648 17.343C114.541 17.2968 114.42 17.2922 114.31 17.33V17.33C114.05 17.39 113.89 17.6 113.96 17.8" fill="#A2CCED"/>
<path d="M83.27 44.38L84 39.65C85.63 32.88 86.74 32.56 86.74 32.56C86.74 32.56 87.98 31.79 87.45 32.14" stroke="#138AB2" stroke-width="1.09" stroke-miterlimit="10"/>
<path d="M85.25 44.77C85.0984 44.4651 84.8597 44.2121 84.5642 44.043C84.2687 43.8739 83.9297 43.7963 83.59 43.82C83.1499 43.7855 82.7122 43.9112 82.3575 44.174C82.0029 44.4368 81.7551 44.8189 81.66 45.25L81.52 47.18V47.24L81.34 49.85C81.34 50.06 81.53 50.23 81.79 50.23C81.9063 50.2377 82.0216 50.2036 82.115 50.134C82.2085 50.0643 82.2741 49.9636 82.3 49.85L82.4 48.43C82.5197 48.4894 82.6479 48.5299 82.78 48.55L82.66 50.26C82.66 50.46 82.85 50.63 83.12 50.63C83.2341 50.6398 83.3479 50.6077 83.44 50.5395C83.532 50.4714 83.5961 50.372 83.62 50.26L83.74 48.55C83.866 48.5273 83.9898 48.4938 84.11 48.45L84 49.91C84 50.11 84.19 50.28 84.46 50.28C84.5741 50.2898 84.6879 50.2577 84.78 50.1895C84.872 50.1214 84.9361 50.022 84.96 49.91L85.13 47.47C85.1594 47.3926 85.1795 47.3121 85.19 47.23L85.34 47.7C85.3884 47.8063 85.4745 47.8907 85.5817 47.9369C85.689 47.9831 85.8095 47.9878 85.92 47.95V47.95C85.9747 47.944 86.0275 47.9268 86.0753 47.8995C86.123 47.8722 86.1646 47.8354 86.1974 47.7913C86.2303 47.7472 86.2537 47.6967 86.2662 47.6432C86.2786 47.5896 86.28 47.5341 86.27 47.48" fill="#A2CCED"/>
<path d="M96.33 65.12L97.06 57.11H93.65L94.53 64.76L96.33 65.12Z" fill="#ED1651"/>
<path d="M104.17 65.12L105.22 57.11H102.07L102.39 64.7L104.17 65.12Z" fill="#ED1651"/>
<path d="M90.51 65.38C90.4345 64.9488 90.4542 64.5062 90.5679 64.0834C90.6815 63.6607 90.8863 63.2679 91.1679 62.9327C91.4495 62.5975 91.8011 62.3279 92.1979 62.143C92.5947 61.9581 93.0272 61.8623 93.465 61.8623C93.9028 61.8623 94.3353 61.9581 94.7321 62.143C95.1289 62.3279 95.4805 62.5975 95.7621 62.9327C96.0437 63.2679 96.2485 63.6607 96.3621 64.0834C96.4758 64.5062 96.4955 64.9488 96.42 65.38" fill="#504B48"/>
<path d="M102.3 65.38C102.416 64.6785 102.777 64.0409 103.319 63.5808C103.861 63.1208 104.549 62.8683 105.26 62.8683C105.971 62.8683 106.659 63.1208 107.201 63.5808C107.743 64.0409 108.104 64.6785 108.22 65.38" fill="#504B48"/>
<path d="M127.08 57.62C134.851 57.62 141.15 51.3699 141.15 43.66C141.15 35.9501 134.851 29.7 127.08 29.7C119.309 29.7 113.01 35.9501 113.01 43.66C113.01 51.3699 119.309 57.62 127.08 57.62Z" fill="#00A1CD"/>
<path d="M121.42 41.16C121.458 40.5983 121.708 40.0719 122.119 39.6874C122.53 39.3028 123.072 39.0889 123.635 39.0889C124.198 39.0889 124.74 39.3028 125.151 39.6874C125.562 40.0719 125.812 40.5983 125.85 41.16" fill="white"/>
<path d="M127.94 41.16C127.978 40.5983 128.228 40.0719 128.639 39.6874C129.05 39.3028 129.592 39.0889 130.155 39.0889C130.718 39.0889 131.26 39.3028 131.671 39.6874C132.082 40.0719 132.332 40.5983 132.37 41.16" fill="white"/>
<path d="M121.94 38.3C122.03 38.1187 122.159 37.9588 122.316 37.8311C122.473 37.7034 122.656 37.6109 122.852 37.5597C123.048 37.5086 123.253 37.5 123.453 37.5345C123.653 37.5691 123.843 37.646 124.01 37.76" stroke="#0D4060" stroke-width="0.51" stroke-miterlimit="10"/>
<path d="M131.6 38.3C131.537 38.1166 131.431 37.9507 131.292 37.8163C131.152 37.6818 130.982 37.5826 130.796 37.5269C130.611 37.4712 130.414 37.4605 130.224 37.4959C130.033 37.5312 129.853 37.6115 129.7 37.73" stroke="#0D4060" stroke-width="0.51" stroke-miterlimit="10"/>
<path d="M122.68 41.16C122.634 41.0103 122.623 40.8519 122.649 40.6973C122.675 40.5428 122.737 40.3965 122.83 40.2704C122.923 40.1442 123.044 40.0416 123.184 39.9709C123.324 39.9002 123.478 39.8634 123.635 39.8634C123.792 39.8634 123.946 39.9002 124.086 39.9709C124.226 40.0416 124.347 40.1442 124.44 40.2704C124.533 40.3965 124.595 40.5428 124.621 40.6973C124.647 40.8519 124.636 41.0103 124.59 41.16" fill="#0D4060"/>
<path d="M129.23 41.16C129.184 41.0103 129.173 40.8519 129.199 40.6973C129.225 40.5428 129.287 40.3965 129.38 40.2704C129.473 40.1442 129.594 40.0416 129.734 39.9709C129.874 39.9002 130.028 39.8634 130.185 39.8634C130.342 39.8634 130.496 39.9002 130.636 39.9709C130.776 40.0416 130.897 40.1442 130.99 40.2704C131.083 40.3965 131.145 40.5428 131.171 40.6973C131.197 40.8519 131.186 41.0103 131.14 41.16" fill="#0D4060"/>
<path d="M129.76 43.18C129.76 43.18 129.25 44.81 126.76 44.76C124.27 44.71 124.06 43.18 124.06 43.18H129.76Z" fill="#0D4060"/>
<path d="M123.29 56.94L124.05 65.52H124.96L125.72 56.97" fill="#00A1CD"/>
<path d="M128.22 56.94L128.98 65.52H129.89L130.65 56.97" fill="#00A1CD"/>
<path opacity="0.7" d="M119.98 43.38C120.93 43.38 121.7 43.1293 121.7 42.82C121.7 42.5107 120.93 42.26 119.98 42.26C119.03 42.26 118.26 42.5107 118.26 42.82C118.26 43.1293 119.03 43.38 119.98 43.38Z" fill="#A2CCED"/>
<path opacity="0.7" d="M133.88 43.38C134.83 43.38 135.6 43.1293 135.6 42.82C135.6 42.5107 134.83 42.26 133.88 42.26C132.93 42.26 132.16 42.5107 132.16 42.82C132.16 43.1293 132.93 43.38 133.88 43.38Z" fill="#A2CCED"/>
<path d="M111.94 55.58C111.36 49.03 114.56 48.35 114.56 48.35" stroke="#138AB2" stroke-width="1.09" stroke-miterlimit="10"/>
<path d="M113.01 54.56C112.875 54.342 112.679 54.1687 112.446 54.0619C112.213 53.9552 111.953 53.9197 111.7 53.96C111.366 53.9599 111.043 54.0818 110.793 54.3027C110.543 54.5237 110.381 54.8286 110.34 55.16V56.62V58.62C110.34 58.77 110.51 58.89 110.71 58.87C110.91 58.85 111.07 58.71 111.06 58.56V57.48L111.36 57.55V58.84C111.36 58.99 111.52 59.1 111.72 59.09C111.808 59.0884 111.893 59.0553 111.959 58.9966C112.025 58.9379 112.068 58.8575 112.08 58.77V57.48L112.35 57.38V58.49C112.357 58.5311 112.373 58.5703 112.395 58.6053C112.418 58.6403 112.447 58.6704 112.482 58.6937C112.516 58.717 112.555 58.7332 112.596 58.7411C112.637 58.7491 112.679 58.7487 112.72 58.74C112.808 58.7384 112.893 58.7053 112.959 58.6466C113.025 58.5879 113.068 58.5075 113.08 58.42V56.58C113.085 56.5168 113.085 56.4532 113.08 56.39L113.23 56.73C113.272 56.807 113.342 56.8651 113.426 56.8929C113.509 56.9207 113.6 56.9161 113.68 56.88V56.88C113.721 56.8733 113.759 56.8579 113.794 56.835C113.828 56.812 113.857 56.7821 113.879 56.7471C113.9 56.712 113.915 56.6728 113.92 56.6319C113.925 56.591 113.922 56.5495 113.91 56.51" fill="#A2CCED"/>
<path d="M144.13 42.77C142.19 49.06 138.97 48.48 138.97 48.48" stroke="#138AB2" stroke-width="1.09" stroke-miterlimit="10"/>
<path d="M142.82 42.64C142.875 42.8844 142.998 43.1082 143.175 43.2852C143.352 43.4623 143.576 43.5853 143.82 43.64C144.137 43.7505 144.484 43.7414 144.795 43.6144C145.107 43.4873 145.361 43.2511 145.51 42.95L145.96 41.56L146.58 39.68C146.591 39.5966 146.57 39.5119 146.519 39.4445C146.468 39.3771 146.393 39.3324 146.31 39.32C146.227 39.2914 146.137 39.2939 146.056 39.3271C145.975 39.3602 145.909 39.4217 145.87 39.5L145.54 40.5C145.455 40.4387 145.365 40.3852 145.27 40.34L145.68 39.12C145.68 38.97 145.61 38.81 145.41 38.76C145.327 38.7314 145.237 38.7339 145.156 38.7671C145.075 38.8002 145.009 38.8617 144.97 38.94L144.57 40.17C144.474 40.16 144.376 40.16 144.28 40.17L144.63 39.11C144.637 39.0698 144.636 39.0286 144.627 38.9889C144.617 38.9492 144.6 38.9118 144.575 38.879C144.551 38.8463 144.52 38.8188 144.485 38.7983C144.45 38.7779 144.411 38.7648 144.37 38.76C144.287 38.7291 144.196 38.7305 144.115 38.7638C144.033 38.7972 143.967 38.8601 143.93 38.94L143.35 40.69C143.317 40.7437 143.291 40.8007 143.27 40.86V40.49C143.253 40.4036 143.205 40.3263 143.135 40.2728C143.065 40.2194 142.978 40.1935 142.89 40.2V40.2C142.85 40.1929 142.808 40.1944 142.768 40.2045C142.729 40.2146 142.691 40.233 142.659 40.2585C142.627 40.284 142.601 40.3161 142.582 40.3525C142.563 40.389 142.552 40.429 142.55 40.47" fill="#A2CCED"/>
<path d="M125.08 65.25L123.88 65.2L123.54 60.17H125.47L125.08 65.25Z" fill="#FFCC04"/>
<path d="M130.01 65.25L128.82 65.2L128.47 60.17H130.4L130.01 65.25Z" fill="#FFCC04"/>
<path d="M124.94 65.52C124.894 65.1009 124.696 64.7134 124.382 64.4319C124.068 64.1503 123.662 63.9946 123.24 63.9946C122.818 63.9946 122.412 64.1503 122.098 64.4319C121.784 64.7134 121.586 65.1009 121.54 65.52" fill="#504B48"/>
<path d="M132.35 65.52C132.304 65.1009 132.106 64.7134 131.792 64.4319C131.478 64.1503 131.072 63.9946 130.65 63.9946C130.228 63.9946 129.822 64.1503 129.508 64.4319C129.194 64.7134 128.996 65.1009 128.95 65.52" fill="#504B48"/>
</svg>
