<svg id="Layer_1" data-name="Layer 1" xmlns="http://www.w3.org/2000/svg" viewBox="0 0 54.6 40.23"><defs><style>.cls-1{fill:#114064;}.cls-2,.cls-3{fill:none;stroke:#114064;stroke-miterlimit:10;}.cls-2{stroke-width:0.9px;}.cls-3{stroke-width:0.92px;}</style></defs><path class="cls-1" d="M20.56,22.45h0l.8-3.72h1.19l-1.47,5.52h-1L19,20.67h0l-1.13,3.58h-1l-1.47-5.52h1.18l.83,3.68h0l1.15-3.68h.86Z"/><path class="cls-1" d="M28.31,22.45h0l.8-3.72h1.19l-1.47,5.52h-1l-1.17-3.58h0l-1.13,3.58h-1L23.1,18.73h1.18l.83,3.68h0l1.15-3.68h.86Z"/><path class="cls-1" d="M36.06,22.45h0l.8-3.72h1.19l-1.47,5.52h-1l-1.17-3.58h0l-1.13,3.58h-1l-1.48-5.52H32l.83,3.68h0L34,18.73h.85Z"/><path class="cls-1" d="M39.11,24.3l6,3.25-2,.69c.45.6,2.27,2.57,2.73,3.17l-1.33,1c-.45-.59-2.27-2.55-2.73-3.16L40.64,31Z"/><path class="cls-2" d="M38.09,29.26H14.64a3.62,3.62,0,0,1-3.7-3.51V13.52A3.62,3.62,0,0,1,14.64,10H38.8a3.63,3.63,0,0,1,3.71,3.51v11"/><line class="cls-3" x1="10.94" y1="14.01" x2="42.51" y2="14.01"/></svg>