<svg width="506" height="331" viewBox="0 0 506 331" fill="none" xmlns="http://www.w3.org/2000/svg">
<g id="stressed-blob">
<path id="Vector" d="M260.19 0.844879C216.4 0.844879 180.898 12.5641 180.898 62.6442C180.898 75.3517 182.457 88.1573 184.1 100.704C185.918 114.645 188.182 124.331 191.559 137.929C193.04 143.908 194.793 149.144 194.224 155.452C193.726 160.954 192.283 170.753 190.045 175.715C183.932 189.095 183.576 207.081 188.104 221.372C191.106 230.856 197.084 241.222 205.215 245.96C222.08 255.773 242.199 255.289 260.798 255.289C281.214 255.289 304.891 256.404 321.64 242.203C328.549 236.344 333.556 222.802 336.331 213.803C336.946 211.819 343.285 196.196 335.445 175.848C331.253 164.963 326.796 152.017 329.545 140.102C335.639 113.579 339.462 75.1204 339.462 61.6769C339.462 11.5969 303.96 0.886932 260.17 0.886932" fill="#00A1CD"/>
<g id="stress_lines">
<path id="Vector_2" d="M172.374 30.0171C172.316 30.1535 172.245 30.2827 172.161 30.4026C172.125 30.4617 172.077 30.5117 172.022 30.5492C171.966 30.5868 171.904 30.611 171.839 30.6203C171.774 30.6296 171.708 30.6238 171.645 30.6031C171.582 30.5825 171.524 30.5476 171.475 30.5007C170.828 29.954 170.181 29.3932 169.535 28.8325L160.685 21.2206C160.445 21.0174 160.2 20.8071 159.973 20.5828C159.909 20.5345 159.856 20.4718 159.817 20.3989C159.777 20.326 159.753 20.2447 159.746 20.1607C159.738 20.0767 159.748 19.9919 159.774 19.9123C159.8 19.8327 159.841 19.7601 159.896 19.6997C160.109 19.4333 160.361 19.5174 160.594 19.6997C160.827 19.8819 161.008 20.0291 161.241 20.1973C164.722 23.1902 168.195 26.1691 171.663 29.169C171.902 29.3792 172.258 29.5545 172.374 30.0171Z" fill="#27A6D1"/>
<path id="Vector_3" d="M335.777 11.4079C335.312 11.4079 335.176 10.8752 335.493 10.2795C336.58 8.26083 337.679 6.24221 338.773 4.22359C339.42 3.06709 340.008 1.91059 340.642 0.761092C340.836 0.417646 340.979 -0.143084 341.554 0.277462C342.007 0.613899 341.729 0.978381 341.554 1.29379C340.823 2.69561 340.066 4.09743 339.316 5.49925C338.378 7.2305 337.453 8.96876 336.496 10.686C336.34 11.0014 336.25 11.464 335.777 11.4079Z" fill="#27A6D1"/>
<path id="Vector_4" d="M355.871 49.958L351.717 50.1963C351.562 50.1963 351.407 50.1963 351.252 50.1963C350.812 50.2314 350.553 50.0281 350.559 49.5375C350.566 49.0468 350.928 49.0959 351.206 49.0749L355.974 48.7665C357.559 48.6684 359.15 48.5843 360.742 48.5002C361.085 48.5002 361.544 48.395 361.583 48.9417C361.622 49.4884 361.246 49.6426 360.768 49.6847C359.131 49.7407 357.488 49.8249 355.845 49.902L355.871 49.958Z" fill="#27A6D1"/>
<path id="Vector_5" d="M169.903 37.7621L163.926 36.2552C162.774 35.9678 161.629 35.6594 160.471 35.365C160.096 35.2739 159.734 35.1407 159.824 34.6291C159.915 34.1174 160.31 34.1875 160.685 34.2856L169.871 36.6407L170.02 36.6827C170.324 36.7598 170.667 36.8369 170.615 37.2855C170.563 37.7341 170.162 37.7902 169.903 37.7621Z" fill="#27A6D1"/>
<path id="Vector_6" d="M357.003 38.435C357.003 38.7294 356.763 38.8906 356.582 39.0729C354.542 41.1242 352.502 43.1709 350.462 45.2128C350.191 45.4862 349.938 45.7946 349.57 45.353C349.201 44.9114 349.492 44.6521 349.757 44.3717L356.11 38.0145C356.272 37.8533 356.427 37.7551 356.647 37.8953C356.74 37.9501 356.821 38.0272 356.882 38.1207C356.944 38.2142 356.985 38.3217 357.003 38.435V38.435Z" fill="#27A6D1"/>
<path id="Vector_7" d="M346.814 10.0622C346.796 10.2054 346.749 10.3425 346.676 10.4636C346.603 10.5848 346.507 10.6871 346.393 10.7632C345.009 12.0038 343.612 13.2163 342.234 14.4569C342.176 14.5314 342.103 14.59 342.02 14.628C341.937 14.666 341.847 14.6822 341.758 14.6754C341.668 14.6685 341.581 14.6388 341.505 14.5887C341.428 14.5385 341.363 14.4694 341.315 14.3869C341.024 14.0224 341.25 13.8121 341.509 13.5878C342.984 12.2981 344.457 11.0061 345.928 9.71179C346.154 9.50852 346.374 9.44544 346.574 9.67674C346.672 9.79154 346.752 9.92149 346.814 10.0622Z" fill="#27A6D1"/>
</g>
<g id="l-steam">
<path id="Vector_8" d="M112.38 94.5079C113.689 94.8056 115.029 94.9187 116.365 94.8443C116.669 94.8443 117.012 94.7252 117.251 94.9495C117.312 94.9977 117.363 95.0584 117.402 95.1282C117.441 95.198 117.467 95.2754 117.478 95.356C117.468 95.4343 117.443 95.5092 117.402 95.5748C117.362 95.6405 117.308 95.6951 117.245 95.7345C116.95 95.8266 116.646 95.8738 116.339 95.8747C115.213 95.8747 114.081 95.8747 112.949 95.8326C112.776 95.6652 112.637 95.4615 112.539 95.2337C112.441 95.006 112.387 94.759 112.38 94.5079V94.5079Z" fill="#27A6D1"/>
<path id="Vector_9" d="M70.3113 77.7875C69.0853 75.6512 68.4147 73.1955 68.3706 70.6803C68.3706 68.8369 68.1765 66.9795 68.7005 65.1782C70.6412 58.6106 74.6521 54.4753 80.8624 52.9052C84.1167 52.1261 87.5216 52.662 90.4367 54.4122C91.1742 54.8257 91.9117 55.2252 92.6491 55.6247C93.8308 56.9344 94.9308 58.3275 95.9419 59.7952L96.0325 59.9283C96.0787 59.9956 96.1371 60.052 96.2042 60.094C96.2712 60.136 96.3455 60.1628 96.4224 60.1726C96.4993 60.1824 96.5772 60.1752 96.6515 60.1513C96.7257 60.1273 96.7946 60.0872 96.8541 60.0335C97.2487 59.7881 97.0869 59.4727 96.9058 59.1994C96.5273 58.5391 96.0942 57.9174 95.612 57.342C95.3531 57.0846 95.1841 56.7384 95.1334 56.3617C95.0828 55.9851 95.1535 55.601 95.3338 55.2743C96.1295 55.1411 96.6988 54.5243 97.3716 54.1388C100.865 52.1412 104.171 52.5267 107.392 54.8397C109.865 56.5788 111.679 59.2231 112.503 62.2904C112.788 63.6464 112.851 65.046 112.69 66.4258C111.397 65.9211 110.265 65.024 109.016 64.3581C108.696 64.186 108.368 64.0339 108.033 63.9025C107.933 63.8725 107.827 63.8839 107.735 63.9345C107.643 63.9851 107.571 64.0712 107.535 64.1758C107.479 64.2714 107.455 64.3845 107.467 64.4965C107.479 64.6086 107.526 64.713 107.599 64.7926C107.797 64.9739 108.014 65.1291 108.246 65.2553L112.943 68.0589C113.15 68.1851 113.318 68.1851 113.454 67.9538C113.699 68.3781 114.02 68.7453 114.398 69.0341C114.775 69.3229 115.202 69.5275 115.653 69.6359C118.092 70.5074 120.61 71.0948 123.164 71.3882C127.456 71.9522 131.782 72.142 136.102 71.956C138.101 71.8648 140.1 71.6546 142.105 71.6686C143.464 71.6686 143.47 71.6686 143.49 73.1615C143.49 73.6101 143.49 74.0587 143.49 74.5003C143.49 75.9652 143.27 76.2315 141.905 76.3577C134.394 77.0586 127.168 79.1613 119.91 81.264C118.299 81.7266 116.675 82.2173 115.078 82.7009C114.78 82.785 114.431 82.8201 114.282 83.1565C113.721 83.0778 113.15 83.1575 112.626 83.3878C110.989 83.8854 109.346 84.348 107.716 84.8317C107.366 84.9298 107.023 85.063 106.681 85.1751C106.58 85.1995 106.49 85.261 106.426 85.3492C106.362 85.4374 106.329 85.5468 106.331 85.6587C106.332 85.729 106.346 85.7984 106.373 85.8626C106.399 85.9267 106.437 85.9843 106.485 86.0316C106.533 86.079 106.59 86.1151 106.651 86.1378C106.713 86.1605 106.778 86.1692 106.842 86.1634C107.15 86.1685 107.456 86.1308 107.755 86.0513C109.592 85.5186 111.429 84.9719 113.253 84.4181C113.667 84.3682 114.045 84.1442 114.308 83.7943C116.19 84.7756 117.212 86.5489 118.047 88.5185C118.625 89.9231 118.924 91.4438 118.924 92.9817C118.924 94.5196 118.626 96.0403 118.048 97.4451C117.47 98.8498 116.626 100.107 115.57 101.135C114.515 102.163 113.271 102.939 111.921 103.413C110.622 103.877 109.249 104.047 107.887 103.914C106.525 103.78 105.203 103.345 104.002 102.635C103.871 102.528 103.72 102.453 103.559 102.416C103.398 102.38 103.232 102.382 103.072 102.423C102.912 102.464 102.763 102.542 102.634 102.653C102.505 102.763 102.4 102.903 102.327 103.062C98.9242 107.871 94.3699 110.022 88.8518 109.644C84.6598 109.357 81.6775 106.917 79.7045 102.95C78.7993 100.946 78.2256 98.7844 78.0096 96.5649C79.1417 96.5649 80.2737 96.607 81.3994 96.607C81.7058 96.6061 82.0106 96.559 82.305 96.4668C82.3682 96.4274 82.422 96.3728 82.4624 96.3071C82.5028 96.2415 82.5287 96.1666 82.5379 96.0883C82.5269 96.0077 82.5011 95.9303 82.4623 95.8605C82.4234 95.7907 82.3722 95.73 82.3115 95.6818C82.0463 95.4575 81.7293 95.5556 81.4252 95.5766C80.0891 95.651 78.7497 95.5379 77.4403 95.2402C74.2057 95.3944 70.8871 92.1983 69.9361 89.3315C69.4739 88.1246 69.2615 86.8225 69.3141 85.5171C69.3666 84.2116 69.6827 82.9345 70.2402 81.7757C70.3874 81.4222 70.5149 81.0594 70.6218 80.6893C71.1911 80.6402 71.5534 81.0538 71.9804 81.3902C72.6273 81.8808 73.2289 82.5467 74.0957 82.6729C74.2381 81.6496 74.251 81.6145 73.6364 81.1799C72.2964 80.3495 71.1569 79.187 70.3113 77.7875V77.7875ZM96.0519 82.2523C97.4168 82.437 98.7553 82.8043 100.037 83.3457C103.045 84.7896 104.384 87.1096 104.125 90.6422C104.08 91.252 103.918 91.8478 103.821 92.4506C103.757 92.8361 103.634 93.2917 104.106 93.4459C104.578 93.6001 104.656 93.1094 104.753 92.745C106.105 88.0489 104.468 84.3901 100.677 82.4486C100.244 82.2243 99.6811 82.1822 99.4288 81.6145C99.5361 81.4656 99.6505 81.3229 99.7716 81.187C102.747 78.18 103.75 74.332 103.653 70.0985C103.669 68.647 103.229 67.2327 102.407 66.0868C101.584 64.941 100.427 64.1314 99.1247 63.7904C98.7689 63.6992 98.3678 63.559 98.2449 64.1128C98.1608 64.4983 98.4196 64.7296 98.7366 64.8137C99.0536 64.8978 99.2282 64.9679 99.4676 65.073C100.265 65.4092 100.968 65.9649 101.507 66.6851C102.046 67.4054 102.402 68.2654 102.54 69.1804C102.758 70.504 102.719 71.8624 102.424 73.1685C101.699 77.1427 100.186 80.5141 96.246 81.8248C96.2654 81.9019 96.2395 81.972 96.0519 82.2523ZM133.178 73.505C131.179 73.8694 129.213 73.8344 127.259 73.9956C121.398 74.4722 115.537 75.0049 109.702 75.797C107.951 75.9647 106.218 76.3097 104.526 76.8273C104.222 76.9324 103.944 77.1217 104.061 77.5282C104.177 77.9347 104.475 77.9207 104.798 77.8296C107.066 77.2838 109.362 76.8882 111.675 76.645C116.74 75.9441 121.831 75.5376 126.916 75.1101C128.973 74.9348 131.037 74.8157 133.094 74.6685C133.476 74.6685 133.857 74.5774 133.806 74.0236C133.76 73.5681 133.456 73.4839 133.178 73.505Z" fill="#C9E1EF"/>
<path id="Vector_10" d="M114.314 83.8154C114.052 84.1652 113.673 84.3893 113.26 84.4392C111.435 84.9929 109.598 85.5396 107.761 86.0723C107.463 86.1519 107.156 86.1895 106.849 86.1845C106.784 86.1902 106.719 86.1815 106.658 86.1589C106.596 86.1362 106.54 86.1 106.492 86.0527C106.444 86.0053 106.406 85.9478 106.379 85.8837C106.352 85.8195 106.338 85.7501 106.338 85.6798C106.335 85.5679 106.369 85.4584 106.433 85.3702C106.496 85.282 106.586 85.2205 106.687 85.1962C107.03 85.0841 107.373 84.9509 107.722 84.8527C109.352 84.3691 110.996 83.9065 112.632 83.4089C113.157 83.1786 113.727 83.0989 114.288 83.1776C114.301 83.3878 114.308 83.5981 114.314 83.8154Z" fill="#27A6D1"/>
<path id="Vector_11" d="M95.3403 55.2743C95.16 55.601 95.0892 55.9851 95.1399 56.3617C95.1905 56.7384 95.3596 57.0846 95.6184 57.3419C96.1007 57.9174 96.5337 58.5391 96.9122 59.1994C97.0934 59.4727 97.2551 59.7881 96.8605 60.0334C96.8011 60.0872 96.7321 60.1273 96.6579 60.1512C96.5837 60.1752 96.5057 60.1824 96.4288 60.1726C96.3519 60.1627 96.2777 60.136 96.2106 60.094C96.1436 60.052 96.0852 59.9956 96.0389 59.9283L95.9483 59.7951C94.9416 58.3256 93.8459 56.93 92.6685 55.6177C93.5346 55.3397 94.4381 55.2236 95.3403 55.2743V55.2743Z" fill="#27A6D1"/>
<path id="Vector_12" d="M113.447 67.9959C113.311 68.2272 113.143 68.2272 112.936 68.101L108.24 65.2974C108.008 65.1712 107.791 65.016 107.593 64.8348C107.519 64.7551 107.473 64.6507 107.461 64.5386C107.449 64.4266 107.473 64.3135 107.528 64.218C107.565 64.1133 107.636 64.0272 107.728 63.9766C107.82 63.926 107.927 63.9146 108.026 63.9446C108.362 64.076 108.69 64.2281 109.01 64.4002C110.258 65.045 111.371 65.9632 112.684 66.4679C113.041 66.9086 113.302 67.4309 113.447 67.9959V67.9959Z" fill="#27A6D1"/>
<path id="Vector_13" d="M70.3113 77.7876C71.1587 79.1878 72.3004 80.3504 73.6428 81.18C74.2898 81.6146 74.2445 81.6496 74.1022 82.6729C73.2353 82.5468 72.6531 81.8809 71.9868 81.3903C71.5598 81.0749 71.1975 80.6894 70.6282 80.6894C70.5312 79.7361 70.0913 78.8039 70.3113 77.7876Z" fill="#27A6D1"/>
<path id="Vector_14" d="M96.052 82.2524C96.2396 81.9721 96.2655 81.902 96.3043 81.888C100.244 80.5773 101.758 77.2059 102.482 73.2317C102.777 71.9256 102.817 70.5672 102.599 69.2435C102.46 68.3286 102.104 67.4686 101.565 66.7483C101.026 66.0281 100.323 65.4724 99.5259 65.1362C99.2866 65.0311 99.0343 64.975 98.7949 64.8769C98.5555 64.7787 98.2192 64.5264 98.3032 64.176C98.4262 63.6222 98.8272 63.7624 99.183 63.8535C100.485 64.1945 101.642 65.0041 102.465 66.15C103.288 67.2959 103.727 68.7102 103.711 70.1617C103.783 74.3672 102.78 78.2432 99.83 81.2502C99.7089 81.3861 99.5944 81.5288 99.4871 81.6777C99.7394 82.2454 100.302 82.2875 100.736 82.5118C104.527 84.4533 106.163 88.1191 104.811 92.8082C104.701 93.1726 104.675 93.6703 104.164 93.5091C103.653 93.3479 103.815 92.8993 103.88 92.5138C103.977 91.911 104.138 91.3152 104.184 90.7054C104.442 87.2009 103.103 84.8528 100.095 83.4089C98.7977 82.8408 97.4392 82.4523 96.052 82.2524Z" fill="#27A6D1"/>
<path id="Vector_15" d="M133.178 73.505C133.456 73.505 133.76 73.5681 133.825 73.9957C133.877 74.5494 133.495 74.6125 133.113 74.6405C131.056 74.7877 128.993 74.9069 126.935 75.0821C121.851 75.5096 116.76 75.9232 111.694 76.6171C109.383 76.8744 107.089 77.284 104.824 77.8437C104.501 77.9348 104.177 77.9769 104.087 77.5423C103.996 77.1077 104.248 76.9325 104.552 76.8414C106.244 76.3238 107.977 75.9788 109.728 75.811C115.55 75.019 121.424 74.4863 127.285 74.0097C129.213 73.8415 131.179 73.8415 133.178 73.505Z" fill="#27A6D1"/>
</g>
<g id="r-steam">
<path id="Vector_16" d="M431.779 83.346C432.016 83.458 432.212 83.653 432.335 83.8997C434.199 87.2431 433.629 93.4181 430.123 95.8853C428.667 96.9086 427.29 97.8759 425.498 97.8128C424.345 98.0763 423.17 98.2079 421.991 98.2053C421.435 98.2053 420.393 97.6025 420.393 98.724C420.393 99.502 421.422 99.3408 422.056 99.4249C422.929 99.523 423.77 99.0114 424.644 99.2567C424.327 103.974 422.567 107.829 418.912 110.576C417.56 111.539 415.999 112.102 414.384 112.21C409.991 112.644 406.013 111.509 402.662 108.221C401.807 107.423 401.027 106.535 400.333 105.572C400.265 105.424 400.168 105.295 400.048 105.194C399.928 105.093 399.788 105.023 399.639 104.989C399.491 104.954 399.337 104.957 399.189 104.996C399.042 105.035 398.904 105.11 398.787 105.214C397.246 106.144 395.503 106.606 393.741 106.553C390.694 106.427 388.333 104.983 386.224 102.586C383.364 99.3338 383.164 93.1517 385.577 89.3318C386.23 88.2527 387.099 87.3471 388.119 86.6823C388.468 86.7664 388.824 86.8435 389.174 86.9417L395.597 88.8061C395.895 88.8902 396.244 89.0304 396.354 88.5608C396.464 88.0912 396.277 87.8599 395.856 87.7127C395.604 87.6496 395.364 87.5374 395.119 87.4603L388.1 85.3997C383.778 84.1521 379.463 82.8764 375.129 81.6638C370.795 80.4512 366.312 79.5611 361.861 78.699C361.604 78.6582 361.344 78.6418 361.085 78.6499C359.357 78.6499 359.442 78.6078 359.455 76.7364C359.455 74.0239 359.176 74.136 361.654 74.3183C365.666 74.6474 369.692 74.7316 373.712 74.5706C377.917 74.3603 382.122 74.0099 386.191 72.6431C387.535 72.2466 388.786 71.5441 389.859 70.5824C390.914 69.9937 391.968 69.4189 393.016 68.8161C393.663 68.4517 394.278 68.0521 394.899 67.6596C395.164 67.4914 395.474 67.3022 395.3 66.8886C395.125 66.4751 394.743 66.4611 394.381 66.6433C394.019 66.8255 393.831 66.9377 393.56 67.1059L389.911 69.2927C389.523 64.6737 391.289 61.0851 394.439 58.1763C394.516 58.0985 394.606 58.0388 394.705 58.0011C395.261 57.7768 394.873 56.7534 395.468 56.7324C397.577 56.6553 399.349 54.9521 401.581 55.4498C403.289 55.8423 404.997 56.2138 406.453 57.3633C406.951 57.7558 407.513 58.0642 408.044 58.3796C407.829 58.9436 407.522 59.4612 407.138 59.9075C406.679 60.5103 406.239 61.1341 405.844 61.772C405.67 62.0453 405.566 62.4238 405.896 62.6621C406.031 62.7444 406.189 62.7712 406.341 62.7377C406.493 62.7043 406.629 62.6128 406.724 62.4799C406.899 62.2766 407.048 62.0453 407.209 61.8281C408.089 60.6645 408.833 59.3749 410.017 58.5198C410.172 58.4076 410.153 58.2394 410.017 58.0992C411.453 57.5385 412.747 56.6343 414.203 56.0946C419.423 54.1601 424.146 55.2465 428.435 58.7721C432.892 62.4238 434.774 67.4493 434.483 73.379C434.435 76.1891 433.525 78.9018 431.896 81.0891C431.679 81.6546 431.294 82.1256 430.802 82.4278C430.155 82.9044 429.573 83.4231 428.926 83.8647C428.48 84.1731 428.15 84.5656 428.499 85.0632C428.849 85.5609 429.25 85.0632 429.573 84.888C430.388 84.4605 430.97 83.7175 431.779 83.346ZM403.315 84.1731C402.987 84.5499 402.575 84.8277 402.118 84.9791C398.062 86.9978 396.943 90.6425 397.939 95.1353C397.974 95.357 398.032 95.5734 398.114 95.7802C398.163 95.9131 398.258 96.0199 398.379 96.0776C398.5 96.1352 398.637 96.1392 398.761 96.0886C398.824 96.0754 398.885 96.0483 398.938 96.009C398.992 95.9698 399.038 95.9191 399.073 95.8601C399.108 95.8012 399.132 95.7351 399.143 95.6659C399.153 95.5968 399.151 95.5259 399.136 95.4577C399.045 94.9671 398.922 94.4835 398.819 93.9928C398.488 92.63 398.573 91.1874 399.063 89.8818C399.553 88.5763 400.421 87.4781 401.536 86.7524C402.856 85.8674 404.329 85.2831 405.864 85.0352C406.181 84.9721 406.614 85.1614 406.789 84.6847C406.705 84.4114 406.491 84.3833 406.304 84.3273C405.362 84.0161 404.485 83.506 403.726 82.8263C402.967 82.1467 402.339 81.3109 401.879 80.3671C400.784 78.3253 400.189 76.0137 400.152 73.6524C400.08 70.8488 401.051 68.5007 403.813 67.5685L404.111 67.4774C404.186 67.4578 404.257 67.4211 404.319 67.3698C404.38 67.3184 404.431 67.2535 404.467 67.1793C404.504 67.1051 404.526 67.0234 404.531 66.9395C404.537 66.8555 404.526 66.7713 404.499 66.6924C404.415 66.2508 404.117 66.2508 403.781 66.3349C402.964 66.5031 402.193 66.8657 401.521 67.3967C400.85 67.9276 400.296 68.6136 399.899 69.4049C398.793 71.6198 399.026 73.9888 399.349 76.3019C399.726 79.3607 401.129 82.1624 403.289 84.1731H403.315ZM369.934 76.0565L369.624 76.0215C369.534 76.0074 369.443 76.0155 369.356 76.0451C369.27 76.0747 369.191 76.125 369.125 76.1924C369.059 76.2598 369.008 76.3425 368.976 76.4343C368.943 76.526 368.93 76.6245 368.938 76.7224C368.938 77.185 369.294 77.199 369.585 77.213C370.51 77.2551 371.442 77.2481 372.367 77.3322C376.733 77.7317 381.094 78.1242 385.454 78.5728C389.607 79.0004 393.773 79.3228 397.836 80.4512C398.256 80.5704 398.722 80.7106 398.845 80.1008C398.968 79.491 398.457 79.3999 398.062 79.2807C397.053 79.0424 396.044 78.7971 395.028 78.6219C391.147 77.97 387.265 77.5214 383.345 77.22C378.862 76.8486 374.385 76.449 369.909 76.0565H369.934Z" fill="#CAE1F0"/>
<path id="Vector_17" d="M388.119 85.3926L395.138 87.4532C395.384 87.5303 395.623 87.6425 395.876 87.7056C396.296 87.8247 396.523 88.0841 396.374 88.5537C396.225 89.0233 395.914 88.8831 395.617 88.799L389.193 86.9346C388.844 86.8364 388.488 86.7593 388.139 86.6752C388.039 86.2554 388.032 85.8158 388.119 85.3926V85.3926Z" fill="#27A6D1"/>
<path id="Vector_18" d="M389.911 69.2927L393.56 67.0989C393.831 66.9307 394.103 66.7765 394.381 66.6363C394.659 66.4961 395.106 66.412 395.3 66.8816C395.494 67.3512 395.164 67.4844 394.899 67.6526C394.252 68.0451 393.657 68.4446 393.016 68.8091C391.968 69.4119 390.914 69.9866 389.859 70.5754L389.911 69.2927Z" fill="#27A6D1"/>
<path id="Vector_19" d="M410.036 58.0992C410.166 58.2394 410.185 58.4076 410.036 58.5197C408.852 59.3748 408.096 60.6645 407.229 61.828C407.067 62.0453 406.918 62.2766 406.743 62.4799C406.649 62.6128 406.513 62.7042 406.361 62.7377C406.209 62.7711 406.051 62.7443 405.915 62.6621C405.586 62.4238 405.689 62.0453 405.864 61.772C406.278 61.1341 406.718 60.5103 407.158 59.9075C407.542 59.4612 407.848 58.9436 408.063 58.3795L410.036 58.0992Z" fill="#27A6D1"/>
<path id="Vector_20" d="M424.65 99.2496C423.77 99.0043 422.929 99.5159 422.063 99.4178C421.416 99.3407 420.406 99.5019 420.4 98.7169C420.4 97.5954 421.442 98.2333 421.998 98.1982C423.176 98.2008 424.351 98.0692 425.504 97.8057C425.265 98.3314 425.161 98.9692 424.65 99.2496Z" fill="#27A6D1"/>
<path id="Vector_21" d="M431.779 83.346C430.971 83.7175 430.388 84.4604 429.618 84.888C429.295 85.0702 428.881 85.5539 428.545 85.0632C428.208 84.5726 428.545 84.1731 428.972 83.8647C429.618 83.4231 430.22 82.9044 430.848 82.4278C431.339 82.1256 431.724 81.6546 431.941 81.0891L432.038 82.2806C432.003 82.2952 431.971 82.3173 431.945 82.3455C431.918 82.3736 431.897 82.4074 431.882 82.4447C431.868 82.4819 431.86 82.522 431.86 82.5625C431.86 82.6029 431.868 82.6429 431.883 82.6801C431.85 82.9044 431.812 83.1217 431.779 83.346Z" fill="#27A6D1"/>
<path id="Vector_22" d="M431.883 82.6802C431.868 82.643 431.86 82.603 431.86 82.5625C431.86 82.5221 431.868 82.482 431.882 82.4447C431.897 82.4074 431.918 82.3737 431.945 82.3455C431.971 82.3173 432.003 82.2953 432.038 82.2807C432.053 82.3565 432.046 82.4354 432.018 82.5069C431.991 82.5783 431.943 82.6388 431.883 82.6802Z" fill="#CAE1F0"/>
<path id="Vector_23" d="M403.289 84.1732C401.121 82.1659 399.712 79.3638 399.33 76.3019C399.007 73.9889 398.774 71.6198 399.88 69.405C400.277 68.6136 400.831 67.9277 401.502 67.3967C402.173 66.8658 402.945 66.5031 403.762 66.335C404.098 66.2509 404.408 66.2509 404.48 66.6924C404.506 66.7714 404.517 66.8556 404.512 66.9395C404.507 67.0235 404.485 67.1052 404.448 67.1794C404.412 67.2535 404.361 67.3184 404.299 67.3698C404.238 67.4212 404.167 67.4579 404.091 67.4775L403.794 67.5686C401.032 68.5008 400.061 70.8208 400.132 73.6525C400.17 76.0138 400.764 78.3253 401.86 80.3672C402.32 81.3109 402.947 82.1467 403.707 82.8264C404.466 83.5061 405.342 84.0162 406.285 84.3273C406.472 84.3834 406.686 84.4115 406.77 84.6848C406.595 85.1614 406.162 84.9722 405.845 85.0353C404.309 85.2832 402.837 85.8675 401.517 86.7525C400.402 87.4782 399.534 88.5763 399.044 89.8819C398.554 91.1875 398.468 92.63 398.8 93.9929C398.903 94.4835 399.026 94.9672 399.117 95.4578C399.132 95.526 399.134 95.5968 399.123 95.666C399.112 95.7352 399.089 95.8012 399.054 95.8602C399.019 95.9192 398.973 95.9698 398.919 96.0091C398.866 96.0484 398.805 96.0754 398.742 96.0886C398.618 96.1393 398.481 96.1353 398.36 96.0776C398.239 96.02 398.144 95.9132 398.095 95.7802C398.013 95.5735 397.954 95.357 397.92 95.1354C396.924 90.6426 398.043 86.9978 402.099 84.9792C402.553 84.8266 402.964 84.5489 403.289 84.1732V84.1732Z" fill="#27A6D1"/>
<path id="Vector_24" d="M369.909 76.0564C374.385 76.4489 378.862 76.8485 383.338 77.227C387.252 77.5564 391.147 78.005 395.022 78.6288C396.037 78.804 397.046 79.0493 398.056 79.2876C398.45 79.3787 398.955 79.5119 398.838 80.1077C398.722 80.7035 398.25 80.5773 397.829 80.4581C393.793 79.3437 389.601 79.0353 385.447 78.6428C381.087 78.1942 376.727 77.8017 372.36 77.4022C371.435 77.3181 370.504 77.3251 369.579 77.283C369.268 77.283 368.932 77.283 368.932 76.7924C368.924 76.6945 368.937 76.596 368.969 76.5043C369.001 76.4125 369.052 76.3298 369.118 76.2624C369.184 76.195 369.263 76.1446 369.35 76.115C369.436 76.0854 369.528 76.0774 369.617 76.0915L369.928 76.1265L369.909 76.0564Z" fill="#27A6D1"/>
</g>
<path id="Vector_25" d="M270.11 245.26L276.637 301.347H287.046L293.573 245.232" fill="#00A1CD"/>
<path id="Vector_26" d="M226.062 245.084L232.589 301.346H242.344L248.872 245.26" fill="#00A1CD"/>
<path id="Vector_27" d="M286.321 312.863H277.361L273.331 275.357H290.39L286.321 312.863Z" fill="#56C5D0"/>
<path id="Vector_28" d="M240.895 312.603H233.229L229.154 275.104H245.572L240.895 312.603Z" fill="#56C5D0"/>
<path id="Vector_29" d="M214.262 313.045C214.262 309.268 215.647 305.645 218.112 302.974C220.577 300.303 223.921 298.802 227.407 298.802C230.893 298.802 234.237 300.303 236.702 302.974C239.167 305.645 240.552 309.268 240.552 313.045" fill="#504B48"/>
<path id="Vector_30" d="M277.465 313.045C277.465 309.268 278.85 305.645 281.315 302.974C283.78 300.303 287.124 298.802 290.61 298.802C294.097 298.802 297.44 300.303 299.905 302.974C302.371 305.645 303.755 309.268 303.755 313.045" fill="#504B48"/>
<path id="Vector (Stroke)" fill-rule="evenodd" clip-rule="evenodd" d="M188.949 89.5623C188.949 89.5614 188.95 89.5607 192.202 92.7136C195.454 95.8665 195.455 95.8659 195.455 95.8654L195.448 95.8732L195.409 95.9138C195.372 95.9521 195.315 96.0125 195.238 96.094C195.084 96.2572 194.853 96.5048 194.557 96.8292C193.964 97.4784 193.112 98.4326 192.097 99.6301C190.06 102.033 187.399 105.378 184.866 109.178C182.319 112.998 179.99 117.149 178.523 121.169C177.036 125.245 176.597 128.75 177.257 131.513L177.259 131.521C179.082 139.21 182.809 142.903 186.321 146.383C187.122 147.177 187.912 147.959 188.665 148.775L188.669 148.779L188.672 148.783C189.188 149.345 191.511 151.477 193.982 153.701C195.158 154.76 196.292 155.773 197.133 156.522C197.451 156.805 197.726 157.05 197.946 157.245L198.11 157.139C198.253 157.361 198.381 157.558 198.495 157.732L198.515 157.75L198.51 157.756C198.51 157.756 198.51 157.756 198.51 157.756L198.515 157.75L199.109 158.276L199.489 158.971L195.514 161.143L198.302 157.992C198.302 157.992 198.302 157.992 198.302 157.992L195.514 161.143C199.489 158.971 199.488 158.971 199.489 158.971L199.489 158.973L199.49 158.974L199.492 158.977L199.497 158.986L199.511 159.013C199.523 159.035 199.539 159.064 199.557 159.099C199.593 159.167 199.645 159.265 199.7 159.373C199.748 159.469 199.827 159.628 199.903 159.8C199.938 159.878 200.005 160.034 200.07 160.224C200.103 160.317 200.159 160.487 200.209 160.701L200.21 160.705C200.242 160.841 200.365 161.369 200.321 162.049C200.295 162.443 200.013 165.258 197.058 166.114C195.889 166.453 194.913 166.236 194.425 166.081C193.913 165.919 193.541 165.7 193.347 165.577C192.746 165.193 192.357 164.729 192.322 164.687C192.321 164.686 192.32 164.685 192.32 164.685C192.109 164.443 191.921 164.181 191.801 164.011C191.742 163.928 191.678 163.835 191.607 163.732C191.457 163.598 191.29 163.45 191.111 163.291C190.263 162.535 189.116 161.511 187.924 160.437C185.661 158.4 182.902 155.891 182.009 154.921C181.527 154.398 180.934 153.82 180.266 153.168C176.679 149.669 170.923 144.053 168.448 133.617C167.205 128.413 168.231 122.953 170.015 118.063C171.819 113.117 174.565 108.3 177.332 104.149C180.112 99.9778 183.003 96.3483 185.19 93.7686C186.286 92.4751 187.213 91.4364 187.872 90.7154C188.202 90.3548 188.464 90.073 188.648 89.8781C188.74 89.7806 188.812 89.7048 188.863 89.6515L188.923 89.5888L188.941 89.5704L188.949 89.5623ZM191.279 161.547C191.28 161.518 191.282 161.489 191.284 161.459C191.306 161.117 191.389 160.401 191.814 159.611C192.307 158.695 193.214 157.794 194.537 157.411C195.704 157.072 196.676 157.289 197.16 157.443C197.27 157.477 197.373 157.515 197.469 157.553L191.279 161.547Z" fill="#0F8AB2"/>
<path id="Vector_31" d="M182.498 91.6342C181.606 94.3327 182.583 97.7461 185.177 100.094C188.476 103.08 193.185 103.255 195.644 100.48L201.712 93.6248L201.828 93.4706C201.856 93.4562 201.883 93.4373 201.906 93.4145L210.096 84.1625C210.743 83.4616 210.561 82.2 209.695 81.422C209.33 81.0432 208.849 80.8237 208.344 80.8056C207.839 80.7875 207.345 80.972 206.958 81.3238L202.501 86.3564C202.25 85.7882 201.944 85.2503 201.589 84.7513L206.932 78.7164C207.579 78.0155 207.398 76.7539 206.531 75.9759C206.166 75.5975 205.686 75.3778 205.181 75.3584C204.677 75.339 204.183 75.5214 203.795 75.8707L198.451 81.9126C197.971 81.6317 197.469 81.3972 196.95 81.2117L201.544 76.0179C202.19 75.317 202.003 74.0624 201.142 73.2774C200.775 72.9009 200.293 72.6831 199.788 72.6651C199.283 72.647 198.789 72.8299 198.4 73.1792L190.734 81.8495C190.425 82.0628 190.136 82.3094 189.873 82.5854L190.74 80.3846C190.883 79.8626 190.84 79.3017 190.621 78.8118C190.402 78.3218 190.023 77.9379 189.556 77.7352C189.351 77.5987 189.121 77.5084 188.883 77.4698C188.644 77.4312 188.401 77.445 188.167 77.5104C187.934 77.5758 187.715 77.6915 187.523 77.8505C187.332 78.0095 187.172 78.2087 187.053 78.4361" fill="#A2CCED"/>
<path id="Vector (Stroke)_2" fill-rule="evenodd" clip-rule="evenodd" d="M331.056 152.353C331.057 152.354 331.057 152.354 328.435 156.048C331.086 152.374 331.086 152.374 331.086 152.374L331.194 152.453C331.263 152.503 331.361 152.574 331.483 152.663C331.728 152.842 332.071 153.093 332.466 153.386C333.246 153.964 334.262 154.726 335.125 155.41C337.647 157.403 341.148 160.418 344.447 163.671C347.668 166.848 351.016 170.56 352.924 173.917C355.889 179.127 355.008 185.341 353.681 190.172C352.623 194.028 350.987 197.948 349.727 200.967C349.37 201.823 349.043 202.606 348.768 203.295L340.357 199.934C340.725 199.013 341.118 198.069 341.52 197.104C342.75 194.153 344.06 191.009 344.948 187.772C346.159 183.361 346.122 180.276 345.053 178.401L345.051 178.397C343.796 176.189 341.211 173.204 338.089 170.125C335.046 167.123 331.794 164.325 329.51 162.519L329.506 162.516C329.13 162.219 328.71 161.895 328.289 161.576L328.113 161.792C327.071 160.943 326.367 160.36 325.899 159.963C325.89 159.955 325.881 159.947 325.872 159.939C325.55 159.666 325.053 159.243 324.717 158.852C324.648 158.772 324.497 158.592 324.336 158.343C324.336 158.343 324.334 158.341 324.333 158.338C324.279 158.259 323.681 157.384 323.61 156.122C323.562 155.269 323.749 153.875 324.888 152.704C325.939 151.624 327.169 151.398 327.755 151.349C328.751 151.265 329.524 151.546 329.642 151.589C329.646 151.591 329.65 151.592 329.653 151.593C330.046 151.731 330.345 151.901 330.406 151.935C330.408 151.937 330.41 151.938 330.412 151.939C330.522 152.001 330.614 152.058 330.669 152.093C330.783 152.165 330.883 152.233 330.938 152.271C330.97 152.292 330.996 152.311 331.016 152.325L331.042 152.343L331.051 152.349L331.056 152.353ZM329.396 160.215C329.991 160.042 330.719 159.702 331.377 159.025C332.274 158.103 332.579 157.042 332.645 156.218L329.396 160.215ZM331.342 152.688C331.342 152.689 331.351 152.697 331.366 152.711C331.348 152.695 331.341 152.688 331.342 152.688ZM328.435 156.048L331.086 152.374L331.071 152.364L331.057 152.354L328.435 156.048Z" fill="#0F8AB2"/>
<path id="Vector_32" d="M338.055 196.084C340.371 194.682 343.637 195.159 346.199 197.535C349.473 200.57 350.411 205.574 348.289 208.658L343.055 216.277C343.02 216.331 342.981 216.383 342.939 216.431C342.939 216.431 342.939 216.494 342.894 216.522L335.816 226.805C335.26 227.611 334.108 227.625 333.229 226.805C332.824 226.477 332.545 225.999 332.445 225.462C332.345 224.926 332.43 224.368 332.685 223.896L336.528 218.289C335.969 218.118 335.429 217.883 334.917 217.588L330.311 224.302C329.755 225.108 328.603 225.122 327.723 224.302C327.32 223.973 327.042 223.496 326.941 222.961C326.839 222.425 326.922 221.868 327.174 221.394L331.786 214.679C331.457 214.21 331.166 213.711 330.919 213.186L326.96 218.954C326.404 219.76 325.252 219.774 324.372 218.954C323.968 218.626 323.689 218.149 323.589 217.612C323.489 217.076 323.574 216.518 323.829 216.046L330.428 206.429C330.574 206.064 330.751 205.714 330.958 205.385L329.101 206.681C328.652 206.912 328.139 206.955 327.662 206.803C327.185 206.65 326.776 206.313 326.514 205.854V205.854C326.353 205.657 326.231 205.426 326.155 205.176C326.079 204.926 326.051 204.662 326.072 204.4C326.093 204.138 326.163 203.883 326.278 203.651C326.393 203.419 326.55 203.215 326.74 203.051" fill="#A2CCED"/>
<path id="Vector_33" d="M254.467 68.6864C254.388 71.713 253.219 74.5861 251.211 76.6918C249.203 78.7976 246.515 79.9692 243.72 79.9564C240.925 79.9436 238.246 78.7474 236.255 76.6233C234.263 74.4992 233.117 71.6155 233.061 68.5882" fill="white"/>
<path id="Vector_34" d="M286.425 68.6864C286.345 71.713 285.177 74.5861 283.169 76.6918C281.16 78.7976 278.472 79.9692 275.677 79.9564C272.883 79.9436 270.204 78.7474 268.212 76.6233C266.22 74.4992 265.074 71.6155 265.018 68.5882" fill="white"/>
<path id="Vector_35" d="M280.35 68.6583C280.371 69.3327 280.266 70.0046 280.041 70.6339C279.816 71.2632 279.477 71.837 279.043 72.3209C278.609 72.8048 278.089 73.1889 277.515 73.4503C276.941 73.7117 276.324 73.8449 275.701 73.8421C275.079 73.8393 274.463 73.7004 273.891 73.4338C273.319 73.1672 272.802 72.7784 272.372 72.2906C271.942 71.8027 271.607 71.2259 271.387 70.5946C271.167 69.9633 271.067 69.2904 271.093 68.6163" fill="#0D4061"/>
<path id="Vector_36" d="M248.381 68.7802C248.402 69.4546 248.296 70.1265 248.072 70.7558C247.847 71.3851 247.508 71.9589 247.074 72.4428C246.64 72.9267 246.12 73.3109 245.546 73.5722C244.972 73.8336 244.355 73.9669 243.732 73.964C243.11 73.9612 242.494 73.8223 241.922 73.5558C241.35 73.2892 240.833 72.9003 240.403 72.4125C239.973 71.9247 239.638 71.3478 239.418 70.7165C239.198 70.0852 239.098 69.4123 239.124 68.7382" fill="#0D4061"/>
<path id="Vector_37" d="M247.791 91.7462C249.27 91.9042 250.731 92.2236 252.151 92.6995C253.639 93.1411 255.127 93.5896 256.647 93.9261C259.396 94.5173 262.236 94.373 264.921 93.5055C267.158 92.7502 269.45 92.2038 271.772 91.8724C273.112 91.6846 274.473 91.7861 275.776 92.1711C277.08 92.556 278.3 93.2168 279.367 94.1153C279.969 94.6502 280.544 95.2212 281.088 95.8255C281.346 96.0989 281.612 96.4143 281.172 96.7297C280.732 97.0451 280.441 97.5077 279.878 97.0381C279.574 96.7788 279.302 96.4704 279.018 96.176C276.844 93.898 274.166 93.2672 271.19 93.7509C269.308 94.0545 267.451 94.5233 265.639 95.1527C262.234 96.3215 258.593 96.4163 255.14 95.426C253.38 94.9494 251.64 94.4097 249.881 93.9261C246.646 93.0429 243.994 93.87 241.962 96.6035C241.555 97.1432 241.251 97.3045 240.669 96.8629C240.086 96.4213 240.022 96.162 240.442 95.6713C241.307 94.4495 242.419 93.4599 243.694 92.7792C244.968 92.0985 246.37 91.7451 247.791 91.7462Z" fill="#0A4467"/>
<g id="eyebrows">
<path id="Vector_38" d="M237.826 57.0964C237.826 57.0964 243.325 64.491 250.027 56.4446" stroke="#0D4060" stroke-width="4" stroke-miterlimit="10"/>
<path id="Vector_39" d="M270.618 55.7927C270.618 55.7927 274.81 64.1336 282.728 57.517" stroke="#0D4060" stroke-width="4" stroke-miterlimit="10"/>
</g>
<path id="Vector_40" opacity="0.7" d="M228.293 90.022C232.191 90.022 235.351 88.908 235.351 87.5338C235.351 86.1596 232.191 85.0456 228.293 85.0456C224.395 85.0456 221.235 86.1596 221.235 87.5338C221.235 88.908 224.395 90.022 228.293 90.022Z" fill="#A2CCED"/>
<path id="Vector_41" opacity="0.7" d="M291.509 90.022C295.407 90.022 298.567 88.908 298.567 87.5338C298.567 86.1596 295.407 85.0456 291.509 85.0456C287.612 85.0456 284.452 86.1596 284.452 87.5338C284.452 88.908 287.612 90.022 291.509 90.022Z" fill="#A2CCED"/>
<path id="Vector_42" d="M329.147 160.989C331.405 160.989 333.235 159.006 333.235 156.559C333.235 154.113 331.405 152.13 329.147 152.13C326.889 152.13 325.058 154.113 325.058 156.559C325.058 159.006 326.889 160.989 329.147 160.989Z" fill="#278AB2"/>
<path id="Vector_43" d="M332.239 163.464C334.497 163.464 336.327 161.48 336.327 159.034C336.327 156.587 334.497 154.604 332.239 154.604C329.981 154.604 328.15 156.587 328.15 159.034C328.15 161.48 329.981 163.464 332.239 163.464Z" fill="#278AB2"/>
<path id="Vector_44" d="M195.941 166.183C198.199 166.183 200.03 164.2 200.03 161.753C200.03 159.307 198.199 157.324 195.941 157.324C193.683 157.324 191.853 159.307 191.853 161.753C191.853 164.2 193.683 166.183 195.941 166.183Z" fill="#278AB2"/>
<path id="Vector_45" d="M194.162 164.585C196.42 164.585 198.251 162.602 198.251 160.155C198.251 157.709 196.42 155.725 194.162 155.725C191.904 155.725 190.074 157.709 190.074 160.155C190.074 162.602 191.904 164.585 194.162 164.585Z" fill="#278AB2"/>
</g>
</svg>
