<svg width="246" height="451" viewBox="0 0 246 451" fill="none" xmlns="http://www.w3.org/2000/svg">
<path d="M47.41 450H62.72V384.04H186.04V450H201.68V377.88H201.43V363.81H47.41V378.07" fill="#444693"/>
<path d="M203.27 332.43H44.57C38.8926 332.43 34.29 337.032 34.29 342.71V358C34.29 363.677 38.8926 368.28 44.57 368.28H203.27C208.948 368.28 213.55 363.677 213.55 358V342.71C213.55 337.032 208.948 332.43 203.27 332.43Z" fill="#5E62AC"/>
<path d="M122.57 0C54.88 0 0 16.72 0 88.18C0 106.3 2.41 124.57 4.95 142.48C7.76 162.36 11.26 176.18 16.48 195.59C18.77 204.12 21.48 211.59 20.6 220.59C19.83 228.44 17.6 242.42 14.14 249.5C4.69 268.6 2.14 288.25 9.14 308.64C13.78 322.17 25.02 332.96 37.59 339.73C63.66 353.73 94.76 353.04 123.51 353.04C155.07 353.04 191.67 354.63 217.56 334.36C228.24 326 235.98 316.68 240.27 303.84C246.18 286.21 246.06 266.84 238.9 249.69C232.42 234.16 225.53 215.69 229.78 198.69C239.2 160.85 245.11 105.98 245.11 86.8C245.11 15.35 190.23 0.0700073 122.54 0.0700073" fill="#00A1CD"/>
<path opacity="0.7" d="M65.73 137.65C72.4237 137.65 77.85 135.882 77.85 133.7C77.85 131.518 72.4237 129.75 65.73 129.75C59.0363 129.75 53.61 131.518 53.61 133.7C53.61 135.882 59.0363 137.65 65.73 137.65Z" fill="#A2CCED"/>
<path opacity="0.7" d="M173.26 137.65C179.954 137.65 185.38 135.882 185.38 133.7C185.38 131.518 179.954 129.75 173.26 129.75C166.566 129.75 161.14 131.518 161.14 133.7C161.14 135.882 166.566 137.65 173.26 137.65Z" fill="#A2CCED"/>
<path d="M78.1901 346.36L89.0001 432.36H105.16L115.97 346.62" fill="#00A1CD"/>
<path d="M102.76 449.57H90.0601L83.3201 392.24H110.51L102.76 449.57Z" fill="#56C5D0"/>
<path d="M132.09 346.36L142.9 432.36H159.06L169.87 346.62" fill="#00A1CD"/>
<path d="M156.65 449.57H143.96L137.21 392.24H164.4L156.65 449.57Z" fill="#56C5D0"/>
<path d="M132.55 450.24C132.55 439.24 140.55 430.24 150.47 430.24C160.39 430.24 168.4 439.24 168.4 450.24" fill="#504B48"/>
<path d="M79.15 449.57C79.15 438.52 87.15 429.57 97.08 429.57C107.01 429.57 115.01 438.52 115.01 449.57" fill="#504B48"/>
<path d="M79 90.5418C79 90.5418 85.87 76.6318 101 84.8318" stroke="#0D4060" stroke-width="4" stroke-miterlimit="10"/>
<path d="M160.98 90.5418C160.98 90.5418 155.98 76.3618 140.88 84.5418" stroke="#0D4060" stroke-width="4" stroke-miterlimit="10"/>
<path d="M159.36 106.442C159.36 113.652 152.56 119.492 144.17 119.492C135.78 119.492 128.99 113.652 128.99 106.442" stroke="#0D4060" stroke-width="2" stroke-miterlimit="10"/>
<path d="M112.54 106.442C112.54 113.652 105.74 119.492 97.35 119.492C88.96 119.492 82.16 113.652 82.16 106.442" stroke="#0D4060" stroke-width="2" stroke-miterlimit="10"/>
</svg>
