<svg width="86" height="87" viewBox="0 0 86 87" fill="none" xmlns="http://www.w3.org/2000/svg">
<path fill-rule="evenodd" clip-rule="evenodd" d="M84.7257 11.043C84.8288 10.3567 84.9137 9.77078 84.9693 9.3505C84.9973 9.1389 85.0386 8.81801 85.0622 8.52507C85.0688 8.4434 85.0797 8.29584 85.0851 8.11755C85.0851 8.11755 85.0853 8.11411 85.0854 8.11105C85.0882 8.0389 85.1099 7.47338 85.0043 6.79465C84.9708 6.57934 84.9009 6.19133 84.7504 5.72322C84.6307 5.35135 84.2894 4.36832 83.4487 3.36602C82.4714 2.20076 80.5032 0.717823 77.6942 0.874487C75.3239 1.00668 73.827 2.26093 73.3063 2.74683C72.3114 3.67532 71.8404 4.68533 71.7723 4.8313C71.7695 4.83734 71.7673 4.8419 71.7659 4.84491C71.6156 5.1583 71.5205 5.41708 71.4777 5.53749C71.2817 6.08789 71.1571 6.69659 71.1367 6.79632C71.1354 6.80231 71.1346 6.80646 71.1341 6.80866C71.076 7.08177 71.0068 7.42808 70.9274 7.8387L71.0427 7.86099C71.0205 8.01868 70.9947 8.19723 70.9657 8.39425C70.9012 8.6309 70.8547 8.83327 70.831 8.93671L70.829 8.94507L70.8282 8.94847C70.2769 11.3417 69.8405 14.608 69.4258 17.7124C69.2384 19.1148 69.0555 20.4841 68.8684 21.725C68.1785 26.3001 67.3421 30.0801 66.1053 32.6255C59.5865 46.0081 51.8889 52.1354 46.3261 55.0077C43.4949 56.4696 41.0933 57.1516 39.4918 57.4702C38.6903 57.6297 38.0903 57.6979 37.7403 57.7269C37.5656 57.7414 37.454 57.746 37.4119 57.7473C37.3908 57.748 37.3873 57.7478 37.4019 57.7477L37.4377 57.7477L37.4661 57.7478L37.4829 57.748L37.492 57.7481C37.4968 57.7482 37.5016 57.7482 37.4001 64.7475C37.2987 71.7468 37.3037 71.7468 37.3087 71.7469L37.3192 71.747L37.3417 71.7473L37.3927 71.7476C37.4292 71.7477 37.4711 71.7476 37.518 71.7472C37.6118 71.7465 37.7262 71.7444 37.8603 71.7401C38.1284 71.7315 38.4755 71.7139 38.8947 71.6792C39.7326 71.6099 40.8616 71.4722 42.2241 71.201C44.9507 70.6585 48.6179 69.5804 52.7492 67.4473C61.1109 63.1299 70.9125 54.7279 78.6934 38.7527L78.6958 38.7477C80.9486 34.1131 82.012 28.4539 82.7119 23.8126C82.7772 23.3795 82.8393 22.9571 82.8986 22.5449L82.9793 22.0658C83.043 21.6869 83.1332 21.1494 83.2392 20.514C83.4509 19.2447 83.727 17.578 83.982 16.0016C84.2336 14.4463 84.4757 12.9114 84.6119 11.9396C84.6462 11.6945 84.6793 11.4465 84.7051 11.2247C84.7053 11.2226 84.7058 11.219 84.7064 11.214C84.7095 11.189 84.7168 11.1289 84.7257 11.043ZM71.089 7.97924C71.0919 7.97041 71.0947 7.96158 71.0977 7.95275C71.1041 7.9332 71.1126 7.90755 71.1232 7.87655L71.0882 7.86978C71.0881 7.90243 71.0883 7.93905 71.089 7.97924ZM84.8433 9.64947C84.8556 9.59385 84.8615 9.57031 84.8614 9.57244C84.8612 9.57457 84.8551 9.60239 84.8433 9.64947Z" fill="#0F8AB2"/>
<path d="M38.5502 55.4676C42.5502 56.3176 45.9202 60.1476 46.6702 65.3176C47.6702 71.8976 44.0202 78.2276 38.6702 79.3876L25.4002 82.2376H25.1102H24.9702L7.12022 86.2376C5.72022 86.5376 4.36022 85.3776 4.12022 83.6576C3.95689 82.8933 4.08071 82.0957 4.46806 81.4169C4.8554 80.7381 5.47915 80.2257 6.22022 79.9776L15.9502 77.8776C15.4621 77.1232 15.0565 76.3186 14.7402 75.4776L3.07023 77.9976C1.67023 78.3076 0.310228 77.1476 0.070228 75.4276C-0.0931006 74.6633 0.0307217 73.8657 0.418067 73.1869C0.805413 72.5082 1.42913 71.9958 2.1702 71.7476L13.8202 69.2376C13.8778 68.4012 14.0083 67.5713 14.2102 66.7576L4.21021 68.9276C2.80021 69.2276 1.45021 68.0676 1.21021 66.3476C1.04688 65.5833 1.17071 64.7857 1.55805 64.1069C1.9454 63.4281 2.56915 62.9158 3.31022 62.6676L20.0202 59.0576C20.5282 58.8086 21.0612 58.6142 21.6102 58.4776L18.2402 57.9676C17.4886 57.7668 16.8391 57.2924 16.4192 56.6375C15.9993 55.9826 15.8391 55.1944 15.9702 54.4276V54.4276C16.1402 52.6976 17.4402 51.4276 18.8502 51.6676" fill="#A2CCED"/>
</svg>
