<svg width="43" height="48" viewBox="0 0 43 48" fill="none" xmlns="http://www.w3.org/2000/svg">
<path d="M22.3932 1C18.3032 4.9 15.3932 11.55 18.6432 16.84C21.0532 20.73 24.6432 25.73 26.8932 29.74C30.0032 35.32 30.4532 45.26 23.8932 47.1C18.8332 48.53 15.7732 44.64 16.1232 40.79C16.4232 37.48 20.3432 36.71 22.3432 39.24" stroke="#F1F0F2" stroke-miterlimit="10"/>
<path d="M21.5931 1C23.1731 2.57 26.2831 3.60001 27.7331 5.29001C28.4703 6.08335 29.0426 7.01514 29.4168 8.03137C29.791 9.04761 29.9597 10.128 29.9131 11.21C29.6431 14.06 27.9131 16.39 28.0031 19.35C28.0731 21.95 28.9031 25.03 31.2331 26.51C34.1331 28.34 38.0631 27.35 40.3631 25.02C40.9837 24.3762 41.4438 23.5953 41.7062 22.7405C41.9685 21.8857 42.0257 20.9811 41.8731 20.1C41.4831 18.03 39.6132 16.66 37.5732 17.6C36.0032 18.33 36.2531 19.46 35.5131 20.98" stroke="#F1F0F2" stroke-miterlimit="10"/>
<path d="M22.3932 1C19.5932 2.29 15.4832 6.71 14.1532 8.5C13.4744 9.33263 12.9675 10.2917 12.662 11.3216C12.3564 12.3516 12.2583 13.4319 12.3732 14.5C12.8332 17.33 14.6932 19.5 14.8132 22.5C14.9232 25.1 14.3032 28.23 12.0732 29.86C9.30324 31.86 5.32322 31.16 2.86322 28.99C2.19962 28.3879 1.68789 27.6373 1.36984 26.7996C1.05179 25.9619 0.936448 25.0608 1.03323 24.17C1.28323 22.09 3.03323 20.59 5.15323 21.4C6.76323 22.02 6.60323 23.16 7.43323 24.64" stroke="#F1F0F2" stroke-miterlimit="10"/>
</svg>
