<svg width="114" height="49" viewBox="0 0 114 49" fill="none" xmlns="http://www.w3.org/2000/svg">
<path fill-rule="evenodd" clip-rule="evenodd" d="M13.2098 38.644C14.3959 39.3119 15.6984 40.0409 17.1484 40.8242C21.2794 43.0559 26.4428 45.6098 31.5022 46.5971L31.5027 46.5972C48.9381 49.9983 61.5428 47.2248 70.0202 43.1422C74.2084 41.1253 77.2749 38.8439 79.3481 36.9918C80.384 36.0664 81.173 35.2472 81.7323 34.6194C82.0121 34.3054 82.2349 34.0386 82.403 33.8296C82.4871 33.7251 82.5575 33.635 82.6146 33.5604C82.6431 33.5232 82.6683 33.4898 82.6902 33.4605L82.7206 33.4196L82.7339 33.4015L82.7401 33.393C82.7431 33.389 82.7461 33.385 77.093 29.2567C71.4399 25.1285 71.4427 25.1246 71.4455 25.1208L71.4509 25.1134L71.4609 25.0999L71.4778 25.0771L71.4994 25.0485C71.5083 25.0369 71.5062 25.0399 71.493 25.0563C71.4666 25.0891 71.3958 25.1755 71.2792 25.3064C71.0455 25.5687 70.6303 26.0069 70.021 26.5513C68.8035 27.6389 66.815 29.1469 63.9457 30.5287C58.3082 33.2436 48.788 35.7051 34.1837 32.8563M13.2098 38.644L12.9861 38.5305C12.7209 38.3958 12.3455 38.205 11.9039 37.98C11.0223 37.5309 9.87025 36.9422 8.80252 36.391C7.76373 35.8548 6.7178 35.3093 6.09796 34.9682C5.94727 34.8853 5.74821 34.7743 5.55863 34.6603C5.51486 34.6339 5.42844 34.5818 5.31858 34.5109C4.67239 34.1666 4.1268 33.8718 3.79223 33.6824C3.70622 33.6337 3.59652 33.5708 3.48369 33.503C3.4836 33.5029 3.48326 33.5027 3.48268 33.5024C3.46096 33.4896 3.10349 33.2796 2.72943 32.9905C2.62674 32.9111 2.32916 32.679 1.99363 32.3352C1.83171 32.1694 1.50449 31.8199 1.17054 31.3173C0.938438 30.968 0.119882 29.7073 0.0118408 27.8475C0.0158296 26.9715 0.397461 25.1161 0.806708 24.1789C1.34327 23.3178 2.64082 21.9639 3.34973 21.4679C4.90669 20.5162 6.37594 20.4559 6.78898 20.4433C7.76145 20.4136 8.52232 20.6039 8.6676 20.6403C8.6732 20.6417 8.67789 20.6428 8.68163 20.6437C9.11374 20.75 9.45044 20.8787 9.5255 20.9074C9.52816 20.9084 9.5305 20.9093 9.5325 20.91C9.66119 20.959 9.7684 21.0038 9.83417 21.0318C10.2142 21.1935 10.8143 21.4833 11.4811 21.8098L11.4343 21.9054C11.616 22.0029 11.8218 22.1128 12.0484 22.2333C12.1783 22.2887 12.3041 22.3444 12.4157 22.3944C14.6642 23.3941 17.5391 25.0101 20.2707 26.5455C21.5004 27.2368 22.7011 27.9117 23.8025 28.5067C27.8763 30.7074 31.4027 32.3135 34.1832 32.8562M10.5823 21.4366C10.5856 21.4379 10.6213 21.4581 10.6794 21.4936C10.6081 21.4531 10.579 21.4353 10.5823 21.4366Z" fill="#0F8AB2"/>
<path d="M68.9925 24.5867C67.2625 28.2967 68.3025 33.2767 71.9925 36.9867C76.6725 41.7067 83.9025 42.6367 88.0525 39.0467L98.3025 30.1867C98.3773 30.1252 98.4474 30.0584 98.5125 29.9867C98.5568 29.9671 98.5974 29.9401 98.6325 29.9067L112.472 17.9067C113.552 16.9767 113.473 15.1967 112.213 13.9067C111.698 13.3205 110.988 12.9421 110.215 12.8427C109.441 12.7432 108.658 12.9296 108.013 13.3667L100.483 19.8767C100.171 19.0359 99.7754 18.2286 99.3025 17.4667L108.303 9.66672C109.383 8.72672 109.303 6.94672 108.053 5.66672C107.541 5.07669 106.83 4.69554 106.055 4.59595C105.281 4.49636 104.497 4.68529 103.852 5.12671L94.8525 12.9267C94.1482 12.4724 93.4054 12.0809 92.6325 11.7567L100.393 5.04672C101.483 4.10672 101.393 2.32671 100.143 1.09671C99.6309 0.506683 98.92 0.125561 98.1455 0.0259721C97.3709 -0.0736165 96.5867 0.115284 95.9425 0.556703L83.0125 11.7367C82.5056 11.9935 82.0264 12.3018 81.5825 12.6567L83.2125 9.65671C83.4999 8.93613 83.5086 8.13431 83.2368 7.40769C82.965 6.68106 82.4323 6.08178 81.7425 5.72672V5.72672C81.4455 5.50124 81.1059 5.33827 80.7442 5.24768C80.3824 5.15709 80.0061 5.14074 79.6379 5.19962C79.2696 5.2585 78.9171 5.39137 78.6017 5.59024C78.2863 5.78911 78.0144 6.04987 77.8025 6.35672" fill="#A2CCED"/>
</svg>
