<svg width="215" height="233" viewBox="0 0 215 233" fill="none" xmlns="http://www.w3.org/2000/svg">
<path d="M214 50H1V229H214V50Z" fill="#F8D978"/>
<path d="M79.1499 56.22H21.37C15.66 56.22 11 51.55 11 45.85V23.37C11 17.66 15.67 13 21.37 13H79.1499C84.8599 13 89.5199 17.67 89.5199 23.37V45.85C89.5299 51.56 84.8599 56.22 79.1499 56.22Z" fill="white"/>
<path d="M112.12 108.69C112.12 135.55 80.04 172.62 64.12 172.62C46.27 172.62 16.12 136.09 16.12 109.23C16.12 82.37 37.61 76.08 64.12 76.08C90.63 76.09 112.12 81.83 112.12 108.69Z" fill="#00A0CC"/>
<path d="M214.05 178.85H0.890015V232.94H214.05V178.85Z" fill="#FFCA05"/>
<path d="M67.38 167.41L70.22 190.78H74.35L77.1899 167.4" fill="#00A0CC"/>
<path d="M50.97 168.81L53.8101 192.24H57.21L60.05 168.88" fill="#00A0CC"/>
<path d="M74.13 195.4H70.8L69.05 180.35H75.9L74.13 195.4Z" fill="#5652A2"/>
<path d="M57.14 195.29H53.8101L52.34 180.25H58.89L57.14 195.29Z" fill="#5652A2"/>
<path d="M48.96 113.43C48.96 109.85 51.86 106.95 55.45 106.95C59.03 106.95 61.9399 109.85 61.9399 113.43" fill="white"/>
<path d="M65.75 113.43C65.75 109.85 68.65 106.95 72.23 106.95C75.81 106.95 78.72 109.85 78.72 113.43" fill="white"/>
<path d="M50.36 105.04C50.36 105.04 52.2599 101.19 56.4399 103.46" stroke="#0D3F60" stroke-width="0.7316" stroke-miterlimit="10"/>
<path d="M76.37 105.04C76.37 105.04 74.9801 101.11 70.8101 103.38" stroke="#0D3F60" stroke-width="0.7316" stroke-miterlimit="10"/>
<path d="M54.64 113.43C54.64 111.88 55.9 110.62 57.45 110.62C59 110.62 60.26 111.88 60.26 113.43" fill="#0D3F60"/>
<path d="M71.4301 113.43C71.4301 111.88 72.69 110.62 74.23 110.62C75.78 110.62 77.04 111.88 77.04 113.43" fill="#0D3F60"/>
<path d="M72.91 117.88C72.91 117.88 71.42 122.67 64.08 122.52C56.74 122.37 56.16 117.88 56.16 117.88H72.91Z" fill="#0D3F60"/>
<path d="M61.63 196.06C61.63 192.44 58.6899 189.5 55.0699 189.5C51.4499 189.5 48.51 192.44 48.51 196.06" fill="#4F4A47"/>
<path d="M79.2 196.06C79.2 192.44 76.26 189.5 72.64 189.5C69.02 189.5 66.08 192.44 66.08 196.06" fill="#4F4A47"/>
<path d="M32.23 140.27C32.23 140.27 26.67 143.86 22.46 141.6C19.9 140.23 20.53 133.93 20.89 131.46C20.98 130.84 21.05 130.45 21.05 130.45C21.05 130.45 21.15 129.64 21.15 131.6" stroke="#108AB2" stroke-width="2.1952" stroke-miterlimit="10"/>
<path d="M16.2 165.08H11.64V202.33H16.2V165.08Z" fill="#FAAC18"/>
<path d="M118.88 165.04H114.32V202.29H118.88V165.04Z" fill="#FAAC18"/>
<path d="M123.53 161.16H6.51001V172.92H123.53V161.16Z" fill="#FAAC18"/>
<path d="M83.71 161.16H41.5601C40.5101 161.16 39.64 160.3 39.64 159.24C39.64 158.19 40.5001 157.32 41.5601 157.32H83.71C84.76 157.32 85.63 158.18 85.63 159.24C85.63 160.3 84.76 161.16 83.71 161.16Z" fill="#888A8D"/>
<path d="M78.53 157.64H58.4301C57.9901 157.64 57.62 157.28 57.62 156.83C57.62 156.38 57.9801 156.02 58.4301 156.02H78.53C78.97 156.02 79.34 156.38 79.34 156.83C79.34 157.27 78.97 157.64 78.53 157.64Z" fill="#717275"/>
<path d="M47.62 156.9H43.49C43.28 156.9 43.11 156.73 43.11 156.52V155.67C43.11 155.46 43.28 155.29 43.49 155.29H47.62C47.83 155.29 48 155.46 48 155.67V156.52C48 156.73 47.83 156.9 47.62 156.9Z" fill="#717275"/>
<path d="M53.2901 145.98C52.0101 145.98 50.88 145.95 49.76 145.99C48.78 146.03 48.25 145.7 48.24 144.89C48.23 144.09 48.7 143.71 49.71 143.75C50.86 143.79 52.02 143.76 53.22 143.76V141.55C51.12 141.79 51.48 140.2 50.51 139.36H85.5201C85.1901 140.84 84.53 141.47 83.11 141.61C83.09 141.72 83.0501 141.84 83.0501 141.96C83.0401 142.52 83.0501 143.07 83.0501 143.76C84.2701 143.76 85.46 143.79 86.64 143.75C87.66 143.72 88.1 144.12 88.09 144.91C88.08 145.66 87.6101 146.02 86.6601 145.99C85.5001 145.96 84.3401 145.98 83.0501 145.98C83.0501 147.67 83.0501 149.3 83.0501 150.92C83.0501 151.51 83.0701 152.1 83.0401 152.68C82.9701 154.55 81.2901 155.98 79.0201 155.99C71.7701 156.02 64.5201 156.02 57.2701 155.99C55.0001 155.98 53.3101 154.54 53.2801 152.66C53.2701 150.48 53.2901 148.29 53.2901 145.98Z" fill="#9C9EA1"/>
<path d="M83.12 143.76H87.01C87.75 143.76 88.36 144.26 88.36 144.87C88.36 145.48 87.75 145.98 87.01 145.98H83.12" fill="#7B7D7F"/>
<path d="M53.33 145.98H49.4399C48.6999 145.98 48.09 145.48 48.09 144.87C48.09 144.26 48.6999 143.76 49.4399 143.76H53.33" fill="#7B7D7F"/>
<path d="M80.44 138.32C78.78 140.97 77.1 143.6 75.47 146.27C75.24 146.66 75.03 147.34 75.22 147.66C76.23 149.42 75.78 150.91 74.57 152.31C73.63 153.4 72.5401 154.23 71.0601 154.41C70.3401 154.5 69.79 154.26 69.44 153.59C68.46 151.71 69.6201 147.98 71.5101 147.04C71.9601 146.82 72.5301 146.6 73.0001 146.68C74.0601 146.85 74.51 146.3 74.98 145.51C78.05 140.33 81.15 135.17 84.24 130C84.32 129.86 84.4 129.72 84.49 129.58C84.8 129.07 85.0101 128.51 85.6501 128.91C86.2601 129.3 85.94 129.73 85.58 130.24C85.26 130.69 84.9501 131.15 84.6501 131.62" fill="#9C9EA1"/>
<path d="M38.7299 142.96C37.2699 142.83 36.19 141.54 36.31 140.08L36.93 133C37.06 131.54 38.35 131.92 39.81 132.05C41.27 132.18 42.3499 132.01 42.2299 133.46L41.6099 140.54C41.4799 142 40.1899 143.09 38.7299 142.96Z" fill="#949699"/>
<path d="M41.5899 144.15C41.9599 144.2 42.31 143.9 42.37 143.49C42.42 143.08 42.16 142.7 41.79 142.65L39.2099 142.31C39.3299 142.13 39.43 141.93 39.51 141.72L42.61 142.12C42.98 142.17 43.33 141.87 43.39 141.46C43.44 141.05 43.18 140.67 42.81 140.62L39.7099 140.22C39.6899 140.02 39.6499 139.82 39.5899 139.64L42.25 139.99C42.62 140.04 42.97 139.74 43.03 139.33C43.08 138.92 42.8199 138.54 42.4499 138.49L38.01 137.91C37.87 137.86 37.7299 137.82 37.5799 137.8L38.4699 137.62C38.8399 137.55 39.1 137.15 39.04 136.74C38.98 136.33 38.63 136.06 38.26 136.13L33.52 137.07C33.34 137.11 33.18 137.22 33.08 137.38C32.03 137.65 31.17 138.62 31.01 139.86C30.8 141.44 31.8 142.89 33.23 143.07L36.75 143.53C36.78 143.53 36.7999 143.53 36.8299 143.54C36.8399 143.54 36.85 143.55 36.87 143.55L41.5899 144.15Z" fill="#A1CBEC"/>
<path d="M88.58 133.13C88.58 133.13 100.53 138.75 104.89 136.82C108.73 135.12 106.88 130.24 106.88 130.24C106.88 130.24 106.67 130.31 106.99 131.29" stroke="#108AB2" stroke-width="2.1952" stroke-miterlimit="10"/>
<path d="M87.37 129.3C88.42 129.59 89.25 130.58 89.39 131.82C89.56 133.41 88.53 134.83 87.1 134.98L83.5699 135.36C83.5499 135.36 83.52 135.36 83.5 135.36C83.49 135.36 83.4799 135.37 83.4599 135.37L78.6999 135.89C78.3299 135.93 77.9799 135.62 77.9399 135.21C77.8999 134.8 78.16 134.42 78.54 134.38L81.13 134.1C81.01 133.92 80.9199 133.72 80.8399 133.5L77.73 133.84C77.36 133.88 77.01 133.57 76.97 133.16C76.92 132.75 77.1899 132.37 77.5699 132.33L80.68 131.99C80.71 131.79 80.7499 131.59 80.8199 131.41L78.15 131.7C77.78 131.74 77.43 131.43 77.39 131.02C77.35 130.61 77.61 130.23 77.99 130.19L82.4399 129.71C82.5799 129.66 82.72 129.63 82.87 129.61L81.99 129.41C81.62 129.33 81.3699 128.93 81.4399 128.52C81.5099 128.11 81.86 127.84 82.23 127.93" fill="#A1CBEC"/>
<path d="M41.45 131.85L38.44 131.68C37.75 131.64 37.21 131.04 37.25 130.35L37.27 129.92C37.31 129.23 37.91 128.69 38.6 128.73L41.62 128.9C42.31 128.94 42.8501 129.54 42.8101 130.23L42.7901 130.66C42.7401 131.35 42.14 131.89 41.45 131.85Z" fill="#888A8D"/>
<path d="M28.9 161.03C26.87 161.03 25.2 159.37 25.2 157.33C25.2 155.3 26.86 155.1 28.9 155.1C30.94 155.1 32.6 155.3 32.6 157.33C32.59 159.37 30.93 161.03 28.9 161.03Z" fill="#CF2053"/>
<path d="M20.88 161.14C18.85 161.14 17.18 159.48 17.18 157.44C17.18 155.41 18.84 155.21 20.88 155.21C22.91 155.21 24.58 155.41 24.58 157.44C24.58 159.48 22.92 161.14 20.88 161.14Z" fill="#CF2053"/>
<path d="M28.9 156.02C28.9 156.02 27.71 153.9 28.9 153.13C28.9 153.13 29.78 155.29 28.9 156.02Z" fill="#129948"/>
<path d="M20.9 155.54C20.9 155.54 18.55 154.91 18.84 153.52C18.84 153.51 21 154.39 20.9 155.54Z" fill="#129948"/>
<path d="M100.15 151.78C100.15 151.78 99.56 149.47 102.38 149.47C105.2 149.47 103.48 151 105.97 151.05C107.82 151.09 106.97 149.78 109.17 149.47C111.37 149.16 111.21 150.94 112.6 150.98C114.05 151.02 113.26 149.37 115.07 149.42C116.88 149.47 117.56 150.14 117.91 151.81C118.25 153.48 100.15 151.78 100.15 151.78Z" fill="#149046"/>
<path d="M98.72 151.44C98.72 151.44 98.4101 161.17 105.81 161.17H113.2C113.2 161.17 119.62 162.11 119.59 151.44H98.72Z" fill="#BFC1C3"/>
<path d="M140.55 181.49C140.55 181.49 142.77 184.78 144.97 185.59C147.17 186.4 151.96 187.14 151.96 187.14" stroke="#00A0CC" stroke-width="1.7562" stroke-miterlimit="10"/>
<path d="M169.16 164.16C156.25 163.92 149.22 179.18 149.01 190.64C148.8 202.1 157.55 204.94 168.41 205.14C179.27 205.34 188.11 203.05 188.32 191.59C188.53 180.13 180.76 164.37 169.16 164.16Z" fill="#00A0CC"/>
<path d="M161.46 201.49L151.47 209.77L152.33 211.15L170.74 204.4" fill="#00A0CC"/>
<path d="M152.65 196.7L140.44 199.71L140.63 201.34L155.79 200.94" fill="#00A0CC"/>
<path d="M135.15 178.48C135 178.31 135.05 178.02 135.27 177.85C135.49 177.68 135.8 177.68 135.96 177.85L137.03 179.05C137.09 178.92 137.18 178.8 137.27 178.69L135.98 177.25C135.83 177.08 135.88 176.8 136.1 176.62C136.32 176.45 136.63 176.45 136.78 176.62L138.07 178.06C138.19 178 138.32 177.95 138.45 177.92L137.34 176.69C137.18 176.52 137.24 176.23 137.46 176.06C137.68 175.89 137.99 175.89 138.14 176.06L139.98 178.12C140.06 178.17 140.12 178.23 140.19 178.3L139.99 177.79C139.91 177.57 140.05 177.3 140.31 177.19C140.57 177.08 140.85 177.16 140.93 177.37L141.99 180.12C142.03 180.23 142.02 180.34 141.96 180.45C142.16 181.08 141.89 181.86 141.23 182.38C140.38 183.04 139.2 183.04 138.61 182.38L137.15 180.75C137.14 180.74 137.13 180.73 137.12 180.71C137.11 180.7 137.11 180.7 137.1 180.69L135.15 178.48Z" fill="#A1CBEC"/>
<path d="M190.11 182.64C190.11 182.64 186.42 186.95 184.33 188.01C182.24 189.07 177.56 189.61 177.56 189.61C177.56 189.61 177.3 189.71 178 189.49" stroke="#108AB2" stroke-width="1.4885" stroke-miterlimit="10"/>
<path d="M189.17 181.09C189.06 181.79 189.46 182.56 190.24 183.01C191.24 183.58 192.48 183.39 193 182.6L194.29 180.65C194.3 180.64 194.31 180.62 194.31 180.61C194.32 180.6 194.32 180.6 194.33 180.59L196.07 177.96C196.21 177.75 196.11 177.46 195.84 177.32C195.58 177.17 195.25 177.22 195.12 177.43L194.17 178.86C194.08 178.74 193.98 178.62 193.86 178.52L195 176.81C195.14 176.6 195.04 176.31 194.77 176.17C194.51 176.02 194.18 176.07 194.05 176.28L192.92 178C192.78 177.96 192.64 177.93 192.5 177.91L193.48 176.44C193.62 176.23 193.51 175.94 193.25 175.8C192.99 175.65 192.66 175.7 192.53 175.91L190.9 178.37C190.83 178.44 190.76 178.51 190.71 178.59L190.84 178.02C190.9 177.78 190.7 177.52 190.41 177.43C190.12 177.35 189.84 177.48 189.79 177.72" fill="#A1CBEC"/>
<path d="M157.96 183.47C157.96 183.47 158.61 185.56 161.82 185.5C165.03 185.44 165.28 183.47 165.28 183.47H157.96Z" fill="#0D3F60"/>
<path d="M169.78 180.13C169.78 178.36 168.34 176.92 166.57 176.92C164.8 176.92 163.36 178.36 163.36 180.13" fill="white"/>
<path d="M161.46 180.13C161.46 178.36 160.02 176.92 158.25 176.92C156.48 176.92 155.04 178.36 155.04 180.13" fill="white"/>
<path d="M169.09 175.24C169.09 175.24 168.15 173.33 166.08 174.46" stroke="#0D3F60" stroke-width="0.9146" stroke-miterlimit="10"/>
<path d="M156.2 175.24C156.2 175.24 156.89 173.3 158.96 174.42" stroke="#0D3F60" stroke-width="0.9146" stroke-miterlimit="10"/>
<path d="M157.05 205.15L159.4 208.56L152.33 211.15L151.47 208.61L157.05 205.15Z" fill="#CF2053"/>
<path d="M149.38 205.48C150.78 204.65 152.5 205.26 153.23 206.84C153.96 208.42 153.42 210.37 152.03 211.2" fill="#4F4A47"/>
<path d="M146.66 197.85L147.25 201.26L140.77 201.51L141.08 199.55L146.66 197.85Z" fill="#CF2053"/>
<path d="M165.77 178.74C166.43 178.36 166.77 177.65 166.7 176.94C166.64 176.94 166.58 176.92 166.51 176.92C165.3 176.92 164.25 177.6 163.7 178.6C164.29 179.04 165.1 179.12 165.77 178.74Z" fill="#0D3F60"/>
<path d="M157.48 178.74C158.14 178.36 158.48 177.65 158.41 176.94C158.35 176.94 158.29 176.92 158.22 176.92C157.01 176.92 155.96 177.6 155.41 178.6C155.99 179.04 156.8 179.12 157.48 178.74Z" fill="#0D3F60"/>
<path d="M142.61 204.05C144.19 204.05 145.57 204.1 146.95 204.04C148.16 203.99 148.81 204.47 148.82 205.69C148.83 206.88 148.25 207.45 147.01 207.4C145.59 207.34 144.17 207.39 142.69 207.39V210.7C145.27 210.35 144.83 212.72 146.02 213.98H102.94C103.35 211.76 104.16 210.82 105.9 210.61C105.92 210.45 105.97 210.27 105.97 210.09C105.98 209.26 105.97 208.43 105.97 207.39C104.47 207.39 103.01 207.35 101.55 207.4C100.29 207.45 99.7501 206.85 99.7701 205.66C99.7901 204.53 100.36 204 101.53 204.04C102.95 204.09 104.38 204.05 105.98 204.05C105.98 201.52 105.98 199.09 105.98 196.66C105.98 195.78 105.96 194.9 105.99 194.03C106.08 191.23 108.14 189.1 110.94 189.08C119.86 189.04 128.79 189.04 137.71 189.08C140.5 189.09 142.58 191.25 142.62 194.05C142.64 197.33 142.61 200.6 142.61 204.05Z" fill="#9C9EA1"/>
<path d="M178.45 217.4V215.92C177.98 215.88 177.55 215.85 176.99 215.8C176.97 215.36 176.95 214.91 176.93 214.37H183.15V215.81C182.68 215.84 182.25 215.86 181.74 215.89V217.29C184.26 217.59 186.82 217.77 189.33 218.25C191.63 218.68 193.86 219.45 196.14 220.04C197.16 220.31 197.62 220.87 197.25 222.04H162.9C162.54 220.92 162.99 220.4 164.04 220.02C168.3 218.46 172.71 217.78 177.21 217.49C177.59 217.46 177.97 217.44 178.45 217.4Z" fill="#949699"/>
<path d="M183.89 213.31H180.43H179.99H176.53C175.79 213.31 175.18 213.92 175.18 214.66C175.18 215.4 175.79 216.01 176.53 216.01H179.99H180.43H183.89C184.63 216.01 185.24 215.4 185.24 214.66C185.24 213.91 184.63 213.31 183.89 213.31Z" fill="#7B7D7F"/>
<path d="M141.4 177.62C138.55 178.9 135.69 180.17 132.87 181.5C132.46 181.69 131.91 182.15 131.89 182.52C131.76 184.55 130.56 185.53 128.77 186.04C127.39 186.43 126.02 186.52 124.68 185.85C124.03 185.53 123.7 185.02 123.78 184.28C124 182.18 127.03 179.7 129.12 179.96C129.62 180.02 130.21 180.16 130.56 180.48C131.35 181.21 132.03 181 132.85 180.6C138.27 177.98 143.71 175.39 149.15 172.8C149.3 172.73 149.44 172.66 149.59 172.59C150.13 172.33 150.62 171.98 150.92 172.67C151.21 173.33 150.72 173.51 150.13 173.74C149.61 173.94 149.1 174.15 148.6 174.37" fill="#949699"/>
<path d="M118.19 184.65L113.41 179.39" stroke="#090806" stroke-width="0.366" stroke-miterlimit="10"/>
<path d="M119.57 182.86L118.19 175.39" stroke="#090806" stroke-width="0.366" stroke-miterlimit="10"/>
<path d="M105.9 207.38H101.11C100.2 207.38 99.45 206.64 99.45 205.72C99.45 204.8 100.2 204.06 101.11 204.06H105.9" fill="#7B7D7F"/>
<path d="M142.56 204.05H147.35C148.26 204.05 149.01 204.8 149.01 205.71C149.01 206.62 148.26 207.37 147.35 207.37H142.56" fill="#7B7D7F"/>
<path d="M21.1226 40.9829L21.2456 41.8267L21.4258 41.0664L22.6914 36.6016H23.4033L24.6382 41.0664L24.814 41.8398L24.9502 40.9785L25.9434 36.6016H26.7915L25.2402 43H24.4712L23.1528 38.3374L23.0518 37.8496L22.9507 38.3374L21.584 43H20.8149L19.2681 36.6016H20.1118L21.1226 40.9829ZM29.437 43.0879C28.7925 43.0879 28.2681 42.877 27.8638 42.4551C27.4595 42.0303 27.2573 41.4634 27.2573 40.7544V40.605C27.2573 40.1333 27.3467 39.7129 27.5254 39.3438C27.707 38.9717 27.959 38.6816 28.2812 38.4736C28.6064 38.2627 28.958 38.1572 29.3359 38.1572C29.9541 38.1572 30.4346 38.3608 30.7773 38.7681C31.1201 39.1753 31.2915 39.7583 31.2915 40.5171V40.8555H28.0703C28.082 41.3242 28.2183 41.7036 28.479 41.9937C28.7427 42.2808 29.0767 42.4243 29.481 42.4243C29.7681 42.4243 30.0112 42.3657 30.2104 42.2485C30.4097 42.1313 30.584 41.9761 30.7334 41.7827L31.23 42.1694C30.8315 42.7817 30.2339 43.0879 29.437 43.0879ZM29.3359 38.8252C29.0078 38.8252 28.7324 38.9453 28.5098 39.1855C28.2871 39.4229 28.1494 39.7568 28.0967 40.1875H30.4785V40.126C30.4551 39.7129 30.3438 39.3936 30.1445 39.168C29.9453 38.9395 29.6758 38.8252 29.3359 38.8252ZM37.4043 43C37.3574 42.9062 37.3193 42.7393 37.29 42.499C36.9121 42.8916 36.4609 43.0879 35.9365 43.0879C35.4678 43.0879 35.0825 42.9561 34.7808 42.6924C34.4819 42.4258 34.3325 42.0889 34.3325 41.6816C34.3325 41.1865 34.52 40.8027 34.895 40.5303C35.2729 40.2549 35.8032 40.1172 36.4858 40.1172H37.2769V39.7437C37.2769 39.4595 37.1919 39.2339 37.022 39.0669C36.8521 38.897 36.6016 38.812 36.2705 38.812C35.9805 38.812 35.7373 38.8853 35.541 39.0317C35.3447 39.1782 35.2466 39.3555 35.2466 39.5635H34.4292C34.4292 39.3262 34.5127 39.0977 34.6797 38.8779C34.8496 38.6553 35.0781 38.4795 35.3652 38.3506C35.6553 38.2217 35.9731 38.1572 36.3188 38.1572C36.8667 38.1572 37.2959 38.2949 37.6064 38.5703C37.917 38.8428 38.0781 39.2192 38.0898 39.6997V41.8882C38.0898 42.3247 38.1455 42.6719 38.2568 42.9297V43H37.4043ZM36.0552 42.3804C36.3101 42.3804 36.5518 42.3145 36.7803 42.1826C37.0088 42.0508 37.1743 41.8794 37.2769 41.6685V40.6929H36.6396C35.6436 40.6929 35.1455 40.9844 35.1455 41.5674C35.1455 41.8223 35.2305 42.0215 35.4004 42.165C35.5703 42.3086 35.7886 42.3804 36.0552 42.3804ZM41.6626 38.9746C41.5396 38.9541 41.4062 38.9438 41.2627 38.9438C40.7295 38.9438 40.3677 39.1709 40.1772 39.625V43H39.3643V38.2451H40.1553L40.1685 38.7944C40.4351 38.3696 40.813 38.1572 41.3022 38.1572C41.4604 38.1572 41.5806 38.1777 41.6626 38.2188V38.9746ZM44.2993 43.0879C43.6548 43.0879 43.1304 42.877 42.7261 42.4551C42.3218 42.0303 42.1196 41.4634 42.1196 40.7544V40.605C42.1196 40.1333 42.209 39.7129 42.3877 39.3438C42.5693 38.9717 42.8213 38.6816 43.1436 38.4736C43.4688 38.2627 43.8203 38.1572 44.1982 38.1572C44.8164 38.1572 45.2969 38.3608 45.6396 38.7681C45.9824 39.1753 46.1538 39.7583 46.1538 40.5171V40.8555H42.9326C42.9443 41.3242 43.0806 41.7036 43.3413 41.9937C43.605 42.2808 43.939 42.4243 44.3433 42.4243C44.6304 42.4243 44.8735 42.3657 45.0728 42.2485C45.272 42.1313 45.4463 41.9761 45.5957 41.7827L46.0923 42.1694C45.6938 42.7817 45.0962 43.0879 44.2993 43.0879ZM44.1982 38.8252C43.8701 38.8252 43.5947 38.9453 43.3721 39.1855C43.1494 39.4229 43.0117 39.7568 42.959 40.1875H45.3408V40.126C45.3174 39.7129 45.2061 39.3936 45.0068 39.168C44.8076 38.9395 44.5381 38.8252 44.1982 38.8252ZM50.0957 38.2451L50.1177 38.7725C50.4663 38.3623 50.9365 38.1572 51.5283 38.1572C52.1934 38.1572 52.646 38.4121 52.8862 38.9219C53.0444 38.6934 53.2495 38.5088 53.5015 38.3682C53.7563 38.2275 54.0566 38.1572 54.4023 38.1572C55.4453 38.1572 55.9756 38.7095 55.9932 39.814V43H55.1802V39.8623C55.1802 39.5225 55.1025 39.269 54.9473 39.1021C54.792 38.9321 54.5312 38.8472 54.165 38.8472C53.8633 38.8472 53.6128 38.938 53.4136 39.1196C53.2144 39.2983 53.0986 39.54 53.0664 39.8447V43H52.249V39.8843C52.249 39.1929 51.9106 38.8472 51.2339 38.8472C50.7007 38.8472 50.3359 39.0742 50.1396 39.5283V43H49.3267V38.2451H50.0957ZM60.1592 43C60.1123 42.9062 60.0742 42.7393 60.0449 42.499C59.667 42.8916 59.2158 43.0879 58.6914 43.0879C58.2227 43.0879 57.8374 42.9561 57.5356 42.6924C57.2368 42.4258 57.0874 42.0889 57.0874 41.6816C57.0874 41.1865 57.2749 40.8027 57.6499 40.5303C58.0278 40.2549 58.5581 40.1172 59.2407 40.1172H60.0317V39.7437C60.0317 39.4595 59.9468 39.2339 59.7769 39.0669C59.6069 38.897 59.3564 38.812 59.0254 38.812C58.7354 38.812 58.4922 38.8853 58.2959 39.0317C58.0996 39.1782 58.0015 39.3555 58.0015 39.5635H57.1841C57.1841 39.3262 57.2676 39.0977 57.4346 38.8779C57.6045 38.6553 57.833 38.4795 58.1201 38.3506C58.4102 38.2217 58.728 38.1572 59.0737 38.1572C59.6216 38.1572 60.0508 38.2949 60.3613 38.5703C60.6719 38.8428 60.833 39.2192 60.8447 39.6997V41.8882C60.8447 42.3247 60.9004 42.6719 61.0117 42.9297V43H60.1592ZM58.8101 42.3804C59.0649 42.3804 59.3066 42.3145 59.5352 42.1826C59.7637 42.0508 59.9292 41.8794 60.0317 41.6685V40.6929H59.3945C58.3984 40.6929 57.9004 40.9844 57.9004 41.5674C57.9004 41.8223 57.9854 42.0215 58.1553 42.165C58.3252 42.3086 58.5435 42.3804 58.8101 42.3804ZM63.4463 40.7983L62.9365 41.3301V43H62.1235V36.25H62.9365V40.3325L63.3716 39.8096L64.8525 38.2451H65.8413L63.9912 40.2314L66.0566 43H65.103L63.4463 40.7983ZM67.564 43H66.751V38.2451H67.564V43ZM66.6851 36.9839C66.6851 36.8521 66.7246 36.7407 66.8037 36.6499C66.8857 36.5591 67.0059 36.5137 67.1641 36.5137C67.3223 36.5137 67.4424 36.5591 67.5244 36.6499C67.6064 36.7407 67.6475 36.8521 67.6475 36.9839C67.6475 37.1157 67.6064 37.2256 67.5244 37.3135C67.4424 37.4014 67.3223 37.4453 67.1641 37.4453C67.0059 37.4453 66.8857 37.4014 66.8037 37.3135C66.7246 37.2256 66.6851 37.1157 66.6851 36.9839ZM69.6382 38.2451L69.6646 38.8428C70.0278 38.3857 70.5024 38.1572 71.0884 38.1572C72.0933 38.1572 72.6001 38.7241 72.6089 39.8579V43H71.7959V39.8535C71.793 39.5107 71.7139 39.2573 71.5586 39.0933C71.4062 38.9292 71.1675 38.8472 70.8423 38.8472C70.5786 38.8472 70.3472 38.9175 70.1479 39.0581C69.9487 39.1987 69.7935 39.3833 69.6821 39.6118V43H68.8691V38.2451H69.6382ZM73.6416 40.583C73.6416 39.8418 73.813 39.2529 74.1558 38.8164C74.4985 38.377 74.9526 38.1572 75.5181 38.1572C76.0981 38.1572 76.5508 38.3623 76.876 38.7725L76.9155 38.2451H77.6582V42.8857C77.6582 43.501 77.4751 43.9858 77.1089 44.3403C76.7456 44.6948 76.2563 44.8721 75.6411 44.8721C75.2983 44.8721 74.9629 44.7988 74.6348 44.6523C74.3066 44.5059 74.0562 44.3052 73.8833 44.0503L74.3052 43.5625C74.6538 43.9932 75.0801 44.2085 75.584 44.2085C75.9795 44.2085 76.2871 44.0972 76.5068 43.8745C76.7295 43.6519 76.8408 43.3384 76.8408 42.9341V42.5254C76.5156 42.9004 76.0718 43.0879 75.5093 43.0879C74.9526 43.0879 74.5015 42.8638 74.1558 42.4155C73.813 41.9673 73.6416 41.3564 73.6416 40.583ZM74.459 40.6753C74.459 41.2114 74.5688 41.6333 74.7886 41.9409C75.0083 42.2456 75.3159 42.3979 75.7114 42.3979C76.2241 42.3979 76.6006 42.165 76.8408 41.6992V39.5283C76.5918 39.0742 76.2183 38.8472 75.7202 38.8472C75.3247 38.8472 75.0156 39.001 74.793 39.3086C74.5703 39.6162 74.459 40.0718 74.459 40.6753ZM84.0566 43C84.0098 42.9062 83.9717 42.7393 83.9424 42.499C83.5645 42.8916 83.1133 43.0879 82.5889 43.0879C82.1201 43.0879 81.7349 42.9561 81.4331 42.6924C81.1343 42.4258 80.9849 42.0889 80.9849 41.6816C80.9849 41.1865 81.1724 40.8027 81.5474 40.5303C81.9253 40.2549 82.4556 40.1172 83.1382 40.1172H83.9292V39.7437C83.9292 39.4595 83.8442 39.2339 83.6743 39.0669C83.5044 38.897 83.2539 38.812 82.9229 38.812C82.6328 38.812 82.3896 38.8853 82.1934 39.0317C81.9971 39.1782 81.8989 39.3555 81.8989 39.5635H81.0815C81.0815 39.3262 81.165 39.0977 81.332 38.8779C81.502 38.6553 81.7305 38.4795 82.0176 38.3506C82.3076 38.2217 82.6255 38.1572 82.9712 38.1572C83.519 38.1572 83.9482 38.2949 84.2588 38.5703C84.5693 38.8428 84.7305 39.2192 84.7422 39.6997V41.8882C84.7422 42.3247 84.7979 42.6719 84.9092 42.9297V43H84.0566ZM82.7075 42.3804C82.9624 42.3804 83.2041 42.3145 83.4326 42.1826C83.6611 42.0508 83.8267 41.8794 83.9292 41.6685V40.6929H83.292C82.2959 40.6929 81.7979 40.9844 81.7979 41.5674C81.7979 41.8223 81.8828 42.0215 82.0527 42.165C82.2227 42.3086 82.4409 42.3804 82.7075 42.3804ZM88.0513 40.583C88.0513 39.8535 88.2241 39.2676 88.5698 38.8252C88.9155 38.3799 89.3682 38.1572 89.9277 38.1572C90.4844 38.1572 90.9253 38.3477 91.2505 38.7285V36.25H92.0635V43H91.3164L91.2769 42.4902C90.9517 42.8887 90.499 43.0879 89.9189 43.0879C89.3682 43.0879 88.9185 42.8623 88.5698 42.4111C88.2241 41.96 88.0513 41.3711 88.0513 40.6445V40.583ZM88.8643 40.6753C88.8643 41.2144 88.9756 41.6362 89.1982 41.9409C89.4209 42.2456 89.7285 42.3979 90.1211 42.3979C90.6367 42.3979 91.0132 42.1665 91.2505 41.7036V39.5195C91.0073 39.0713 90.6338 38.8472 90.1299 38.8472C89.7314 38.8472 89.4209 39.001 89.1982 39.3086C88.9756 39.6162 88.8643 40.0718 88.8643 40.6753ZM95.3022 43.0879C94.6577 43.0879 94.1333 42.877 93.729 42.4551C93.3247 42.0303 93.1226 41.4634 93.1226 40.7544V40.605C93.1226 40.1333 93.2119 39.7129 93.3906 39.3438C93.5723 38.9717 93.8242 38.6816 94.1465 38.4736C94.4717 38.2627 94.8232 38.1572 95.2012 38.1572C95.8193 38.1572 96.2998 38.3608 96.6426 38.7681C96.9854 39.1753 97.1567 39.7583 97.1567 40.5171V40.8555H93.9355C93.9473 41.3242 94.0835 41.7036 94.3442 41.9937C94.6079 42.2808 94.9419 42.4243 95.3462 42.4243C95.6333 42.4243 95.8765 42.3657 96.0757 42.2485C96.2749 42.1313 96.4492 41.9761 96.5986 41.7827L97.0952 42.1694C96.6968 42.7817 96.0991 43.0879 95.3022 43.0879ZM95.2012 38.8252C94.873 38.8252 94.5977 38.9453 94.375 39.1855C94.1523 39.4229 94.0146 39.7568 93.9619 40.1875H96.3438V40.126C96.3203 39.7129 96.209 39.3936 96.0098 39.168C95.8105 38.9395 95.541 38.8252 95.2012 38.8252ZM98.9849 43H98.1719V36.25H98.9849V43ZM101.173 43H100.36V38.2451H101.173V43ZM100.294 36.9839C100.294 36.8521 100.334 36.7407 100.413 36.6499C100.495 36.5591 100.615 36.5137 100.773 36.5137C100.932 36.5137 101.052 36.5591 101.134 36.6499C101.216 36.7407 101.257 36.8521 101.257 36.9839C101.257 37.1157 101.216 37.2256 101.134 37.3135C101.052 37.4014 100.932 37.4453 100.773 37.4453C100.615 37.4453 100.495 37.4014 100.413 37.3135C100.334 37.2256 100.294 37.1157 100.294 36.9839ZM104.386 42.4243C104.676 42.4243 104.929 42.3364 105.146 42.1606C105.363 41.9849 105.483 41.7651 105.506 41.5015H106.275C106.261 41.7739 106.167 42.0332 105.994 42.2793C105.821 42.5254 105.59 42.7217 105.3 42.8682C105.013 43.0146 104.708 43.0879 104.386 43.0879C103.738 43.0879 103.223 42.8726 102.839 42.4419C102.458 42.0083 102.268 41.4165 102.268 40.6665V40.5303C102.268 40.0674 102.353 39.6558 102.522 39.2954C102.692 38.9351 102.936 38.6553 103.252 38.4561C103.571 38.2568 103.948 38.1572 104.381 38.1572C104.915 38.1572 105.357 38.3169 105.708 38.6362C106.063 38.9556 106.252 39.3701 106.275 39.8799H105.506C105.483 39.5723 105.366 39.3203 105.155 39.124C104.947 38.9248 104.689 38.8252 104.381 38.8252C103.968 38.8252 103.647 38.9746 103.419 39.2734C103.193 39.5693 103.081 39.9985 103.081 40.561V40.7148C103.081 41.2627 103.193 41.6846 103.419 41.9805C103.645 42.2764 103.967 42.4243 104.386 42.4243ZM108.073 43H107.26V38.2451H108.073V43ZM107.194 36.9839C107.194 36.8521 107.233 36.7407 107.312 36.6499C107.395 36.5591 107.515 36.5137 107.673 36.5137C107.831 36.5137 107.951 36.5591 108.033 36.6499C108.115 36.7407 108.156 36.8521 108.156 36.9839C108.156 37.1157 108.115 37.2256 108.033 37.3135C107.951 37.4014 107.831 37.4453 107.673 37.4453C107.515 37.4453 107.395 37.4014 107.312 37.3135C107.233 37.2256 107.194 37.1157 107.194 36.9839ZM109.163 40.5786C109.163 40.1128 109.253 39.6938 109.435 39.3218C109.62 38.9497 109.875 38.6626 110.2 38.4604C110.528 38.2583 110.901 38.1572 111.32 38.1572C111.968 38.1572 112.491 38.3813 112.889 38.8296C113.291 39.2778 113.491 39.874 113.491 40.6182V40.6753C113.491 41.1382 113.402 41.5542 113.223 41.9233C113.047 42.2896 112.794 42.5752 112.463 42.7803C112.135 42.9854 111.757 43.0879 111.329 43.0879C110.685 43.0879 110.162 42.8638 109.76 42.4155C109.362 41.9673 109.163 41.374 109.163 40.6357V40.5786ZM109.98 40.6753C109.98 41.2026 110.102 41.626 110.345 41.9453C110.591 42.2646 110.919 42.4243 111.329 42.4243C111.742 42.4243 112.07 42.2632 112.313 41.9409C112.557 41.6157 112.678 41.1616 112.678 40.5786C112.678 40.0571 112.554 39.6353 112.305 39.313C112.059 38.9878 111.73 38.8252 111.32 38.8252C110.919 38.8252 110.595 38.9849 110.349 39.3042C110.103 39.6235 109.98 40.0806 109.98 40.6753ZM117.446 42.5298C117.13 42.9019 116.666 43.0879 116.053 43.0879C115.546 43.0879 115.16 42.9414 114.893 42.6484C114.629 42.3525 114.496 41.916 114.493 41.3389V38.2451H115.306V41.3169C115.306 42.0376 115.599 42.3979 116.185 42.3979C116.806 42.3979 117.219 42.1665 117.424 41.7036V38.2451H118.237V43H117.464L117.446 42.5298ZM122.245 41.7388C122.245 41.519 122.162 41.3491 121.995 41.229C121.831 41.106 121.542 41.0005 121.129 40.9126C120.719 40.8247 120.392 40.7192 120.149 40.5962C119.909 40.4731 119.73 40.3267 119.613 40.1567C119.499 39.9868 119.441 39.7847 119.441 39.5503C119.441 39.1606 119.605 38.8311 119.934 38.5615C120.265 38.292 120.687 38.1572 121.199 38.1572C121.738 38.1572 122.175 38.2964 122.509 38.5747C122.846 38.853 123.014 39.209 123.014 39.6426H122.197C122.197 39.4199 122.102 39.228 121.911 39.0669C121.724 38.9058 121.486 38.8252 121.199 38.8252C120.903 38.8252 120.672 38.8896 120.505 39.0186C120.338 39.1475 120.254 39.3159 120.254 39.5239C120.254 39.7202 120.332 39.8682 120.487 39.9678C120.643 40.0674 120.922 40.1626 121.327 40.2534C121.734 40.3442 122.063 40.4526 122.315 40.5786C122.567 40.7046 122.753 40.8569 122.874 41.0356C122.997 41.2114 123.058 41.4268 123.058 41.6816C123.058 42.1064 122.888 42.4478 122.548 42.7056C122.208 42.9604 121.768 43.0879 121.226 43.0879C120.845 43.0879 120.508 43.0205 120.215 42.8857C119.922 42.751 119.692 42.5635 119.525 42.3232C119.361 42.0801 119.279 41.8179 119.279 41.5366H120.092C120.106 41.8091 120.215 42.0259 120.417 42.187C120.622 42.3452 120.892 42.4243 121.226 42.4243C121.533 42.4243 121.779 42.3628 121.964 42.2397C122.151 42.1138 122.245 41.9468 122.245 41.7388ZM127.114 38.2451L127.136 38.7725C127.485 38.3623 127.955 38.1572 128.547 38.1572C129.212 38.1572 129.665 38.4121 129.905 38.9219C130.063 38.6934 130.268 38.5088 130.52 38.3682C130.775 38.2275 131.075 38.1572 131.421 38.1572C132.464 38.1572 132.994 38.7095 133.012 39.814V43H132.199V39.8623C132.199 39.5225 132.121 39.269 131.966 39.1021C131.811 38.9321 131.55 38.8472 131.184 38.8472C130.882 38.8472 130.631 38.938 130.432 39.1196C130.233 39.2983 130.117 39.54 130.085 39.8447V43H129.268V39.8843C129.268 39.1929 128.929 38.8472 128.252 38.8472C127.719 38.8472 127.354 39.0742 127.158 39.5283V43H126.345V38.2451H127.114ZM136.215 43.0879C135.571 43.0879 135.046 42.877 134.642 42.4551C134.238 42.0303 134.036 41.4634 134.036 40.7544V40.605C134.036 40.1333 134.125 39.7129 134.304 39.3438C134.485 38.9717 134.737 38.6816 135.06 38.4736C135.385 38.2627 135.736 38.1572 136.114 38.1572C136.732 38.1572 137.213 38.3608 137.556 38.7681C137.898 39.1753 138.07 39.7583 138.07 40.5171V40.8555H134.849C134.86 41.3242 134.997 41.7036 135.257 41.9937C135.521 42.2808 135.855 42.4243 136.259 42.4243C136.546 42.4243 136.79 42.3657 136.989 42.2485C137.188 42.1313 137.362 41.9761 137.512 41.7827L138.008 42.1694C137.61 42.7817 137.012 43.0879 136.215 43.0879ZM136.114 38.8252C135.786 38.8252 135.511 38.9453 135.288 39.1855C135.065 39.4229 134.928 39.7568 134.875 40.1875H137.257V40.126C137.233 39.7129 137.122 39.3936 136.923 39.168C136.724 38.9395 136.454 38.8252 136.114 38.8252ZM141.95 43C141.903 42.9062 141.865 42.7393 141.836 42.499C141.458 42.8916 141.007 43.0879 140.482 43.0879C140.014 43.0879 139.628 42.9561 139.327 42.6924C139.028 42.4258 138.878 42.0889 138.878 41.6816C138.878 41.1865 139.066 40.8027 139.441 40.5303C139.819 40.2549 140.349 40.1172 141.032 40.1172H141.823V39.7437C141.823 39.4595 141.738 39.2339 141.568 39.0669C141.398 38.897 141.147 38.812 140.816 38.812C140.526 38.812 140.283 38.8853 140.087 39.0317C139.891 39.1782 139.792 39.3555 139.792 39.5635H138.975C138.975 39.3262 139.059 39.0977 139.226 38.8779C139.396 38.6553 139.624 38.4795 139.911 38.3506C140.201 38.2217 140.519 38.1572 140.865 38.1572C141.413 38.1572 141.842 38.2949 142.152 38.5703C142.463 38.8428 142.624 39.2192 142.636 39.6997V41.8882C142.636 42.3247 142.691 42.6719 142.803 42.9297V43H141.95ZM140.601 42.3804C140.856 42.3804 141.098 42.3145 141.326 42.1826C141.555 42.0508 141.72 41.8794 141.823 41.6685V40.6929H141.186C140.189 40.6929 139.691 40.9844 139.691 41.5674C139.691 41.8223 139.776 42.0215 139.946 42.165C140.116 42.3086 140.334 42.3804 140.601 42.3804ZM144.793 43H143.98V36.25H144.793V43ZM149.434 37.0938V38.2451H150.322V38.8735H149.434V41.8223C149.434 42.0127 149.474 42.1562 149.553 42.2529C149.632 42.3467 149.767 42.3936 149.957 42.3936C150.051 42.3936 150.18 42.376 150.344 42.3408V43C150.13 43.0586 149.922 43.0879 149.72 43.0879C149.356 43.0879 149.083 42.978 148.898 42.7583C148.713 42.5386 148.621 42.2266 148.621 41.8223V38.8735H147.755V38.2451H148.621V37.0938H149.434ZM150.972 40.5786C150.972 40.1128 151.063 39.6938 151.245 39.3218C151.429 38.9497 151.684 38.6626 152.009 38.4604C152.337 38.2583 152.711 38.1572 153.13 38.1572C153.777 38.1572 154.3 38.3813 154.699 38.8296C155.1 39.2778 155.301 39.874 155.301 40.6182V40.6753C155.301 41.1382 155.211 41.5542 155.033 41.9233C154.857 42.2896 154.604 42.5752 154.272 42.7803C153.944 42.9854 153.566 43.0879 153.139 43.0879C152.494 43.0879 151.971 42.8638 151.57 42.4155C151.171 41.9673 150.972 41.374 150.972 40.6357V40.5786ZM151.79 40.6753C151.79 41.2026 151.911 41.626 152.154 41.9453C152.4 42.2646 152.729 42.4243 153.139 42.4243C153.552 42.4243 153.88 42.2632 154.123 41.9409C154.366 41.6157 154.488 41.1616 154.488 40.5786C154.488 40.0571 154.363 39.6353 154.114 39.313C153.868 38.9878 153.54 38.8252 153.13 38.8252C152.729 38.8252 152.405 38.9849 152.159 39.3042C151.913 39.6235 151.79 40.0806 151.79 40.6753ZM156.127 40.583C156.127 39.8418 156.298 39.2529 156.641 38.8164C156.984 38.377 157.438 38.1572 158.003 38.1572C158.583 38.1572 159.036 38.3623 159.361 38.7725L159.401 38.2451H160.144V42.8857C160.144 43.501 159.96 43.9858 159.594 44.3403C159.231 44.6948 158.742 44.8721 158.126 44.8721C157.784 44.8721 157.448 44.7988 157.12 44.6523C156.792 44.5059 156.542 44.3052 156.369 44.0503L156.791 43.5625C157.139 43.9932 157.565 44.2085 158.069 44.2085C158.465 44.2085 158.772 44.0972 158.992 43.8745C159.215 43.6519 159.326 43.3384 159.326 42.9341V42.5254C159.001 42.9004 158.557 43.0879 157.995 43.0879C157.438 43.0879 156.987 42.8638 156.641 42.4155C156.298 41.9673 156.127 41.3564 156.127 40.583ZM156.944 40.6753C156.944 41.2114 157.054 41.6333 157.274 41.9409C157.494 42.2456 157.801 42.3979 158.197 42.3979C158.709 42.3979 159.086 42.165 159.326 41.6992V39.5283C159.077 39.0742 158.704 38.8472 158.206 38.8472C157.81 38.8472 157.501 39.001 157.278 39.3086C157.056 39.6162 156.944 40.0718 156.944 40.6753ZM163.347 43.0879C162.703 43.0879 162.178 42.877 161.774 42.4551C161.37 42.0303 161.167 41.4634 161.167 40.7544V40.605C161.167 40.1333 161.257 39.7129 161.436 39.3438C161.617 38.9717 161.869 38.6816 162.191 38.4736C162.517 38.2627 162.868 38.1572 163.246 38.1572C163.864 38.1572 164.345 38.3608 164.688 38.7681C165.03 39.1753 165.202 39.7583 165.202 40.5171V40.8555H161.98C161.992 41.3242 162.128 41.7036 162.389 41.9937C162.653 42.2808 162.987 42.4243 163.391 42.4243C163.678 42.4243 163.921 42.3657 164.121 42.2485C164.32 42.1313 164.494 41.9761 164.644 41.7827L165.14 42.1694C164.742 42.7817 164.144 43.0879 163.347 43.0879ZM163.246 38.8252C162.918 38.8252 162.643 38.9453 162.42 39.1855C162.197 39.4229 162.06 39.7568 162.007 40.1875H164.389V40.126C164.365 39.7129 164.254 39.3936 164.055 39.168C163.855 38.9395 163.586 38.8252 163.246 38.8252ZM167.25 37.0938V38.2451H168.137V38.8735H167.25V41.8223C167.25 42.0127 167.289 42.1562 167.368 42.2529C167.447 42.3467 167.582 42.3936 167.772 42.3936C167.866 42.3936 167.995 42.376 168.159 42.3408V43C167.945 43.0586 167.737 43.0879 167.535 43.0879C167.172 43.0879 166.898 42.978 166.713 42.7583C166.529 42.5386 166.437 42.2266 166.437 41.8223V38.8735H165.571V38.2451H166.437V37.0938H167.25ZM169.904 38.8208C170.264 38.3784 170.733 38.1572 171.31 38.1572C172.315 38.1572 172.822 38.7241 172.831 39.8579V43H172.018V39.8535C172.015 39.5107 171.936 39.2573 171.78 39.0933C171.628 38.9292 171.389 38.8472 171.064 38.8472C170.8 38.8472 170.569 38.9175 170.37 39.0581C170.17 39.1987 170.015 39.3833 169.904 39.6118V43H169.091V36.25H169.904V38.8208ZM176.021 43.0879C175.376 43.0879 174.852 42.877 174.448 42.4551C174.043 42.0303 173.841 41.4634 173.841 40.7544V40.605C173.841 40.1333 173.931 39.7129 174.109 39.3438C174.291 38.9717 174.543 38.6816 174.865 38.4736C175.19 38.2627 175.542 38.1572 175.92 38.1572C176.538 38.1572 177.019 38.3608 177.361 38.7681C177.704 39.1753 177.875 39.7583 177.875 40.5171V40.8555H174.654C174.666 41.3242 174.802 41.7036 175.063 41.9937C175.327 42.2808 175.661 42.4243 176.065 42.4243C176.352 42.4243 176.595 42.3657 176.794 42.2485C176.994 42.1313 177.168 41.9761 177.317 41.7827L177.814 42.1694C177.416 42.7817 176.818 43.0879 176.021 43.0879ZM175.92 38.8252C175.592 38.8252 175.316 38.9453 175.094 39.1855C174.871 39.4229 174.733 39.7568 174.681 40.1875H177.062V40.126C177.039 39.7129 176.928 39.3936 176.729 39.168C176.529 38.9395 176.26 38.8252 175.92 38.8252ZM181.119 38.9746C180.996 38.9541 180.862 38.9438 180.719 38.9438C180.186 38.9438 179.824 39.1709 179.633 39.625V43H178.82V38.2451H179.611L179.625 38.7944C179.891 38.3696 180.269 38.1572 180.758 38.1572C180.917 38.1572 181.037 38.1777 181.119 38.2188V38.9746Z" fill="#0A3F60"/>
<path fill-rule="evenodd" clip-rule="evenodd" d="M17 0C11.4772 0 7 4.47715 7 10V46C7 51.5228 11.4772 56 17 56H41.1775L50.3084 82.9556L69.1053 56H195C200.523 56 205 51.5229 205 46V10C205 4.47715 200.523 0 195 0H17Z" fill="white"/>
</svg>
